<?xml version="1.0" encoding="UTF-8"?>
<svg width="124px" height="124px" viewBox="0 0 124 124" version="1.1" xmlns="http://www.w3.org/2000/svg" xmlns:xlink="http://www.w3.org/1999/xlink">
    <!-- Generator: Sketch 57.1 (83088) - https://sketch.com -->
    <title>形状</title>
    <desc>Created with Sketch.</desc>
    <g id="页面1" stroke="none" stroke-width="1" fill="none" fill-rule="evenodd">
        <g id="2-充值成功备份" transform="translate(-313.000000, -244.000000)" fill="#FF6969" fill-rule="nonzero">
            <g id="编组-2" transform="translate(0.000000, 148.000000)">
                <g id="编组-3" transform="translate(282.000000, 96.000000)">
                    <g id="成功" transform="translate(31.000000, 0.000000)">
                        <path d="M62.0000749,52.7000613 L44.7433477,35.4227483 L35.4330076,44.7227591 L52.6897347,62.0000721 L35.4434217,79.2567993 L44.7434325,88.5671394 L62.0001596,71.3104123 L79.2568867,88.5671394 L88.5672269,79.2671286 L71.3104998,62.0001085 L88.5672269,44.7433814 L79.267216,35.4330412 L62.0001959,52.6897683 L62.0000749,52.7000613 Z M62.0000749,124.000144 L62.0000721,124.000144 C27.7583526,124.000144 7.81597009e-14,96.2417917 7.81597009e-14,62.0000721 C7.81597009e-14,27.7583526 27.7583526,-2.06057393e-13 62.0000721,-2.06057393e-13 L62.0000694,-2.06057393e-13 C96.241789,-2.06057393e-13 124.000142,27.7583526 124.000142,62.0000721 C124.000142,96.2417917 96.241789,124.000144 62.0000694,124.000144 L62.0000749,124.000144 Z" id="形状"></path>
                    </g>
                </g>
            </g>
        </g>
    </g>
</svg>