<?xml version="1.0" encoding="UTF-8"?>
<svg width="48px" height="36px" viewBox="0 0 48 36" version="1.1" xmlns="http://www.w3.org/2000/svg" xmlns:xlink="http://www.w3.org/1999/xlink">
    <!-- Generator: Sketch 57.1 (83088) - https://sketch.com -->
    <title>形状结合</title>
    <desc>Created with Sketch.</desc>
    <g id="页面1" stroke="none" stroke-width="1" fill="none" fill-rule="evenodd">
        <g id="2-充值2" transform="translate(-601.000000, -1553.000000)" fill="#010101" fill-rule="nonzero">
            <g id="编组-4" transform="translate(601.000000, 1553.000000)">
                <path d="M41.6384091,0.5 C44.6759753,0.5 47.1384091,2.96243388 47.1384091,6 L47.1384091,30 C47.1384091,33.0375661 44.6759753,35.5 41.6384091,35.5 L18.1867718,35.5 C16.8132555,35.5 15.4894455,34.9860765 14.4757125,34.0593126 C4.86902333,25.2767895 0.5,20.5206271 0.5,18.2692515 C0.5,16.0353268 4.86028572,11.1275946 14.4420274,2.01464836 C15.4644274,1.04226348 16.821432,0.5 18.2324026,0.5 L41.6384091,0.5 Z M41.6384091,3.5 L18.2324026,3.5 C17.5910531,3.5 16.974235,3.74648253 16.5095065,4.18847684 C8.12356016,12.1641331 3.5,17.3681946 3.5,18.2692515 C3.5,19.1542588 8.12285677,24.1867469 16.4999278,31.8451417 C16.9607156,32.2663982 17.5624481,32.5 18.1867732,32.5 L41.6384091,32.5 C43.019121,32.5 44.1384091,31.3807119 44.1384091,30 L44.1384091,6 C44.1384091,4.61928813 43.019121,3.5 41.6384091,3.5 Z M35.7021977,11.6281556 C36.2513725,12.1773304 36.2856959,13.0463928 35.805168,13.6355536 L35.7021977,13.749476 L31.451,18 L35.7021977,22.250524 C36.2513725,22.7996988 36.2856959,23.6687612 35.805168,24.257922 L35.7021977,24.3718444 C35.1164113,24.9576308 34.1666638,24.9576308 33.5808774,24.3718444 L33.5808774,24.3718444 L29.33,20.121 L25.0798293,24.3718444 C24.4940428,24.9576308 23.5442954,24.9576308 22.9585089,24.3718444 C22.4093341,23.8226696 22.3750107,22.9536072 22.8555387,22.3644464 L22.9585089,22.250524 L27.209,18 L22.9585089,13.749476 C22.4093341,13.2003012 22.3750107,12.3312388 22.8555387,11.742078 L22.9585089,11.6281556 C23.5442954,11.0423692 24.4940428,11.0423692 25.0798293,11.6281556 L25.0798293,11.6281556 L29.33,15.878 L33.5808774,11.6281556 C34.1666638,11.0423692 35.1164113,11.0423692 35.7021977,11.6281556 Z" id="形状结合"></path>
            </g>
        </g>
    </g>
</svg>