<?xml version="1.0" encoding="UTF-8"?>
<svg width="38px" height="38px" viewBox="0 0 38 38" version="1.1" xmlns="http://www.w3.org/2000/svg" xmlns:xlink="http://www.w3.org/1999/xlink">
    <!-- Generator: Sketch 57.1 (83088) - https://sketch.com -->
    <title>产品介绍@2x</title>
    <desc>Created with Sketch.</desc>
    <defs>
        <linearGradient x1="25.0442149%" y1="0%" x2="25.0442149%" y2="100%" id="linearGradient-1">
            <stop stop-color="#FFB330" offset="0%"></stop>
            <stop stop-color="#FF8D38" offset="100%"></stop>
        </linearGradient>
    </defs>
    <g id="页面-1" stroke="none" stroke-width="1" fill="none" fill-rule="evenodd">
        <g id="立即申请" transform="translate(-30.000000, -550.000000)" fill="url(#linearGradient-1)">
            <g id="编组" transform="translate(0.000000, 550.000000)">
                <g id="title" transform="translate(30.000000, 0.000000)">
                    <g id="产品-">
                        <path d="M35.5413378,37.1274881 L22.3989436,37.1274881 C21.4925683,37.1274881 20.812789,36.4477088 20.812789,35.5413335 L20.812789,22.3989393 C20.5861956,21.2659724 21.2659767,20.5861931 22.3989436,20.5861931 L35.5413378,20.5861931 C36.4477131,20.5861931 37.1274924,21.2659724 37.1274924,22.3989393 L37.1274924,35.5413335 C37.1274924,36.4477088 36.4477131,37.1274881 35.5413378,37.1274881 Z M29.1967367,18.3202592 C28.743549,18.7734468 27.8371781,18.7734468 27.3839904,18.3202592 L19.6798135,10.6160823 C19.2266259,10.1628946 19.2266259,9.25652364 19.6798135,8.803336 L27.157373,1.32577652 C27.6105606,0.872588881 28.5169316,0.872588881 28.9701192,1.32577652 L36.4476787,8.803336 C36.9008664,9.25652364 36.9008664,10.1628946 36.4476787,10.6160823 L29.1966937,18.3202592 L29.1967367,18.3202592 Z M15.6011506,37.1274881 L2.45875635,37.1274881 C1.55238108,37.1274881 0.872601772,36.4477088 0.872601772,35.5413335 L0.872601772,22.3989393 C0.872601772,21.2659724 1.55238108,20.5861931 2.45875635,20.5861931 L15.6011506,20.5861931 C16.7341175,20.5861931 17.4138968,21.2659724 17.4138968,22.3989393 L17.4138968,35.5413335 C17.4138968,36.4477088 16.7341175,37.1274881 15.6011506,37.1274881 Z M15.6011506,17.4138753 L2.45875635,17.4138753 C1.55238108,17.4138753 0.872601772,16.734096 0.872601772,15.6011291 L0.872601772,2.45873487 C0.872601772,1.55235959 1.55238108,0.872580288 2.45875635,0.872580288 L15.6011506,0.872580288 C16.7341175,0.872580288 17.4138968,1.55235959 17.4138968,2.45873487 L17.4138968,15.6011291 C17.4138968,16.734096 16.7341175,17.4138753 15.6011506,17.4138753 Z" id="产品介绍"></path>
                    </g>
                </g>
            </g>
        </g>
    </g>
</svg>