<?xml version="1.0" encoding="UTF-8"?>
<svg width="36px" height="36px" viewBox="0 0 36 36" version="1.1" xmlns="http://www.w3.org/2000/svg" xmlns:xlink="http://www.w3.org/1999/xlink">
    <!-- Generator: Sketch 57.1 (83088) - https://sketch.com -->
    <title>产品规格</title>
    <desc>Created with Sketch.</desc>
    <defs>
        <linearGradient x1="25.0442149%" y1="0%" x2="25.0442149%" y2="100%" id="linearGradient-1">
            <stop stop-color="#FFB330" offset="0%"></stop>
            <stop stop-color="#FF8D38" offset="100%"></stop>
        </linearGradient>
    </defs>
    <g id="页面-1" stroke="none" stroke-width="1" fill="none" fill-rule="evenodd">
        <g id="1.5_立即申请" transform="translate(-31.000000, -851.000000)" fill="url(#linearGradient-1)">
            <g id="编组备份" transform="translate(0.000000, 851.000000)">
                <g id="title" transform="translate(31.000000, 0.000000)">
                    <g id="产品-">
                        <g id="流程">
                            <g id="产品规格">
                                <path d="M17.6062705,15.6937683 C16.8187696,15.6937683 15.9750186,15.5250181 15.3000178,15.2437677 L2.58750301,9.56251113 C1.6312519,9.2812608 1.12500131,8.71876015 1.12500131,7.98750929 C1.12500131,7.25625844 1.6312519,6.69375779 2.41875281,6.24375727 L15.3000178,0.450000524 C15.9750186,0.168750196 16.9312697,1.56319402e-13 17.7750207,1.56319402e-13 C18.6187717,1.56319402e-13 19.4062726,0.168750196 20.0812734,0.450000524 L32.7937882,5.96250694 C33.5812891,6.41250746 34.0875397,6.97500812 34.0875397,7.70625897 C34.0875397,8.43750982 33.5812891,9.00001047 32.7937882,9.450011 L19.8562731,15.2437677 C19.4062726,15.5250181 18.3937714,15.6937683 17.6062705,15.6937683 Z M14.9625174,36.0000419 C14.4562668,36.0000419 14.1750165,35.8312917 13.6687659,35.7187916 L2.41875281,30.4875355 C1.12500131,29.9250348 3.62376795e-13,28.5750333 3.62376795e-13,27.5625321 L3.62376795e-13,13.2187654 C3.62376795e-13,12.2062642 0.787500916,11.4750134 1.96875229,11.4750134 C2.30625268,11.4750134 2.75625321,11.6437635 3.0937536,11.7562637 L14.5125169,16.9875198 C15.8062684,17.5500204 16.9312697,18.900022 16.9312697,19.9125232 L16.9312697,34.1437897 C16.9312697,35.268791 15.9750186,36.0000419 14.9625174,36.0000419 Z M20.9812744,36.0000419 C19.8562731,36.0000419 19.0125221,35.268791 19.0125221,34.2562899 L19.0125221,20.0250233 C19.0125221,18.8437719 19.9687732,17.7187706 21.4312749,17.1000199 L32.8500382,11.7562637 C33.1875386,11.5875135 33.6375391,11.4750134 33.9750395,11.4750134 C35.1000408,11.4750134 35.9437918,12.2062642 35.9437918,13.2187654 L35.9437918,27.4500319 C35.9437918,28.6312833 34.9875407,29.7562846 33.525039,30.3750353 L22.1062757,35.7187916 C21.8250254,35.8875418 21.4312749,36.0000419 20.9812744,36.0000419 Z" id="形状"></path>
                            </g>
                        </g>
                    </g>
                </g>
            </g>
        </g>
    </g>
</svg>