<?xml version="1.0" encoding="UTF-8"?>
<svg width="36px" height="27px" viewBox="0 0 36 27" version="1.1" xmlns="http://www.w3.org/2000/svg" xmlns:xlink="http://www.w3.org/1999/xlink">
    <!-- Generator: Sketch 57.1 (83088) - https://sketch.com -->
    <title>申请流程@2x</title>
    <desc>Created with Sketch.</desc>
    <defs>
        <linearGradient x1="25.0442149%" y1="0%" x2="25.0442149%" y2="100%" id="linearGradient-1">
            <stop stop-color="#FFB330" offset="0%"></stop>
            <stop stop-color="#FF8D38" offset="100%"></stop>
        </linearGradient>
    </defs>
    <g id="页面-1" stroke="none" stroke-width="1" fill="none" fill-rule="evenodd">
        <g id="立即申请" transform="translate(-31.000000, -834.000000)" fill="url(#linearGradient-1)">
            <g id="编组备份" transform="translate(0.000000, 830.000000)">
                <g id="title" transform="translate(31.000000, 0.000000)">
                    <g id="产品-" transform="translate(0.000000, 4.000000)">
                        <g id="流程">
                            <path d="M0,23.6267711 L0,23.6267717 C0,25.4897539 1.50002227,27 3.35039063,27 C5.20075898,27 6.70078125,25.4897539 6.70078125,23.6267717 L6.70078125,23.6267717 C6.70078125,21.7637894 5.20075898,20.2535433 3.35039063,20.2535433 C1.50002227,20.2535433 0,21.7637894 0,23.6267717 L0,23.6267711 Z M13.0816406,6.09803099 L32.9730469,6.09803099 C34.6464844,6.09803099 36,4.73385776 36,3.05078689 C36,1.36771603 34.6464844,0.00354279774 32.9730469,0.00354279774 L13.0816406,0.00354279774 C11.4082031,0.00354279774 10.0546875,1.36771603 10.0546875,3.05078689 C10.0546875,4.73031445 11.4082031,6.09803099 13.0816406,6.09803099 Z M0,13.4999995 L0,13.5 C0,15.3629823 1.50002227,16.8732283 3.35039063,16.8732283 C5.20075898,16.8732283 6.70078125,15.3629823 6.70078125,13.5 L6.70078125,13.5 C6.70078125,11.6370177 5.20075898,10.1267717 3.35039063,10.1267717 C1.50002227,10.1267717 0,11.6370177 0,13.5 L0,13.4999995 Z M32.9730469,10.4527554 L13.0816406,10.4527554 C11.4082031,10.4527554 10.0546875,11.8169286 10.0546875,13.4999995 C10.0546875,15.1830704 11.4082031,16.5472436 13.0816406,16.5472436 L32.9730469,16.5472436 C34.6464844,16.5472436 36,15.1830704 36,13.4999995 C36,11.8169286 34.6464844,10.4527554 32.9730469,10.4527554 Z M32.9730469,20.901968 L13.0816406,20.901968 C11.4082031,20.901968 10.0546875,22.2661412 10.0546875,23.9492121 C10.0546875,25.632283 11.4082031,26.9964562 13.0816406,26.9964562 L32.9730469,26.9964562 C34.6464844,26.9964562 36,25.632283 36,23.9492121 C36,22.2661412 34.6464844,20.901968 32.9730469,20.901968 Z M0,3.37322784 L0,3.37322835 C0,5.23621063 1.50002227,6.74645669 3.35039063,6.74645669 C5.20075898,6.74645669 6.70078125,5.23621063 6.70078125,3.37322835 L6.70078125,3.37322835 C6.70078125,1.51024606 5.20075898,0 3.35039063,0 C1.50002227,0 0,1.51024606 0,3.37322835 L0,3.37322784 Z" id="申请流程"></path>
                        </g>
                    </g>
                </g>
            </g>
        </g>
    </g>
</svg>