<?xml version="1.0" encoding="UTF-8"?>
<svg width="30px" height="30px" viewBox="0 0 30 30" version="1.1" xmlns="http://www.w3.org/2000/svg" xmlns:xlink="http://www.w3.org/1999/xlink">
    <!-- Generator: Sketch 57.1 (83088) - https://sketch.com -->
    <title>形状</title>
    <desc>Created with Sketch.</desc>
    <g id="页面-1" stroke="none" stroke-width="1" fill="none" fill-rule="evenodd">
        <g id="我的企业" transform="translate(-60.000000, -313.000000)" fill="#486AAF" fill-rule="nonzero">
            <g id="编组-2备份" transform="translate(20.000000, 158.000000)">
                <g id="编组" transform="translate(40.000000, 40.000000)">
                    <g id="区块链" transform="translate(0.000000, 115.000000)">
                        <path d="M15.0015702,30.0000882 L15.0015702,30.0000882 C14.6485278,30.0005816 14.3015762,29.908074 13.9956696,29.731832 L6.20588514,25.2332037 L6.11574675,25.3133881 L6.11574682,25.3133881 C4.74336534,26.5214491 2.65150451,26.3882389 1.44344646,25.0158575 C0.235385484,23.643476 0.3685956,21.5516152 1.74097708,20.3435571 C2.07000774,20.0539235 2.45328162,19.8325194 2.86855945,19.6921872 L2.98220011,19.6534775 L2.98220011,10.6562209 L2.98220009,10.6562256 C2.98405912,9.93669057 3.36804332,9.27232163 3.99058506,8.9115214 L11.8926353,4.34931883 L11.8561375,4.22212982 L11.8561374,4.22212942 C11.7707524,3.92644451 11.7273783,3.62021857 11.7272893,3.31245161 L11.7272893,3.31246536 C11.728182,1.48381674 13.2113183,0.00211970786 15.0399787,0.00302749475 C16.8686273,0.00392064745 18.3503243,1.48705698 18.3494161,3.31571731 C18.3492603,3.63481925 18.3029767,3.95222196 18.2120013,4.25808169 L18.1738447,4.38527071 L26.0131116,8.91155527 L26.0131117,8.91155531 C26.6348361,9.27305866 27.0183062,9.93707603 27.0206705,10.6562566 L27.0206705,19.6535131 L27.1343111,19.6922228 L27.1343108,19.6922227 C28.8656556,20.2788845 29.7936059,22.158 29.2069441,23.8893565 C28.6202823,25.6207013 26.7411668,26.5486516 25.0098103,25.9619898 C24.5964807,25.8219341 24.2149266,25.6015235 23.8871088,25.3134412 L23.7969704,25.2332567 L16.0094125,29.731885 L16.0094126,29.731885 C15.702211,29.9066873 15.355028,29.9990792 15.0015784,30.0000882 L15.0015702,30.0000882 Z M7.15843606,22.0562366 L7.18249138,22.1723657 L7.18249132,22.1723655 C7.26912404,22.6021453 7.26912404,23.0448919 7.18249143,23.4746717 L7.15843606,23.5908008 L15.0032402,28.1225932 L22.8477513,23.5990918 L22.8239724,23.4801977 L22.8239724,23.4801976 C22.7369662,23.0513876 22.7369662,22.6094671 22.8239724,22.1806571 L22.8480278,22.0617629 L20.0766896,20.4608392 L15.4799166,23.1069243 L15.4799166,23.1069243 C15.3352406,23.1896907 15.1715696,23.2335142 15.0048936,23.2341133 L15.0048936,23.2341133 C14.8390467,23.2345928 14.6759567,23.1916996 14.5318042,23.1096893 L9.92949411,20.4525446 L7.15843606,22.0562366 Z M26.0709092,21.4092319 L26.0709092,21.4092319 C25.288752,21.4111408 24.6562376,22.0467503 24.6581435,22.8289074 C24.6600566,23.6110646 25.2956661,24.243579 26.0778233,24.2416731 C26.8599804,24.23976 27.4924948,23.6041505 27.490589,22.8219934 C27.4886824,22.0425344 26.8572792,21.4111333 26.0778233,21.4092319 L26.0709108,21.4092319 L26.0709092,21.4092319 Z M3.93088348,21.4092319 L3.93088343,21.4092319 C3.14872627,21.4110644 2.51615034,22.0466126 2.51797743,22.8287697 C2.51981388,23.6109269 3.15536202,24.2435028 3.93751918,24.2416757 C4.71967634,24.2398393 5.35225227,23.6042911 5.35042518,22.822134 C5.34859479,22.0425696 4.71708649,21.4110601 3.93751918,21.4092319 L3.93088325,21.4092319 L3.93088348,21.4092319 Z M10.8778838,14.0516062 L10.8778838,18.8156645 L15.0026835,21.1990764 L19.1271902,18.8156645 L19.1271902,14.0516062 L15.0026835,11.6681942 L10.8778838,14.0516062 Z M16.9782619,5.99721206 L16.978262,5.99721201 C16.7006911,6.20016693 16.3927281,6.3578804 16.0658186,6.46449478 L15.9496894,6.50043945 L15.9496894,10.028549 L20.5448217,12.6801654 L20.5448218,12.6801654 C20.8425399,12.8473881 21.0264161,13.162665 21.0253761,13.5041293 L21.0253761,18.8156589 L23.7978217,20.4165826 L23.88796,20.3363982 L23.8879599,20.3363983 C24.2157923,20.0493489 24.5968367,19.8295149 25.0094368,19.6893936 L25.123354,19.6506839 L25.123354,10.5870698 L17.065913,5.9336074 L16.9782619,5.99721206 Z M4.88174396,10.5870709 L4.88174396,19.6479018 L4.99566118,19.6866115 L4.99566123,19.6866115 C5.40870077,19.8255782 5.7898682,20.0455367 6.1168598,20.3336162 L6.20699818,20.4138006 L8.97971918,18.8128769 L8.97971918,13.5013473 L8.97971918,13.501347 C8.9808608,13.163873 9.16094224,12.8523355 9.4528086,12.6829144 L14.0551186,10.0257697 L14.0551186,6.47829487 L13.9428605,6.43682012 L13.9428607,6.43682018 C13.629917,6.32901575 13.3356207,6.17324057 13.0705101,5.97506866 L12.9823073,5.90870911 L4.88174396,10.5870709 Z M15.0394511,1.89672703 L15.0394511,1.89672703 C14.256834,1.89627101 13.6220286,2.53033595 13.6215713,3.31295307 C13.6211138,4.0955702 14.2551787,4.73037562 15.0377959,4.7308329 C15.820413,4.73129042 16.4552184,4.09722547 16.4556757,3.31460835 C16.4556757,3.31387133 16.4556757,3.31313431 16.4556757,3.31239729 L16.4556757,3.31238883 C16.4542984,2.53045726 15.820269,1.8971782 15.0383374,1.89672703 L15.0394511,1.89672703 Z" id="形状"></path>
                    </g>
                </g>
            </g>
        </g>
    </g>
</svg>