<?xml version="1.0" encoding="UTF-8"?>
<svg width="32px" height="30px" viewBox="0 0 32 30" version="1.1" xmlns="http://www.w3.org/2000/svg" xmlns:xlink="http://www.w3.org/1999/xlink">
    <!-- Generator: Sketch 57.1 (83088) - https://sketch.com -->
    <title>通知</title>
    <desc>Created with Sketch.</desc>
    <g id="页面-1" stroke="none" stroke-width="1" fill="none" fill-rule="evenodd">
        <g id="首页" transform="translate(-30.000000, -531.000000)" fill="#FA740F" fill-rule="nonzero">
            <g id="公告" transform="translate(0.000000, 498.000000)">
                <g id="通知" transform="translate(30.000000, 33.000000)">
                    <path d="M18.3372351,0.506402335 C17.8587345,0.315002112 17.3472339,0.387602196 16.8951334,0.727502592 L8.1864104,8.37029859 L1.5699027,8.37029859 C0.830701839,8.37029859 0.207001114,8.99399932 0.207001114,9.73320018 L0.207001114,21.3987138 C0.207001114,22.1379146 0.830701839,22.7616153 1.5699027,22.7616153 L8.20951687,22.7616153 L16.9644206,29.4540167 C17.1822209,29.6586169 17.4924212,29.7741171 17.8224216,29.7741171 C17.9841218,29.7741171 18.2019221,29.7741171 18.4428223,29.6553169 C18.8784228,29.4375167 19.1853232,28.9260161 19.1853232,28.4145155 L19.1853232,1.76369735 C19.1853232,1.21259671 18.8454228,0.707696124 18.3372222,0.506395889 L18.3372351,0.506402335 Z M16.4595329,4.78980087 L16.4595329,25.6656123 L9.565812,20.3526061 C9.34801175,20.1480059 9.03781139,20.0325057 8.70781101,20.0325057 L2.99551725,20.0325057 L2.99551725,11.0961018 L8.70781101,11.0961018 C9.00481135,11.0961018 9.29851169,11.0004017 9.57571202,10.8156014 L16.4595329,4.78980087 L16.4595329,4.78980087 Z M26.1945442,15.0099192 C26.1252442,12.2940161 24.8613427,9.82230673 22.7295402,8.22180487 L22.7064402,8.20530485 C22.0959395,7.79940438 21.2775385,7.90170449 20.818838,8.47920517 C20.4129375,9.08970588 20.5152376,9.90480683 21.0663383,10.3470073 C22.53154,11.4591086 23.406041,13.2312107 23.406041,15.0858 C23.406041,16.9569021 22.57774,18.6596977 21.1587384,19.7420925 C20.838638,19.9532927 20.6340378,20.2997931 20.5944377,20.6924936 C20.5548377,21.075294 20.6868378,21.4481945 20.9475381,21.7088948 C21.1521384,21.913495 21.4788388,22.1840953 21.9606393,22.1840953 C22.2906397,22.1840953 22.6008401,22.0685952 22.8186403,21.863995 C24.9669428,20.194193 26.1945442,17.702703 26.1945442,15.0098805 L26.1945442,15.0099192 Z" id="形状"></path>
                    <path d="M25.1121365,4.11661298 C24.8118362,3.92191275 24.4587358,3.86251269 24.1122354,3.94171278 C23.7393349,4.03081288 23.4225346,4.27171316 23.2410344,4.59181353 C23.0397341,4.89541389 22.9737341,5.25511431 23.0562341,5.60821472 C23.1453343,5.98111515 23.3862345,6.29791552 23.7294349,6.49261575 C26.7555385,8.30761786 28.6332277,11.6241217 28.6332277,15.1485194 C28.6332277,18.7389171 26.7786256,21.9762402 23.6436155,23.8176359 C23.0496148,24.2136364 22.8285145,25.0188373 23.1453149,25.645838 C23.3796152,26.1144386 23.9043158,26.3223388 24.3234163,26.3223388 C24.5577166,26.3223388 24.8316169,26.2266387 25.0395171,26.1210386 C28.8774151,23.877036 31.3590245,19.5672439 31.3590245,15.1584194 C31.4250245,10.6110205 29.0325218,6.38040917 25.1121236,4.11661943 L25.1121365,4.11661298 Z" id="路径"></path>
                </g>
            </g>
        </g>
    </g>
</svg>