<?xml version="1.0" encoding="UTF-8"?>
<svg width="29px" height="29px" viewBox="0 0 29 29" version="1.1" xmlns="http://www.w3.org/2000/svg" xmlns:xlink="http://www.w3.org/1999/xlink">
    <!-- Generator: Sketch 57.1 (83088) - https://sketch.com -->
    <title>system-help</title>
    <desc>Created with Sketch.</desc>
    <g id="页面-1" stroke="none" stroke-width="1" fill="none" fill-rule="evenodd">
        <g id="证书详情" transform="translate(-520.000000, -1140.000000)" fill="#999999" fill-rule="nonzero">
            <g id="为什么" transform="translate(520.000000, 1140.000000)">
                <g id="system-help">
                    <path d="M14.4375168,0 C6.4775466,0 0,6.4775466 0,14.4375168 C0,22.397487 6.4775466,28.8750336 14.4375168,28.8750336 C22.397487,28.8750336 28.8750336,22.397487 28.8750336,14.4375168 C28.8750336,6.4775466 22.397487,0 14.4375168,0 Z M14.4375168,26.8125312 C7.61514558,26.8125312 2.0625024,21.259888 2.0625024,14.4375168 C2.0625024,7.61514558 7.61514558,2.0625024 14.4375168,2.0625024 C21.259888,2.0625024 26.8125312,7.61514558 26.8125312,14.4375168 C26.8125312,21.259888 21.259888,26.8125312 14.4375168,26.8125312 Z M13.4062656,19.5937728 L15.468768,19.5937728 L15.468768,21.6562752 L13.4062656,21.6562752 L13.4062656,19.5937728 Z M14.4375168,7.2187584 C12.6618311,7.2187584 11.3856578,7.9760835 10.654114,9.2651475 C10.1674923,10.1223751 9.97735536,11.0827277 9.96768738,12.0205218 L12.0301898,12.0430804 C12.0495257,10.3995238 12.6843898,9.2812608 14.4375168,9.2812608 C15.971503,9.2812608 16.8448438,10.0482539 16.8448438,11.3437632 C16.8448438,11.9754046 16.6095896,12.3653464 15.8587099,13.0872223 C15.791034,13.1516755 15.5171079,13.4127109 15.4462094,13.4803868 C14.0507976,14.8177907 13.4094883,15.961835 13.4094883,17.876095 L15.4719907,17.876095 C15.4719907,16.6224803 15.8458192,15.9553897 16.8738478,14.9692557 C16.938301,14.9080252 17.2154497,14.643767 17.2895709,14.5760912 C18.4078339,13.5029454 18.9105689,12.6682765 18.9105689,11.3469859 C18.9073462,8.8462017 17.0575394,7.2187584 14.4375168,7.2187584 Z" id="形状"></path>
                </g>
            </g>
        </g>
    </g>
</svg>