<?xml version="1.0" encoding="UTF-8"?>
<svg width="462px" height="282px" viewBox="0 0 462 282" version="1.1" xmlns="http://www.w3.org/2000/svg" xmlns:xlink="http://www.w3.org/1999/xlink">
    <!-- Generator: Sketch 55.2 (78181) - https://sketchapp.com -->
    <title>bank_clickUp</title>
    <desc>Created with Sketch.</desc>
    <defs>
        <path d="M231.11672,81 C263.793268,81 290.23344,107.465077 290.23344,140.057282 C290.23344,172.649487 263.793268,199.114564 231.11672,199.114564 C198.440172,199.114564 172,172.700976 172,140.057282 C172,107.413588 198.440172,81 231.11672,81 L231.11672,81 Z" id="path-1"></path>
        <filter x="-13.1%" y="-9.7%" width="126.2%" height="126.2%" filterUnits="objectBoundingBox" id="filter-2">
            <feOffset dx="0" dy="4" in="SourceAlpha" result="shadowOffsetOuter1"></feOffset>
            <feGaussianBlur stdDeviation="4.5" in="shadowOffsetOuter1" result="shadowBlurOuter1"></feGaussianBlur>
            <feColorMatrix values="0 0 0 0 0.917647059   0 0 0 0 0.254901961   0 0 0 0 0.223529412  0 0 0 0.323371941 0" type="matrix" in="shadowBlurOuter1"></feColorMatrix>
        </filter>
    </defs>
    <g id="页面1" stroke="none" stroke-width="1" fill="none" fill-rule="evenodd">
        <g id="银行卡OCR1" transform="translate(-136.000000, -217.000000)">
            <g id="编组-3" transform="translate(30.000000, 158.000000)">
                <g id="bank_clickUp" transform="translate(106.000000, 60.000000)">
                    <path d="M6.91061453,0 L455.089385,0 C458.327374,0 461,2.64738598 461,5.96959585 L461,274.030404 C461,277.300704 458.378771,280 455.089385,280 L6.91061453,280 C3.6726257,280 1,277.352614 1,274.030404 L1,5.96959585 C1,2.69929551 3.62122905,0 6.91061453,0 Z" id="路径" stroke="#D9D9D9" fill="#FBFBFB" fill-rule="nonzero"></path>
                    <path d="M331.851824,172 L432.389555,172 C434.598694,172 436.389555,173.790861 436.389555,176 C436.389555,176.443766 436.315711,176.884439 436.171047,177.303963 L418.929668,227.303963 C418.373346,228.917295 416.854733,230 415.148176,230 L314.610445,230 C312.401306,230 310.610445,228.209139 310.610445,226 C310.610445,225.556234 310.684289,225.115561 310.828953,224.696037 L328.070332,174.696037 C328.626654,173.082705 330.145267,172 331.851824,172 Z" id="矩形" fill="#EDEDED"></path>
                    <rect id="矩形" fill="#EDEDED" x="0" y="58" width="462" height="40"></rect>
                    <rect id="矩形" fill="#EDEDED" x="31" y="131" width="21" height="41"></rect>
                    <rect id="矩形备份" fill="#EDEDED" x="70" y="131" width="21" height="41"></rect>
                    <rect id="矩形备份-2" fill="#EDEDED" x="109" y="131" width="21" height="41"></rect>
                    <g id="路径" opacity="0.900000036" fill-rule="nonzero">
                        <use fill="black" fill-opacity="1" filter="url(#filter-2)" xlink:href="#path-1"></use>
                        <use fill="#FF665F" xlink:href="#path-1"></use>
                    </g>
                    <path d="M252.10004,158.131242 C250.656911,159.572919 249.265323,160.345246 247.255252,160.345246 L214.114841,160.345246 C212.053229,160.396735 210.661641,159.572919 209.218513,158.131242 C207.775385,156.689564 206.95074,155.299375 207.00228,153.291325 L207.00228,132.026584 C206.95074,129.967045 207.775385,128.422391 209.218513,126.980714 C210.661641,125.539036 212.053229,124.869686 214.114841,124.921175 L218.856549,124.921175 L219.423492,122.861636 C219.887355,121.780378 220.660459,120.853585 221.588184,120.184235 C222.56745,119.411908 223.752877,119 224.989844,119 L236.586411,119 C237.823378,119.051488 238.957264,119.463396 239.93653,120.184235 C240.915795,120.853585 241.63736,121.780378 242.152763,122.861636 L242.874327,124.818198 L247.255252,124.921175 C249.316864,124.869686 250.708452,125.539036 252.15158,127.032202 C253.594708,128.47388 254.419353,129.967045 254.367813,132.026584 L254.367813,153.291325 C254.316273,155.299375 253.491628,156.741053 252.10004,158.131242 L252.10004,158.131242 Z M250.759992,132.026584 C250.759992,130.945326 250.244589,130.327465 249.471485,129.606626 C248.69838,128.834299 248.286058,128.47388 247.203712,128.47388 L240.348852,128.47388 L238.751103,124.251825 C238.544942,123.839917 238.2357,123.479497 237.823378,123.222055 C237.462596,122.913124 237.050273,122.758659 236.586411,122.70717 L224.989844,122.70717 C224.525981,122.70717 224.062119,122.913124 223.752877,123.222055 C223.340554,123.479497 222.979772,123.891405 222.773611,124.354801 L221.072781,128.525368 L214.114841,128.525368 C213.032495,128.525368 212.620173,128.885787 211.847068,129.658115 C211.073964,130.430442 210.558561,130.996815 210.558561,132.078073 L210.558561,153.342813 C210.507021,154.424071 211.073964,154.887468 211.847068,155.659795 C212.568632,156.432122 213.032495,156.947007 214.114841,156.895518 L247.255252,156.895518 C248.337598,156.947007 248.74992,156.432122 249.523025,155.659795 C250.296129,154.938956 250.863073,154.424071 250.811532,153.342813 L250.811532,132.026584 L250.759992,132.026584 Z M230.659276,152.10709 C224.783683,152.10709 219.990435,147.37015 219.990435,141.448975 C219.990435,135.579289 224.732142,130.790861 230.659276,130.790861 C236.586411,130.790861 241.328118,135.527801 241.328118,141.448975 C241.328118,147.37015 236.53487,152.10709 230.659276,152.10709 Z M230.659276,134.395054 C226.742214,134.395054 223.546716,137.58734 223.546716,141.500464 C223.546716,145.413588 226.742214,148.605874 230.659276,148.605874 C234.576339,148.605874 237.771837,145.413588 237.771837,141.500464 C237.771837,137.535851 234.576339,134.395054 230.659276,134.395054 L230.659276,134.395054 Z" id="形状" fill="#FFFFFF" fill-rule="nonzero"></path>
                </g>
            </g>
        </g>
    </g>
</svg>