<?xml version="1.0" encoding="UTF-8"?>
<svg width="399px" height="822px" viewBox="0 0 399 822" version="1.1" xmlns="http://www.w3.org/2000/svg" xmlns:xlink="http://www.w3.org/1999/xlink">
    <!-- Generator: Sketch 55.2 (78181) - https://sketchapp.com -->
    <title>形状结合</title>
    <desc>Created with Sketch.</desc>
    <g id="页面1" stroke="none" stroke-width="1" fill="none" fill-rule="evenodd">
        <g id="SZCA数字证书申请5" transform="translate(-255.000000, -465.000000)" fill="#CCCCCC" fill-rule="nonzero">
            <g id="编组-2" transform="translate(255.000000, 465.000000)">
                <path d="M236.75,160.237671 L234.462915,167.094285 C227.220442,184.045445 215.785131,187.283258 200.156638,176.807823 C199.584864,181.759847 196.630742,187.23556 191.294183,193.235128 C185.957625,199.234696 182.145854,197.853864 179.858758,189.09259 C182.717628,180.140854 181.52645,173.950917 176.285187,170.522593 C171.043924,167.094268 164.897445,163.951685 157.845563,161.094748 C157.464381,173.284346 157.273792,187.330742 157.273792,203.234358 C157.273792,219.137973 154.414964,233.660519 148.697223,246.802429 C145.647761,255.944627 140.883048,259.610975 134.402941,257.801581 C127.922834,255.992188 127.446363,250.802163 132.973513,242.231352 C136.213566,238.612566 137.64298,233.565386 137.261797,227.089662 C136.880615,220.613938 137.642969,217.757044 139.548883,218.518894 C146.028989,188.425824 145.123694,158.523666 136.832969,128.811521 C128.542244,99.0993767 119.918113,70.4352057 110.960319,42.8181482 C107.529674,35.390112 106.195554,26.7241998 106.95792,16.8201516 C107.720285,6.91610344 111.532056,1.39277479 118.393345,0.25 C121.82399,28.05752 128.875765,56.6264612 139.548883,85.9576809 C141.645388,83.1007439 142.645977,78.1011792 142.550682,70.9588367 C142.455386,63.8164943 142.21715,57.3884825 141.835968,51.6746085 C145.457204,68.0543806 148.554267,86.2432732 151.127251,106.241832 C153.700235,126.240391 163.277308,141.001011 179.858758,150.524134 C181.002306,144.81026 180.573482,137.763254 178.572272,129.382906 C176.571063,121.002557 172.616351,115.09831 166.708018,111.669985 C159.274954,111.860448 156.082597,108.955939 157.130849,102.956371 C158.179102,96.9568033 160.609106,95.8616605 164.420933,99.6709098 C162.705611,94.5284233 161.276197,88.0527966 160.132649,80.2438355 C158.9891,72.4348744 163.182048,69.1018313 172.711617,70.2446061 L175.570473,94.2427567 C183.003537,99.0043184 189.292958,98.0996352 194.438925,91.5286802 C199.584893,84.9577251 204.826077,79.672471 210.162636,75.6727592 C210.543818,80.6247833 210.496171,87.6717888 210.019693,96.8139871 C209.543214,105.956185 204.730854,111.289055 195.582468,112.812754 C186.24349,112.050904 182.574661,114.907799 184.575871,121.383522 C186.57708,127.859246 188.91179,134.049183 191.580069,139.95352 C191.580069,149.095718 194.963015,155.71419 201.729009,159.809133 C208.495003,163.904076 215.975603,164.33261 224.171032,161.094748 C226.839311,149.095612 231.032259,148.809923 236.75,160.237671 Z M132.148326,168.865217 C132.910875,179.49832 129.384137,187.757839 121.568005,193.644021 C106.507653,194.403528 91.7334792,191.080733 77.2450397,183.675537 C62.7566002,176.27034 51.7951162,165.82727 44.3602591,152.346014 C54.4640393,149.307985 55.1312601,143.042143 46.3619414,133.5483 C48.268315,128.231749 47.4581184,121.776033 43.9313272,114.180959 C40.404536,106.585886 40.3568774,100.509918 43.7883499,95.9528734 C43.0258004,89.117307 43.1211177,86.4116026 44.0743045,87.8356789 C45.0274913,89.2597553 47.2197881,91.3009007 50.6512606,93.9591765 C58.4673925,92.8199155 64.1387689,89.2123095 67.6655601,83.1362505 C71.1923513,77.0601915 76.5777761,72.5981527 83.8219958,69.75 C83.0594464,73.35766 82.4875429,78.5317264 82.1062681,85.2723544 C81.7249934,92.0129823 79.0561104,98.0414817 74.099539,103.358033 C69.5242423,105.446679 65.2349659,108.294788 61.2315813,111.902449 C57.2281967,115.510109 58.1813692,118.168344 64.0911275,119.877236 C70.9540725,122.915266 74.5761281,121.918427 74.9574028,116.886691 C75.3386775,111.854954 78.2935123,108.104943 83.8219958,105.636544 C83.6313585,115.889894 88.5878555,120.874086 98.6916357,120.589271 C108.795416,120.304455 111.559616,114.46583 106.98432,103.073219 C108.318781,94.7186383 109.74854,93.3420519 111.273639,98.9434187 C112.798738,104.544786 114.8004,109.528978 117.278686,113.896145 C122.997807,121.301342 126.33391,129.988078 127.287097,139.956612 C128.240284,149.925146 129.860677,159.561251 132.148326,168.865217 Z M118.75,165.890762 L111.346349,139.109419 C104.702013,136.640205 101.190059,137.352468 100.810383,141.246229 C100.430707,145.139989 99.8612007,149.650986 99.101848,154.779354 C98.9120099,164.276331 96.5865272,166.745508 92.1253303,162.186959 C87.6641334,157.62841 85.1488154,151.835341 84.5793009,144.807577 C81.5418902,136.830116 76.8909249,135.16817 70.6262654,139.821689 C64.3616059,144.475208 65.6904532,147.656648 74.612847,149.366104 C69.8668928,152.595076 69.2499281,155.444127 72.7619341,157.913341 C76.2739402,160.382555 80.1181054,162.37689 84.2945451,163.896407 C89.7998519,166.175681 96.6339234,168.834795 104.796965,171.873828 C112.960006,174.91286 117.610971,172.918525 118.75,165.890762 Z M57.4722202,110.75 C54.8796265,111.831085 54.5555572,112.966208 56.5000024,114.155402 C58.4444477,115.344596 58.768517,114.75 57.4722202,112.37162 L57.4722202,110.75 Z M35.25,66.4166972 L34.397221,67.2646916 C27.9539696,66.1340267 23.974374,69.1490878 22.4583149,76.3099652 C20.9422557,83.4708426 21.7002739,90.1605093 24.7323922,96.379166 C29.4700771,103.351599 29.5648293,105.377343 25.0166519,102.456459 C20.4684744,99.535575 15.8256129,96.4734036 11.0879281,93.2698532 C0.286006611,84.6014226 -0.614140009,76.2628944 8.38746121,68.2540184 C17.3890624,60.2451423 26.3431525,59.6327081 35.25,66.4166972 Z M33.75,168.826779 L33.176087,178.30806 C33.75,188.651328 30.6413383,199.473289 23.85,210.774267 C17.0586617,222.075244 9.3587387,222.075244 0.75,210.774267 C2.08913713,202.921045 6.871698,195.067941 15.0978261,187.214719 C23.3239542,179.361497 28.106515,171.125315 29.4456522,162.505925 C30.9760946,154.652703 31.6934787,152.402118 31.5978261,155.754103 C31.5021734,159.106088 32.2195576,163.463603 33.75,168.826779 Z M208.244177,401.071481 L208.244177,401.923838 C208.4344,413.478065 203.964211,419.349798 194.833473,419.539211 C185.702736,419.728625 177.61835,416.98217 170.580073,411.299763 C153.45994,404.859701 135.103629,401.402956 115.510588,400.929422 C95.917547,400.455888 78.797671,405.61733 64.1504463,416.413903 C57.8730643,422.664551 58.9192789,426.642176 67.2891216,428.346898 C75.6589643,430.05162 79.8438229,431.566906 79.8438229,432.892801 L97.5345383,436.018109 C105.143486,434.881628 107.901688,435.355155 105.809228,437.438704 C97.2491614,440.090494 87.92834,442.884302 77.8464841,445.820212 C67.7646281,448.756122 58.8242484,453.917565 51.0250768,461.304694 C45.1281422,467.934168 39.7068481,469.449454 34.761032,465.850596 C29.8152159,462.251739 28.1983387,456.474712 29.910352,448.519342 C30.6712468,419.160239 43.7013746,399.840346 69.0011264,390.559081 C94.3008781,381.277816 120.170913,378.910182 146.612007,383.456108 C158.5961,385.729071 162.115185,383.172026 157.169369,375.784897 C155.267132,372.375453 152.604041,366.551073 149.180014,358.311583 C145.755987,350.072093 149.560404,344.247713 160.593379,340.838269 C170.485011,336.10293 175.95386,336.81322 177.000091,342.969161 C178.046321,349.125102 180.661858,355.707124 184.846779,362.715426 C186.178345,368.966074 189.60232,375.216628 195.118807,381.467275 C200.635294,387.717923 205.010374,394.252593 208.244177,401.071481 Z M171.75,452.141371 L169.757117,462.434208 C161.785547,471.583443 155.949307,471.345186 152.248221,461.719428 C148.547135,452.09367 143.754774,444.231165 137.870996,438.131675 C132.556616,436.225584 130.23161,434.55778 130.895907,433.128212 C131.560205,431.698644 129.994384,428.791899 126.198399,424.407891 C122.592212,429.173117 121.311086,436.225547 122.354982,445.565391 C123.398878,454.905235 123.161633,464.149636 121.643238,473.298871 C121.643238,483.401151 117.372819,489.500549 108.831851,491.597249 C100.290883,493.693949 94.5969893,490.739552 91.75,482.733972 L113.956406,432.699344 C103.327646,430.221426 103.61234,429.840213 114.810498,431.555695 C119.365681,421.072196 124.77488,417.879543 131.038256,421.977637 C137.301633,426.075732 143.944508,429.935508 150.967082,433.55708 C162.924437,434.700734 169.852007,440.895436 171.75,452.141371 Z M157.949212,376.25 L158.492602,376.861111 C159.035995,377.879635 158.719021,378.337963 157.541669,378.236111 C156.364317,378.134259 156.500163,377.472228 157.949212,376.25 Z M77.853497,432.866841 C76.0361975,432.866841 75.7636066,433.053506 77.0357163,433.426841 C78.307826,433.800176 78.5804169,433.666844 77.853497,433.026841 L77.853497,432.866841 Z M51.5445539,399.304285 L51.5445539,399.624285 C51.8645555,400.157621 51.7312235,400.31762 51.1445539,400.104285 C50.5578843,399.890951 50.6912163,399.624287 51.5445539,399.304285 Z M50.75,401.730213 L50.75,404.431379 C47.3425788,408.032952 46.1121396,408.183015 47.0586455,404.881573 C48.0051514,401.580131 49.2355906,400.529688 50.75,401.730213 Z M46.25,407.75 C41.7572299,411.012397 40.2922181,412.960743 41.8549208,413.595098 C43.4176234,414.229453 44.8826352,412.915452 46.25,409.653055 L46.25,407.75 Z M223.25,722.191501 L223.25,724.756549 L217.82121,740.716851 C208.868425,744.326937 199.820533,744.896943 190.677262,742.426883 C184.962718,740.906847 179.343501,739.861838 173.819442,739.291824 C176.10526,744.611951 178.676766,749.551995 181.534038,754.112104 C180.391135,758.862218 179.438719,763.61226 178.67678,768.362374 C176.771932,770.452424 175.009974,773.064947 173.390853,776.200022 C171.771733,779.335097 169.152606,780.332606 165.533395,779.192579 C161.533214,779.002574 158.390262,778.432569 156.104444,777.482546 C149.246992,775.772506 142.19916,774.537495 134.960738,773.777476 C122.769711,772.637449 110.95983,771.117436 99.5307423,769.21739 C98.5783183,767.697354 97.1497038,766.509843 95.2448558,765.654823 C93.3400078,764.799802 93.5304898,763.612292 95.8163073,762.092255 C99.0545489,759.052183 99.7688562,755.774653 97.9592506,752.259569 C96.149645,748.744485 95.4353377,745.466956 95.8163073,742.426883 C96.3877617,738.626793 95.1496291,736.489274 92.1018724,736.014262 C89.0541156,735.539251 86.1968865,735.301749 83.5300993,735.301749 C79.7204033,733.401703 76.3869694,733.401703 73.5296974,735.301749 C77.5298782,744.231962 81.339517,753.162042 84.9587281,762.092255 C88.7684241,774.442551 90.7684845,787.267665 90.9589693,800.567983 C89.2446061,804.938088 87.4350277,809.118125 85.5301797,813.10822 C82.4824229,815.958288 79.2442299,817.858305 75.8155036,818.808328 C70.4819292,822.038405 65.6246397,822.60841 61.2434894,820.51836 C54.5765214,818.998324 48.5763403,817.38331 43.242766,815.673269 C33.7185261,812.443192 25.5278026,807.408147 18.6703499,800.567983 C15.4321083,799.237951 14.7654215,797.432935 16.6702695,795.152881 C14.3844519,793.632844 13.7177652,792.112831 14.6701891,790.592794 C15.6226131,789.072758 16.098818,787.267742 16.098818,785.177692 C17.4322116,780.617583 17.6226935,776.437546 16.6702695,772.637455 C15.1463911,769.407378 14.9559092,766.177349 16.098818,762.947272 C18.003666,757.817149 18.8608347,752.212099 18.6703499,746.131954 C19.8132587,750.122049 21.1466323,749.647045 22.6705107,744.706927 C23.6229346,742.046863 24.4801034,738.911835 25.2420426,735.301749 C26.0039818,739.291844 26.1944637,743.566882 25.8134941,748.126991 C27.5278573,762.377332 31.9089419,774.917444 38.9568794,785.747703 C45.6238474,791.637844 53.5288479,795.532878 62.6721182,797.432924 C66.1008274,798.382947 69.6247605,798.952952 73.2439716,799.142956 C74.5773652,791.35277 74.2916423,783.4677 72.3867943,775.487509 C72.9582487,771.307409 71.8153571,767.412374 68.9580851,763.802288 C71.4343875,755.442088 71.1486646,746.987012 68.1009078,738.436808 C66.5770294,731.976653 62.1959448,729.031627 54.9575225,729.601641 C54.0050985,734.351754 54.1955804,739.006796 55.528974,743.566905 C55.3384892,747.176991 54.1003566,750.122018 51.814539,752.402072 C50.1001758,752.972086 49.2430071,754.302098 49.2430071,756.392148 C49.2430071,758.482198 48.5763203,759.242204 47.2429267,758.672191 C45.9095331,760.952245 44.6713948,760.287239 43.5284917,756.677153 C36.0995846,735.016635 29.4327167,712.786437 23.527688,689.985892 C23.3372032,680.29566 26.3849142,672.220588 32.6709125,665.760433 C33.2423669,663.290374 34.718602,661.960362 37.099662,661.770358 C39.4807219,661.580353 39.7188244,662.720363 37.8139764,665.190423 C36.290098,672.790604 37.4329896,680.580674 41.2426856,688.560865 C46.3857751,701.671178 50.7668598,715.3513 54.3860709,729.601641 L61.8149409,721.336485 C60.1005777,718.676421 60.7672645,717.061407 63.8150213,716.491393 C66.6722933,716.301388 68.8628356,716.49139 70.386714,717.061404 C72.2915619,716.49139 73.767797,716.871393 74.8154634,718.201425 C75.8631298,719.531457 77.1488829,719.626458 78.6727612,718.486431 C82.1014876,720.386476 85.9587469,721.383985 90.2446549,721.478987 C94.5305628,721.573989 98.578304,721.906492 102.388,722.476506 C112.29321,722.856515 121.722066,722.191509 130.674851,720.481468 C132.960669,720.291464 134.294042,718.866451 134.675012,716.206387 C135.055981,713.546324 135.627427,712.02631 136.389366,711.646301 C138.10373,716.20641 137.818007,720.101445 135.532189,723.331522 C134.008311,728.27164 130.865359,731.786672 126.103239,733.876722 C124.198391,735.966772 121.055439,738.246792 116.674288,740.716851 C110.578775,745.466965 110.578775,750.122006 116.674288,754.682115 C121.626893,756.772165 126.579424,757.437171 131.532028,756.677153 C130.389125,748.506958 131.722493,740.90689 135.532189,733.876722 C136.675098,728.936604 138.579917,728.936604 141.246704,733.876722 C144.865916,736.156776 145.818325,739.766808 144.103962,744.706927 C144.294447,750.027054 142.865832,754.682095 139.818076,758.672191 C145.723104,760.572236 151.818526,761.522245 158.104525,761.522245 C161.342766,761.902254 162.72376,760.809744 162.247548,758.244683 C161.771336,755.679621 161.914198,753.352101 162.676137,751.262051 C162.104683,748.221978 162.009442,744.896948 162.390411,741.286862 C162.771381,737.676776 161.533248,734.636748 158.675976,732.166689 C156.009189,732.166689 153.723406,731.406683 151.818558,729.886646 C149.91371,728.36661 150.580397,726.941597 153.818638,725.611565 C155.533001,722.951502 157.818785,721.526489 160.676057,721.336485 C164.104783,723.996548 168.485868,725.421561 173.819442,725.611565 C181.057864,726.371584 187.629491,727.036589 193.53452,727.606603 C199.630034,727.796608 205.439733,727.511605 210.963792,726.751587 C214.583003,726.371578 216.059238,724.471561 215.392541,721.051479 C214.725845,717.631397 213.916296,714.781372 212.963872,712.501317 C217.916477,713.831349 221.345152,717.061378 223.25,722.191501 Z M128.25,649.044483 C128.959799,649.137724 129.626465,649.274735 130.25,649.455517 C129.584101,649.317614 128.917435,649.180603 128.25,649.044483 L128.25,649.044483 Z M128.616469,649.14179 C126.325962,648.623009 123.599765,648.866541 120.437835,649.872386 C114.938307,648.734806 109.628498,648.9244 104.508248,650.441173 C95.5952206,647.407627 87.1564168,643.236563 79.1915837,637.927857 C75.2091672,636.790277 71.1319924,635.557917 66.9599369,634.23074 C63.1671593,631.955581 59.7537106,629.775252 56.7194884,627.689689 C51.7888775,627.689689 46.8583405,626.078141 41.9277295,622.854998 C38.7038685,617.167099 40.1261388,612.332457 46.1945831,608.350927 C50.5562774,608.350927 53.4008179,606.644583 54.7282901,603.231843 C56.4350401,605.317406 57.8099014,604.985617 58.8529152,602.236466 C59.8959291,599.487314 60.9863363,599.439916 62.1241696,602.094269 C65.5376695,602.283866 68.6666641,603.705819 71.5112474,606.360172 C71.1319696,607.876945 72.6490579,609.298899 76.0625578,610.626076 C88.768363,611.194865 101.284342,610.246896 113.610869,607.78214 C116.265813,607.21335 117.593266,605.649201 117.593266,603.089646 C117.593266,600.530092 117.972538,598.397161 118.731093,596.690791 C120.437843,596.122001 121.243796,595.174032 121.148977,593.846856 C121.054157,592.519679 121.954929,592.045695 123.851317,592.424888 C128.213012,591.097712 131.910915,589.01218 134.945137,586.16823 C138.358619,585.220247 141.582449,585.883825 144.616671,588.158985 C147.650893,588.348582 147.935348,589.486144 145.470042,591.571707 C145.470042,595.553237 145.849314,599.155519 146.60787,602.378663 C146.418231,606.360192 147.556047,609.867678 150.021352,612.901224 C155.52088,623.139443 163.011504,631.765961 172.493448,638.781037 C176.096587,636.126684 179.604853,632.950988 183.018353,629.253853 C186.431853,625.556719 190.509028,624.087367 195.25,624.845753 L195.25,625.698934 C192.215778,629.111674 189.940145,632.998347 188.423034,637.35907 C184.819896,645.322129 180.553085,652.905881 175.622474,660.110554 C173.346807,661.43773 170.549676,661.959113 167.230995,661.674718 C163.912315,661.390323 162.821907,659.446987 163.959741,655.84465 C163.959741,651.483928 165.950919,647.597255 169.933336,644.184515 C166.899114,641.340565 164.149391,638.401861 161.684085,635.368315 C155.426002,626.646869 150.021375,617.830757 145.470042,608.919714 C144.332209,607.023748 142.767711,604.701224 140.776503,601.952072 C138.785295,599.202921 136.651889,598.965928 134.376223,601.241088 C131.152362,608.824954 125.937371,614.891956 118.731093,619.442276 C112.093732,622.665419 105.266835,623.328997 98.2501962,621.433031 C91.4231964,621.243434 84.9755711,621.243434 78.9071268,621.433031 C84.5962933,628.637703 91.0439187,634.704705 98.2501962,639.634218 C108.538255,642.471671 118.660257,645.640834 128.616469,649.14179 L128.616469,649.14179 Z M154.75,678.953137 L154.75,680.088294 C153.797682,681.980231 153.464376,684.534309 153.750071,687.750603 C154.035766,690.966896 153.60723,693.80476 152.464448,696.264279 C151.702594,699.102185 149.607525,699.102185 146.17918,696.264279 C143.703153,692.858791 140.751012,692.575005 137.322666,695.412911 C129.704122,694.277749 121.990461,693.42639 114.181453,692.858808 C110.562644,691.345258 109.705571,692.480404 111.610207,696.264279 C115.229016,696.83186 116.086089,699.102151 114.181453,703.07522 C114.752844,704.399576 114.657614,706.149592 113.895759,708.325321 C113.133905,710.501049 111.99114,710.832133 110.467431,709.318583 C107.610477,709.69697 104.848796,708.278038 102.182305,705.061745 C98.5634968,702.413032 94.9447424,700.142741 91.3259337,698.250803 C87.3261979,691.818216 84.850208,685.007343 83.89789,677.81798 C81.0409357,670.439424 83.5169256,666.182628 91.3259337,665.047466 C93.9924243,661.074397 96.8493357,660.412229 99.8967535,663.060941 C104.848807,672.331435 113.610002,676.209849 126.180601,674.696299 C128.656628,674.696299 131.227848,674.932787 133.894339,675.405772 C136.560829,675.878756 137.703594,674.223336 137.322666,670.439461 C140.179621,666.088004 140.846233,661.358231 139.322524,656.25 C142.750869,661.736619 146.464854,667.12856 150.46459,672.425985 C152.750153,673.561148 154.178609,675.736843 154.75,678.953137 Z M116.25,736.207629 C113.196474,735.597457 109.85673,735.597457 106.230668,736.207629 C103.177142,737.224582 103.654249,738.038132 107.662001,738.648304 C112.051445,739.055085 114.914082,738.241535 116.25,736.207629 Z M101.590008,736.837368 C99.9708301,737.050702 99.8190344,737.2907 101.134617,737.557368 C102.450199,737.824036 102.601994,737.584038 101.590008,736.837368 Z M398.335,54.905 L398.335,56.975 L396.385,56.975 L396.385,64.415 L394.615,64.415 L394.615,56.975 L392.605,56.975 L392.605,63.335 L390.865,63.335 L390.865,56.975 L388.825,56.975 L388.825,65.165 L387.025,65.165 L387.025,46.805 L388.825,46.805 L388.825,54.905 L390.865,54.905 L390.865,48.845 L392.605,48.845 L392.605,54.905 L394.615,54.905 L394.615,47.645 L396.385,47.645 L396.385,54.905 L398.335,54.905 Z M379.465,51.155 L377.275,51.155 L377.275,60.845 L379.465,60.845 L379.465,51.155 Z M381.145,60.845 L383.365,60.845 L383.365,51.155 L381.145,51.155 L381.145,60.845 Z M375.595,51.155 L370.825,51.155 L370.825,49.085 L385.135,49.085 L385.135,62.915 L373.435,62.915 C371.815,62.915 371.005,62.045 371.005,60.365 L371.005,57.845 L372.925,57.335 L372.835,59.735 C372.835,60.455 373.195,60.845 373.885,60.845 L375.595,60.845 L375.595,51.155 Z M398.005,41.375 C396.505,43.385 394.975,45.065 393.445,46.445 L391.945,44.975 C393.385,43.715 394.915,42.005 396.535,39.845 L398.005,41.375 Z M389.155,37.745 L389.155,44.105 L375.985,44.105 C376.825,45.005 377.755,45.935 378.805,46.955 L376.525,47.525 C374.785,45.845 373.225,44.045 371.875,42.185 L373.795,41.345 C374.215,41.795 374.665,42.035 375.175,42.035 L387.085,42.035 L387.085,37.745 L389.155,37.745 Z M394.915,94.235 L389.005,94.235 L389.005,92.165 L392.965,92.165 L392.965,80.195 L388.885,80.195 L388.885,78.155 L394.915,78.155 L394.915,85.055 C396.115,84.665 397.195,84.215 398.215,83.735 L398.575,85.925 C397.495,86.375 396.295,86.795 394.915,87.215 L394.915,94.235 Z M391.075,83.735 L390.895,85.835 C389.185,85.415 387.625,84.965 386.245,84.545 L386.245,95.195 L384.175,95.195 L384.175,91.595 C381.175,91.115 378.655,90.065 376.675,88.475 C375.115,91.295 373.705,93.545 372.505,95.285 L370.795,93.815 C372.115,92.015 373.555,89.765 375.145,87.065 C373.285,84.965 371.815,81.605 370.705,76.925 L372.745,76.055 C373.645,80.015 374.845,82.985 376.345,85.025 C377.335,83.285 378.355,81.425 379.405,79.445 C380.905,80.255 382.495,80.975 384.175,81.635 L384.175,77.435 L386.245,77.435 L386.245,82.355 C387.805,82.865 389.395,83.315 391.075,83.735 Z M384.175,89.525 L384.175,83.825 C382.615,83.225 381.235,82.625 380.095,81.995 C379.255,83.615 378.475,85.145 377.725,86.555 C379.405,88.025 381.535,89.015 384.175,89.525 Z M371.095,71.255 L371.095,68.705 L373.195,68.255 C373.135,69.035 373.075,69.785 373.075,70.505 C373.075,71.225 373.465,71.615 374.245,71.615 L381.475,71.615 C381.025,70.415 380.605,69.215 380.245,68.045 L382.405,67.505 C382.735,68.915 383.155,70.295 383.635,71.615 L390.505,71.615 L390.505,68.105 L392.575,68.105 L392.575,71.615 L398.245,71.615 L398.245,73.835 L392.575,73.835 L392.575,76.655 L390.505,76.655 L390.505,73.835 L384.505,73.835 C384.925,74.765 385.375,75.695 385.855,76.625 L383.665,76.625 C383.215,75.695 382.795,74.765 382.375,73.835 L373.705,73.835 C371.965,73.835 371.095,72.965 371.095,71.255 Z M397.135,99.425 L397.135,108.035 L379.195,108.035 L379.195,99.425 L397.135,99.425 Z M381.115,105.965 L387.235,105.965 L387.235,101.525 L381.115,101.525 L381.115,105.965 Z M389.185,101.525 L389.185,105.965 L395.185,105.965 L395.185,101.525 L389.185,101.525 Z M387.055,110.435 L387.055,123.035 L379.195,123.035 L379.195,110.435 L387.055,110.435 Z M381.085,120.935 L385.135,120.935 L385.135,112.565 L381.085,112.565 L381.085,120.935 Z M395.125,114.155 L395.125,109.865 L397.135,109.865 L397.135,123.665 C393.685,123.605 391.465,123.365 390.475,122.975 C389.125,122.525 388.435,121.445 388.375,119.735 C388.375,119.075 388.405,118.325 388.465,117.485 L390.355,116.885 C390.295,117.905 390.235,118.775 390.235,119.495 C390.265,120.395 390.745,120.965 391.675,121.145 C392.245,121.325 393.385,121.415 395.125,121.475 L395.125,116.225 C391.855,115.805 389.455,113.765 387.955,110.045 L389.755,108.905 C390.895,112.025 392.665,113.765 395.125,114.155 Z M377.815,101.045 L377.305,102.965 C374.785,102.305 372.595,101.495 370.675,100.505 L371.365,98.525 C373.075,99.485 375.235,100.325 377.815,101.045 Z M377.365,108.215 C375.475,108.755 373.435,109.235 371.245,109.655 L370.765,107.585 C373.105,107.195 375.145,106.745 376.915,106.235 L377.365,108.215 Z M377.605,114.605 C375.685,115.415 373.585,116.135 371.305,116.735 L370.825,114.665 C373.225,114.095 375.325,113.405 377.155,112.595 L377.605,114.605 Z M378.115,120.785 C375.775,122.495 373.705,123.815 371.965,124.715 L370.735,122.975 C372.655,122.015 374.785,120.725 377.095,119.105 L378.115,120.785 Z M396.745,128.135 L396.745,154.805 L394.615,154.805 L394.615,141.785 L390.085,141.785 C388.225,145.505 386.065,149.285 383.605,153.125 L381.685,151.835 C384.325,147.845 386.365,144.485 387.805,141.785 L370.765,141.785 L370.765,139.595 L394.615,139.595 L394.615,128.135 L396.745,128.135 Z M393.895,158.435 L393.895,171.365 C395.215,170.765 396.505,170.045 397.705,169.175 L398.455,171.215 C397.195,172.055 395.665,172.835 393.895,173.555 L393.895,184.775 L391.825,184.775 L391.825,168.965 L386.485,168.695 L386.425,168.695 L386.425,181.145 C380.485,181.085 376.675,180.845 374.995,180.455 C372.445,179.855 371.125,178.385 371.035,176.015 C371.035,175.055 371.095,173.885 371.155,172.565 L373.105,171.905 C373.045,173.465 373.015,174.755 373.015,175.805 C373.075,177.335 374.155,178.265 376.255,178.625 C377.515,178.805 380.245,178.895 384.385,178.955 L384.385,168.455 C381.955,168.065 379.765,167.315 377.785,166.235 C375.205,164.765 372.865,162.725 370.735,160.085 L372.235,158.525 C374.935,161.705 377.425,163.835 379.735,164.885 C382.045,165.905 384.625,166.475 387.475,166.625 C389.365,166.715 390.805,166.775 391.825,166.805 L391.825,158.435 L393.895,158.435 Z M394.435,198.605 L394.195,200.525 C393.625,200.285 393.085,200.045 392.545,199.745 L392.545,207.665 L391.045,207.665 C389.455,206.825 388.045,205.565 386.845,203.855 C385.885,205.865 385.075,208.145 384.475,210.725 L382.855,209.585 C383.635,206.675 384.595,204.185 385.765,202.085 C384.535,199.775 383.545,196.925 382.795,193.505 L384.535,192.545 C385.075,195.635 385.855,198.245 386.845,200.345 C387.625,199.175 388.465,198.155 389.365,197.315 C388.525,196.415 387.745,195.395 387.025,194.255 L388.585,193.055 C390.205,195.785 392.155,197.645 394.435,198.605 Z M387.775,202.085 C388.675,203.555 389.725,204.695 390.925,205.505 L390.925,198.695 C390.805,198.575 390.685,198.485 390.565,198.425 C389.545,199.475 388.615,200.705 387.775,202.085 Z M379.705,196.145 C378.955,200.135 377.875,203.975 376.495,207.635 L374.755,206.915 C376.195,203.195 377.305,199.325 378.085,195.305 L379.705,196.145 Z M383.905,199.265 C383.125,201.605 382.165,203.765 381.085,205.715 L379.525,204.695 C380.785,202.625 381.745,200.495 382.465,198.275 L383.905,199.265 Z M397.015,213.725 L370.825,213.725 L370.825,211.625 L372.055,211.625 L372.055,191.345 L370.825,191.345 L370.825,189.245 L397.015,189.245 L397.015,213.725 Z M373.975,191.345 L373.975,211.625 L395.095,211.625 L395.095,191.345 L373.975,191.345 Z M371.185,229.895 L371.185,226.025 L373.285,225.575 C373.225,226.835 373.165,228.005 373.165,229.145 C373.165,230.045 373.615,230.495 374.455,230.495 L386.935,230.495 L386.935,218.705 L389.065,218.705 L389.065,244.265 L386.935,244.265 L386.935,232.685 L373.915,232.685 C372.115,232.685 371.185,231.755 371.185,229.895 Z M383.635,223.325 L383.185,225.455 C379.045,224.195 375.475,222.455 372.475,220.175 L373.645,218.285 C376.645,220.595 379.975,222.275 383.635,223.325 Z M383.935,239.165 C380.695,241.205 377.275,243.005 373.615,244.505 L372.715,242.525 C376.705,240.905 380.215,239.135 383.275,237.215 L383.935,239.165 Z M396.685,221.465 L396.685,241.595 L394.585,241.595 L394.585,221.465 L396.685,221.465 Z M398.635,266.255 L398.635,274.985 C394.705,271.775 390.025,270.185 384.625,270.185 C379.225,270.185 374.575,271.775 370.615,274.985 L370.615,266.255 L398.635,266.255 Z M398.365,292.175 L398.365,294.245 L395.605,294.245 L395.605,298.805 L398.365,298.805 L398.365,300.875 L395.605,300.875 L395.605,304.295 L393.745,304.295 L393.745,300.875 L390.895,300.875 L390.895,304.835 L388.975,304.835 L388.975,297.575 L386.695,297.575 L386.695,303.635 L376.165,303.635 L376.165,289.535 L386.695,289.535 L386.695,295.475 L388.975,295.475 L388.975,288.185 L390.895,288.185 L390.895,292.175 L393.745,292.175 L393.745,288.815 L395.605,288.815 L395.605,292.175 L398.365,292.175 Z M393.745,298.805 L393.745,294.245 L390.895,294.245 L390.895,298.805 L393.745,298.805 Z M377.995,301.565 L380.605,301.565 L380.605,297.575 L377.995,297.575 L377.995,301.565 Z M377.995,295.475 L380.605,295.475 L380.605,291.575 L377.995,291.575 L377.995,295.475 Z M382.345,291.575 L382.345,295.475 L384.925,295.475 L384.925,291.575 L382.345,291.575 Z M384.925,297.575 L382.345,297.575 L382.345,301.565 L384.925,301.565 L384.925,297.575 Z M375.535,299.255 C374.695,301.535 373.675,303.605 372.445,305.525 L370.735,304.385 C372.115,302.345 373.195,300.275 373.975,298.175 L375.535,299.255 Z M375.505,293.555 L374.035,294.845 C372.715,293.045 371.635,290.795 370.765,288.125 L372.655,287.225 C373.375,289.775 374.335,291.875 375.505,293.555 Z M386.455,284.375 L370.915,284.375 L370.915,282.305 L386.155,282.305 C383.275,281.345 380.635,280.055 378.265,278.495 L380.635,277.565 C383.485,279.725 386.725,281.285 390.385,282.245 L390.385,278.195 L392.455,278.195 L392.455,282.305 L398.335,282.305 L398.335,284.375 L392.455,284.375 L392.455,287.345 L390.385,287.345 L390.385,284.375 L388.765,284.375 C387.295,285.755 385.645,287.135 383.845,288.515 L382.015,287.315 C383.875,286.175 385.345,285.185 386.455,284.375 Z M387.655,315.995 L387.655,327.065 L377.155,327.065 L377.155,315.995 L387.655,315.995 Z M379.195,324.965 L385.615,324.965 L385.615,318.095 L379.195,318.095 L379.195,324.965 Z M398.425,319.535 L398.125,321.785 C396.625,321.425 395.245,320.915 393.955,320.255 L393.955,333.485 L373.945,333.485 C371.995,333.485 371.005,332.555 371.005,330.755 L371.005,326.255 L373.195,325.655 L373.105,330.035 C373.105,330.875 373.555,331.325 374.425,331.325 L391.885,331.325 L391.885,311.885 L370.885,311.885 L370.885,309.725 L393.955,309.725 L393.955,317.975 C395.395,318.695 396.865,319.205 398.425,319.535 Z M398.635,337.985 L398.635,346.715 L370.615,346.715 L370.615,337.985 C374.575,341.165 379.225,342.785 384.625,342.785 C390.025,342.785 394.705,341.165 398.635,337.985 Z M398.065,391.565 L396.235,392.615 C395.515,389.885 394.945,386.735 394.585,383.135 L389.515,383.135 L389.515,392.705 L387.415,392.705 L387.415,383.135 L382.495,383.135 L382.495,394.955 L380.425,394.955 L380.425,383.135 L373.795,383.135 C371.995,383.135 371.065,382.175 371.065,380.315 L371.065,375.665 L373.165,375.185 C373.105,376.715 373.045,378.185 373.045,379.565 C373.045,380.465 373.495,380.945 374.335,380.945 L380.425,380.945 L380.425,368.045 L382.495,368.045 L382.495,380.945 L387.415,380.945 L387.415,370.535 L389.515,370.535 L389.515,380.945 L394.405,380.945 C394.165,377.765 394.015,374.315 394.015,370.595 L395.965,369.935 C395.965,378.635 396.685,385.835 398.065,391.565 Z M388.645,406.835 C387.235,406.475 385.915,406.085 384.685,405.695 L384.685,421.805 C377.365,421.715 373.225,421.235 372.265,420.335 C371.455,419.585 371.035,417.965 371.005,415.475 L371.005,412.865 L373.015,412.265 C372.985,413.465 372.955,414.545 372.955,415.565 C372.985,417.185 373.285,418.205 373.825,418.685 C374.455,419.225 377.395,419.555 382.675,419.645 L382.675,402.965 C386.875,404.225 390.595,405.185 393.805,405.815 L393.595,407.945 C392.575,407.735 391.615,407.525 390.685,407.315 L390.685,419.555 L388.645,419.555 L388.645,406.835 Z M379.075,398.675 L379.075,416.675 L377.005,416.675 L377.005,398.675 L379.075,398.675 Z M397.075,423.455 L390.565,423.455 L390.565,421.325 L395.035,421.325 L395.035,401.645 L390.595,401.645 L390.595,399.515 L397.075,399.515 L397.075,423.455 Z M389.455,440.375 L389.455,442.595 L370.855,442.595 L370.855,440.375 L389.455,440.375 Z M398.305,440.525 L398.305,442.445 C394.165,444.965 390.535,449.285 387.385,455.405 L385.435,454.115 C388.375,448.475 391.975,444.245 396.295,441.485 C391.555,438.155 387.895,433.955 385.315,428.855 L387.265,427.565 C390.115,433.175 393.805,437.495 398.305,440.525 Z M398.275,472.565 C395.695,472.565 393.475,472.475 391.615,472.355 C383.455,474.035 377.215,478.385 372.925,485.375 L371.035,483.965 C375.055,477.845 380.455,473.705 387.235,471.575 C380.695,469.775 375.295,465.515 371.005,458.855 L372.925,457.535 C377.995,465.785 384.865,470.045 393.505,470.315 C395.545,470.345 397.135,470.375 398.275,470.375 L398.275,472.565 Z M398.635,506.255 L398.635,514.985 C394.705,511.775 390.025,510.185 384.625,510.185 C379.225,510.185 374.575,511.775 370.615,514.985 L370.615,506.255 L398.635,506.255 Z M394.645,531.245 L394.645,519.905 L396.775,519.905 L396.775,543.605 L394.645,543.605 L394.645,533.435 L385.915,533.435 L385.915,542.075 L383.845,542.075 L383.845,533.435 L374.245,533.435 L374.245,544.865 L372.145,544.865 L372.145,518.135 L374.245,518.135 L374.245,522.845 L388.645,522.845 L388.645,524.945 L374.245,524.945 L374.245,531.245 L394.645,531.245 Z M385.675,554.105 L370.945,554.105 L370.945,552.005 L385.315,552.005 C382.495,551.105 379.885,549.995 377.545,548.615 L379.915,547.685 C382.975,549.695 386.425,551.135 390.325,552.005 L390.385,552.005 L390.385,548.135 L392.455,548.135 L392.455,552.005 L398.305,552.005 L398.305,554.105 L392.455,554.105 L392.455,557.165 L390.385,557.165 L390.385,554.105 L388.165,554.105 C386.515,555.365 384.655,556.655 382.585,557.975 L380.665,556.685 C382.705,555.695 384.355,554.825 385.675,554.105 Z M392.995,560.705 L388.435,560.705 C388.855,562.385 389.305,563.855 389.815,565.115 L388.075,565.475 C387.265,563.495 386.545,561.125 385.915,558.425 L387.775,557.825 C387.955,558.395 388.285,558.695 388.765,558.695 L398.125,558.695 L398.125,560.705 L394.885,560.705 L394.885,565.235 L392.995,565.235 L392.995,560.705 Z M384.115,573.125 L370.795,573.125 L370.795,571.145 L372.085,571.145 L372.085,561.545 L370.795,561.545 L370.795,559.535 L384.115,559.535 L384.115,563.945 C384.955,564.215 385.825,564.425 386.725,564.545 L386.425,566.735 C385.615,566.555 384.835,566.345 384.115,566.075 L384.115,573.125 Z M374.005,561.545 L374.005,571.145 L377.245,571.145 L377.245,561.545 L374.005,561.545 Z M379.105,561.545 L379.105,571.145 L382.195,571.145 L382.195,561.545 L379.105,561.545 Z M392.485,568.745 L389.335,568.745 C388.555,568.745 388.135,569.105 388.135,569.825 L388.135,571.445 C388.135,572.015 388.255,572.435 388.465,572.675 C388.765,572.975 389.575,573.155 390.925,573.275 L390.295,575.135 C388.375,574.955 387.205,574.595 386.755,574.055 C386.425,573.575 386.245,572.855 386.245,571.835 L386.245,569.195 C386.245,567.545 387.145,566.735 388.885,566.735 L398.245,566.735 L398.245,568.745 L394.315,568.745 C394.885,570.425 395.635,572.045 396.595,573.635 L395.005,574.805 C393.895,572.675 393.055,570.665 392.485,568.745 Z M398.635,577.985 L398.635,586.715 L370.615,586.715 L370.615,577.985 C374.575,581.165 379.225,582.785 384.625,582.785 C390.025,582.785 394.705,581.165 398.635,577.985 Z M381.145,628.505 L380.575,630.605 C378.085,629.825 375.835,628.865 373.855,627.725 L373.855,634.175 L371.845,634.175 L371.845,608.855 L373.855,608.855 L373.855,625.415 C375.895,626.585 378.325,627.605 381.145,628.505 Z M380.785,614.165 C379.165,615.035 377.275,615.815 375.175,616.505 L374.665,614.555 C376.585,613.955 378.415,613.175 380.155,612.215 L380.785,614.165 Z M381.385,621.095 C379.645,621.785 377.665,622.415 375.415,622.955 L374.905,621.035 C376.945,620.525 378.895,619.895 380.755,619.115 L381.385,621.095 Z M384.265,613.715 L384.265,629.285 L382.345,629.285 L382.345,613.715 L384.265,613.715 Z M393.835,612.515 C392.335,611.735 390.955,610.865 389.695,609.875 L390.865,608.015 C393.145,609.875 395.665,611.225 398.425,612.065 L397.975,614.165 C397.195,613.925 396.475,613.655 395.755,613.385 L395.755,621.275 L393.835,621.275 L393.835,616.955 C392.785,617.435 391.795,617.855 390.895,618.155 L390.175,616.175 C391.435,615.785 392.665,615.335 393.835,614.795 L393.835,612.515 Z M393.835,625.145 C392.785,624.605 391.795,624.035 390.895,623.405 L392.065,621.575 C393.985,622.985 396.085,624.005 398.425,624.635 L397.975,626.705 C397.195,626.465 396.475,626.225 395.755,625.985 L395.755,634.745 L393.835,634.745 L393.835,629.975 C392.695,630.635 391.645,631.145 390.625,631.535 L389.905,629.555 C391.255,629.015 392.575,628.415 393.835,627.755 L393.835,625.145 Z M390.865,620.795 L390.865,622.175 C388.135,625.895 385.975,630.215 384.415,635.105 L382.555,634.055 C384.235,629.135 386.395,624.965 389.095,621.485 C386.575,618.305 384.415,614.105 382.585,608.885 L384.445,607.865 C386.185,613.025 388.315,617.345 390.865,620.795 Z M372.685,647.135 L370.915,647.135 L370.915,644.975 L381.505,644.975 C380.905,643.115 380.365,641.165 379.855,639.065 L381.925,637.925 C383.005,643.115 384.385,647.435 386.125,650.885 C387.235,649.565 388.435,647.765 389.725,645.485 L390.895,647.345 C389.485,649.625 388.225,651.425 387.115,652.715 C388.945,655.775 391.075,657.995 393.535,659.405 L393.535,648.305 C391.645,646.265 389.965,643.685 388.465,640.505 L390.325,639.065 C392.515,644.195 395.215,647.645 398.395,649.445 L398.125,651.815 C397.225,651.335 396.385,650.795 395.575,650.195 L395.575,661.895 L393.655,661.895 C389.545,659.735 386.185,655.865 383.575,650.225 L383.575,662.735 L370.915,662.735 L370.915,660.545 L372.685,660.545 L372.685,647.135 Z M374.785,660.545 L381.565,660.545 L381.565,647.135 L374.785,647.135 L374.785,660.545 Z M392.095,673.985 C392.095,674.495 391.915,674.945 391.525,675.305 C391.195,675.665 390.775,675.845 390.235,675.845 C389.725,675.845 389.305,675.665 388.945,675.305 C388.585,674.945 388.405,674.495 388.405,673.985 C388.405,673.445 388.585,673.025 388.945,672.665 C389.305,672.305 389.725,672.155 390.235,672.155 C390.775,672.155 391.195,672.305 391.525,672.665 C391.915,673.025 392.095,673.445 392.095,673.985 Z M381.115,673.985 C381.115,674.495 380.935,674.945 380.545,675.305 C380.215,675.665 379.795,675.845 379.255,675.845 C378.745,675.845 378.325,675.665 377.965,675.305 C377.605,674.945 377.425,674.495 377.425,673.985 C377.425,673.445 377.605,673.025 377.965,672.665 C378.325,672.305 378.745,672.155 379.255,672.155 C379.795,672.155 380.215,672.305 380.545,672.665 C380.935,673.025 381.115,673.445 381.115,673.985 Z M395.725,699.905 L395.725,706.055 L398.275,706.055 L398.275,708.125 L395.725,708.125 L395.725,714.725 L398.305,714.725 L398.305,716.795 L395.725,716.795 L395.725,723.185 L393.805,723.185 L393.805,716.795 L391.105,716.795 L391.105,724.775 L389.155,724.775 L389.155,712.535 L386.845,712.535 L386.845,721.355 L376.375,721.355 L376.375,701.615 L386.845,701.615 L386.845,710.435 L389.155,710.435 L389.155,698.225 L391.105,698.225 L391.105,706.055 L393.805,706.055 L393.805,699.905 L395.725,699.905 Z M391.105,714.725 L393.805,714.725 L393.805,708.125 L391.105,708.125 L391.105,714.725 Z M378.235,719.255 L380.755,719.255 L380.755,712.535 L378.235,712.535 L378.235,719.255 Z M378.235,710.435 L380.755,710.435 L380.755,703.715 L378.235,703.715 L378.235,710.435 Z M382.555,703.715 L382.555,710.435 L385.015,710.435 L385.015,703.715 L382.555,703.715 Z M385.015,712.535 L382.555,712.535 L382.555,719.255 L385.015,719.255 L385.015,712.535 Z M376.015,715.085 C375.115,718.625 373.975,721.865 372.655,724.805 L370.855,723.665 C372.385,720.545 373.585,717.335 374.455,714.035 L376.015,715.085 Z M376.195,707.345 L374.755,708.605 C373.195,706.085 371.905,702.905 370.885,699.095 L372.775,698.195 C373.645,701.885 374.785,704.945 376.195,707.345 Z M393.955,752.195 L392.245,753.425 C390.325,751.145 388.705,748.565 387.415,745.625 L387.355,745.625 C386.035,748.745 384.445,751.595 382.615,754.235 L380.725,752.975 C382.555,750.635 384.055,748.235 385.225,745.775 C381.445,746.045 378.835,746.525 377.365,747.245 C374.905,748.385 373.675,749.735 373.615,751.235 C373.645,751.655 373.945,752.015 374.545,752.315 C375.145,752.615 376.495,752.855 378.535,753.035 L377.845,755.105 C375.265,754.805 373.375,754.235 372.235,753.365 C371.635,752.705 371.305,752.045 371.305,751.355 C371.335,749.075 372.805,747.155 375.715,745.625 C378.685,744.065 384.925,743.285 394.435,743.285 L394.435,727.595 L396.595,727.595 L396.595,745.445 L394.495,745.445 C392.725,745.445 391.075,745.475 389.545,745.535 C390.715,747.965 392.185,750.185 393.955,752.195 Z M395.425,764.345 L395.425,772.205 L393.385,772.205 L393.385,769.355 L380.965,769.355 C381.355,770.435 381.775,771.455 382.225,772.445 L380.185,772.445 C379.075,770.015 378.145,767.405 377.425,764.615 L379.495,764.105 C379.735,765.185 379.975,766.235 380.275,767.285 L393.385,767.285 L393.385,764.345 L395.425,764.345 Z M397.945,759.395 C396.625,761.045 395.305,762.425 393.955,763.565 L392.485,762.095 C393.745,761.075 395.125,759.695 396.565,757.925 L397.945,759.395 Z M390.805,759.395 C389.425,761.075 388.015,762.515 386.635,763.685 L385.195,762.215 C386.515,761.165 387.895,759.725 389.395,757.925 L390.805,759.395 Z M382.495,761.645 L381.745,763.535 C378.025,762.395 374.485,761.165 371.185,759.785 L372.025,757.835 C375.445,759.305 378.925,760.565 382.495,761.645 Z M378.505,771.305 L378.505,780.455 L376.525,780.455 L376.525,771.305 L378.505,771.305 Z M392.665,777.485 C391.435,778.625 390.355,779.525 389.455,780.125 L388.525,778.835 C389.545,778.175 390.625,777.305 391.825,776.165 L392.665,777.485 Z M383.695,775.505 L383.695,784.565 C377.245,784.505 373.495,784.115 372.475,783.335 C371.515,782.555 371.005,781.265 371.005,779.465 L371.005,777.935 L373.045,777.335 C373.015,778.205 372.985,778.925 372.985,779.495 C372.985,780.575 373.285,781.325 373.885,781.745 C374.605,782.225 377.215,782.495 381.745,782.495 L381.745,773.525 L395.635,773.525 L395.635,775.865 C396.565,776.285 397.495,776.585 398.455,776.795 L398.155,778.895 C397.255,778.655 396.415,778.325 395.635,777.905 L395.635,783.575 C390.565,783.335 387.565,782.975 386.635,782.495 C385.735,781.985 385.255,781.055 385.255,779.675 L385.255,778.265 L387.115,777.665 C387.115,778.445 387.085,779.105 387.085,779.675 C387.085,780.275 387.355,780.725 387.835,780.965 C388.345,781.205 390.295,781.385 393.685,781.535 L393.685,775.505 L383.695,775.505 Z M351.885,130.415 C350.385,132.485 348.915,134.225 347.445,135.635 L345.915,134.105 C347.325,132.845 348.825,131.075 350.385,128.855 L351.885,130.415 Z M344.805,129.665 C343.335,131.645 341.865,133.295 340.365,134.615 L338.835,133.085 C340.215,131.885 341.715,130.235 343.335,128.135 L344.805,129.665 Z M336.525,133.445 L335.745,135.365 C331.965,134.015 328.395,132.515 325.065,130.865 L325.995,128.705 C329.415,130.505 332.925,132.095 336.525,133.445 Z M347.265,136.805 L347.265,144.875 C348.885,144.275 350.415,143.615 351.915,142.835 L352.485,144.875 C350.745,145.715 349.185,146.375 347.745,146.825 L347.265,145.595 L347.265,154.535 L345.135,154.535 L345.135,146.795 L337.935,146.795 L337.935,153.725 L335.865,153.725 L335.865,146.795 L327.975,146.795 L327.975,155.105 L325.845,155.105 L325.845,136.055 L327.975,136.055 L327.975,144.605 L335.865,144.605 L335.865,137.645 L337.935,137.645 L337.935,144.605 L345.135,144.605 L345.135,136.805 L347.265,136.805 Z M348.645,164.705 L348.645,159.875 L350.505,159.875 L350.505,170.165 C351.165,169.895 351.735,169.595 352.245,169.295 L352.605,171.605 C351.975,171.905 351.285,172.235 350.505,172.535 L350.505,183.095 L348.645,183.095 L348.645,178.205 L346.275,177.035 L346.275,184.505 L344.385,184.505 L344.385,158.465 L346.275,158.465 L346.275,165.665 L348.645,164.705 Z M346.275,167.915 L346.275,174.785 L348.645,175.955 L348.645,166.955 L346.275,167.915 Z M342.615,161.885 L342.615,181.085 L333.735,181.085 L333.735,161.885 L342.615,161.885 Z M335.415,178.985 L337.395,178.985 L337.395,163.985 L335.415,163.985 L335.415,178.985 Z M338.985,163.985 L338.985,178.985 L340.905,178.985 L340.905,163.985 L338.985,163.985 Z M332.325,160.685 L331.905,162.785 C329.505,162.065 327.435,161.105 325.695,159.845 L326.865,157.985 C328.515,159.215 330.345,160.115 332.325,160.685 Z M325.305,175.595 L325.305,168.275 C325.305,166.235 326.235,165.245 328.095,165.245 L332.055,165.245 L332.055,167.465 L328.545,167.465 C327.705,167.465 327.255,167.945 327.255,168.905 L327.255,175.205 C327.255,175.865 327.375,176.315 327.615,176.555 C327.915,176.915 328.845,177.155 330.345,177.275 L329.685,179.315 C327.615,179.105 326.355,178.685 325.875,178.085 C325.515,177.545 325.305,176.735 325.305,175.595 Z M333.165,171.815 C331.905,173.075 330.765,174.065 329.775,174.725 L328.515,172.925 C329.595,172.205 330.765,171.245 332.025,169.985 L333.165,171.815 Z M332.595,181.235 C330.585,182.915 328.845,184.235 327.345,185.135 L326.085,183.335 C327.735,182.375 329.535,181.115 331.515,179.495 L332.595,181.235 Z M346.095,193.985 C346.095,194.495 345.915,194.945 345.525,195.305 C345.195,195.665 344.775,195.845 344.235,195.845 C343.725,195.845 343.305,195.665 342.945,195.305 C342.585,194.945 342.405,194.495 342.405,193.985 C342.405,193.445 342.585,193.025 342.945,192.665 C343.305,192.305 343.725,192.155 344.235,192.155 C344.775,192.155 345.195,192.305 345.525,192.665 C345.915,193.025 346.095,193.445 346.095,193.985 Z M335.115,193.985 C335.115,194.495 334.935,194.945 334.545,195.305 C334.215,195.665 333.795,195.845 333.255,195.845 C332.745,195.845 332.325,195.665 331.965,195.305 C331.605,194.945 331.425,194.495 331.425,193.985 C331.425,193.445 331.605,193.025 331.965,192.665 C332.325,192.305 332.745,192.155 333.255,192.155 C333.795,192.155 334.215,192.305 334.545,192.665 C334.935,193.025 335.115,193.445 335.115,193.985 Z M338.535,231.995 C337.725,232.295 336.795,232.565 335.745,232.835 L335.745,242.885 L333.705,242.885 L333.705,220.055 L335.745,220.055 L335.745,230.645 C336.645,230.345 337.455,230.045 338.175,229.685 L338.535,231.995 Z M352.155,224.915 L352.155,226.985 L337.905,226.985 L337.905,224.915 L352.155,224.915 Z M350.145,219.455 L350.145,221.555 L339.315,221.555 L339.315,219.455 L350.145,219.455 Z M350.925,229.445 L350.925,242.195 L349.065,242.195 C346.725,241.325 344.745,239.885 343.095,237.905 C341.805,239.765 340.815,242.015 340.155,244.685 L338.295,243.665 C339.135,240.665 340.335,238.205 341.835,236.225 C340.575,234.305 339.555,231.995 338.775,229.325 L340.635,228.305 C341.295,230.765 342.165,232.865 343.215,234.665 C344.835,233.045 346.725,231.875 348.945,231.155 L348.945,229.445 L350.925,229.445 Z M348.945,233.045 C347.175,233.795 345.645,234.875 344.355,236.315 C345.675,237.995 347.205,239.285 348.945,240.125 L348.945,233.045 Z M327.735,218.855 L327.735,225.305 C329.205,224.855 330.615,224.345 331.965,223.775 L332.655,225.935 C331.215,226.505 329.565,227.015 327.735,227.495 L327.735,235.265 C329.145,235.955 330.825,236.555 332.775,237.095 L332.175,239.285 C330.525,238.805 329.055,238.235 327.735,237.575 L327.735,244.205 L325.725,244.205 L325.725,218.855 L327.735,218.855 Z M341.655,255.995 L341.655,267.065 L331.155,267.065 L331.155,255.995 L341.655,255.995 Z M333.195,264.965 L339.615,264.965 L339.615,258.095 L333.195,258.095 L333.195,264.965 Z M352.425,259.535 L352.125,261.785 C350.625,261.425 349.245,260.915 347.955,260.255 L347.955,273.485 L327.945,273.485 C325.995,273.485 325.005,272.555 325.005,270.755 L325.005,266.255 L327.195,265.655 L327.105,270.035 C327.105,270.875 327.555,271.325 328.425,271.325 L345.885,271.325 L345.885,251.885 L324.885,251.885 L324.885,249.725 L347.955,249.725 L347.955,257.975 C349.395,258.695 350.865,259.205 352.425,259.535 Z M335.145,298.505 L334.575,300.605 C332.085,299.825 329.835,298.865 327.855,297.725 L327.855,304.175 L325.845,304.175 L325.845,278.855 L327.855,278.855 L327.855,295.415 C329.895,296.585 332.325,297.605 335.145,298.505 Z M334.785,284.165 C333.165,285.035 331.275,285.815 329.175,286.505 L328.665,284.555 C330.585,283.955 332.415,283.175 334.155,282.215 L334.785,284.165 Z M335.385,291.095 C333.645,291.785 331.665,292.415 329.415,292.955 L328.905,291.035 C330.945,290.525 332.895,289.895 334.755,289.115 L335.385,291.095 Z M338.265,283.715 L338.265,299.285 L336.345,299.285 L336.345,283.715 L338.265,283.715 Z M347.835,282.515 C346.335,281.735 344.955,280.865 343.695,279.875 L344.865,278.015 C347.145,279.875 349.665,281.225 352.425,282.065 L351.975,284.165 C351.195,283.925 350.475,283.655 349.755,283.385 L349.755,291.275 L347.835,291.275 L347.835,286.955 C346.785,287.435 345.795,287.855 344.895,288.155 L344.175,286.175 C345.435,285.785 346.665,285.335 347.835,284.795 L347.835,282.515 Z M347.835,295.145 C346.785,294.605 345.795,294.035 344.895,293.405 L346.065,291.575 C347.985,292.985 350.085,294.005 352.425,294.635 L351.975,296.705 C351.195,296.465 350.475,296.225 349.755,295.985 L349.755,304.745 L347.835,304.745 L347.835,299.975 C346.695,300.635 345.645,301.145 344.625,301.535 L343.905,299.555 C345.255,299.015 346.575,298.415 347.835,297.755 L347.835,295.145 Z M344.865,290.795 L344.865,292.175 C342.135,295.895 339.975,300.215 338.415,305.105 L336.555,304.055 C338.235,299.135 340.395,294.965 343.095,291.485 C340.575,288.305 338.415,284.105 336.585,278.885 L338.445,277.865 C340.185,283.025 342.315,287.345 344.865,290.795 Z M326.685,317.135 L324.915,317.135 L324.915,314.975 L335.505,314.975 C334.905,313.115 334.365,311.165 333.855,309.065 L335.925,307.925 C337.005,313.115 338.385,317.435 340.125,320.885 C341.235,319.565 342.435,317.765 343.725,315.485 L344.895,317.345 C343.485,319.625 342.225,321.425 341.115,322.715 C342.945,325.775 345.075,327.995 347.535,329.405 L347.535,318.305 C345.645,316.265 343.965,313.685 342.465,310.505 L344.325,309.065 C346.515,314.195 349.215,317.645 352.395,319.445 L352.125,321.815 C351.225,321.335 350.385,320.795 349.575,320.195 L349.575,331.895 L347.655,331.895 C343.545,329.735 340.185,325.865 337.575,320.225 L337.575,332.735 L324.915,332.735 L324.915,330.545 L326.685,330.545 L326.685,317.135 Z M328.785,330.545 L335.565,330.545 L335.565,317.135 L328.785,317.135 L328.785,330.545 Z M343.215,339.665 L343.215,350.675 L334.065,350.675 L334.065,339.665 L343.215,339.665 Z M336.015,348.545 L341.205,348.545 L341.205,341.825 L336.015,341.825 L336.015,348.545 Z M332.355,351.605 L330.255,351.605 C329.175,347.615 328.245,343.295 327.495,338.675 L329.625,338.135 C330.225,342.815 331.125,347.285 332.355,351.605 Z M324.915,361.715 C324.945,360.215 325.905,358.805 327.825,357.425 C328.395,357.005 328.995,356.645 329.625,356.345 C327.585,354.665 325.965,352.805 324.765,350.795 L326.625,349.625 C327.915,351.755 329.655,353.675 331.875,355.355 C333.015,354.935 334.245,354.605 335.565,354.305 C338.625,353.615 342.225,353.255 346.365,353.225 L346.365,338.135 L348.465,338.135 L348.465,353.225 L352.305,353.225 L352.305,355.385 L348.465,355.385 L348.465,359.795 C349.545,359.285 350.565,358.715 351.465,358.115 L351.825,360.305 C350.835,360.845 349.725,361.385 348.465,361.895 L348.465,364.805 L346.365,364.805 L346.365,355.415 C342.705,355.475 339.465,355.745 336.645,356.255 C335.715,356.435 334.845,356.615 334.035,356.855 C336.795,358.535 340.065,359.945 343.845,361.085 L342.825,362.975 C338.295,361.565 334.515,359.825 331.455,357.725 C330.765,358.025 330.135,358.325 329.595,358.655 C328.035,359.705 327.255,360.635 327.255,361.475 C327.255,362.195 328.965,362.825 332.385,363.335 L331.155,365.195 C327.015,364.385 324.915,363.215 324.915,361.715 Z M335.145,388.505 L334.575,390.605 C332.085,389.825 329.835,388.865 327.855,387.725 L327.855,394.175 L325.845,394.175 L325.845,368.855 L327.855,368.855 L327.855,385.415 C329.895,386.585 332.325,387.605 335.145,388.505 Z M334.785,374.165 C333.165,375.035 331.275,375.815 329.175,376.505 L328.665,374.555 C330.585,373.955 332.415,373.175 334.155,372.215 L334.785,374.165 Z M335.385,381.095 C333.645,381.785 331.665,382.415 329.415,382.955 L328.905,381.035 C330.945,380.525 332.895,379.895 334.755,379.115 L335.385,381.095 Z M338.265,373.715 L338.265,389.285 L336.345,389.285 L336.345,373.715 L338.265,373.715 Z M347.835,372.515 C346.335,371.735 344.955,370.865 343.695,369.875 L344.865,368.015 C347.145,369.875 349.665,371.225 352.425,372.065 L351.975,374.165 C351.195,373.925 350.475,373.655 349.755,373.385 L349.755,381.275 L347.835,381.275 L347.835,376.955 C346.785,377.435 345.795,377.855 344.895,378.155 L344.175,376.175 C345.435,375.785 346.665,375.335 347.835,374.795 L347.835,372.515 Z M347.835,385.145 C346.785,384.605 345.795,384.035 344.895,383.405 L346.065,381.575 C347.985,382.985 350.085,384.005 352.425,384.635 L351.975,386.705 C351.195,386.465 350.475,386.225 349.755,385.985 L349.755,394.745 L347.835,394.745 L347.835,389.975 C346.695,390.635 345.645,391.145 344.625,391.535 L343.905,389.555 C345.255,389.015 346.575,388.415 347.835,387.755 L347.835,385.145 Z M344.865,380.795 L344.865,382.175 C342.135,385.895 339.975,390.215 338.415,395.105 L336.555,394.055 C338.235,389.135 340.395,384.965 343.095,381.485 C340.575,378.305 338.415,374.105 336.585,368.885 L338.445,367.865 C340.185,373.025 342.315,377.345 344.865,380.795 Z M326.685,407.135 L324.915,407.135 L324.915,404.975 L335.505,404.975 C334.905,403.115 334.365,401.165 333.855,399.065 L335.925,397.925 C337.005,403.115 338.385,407.435 340.125,410.885 C341.235,409.565 342.435,407.765 343.725,405.485 L344.895,407.345 C343.485,409.625 342.225,411.425 341.115,412.715 C342.945,415.775 345.075,417.995 347.535,419.405 L347.535,408.305 C345.645,406.265 343.965,403.685 342.465,400.505 L344.325,399.065 C346.515,404.195 349.215,407.645 352.395,409.445 L352.125,411.815 C351.225,411.335 350.385,410.795 349.575,410.195 L349.575,421.895 L347.655,421.895 C343.545,419.735 340.185,415.865 337.575,410.225 L337.575,422.735 L324.915,422.735 L324.915,420.545 L326.685,420.545 L326.685,407.135 Z M328.785,420.545 L335.565,420.545 L335.565,407.135 L328.785,407.135 L328.785,420.545 Z M349.845,435.515 L349.845,442.715 C350.745,443.015 351.675,443.285 352.635,443.495 L352.455,445.625 C351.525,445.415 350.655,445.175 349.845,444.935 L349.845,454.445 L347.925,454.445 L347.925,447.035 C346.605,447.785 345.435,448.715 344.385,449.855 C345.465,450.935 346.335,451.715 347.025,452.165 L345.975,453.845 C345.135,453.155 344.205,452.285 343.215,451.235 C342.255,452.465 341.415,453.845 340.725,455.405 L338.715,454.475 C339.315,453.335 339.915,452.315 340.575,451.385 L333.315,451.385 L333.315,445.835 L327.945,445.835 C325.965,445.835 324.975,444.845 324.975,442.895 L324.975,440.375 L327.105,439.895 C327.015,440.675 326.955,441.425 326.955,442.145 C326.955,443.135 327.465,443.645 328.485,443.645 L333.315,443.645 L333.315,437.585 L340.065,437.585 C339.555,436.715 339.135,435.815 338.775,434.855 L340.635,433.715 C341.175,435.245 341.865,436.595 342.765,437.795 C343.605,437.015 344.505,436.115 345.405,435.035 L346.695,436.415 C345.795,437.495 344.895,438.425 343.995,439.205 C345.135,440.285 346.425,441.215 347.925,441.935 L347.925,435.515 L349.845,435.515 Z M342.615,448.895 C344.205,447.215 345.975,445.895 347.925,444.935 L347.925,444.215 C345.825,443.315 344.055,442.175 342.615,440.795 L342.615,448.895 Z M337.185,439.625 L335.055,439.625 L335.055,449.345 L337.185,449.345 L337.185,439.625 Z M338.775,449.345 L340.875,449.345 L340.875,439.625 L338.775,439.625 L338.775,449.345 Z M332.325,439.025 L331.425,440.765 C329.085,439.265 327.105,437.465 325.515,435.395 L326.955,433.865 C328.455,435.845 330.225,437.585 332.325,439.025 Z M332.385,450.035 C330.345,452.135 328.575,453.785 327.015,454.925 L325.755,453.125 C327.435,451.985 329.295,450.395 331.335,448.385 L332.385,450.035 Z M351.795,430.175 C350.415,432.005 349.035,433.535 347.655,434.765 L346.125,433.235 C347.445,432.125 348.825,430.595 350.325,428.675 L351.795,430.175 Z M344.445,429.335 C343.035,431.075 341.625,432.545 340.215,433.745 L338.685,432.215 C340.035,431.135 341.475,429.695 342.975,427.835 L344.445,429.335 Z M336.315,432.275 L335.565,434.165 C331.905,432.965 328.485,431.615 325.245,430.145 L326.115,428.105 C329.445,429.725 332.835,431.105 336.315,432.275 Z M344.925,462.035 L344.925,480.965 L334.065,480.965 L334.065,472.505 L331.365,472.505 L331.365,484.715 L329.415,484.715 L329.415,472.505 L324.765,472.505 L324.765,470.405 L329.415,470.405 L329.415,458.225 L331.365,458.225 L331.365,470.405 L334.065,470.405 L334.065,462.035 L344.925,462.035 Z M335.925,478.925 L338.685,478.925 L338.685,464.075 L335.925,464.075 L335.925,478.925 Z M340.485,464.075 L340.485,478.925 L343.065,478.925 L343.065,464.075 L340.485,464.075 Z M349.995,458.465 L349.995,465.335 L352.275,465.335 L352.275,467.495 L349.995,467.495 L349.995,475.475 L352.275,475.475 L352.275,477.635 L349.995,477.635 L349.995,484.505 L348.045,484.505 L348.045,477.635 L345.705,477.635 L345.705,475.475 L348.045,475.475 L348.045,467.495 L345.705,467.495 L345.705,465.335 L348.045,465.335 L348.045,458.465 L349.995,458.465 Z M336.225,509.015 L334.215,509.585 C332.445,507.005 330.885,503.825 329.535,500.015 L331.575,499.115 C332.835,502.955 334.395,506.255 336.225,509.015 Z M342.585,503.015 C341.205,504.935 339.795,506.525 338.415,507.815 L336.915,506.315 C338.265,505.175 339.705,503.615 341.235,501.635 L342.585,503.015 Z M352.515,502.235 L352.245,504.395 C350.685,504.065 349.185,503.645 347.775,503.135 L347.775,514.115 C337.455,514.115 331.095,513.935 328.725,513.575 C326.295,513.245 325.065,511.775 325.065,509.165 C325.065,508.355 325.125,507.005 325.185,505.085 L327.225,504.545 C327.165,506.165 327.105,507.575 327.105,508.775 C327.105,510.335 327.885,511.235 329.445,511.505 C331.185,511.805 336.585,511.955 345.675,512.015 L345.675,502.265 C343.485,501.245 341.535,499.985 339.795,498.485 L341.655,497.045 C344.625,499.595 348.255,501.335 352.515,502.235 Z M344.355,487.895 L344.355,491.195 L352.215,491.195 L352.215,493.385 L344.355,493.385 L344.355,496.475 L342.255,496.475 L342.255,493.385 L332.145,493.385 C332.565,494.825 333.015,496.205 333.555,497.585 L331.305,497.585 C330.195,494.675 329.265,491.525 328.545,488.165 L330.825,487.565 C331.035,488.825 331.275,490.025 331.575,491.195 L342.255,491.195 L342.255,487.895 L344.355,487.895 Z M350.775,518.735 L350.775,544.235 L348.645,544.235 L348.645,534.455 C347.415,533.915 346.215,533.285 345.075,532.595 L324.765,532.595 L324.765,530.375 L341.895,530.375 C338.385,527.555 335.265,523.865 332.535,519.305 L334.425,517.895 C338.325,524.675 343.065,529.415 348.645,532.055 L348.645,518.735 L350.775,518.735 Z M342.705,536.375 C339.975,539.825 337.245,542.705 334.515,545.045 L332.835,543.395 C335.475,541.295 338.265,538.445 341.235,534.815 L342.705,536.375 Z M335.115,551.855 L332.325,551.855 L332.325,558.785 L335.115,558.785 L335.115,551.855 Z M336.915,558.785 L339.825,558.785 L339.825,551.855 L336.915,551.855 L336.915,558.785 Z M330.495,551.855 L324.765,551.855 L324.765,549.785 L341.715,549.785 L341.715,560.855 L327.615,560.855 C325.875,560.855 324.975,560.015 324.975,558.335 L324.975,555.935 L327.015,555.395 L326.925,557.645 C326.925,558.395 327.315,558.785 328.065,558.785 L330.495,558.785 L330.495,551.855 Z M339.225,571.385 L339.225,566.435 C339.225,564.605 340.215,563.705 342.165,563.705 L352.245,563.705 L352.245,565.835 L348.345,565.835 C348.855,569.135 349.395,571.805 349.935,573.875 L348.045,574.565 C347.415,572.045 346.845,569.135 346.365,565.835 L342.615,565.835 C341.655,565.835 341.175,566.225 341.175,567.035 L341.175,570.965 C341.175,571.565 341.355,571.985 341.655,572.225 C342.075,572.525 343.185,572.705 345.045,572.825 L344.415,574.835 C341.955,574.625 340.455,574.235 339.915,573.695 C339.465,573.215 339.225,572.435 339.225,571.385 Z M332.445,565.835 L328.155,565.835 C327.555,565.835 327.225,566.195 327.225,566.975 L327.225,571.055 C327.225,571.655 327.375,572.105 327.645,572.345 C328.065,572.675 329.175,572.885 331.005,573.005 L330.405,574.955 C327.975,574.775 326.505,574.385 325.965,573.815 C325.515,573.335 325.275,572.555 325.275,571.475 L325.275,566.375 C325.275,564.575 326.085,563.705 327.675,563.705 L338.085,563.705 L338.085,565.835 L334.395,565.835 C334.695,568.835 335.205,571.505 335.925,573.875 L334.005,574.565 C333.225,571.865 332.715,568.955 332.445,565.835 Z M350.205,558.695 C347.775,560.495 345.675,561.905 343.875,562.895 L342.615,561.125 C343.275,560.795 343.935,560.435 344.595,560.045 C344.085,556.835 343.725,552.995 343.485,548.555 L345.285,547.955 C345.405,548.345 345.615,548.675 345.855,548.945 C347.775,550.805 349.935,552.365 352.335,553.565 L351.705,555.605 C349.035,554.225 346.935,552.725 345.405,551.045 C345.555,553.565 345.795,556.235 346.155,559.055 C347.115,558.425 348.135,557.735 349.155,557.015 L350.205,558.695 Z M351.855,580.265 C350.295,582.335 348.735,584.075 347.175,585.485 L345.675,583.955 C347.175,582.695 348.765,580.985 350.445,578.795 L351.855,580.265 Z M325.365,597.815 C325.365,596.165 325.395,594.365 325.425,592.445 C325.455,590.495 325.635,588.905 325.965,587.705 C326.325,586.505 327.075,585.425 328.155,584.495 C328.665,584.075 328.905,583.685 328.905,583.325 C328.905,582.605 327.525,581.405 324.765,579.755 L326.235,578.135 C328.755,579.725 330.285,581.135 330.825,582.365 L339.945,582.365 L339.945,578.105 L341.925,578.105 L341.925,584.375 L330.705,584.375 C330.525,584.615 330.315,584.855 330.015,585.125 C329.145,585.845 328.515,586.625 328.125,587.465 C327.705,588.425 327.465,589.775 327.405,591.575 C327.375,593.165 327.345,595.145 327.345,597.515 C327.345,598.895 327.375,600.335 327.405,601.805 C327.435,603.245 327.465,604.355 327.525,605.135 L325.365,604.625 L325.365,597.815 Z M348.975,592.445 C348.225,593.705 347.475,594.875 346.725,595.895 C347.535,597.455 348.435,598.895 349.455,600.215 L349.455,586.895 L351.285,586.895 L351.285,603.125 L349.725,603.125 C348.165,601.325 346.815,599.375 345.675,597.275 L345.285,597.755 L345.285,603.695 L331.875,603.695 C330.345,603.695 329.565,602.855 329.565,601.175 L329.565,598.685 L331.395,598.205 L331.305,600.575 C331.305,601.295 331.665,601.655 332.325,601.655 L334.575,601.655 L334.575,596.615 L329.415,596.615 L329.415,594.605 L334.575,594.605 L334.575,589.595 L329.325,589.595 L329.325,587.555 L345.285,587.555 L345.285,595.055 C346.095,593.915 346.905,592.595 347.685,591.125 L348.975,592.445 Z M338.985,589.595 L336.345,589.595 L336.345,594.605 L338.985,594.605 L338.985,589.595 Z M338.985,596.615 L336.345,596.615 L336.345,601.655 L338.985,601.655 L338.985,596.615 Z M340.785,601.655 L343.485,601.655 L343.485,596.615 L340.785,596.615 L340.785,601.655 Z M340.785,594.605 L343.485,594.605 L343.485,589.595 L340.785,589.595 L340.785,594.605 Z M351.915,610.175 C350.325,612.215 348.735,613.925 347.175,615.305 L345.585,613.745 C347.115,612.515 348.765,610.835 350.505,608.675 L351.915,610.175 Z M325.365,628.415 C325.365,626.705 325.395,624.845 325.425,622.835 C325.455,620.795 325.635,619.145 325.965,617.915 C326.325,616.655 327.075,615.545 328.155,614.585 C328.665,614.165 328.905,613.745 328.905,613.355 C328.905,612.635 327.525,611.405 324.705,609.725 L326.145,608.105 C328.725,609.725 330.285,611.135 330.825,612.395 L339.915,612.395 L339.915,608.075 L341.955,608.075 L341.955,614.465 L330.705,614.465 C330.525,614.705 330.315,614.975 330.015,615.245 C329.175,616.025 328.545,616.835 328.125,617.705 C327.735,618.665 327.525,620.105 327.465,621.965 C327.435,623.615 327.405,625.685 327.405,628.145 C327.405,629.465 327.435,630.785 327.435,632.165 C327.465,633.515 327.495,634.565 327.555,635.285 L325.365,634.745 L325.365,628.415 Z M329.385,627.515 L329.385,623.255 L331.455,622.775 C331.365,624.155 331.305,625.505 331.305,626.765 C331.305,627.605 331.725,628.055 332.535,628.055 L345.285,628.055 L345.285,616.715 L347.415,616.715 L347.415,628.055 L352.275,628.055 L352.275,630.245 L347.415,630.245 L347.415,634.685 L345.285,634.685 L345.285,630.245 L332.025,630.245 C330.285,630.245 329.385,629.315 329.385,627.515 Z M342.615,619.985 C340.395,621.905 338.445,623.375 336.765,624.395 L335.565,622.655 C337.365,621.575 339.345,620.135 341.535,618.305 L342.615,619.985 Z M336.255,643.835 L332.805,643.835 L332.805,650.495 L336.255,650.495 L336.255,643.835 Z M330.825,650.495 L330.825,643.835 L329.055,643.835 L329.055,641.735 L343.605,641.735 L343.605,650.495 L346.605,650.495 L346.605,652.655 L343.605,652.655 L343.605,661.505 L329.145,661.505 L329.145,659.405 L330.825,659.405 L330.825,652.655 L324.735,652.655 L324.735,650.495 L330.825,650.495 Z M332.805,652.655 L332.805,659.405 L336.255,659.405 L336.255,652.655 L332.805,652.655 Z M338.175,659.405 L341.625,659.405 L341.625,652.655 L338.175,652.655 L338.175,659.405 Z M341.625,650.495 L341.625,643.835 L338.175,643.835 L338.175,650.495 L341.625,650.495 Z M350.055,663.935 L344.805,663.935 L344.805,661.835 L348.105,661.835 L348.105,641.015 L344.655,641.015 L344.655,638.915 L350.055,638.915 L350.055,650.345 C350.835,650.045 351.555,649.745 352.215,649.415 L352.605,651.695 C351.855,651.995 351.015,652.265 350.055,652.565 L350.055,663.935 Z M340.095,674.315 L324.825,674.315 L324.825,672.245 L339.855,672.245 C336.795,671.285 334.035,670.025 331.575,668.495 L333.765,667.595 C336.885,669.725 340.425,671.255 344.385,672.155 L344.385,668.105 L346.455,668.105 L346.455,672.245 L352.305,672.245 L352.305,674.315 L346.455,674.315 L346.455,677.855 L344.385,677.855 L344.385,674.315 L342.435,674.315 C340.785,675.755 338.925,677.195 336.825,678.695 L334.995,677.495 C337.095,676.265 338.805,675.215 340.095,674.315 Z M349.035,678.605 L349.035,686.105 C350.115,685.685 351.105,685.205 352.005,684.665 L352.365,686.885 C351.405,687.335 350.295,687.785 349.035,688.205 L349.035,694.865 L347.085,694.865 L347.085,686.645 C344.175,684.995 342.105,683.555 340.875,682.295 C340.995,684.215 341.115,686.105 341.265,687.965 C342.345,688.745 343.455,689.435 344.655,690.035 L343.725,691.775 C337.785,688.775 333.705,684.395 331.545,678.575 L333.345,677.405 C334.635,681.035 336.645,684.065 339.405,686.525 C339.285,684.425 339.165,682.175 339.075,679.805 L340.845,679.355 C340.905,679.535 340.965,679.655 341.025,679.775 C341.805,680.975 343.815,682.505 347.085,684.425 L347.085,678.605 L349.035,678.605 Z M330.915,688.205 C328.335,685.325 326.355,681.995 325.035,678.155 L326.895,676.985 C329.205,684.035 333.645,689.315 340.215,692.825 L339.255,694.655 C336.555,693.215 334.215,691.505 332.235,689.555 C330.315,691.715 328.425,693.575 326.535,695.075 L324.975,693.515 C326.835,692.195 328.815,690.425 330.915,688.205 Z" id="形状结合"></path>
            </g>
        </g>
    </g>
</svg>