<?xml version="1.0" encoding="UTF-8"?>
<svg width="39px" height="36px" viewBox="0 0 39 36" version="1.1" xmlns="http://www.w3.org/2000/svg" xmlns:xlink="http://www.w3.org/1999/xlink">
    <!-- Generator: Sketch 55.2 (78181) - https://sketchapp.com -->
    <title>common_nav_languange</title>
    <desc>Created with Sketch.</desc>
    <g id="页面1" stroke="none" stroke-width="1" fill="none" fill-rule="evenodd">
        <g id="home" transform="translate(-681.000000, -65.000000)" fill="#333333" fill-rule="nonzero">
            <g id="common_nav_languange" transform="translate(681.000000, 65.000000)">
                <path d="M35.416953,28.9773838 L33.8070654,28.9773838 L33.8070654,32.1977055 L33.8070654,32.1977055 C33.8070654,33.9759369 32.3655251,35.4174773 30.5872937,35.4174773 C30.5872937,35.4174773 30.5872937,35.4174773 30.5872937,35.4174773 L3.21922179,35.4174773 L3.21922185,35.4174773 C1.44120492,35.4174773 0,33.9757225 0,32.1977055 L0,9.65931372 L0,9.65876475 C0,7.88083775 1.4412948,6.43954295 3.2192218,6.43954295 C3.21940497,6.43954295 3.21958814,6.43954296 3.2197713,6.43954299 L4.8296589,6.43954299 L4.8296589,3.21977125 L4.8296589,3.21977174 C4.82965864,1.44154037 6.27119928,0 8.04943064,0 C8.04943081,0 8.04943097,0 8.04943113,0 L35.4169496,0 L35.4169495,0 C37.1951809,0 38.6367212,1.44154037 38.6367212,3.21977174 L38.6367212,25.7576101 L38.6367212,25.7576101 C38.6367212,27.5358415 37.1951809,28.9773819 35.4169495,28.9773819 C35.4169495,28.9773819 35.4169495,28.9773819 35.4169495,28.9773819 L35.416953,28.9773838 Z M3.21923562,8.04941342 L3.21923569,8.04941342 C2.33042264,8.04941342 1.60989802,8.76994036 1.60989802,9.6587534 C1.60989802,9.65893656 1.60989802,9.65911972 1.60989802,9.65930288 L1.60989802,32.1976947 L1.60989802,32.1976883 C1.60959114,33.0865013 2.32986588,33.807275 3.21867893,33.8075795 C3.21886209,33.8075795 3.21904524,33.8075795 3.21922841,33.8075795 L30.5873003,33.8075795 L30.5873003,33.8075795 C31.4764142,33.8078864 32.1974335,33.0873661 32.1977414,32.1982487 C32.1977414,32.1980634 32.1977414,32.1978781 32.1977414,32.1976928 L32.1977414,9.65930098 L32.1977414,9.65930102 C32.1977414,8.77018706 31.4769712,8.04941342 30.5878538,8.04941342 L3.21923562,8.04941342 Z M37.0268579,3.21977024 L37.0268579,3.21977027 C37.0268579,2.33065632 36.3060877,1.60988257 35.4169703,1.60988257 L8.04945182,1.60988257 L8.04945185,1.60988257 C7.1606388,1.60957915 6.43956415,2.32985735 6.43956415,3.21867039 C6.43956415,3.21903674 6.43956415,3.2194031 6.43956415,3.21976945 L6.43956415,6.43954119 L30.5873075,6.43954119 L30.5873074,6.43954119 C32.3655388,6.43954112 33.8070791,7.88108157 33.8070791,9.65931294 C33.8070791,9.65931294 33.8070791,9.65931294 33.8070791,9.65931294 L33.8070791,27.3675058 L35.4169667,27.3675058 L35.4169667,27.3675058 C36.3060806,27.3675058 37.0268579,26.6467357 37.0268579,25.7576182 L37.0268579,3.21922643 L37.0268579,3.21977024 Z M11.0384772,13.0219418 L16.2840707,13.0219418 L16.2840707,14.8763311 L14.9961607,14.8763311 L15.2192369,15.3224843 C15.3225332,15.528711 15.5686872,15.6318243 15.9576951,15.6318243 L16.4989013,15.6318243 L16.4989013,17.2114894 L15.38462,17.2114894 C14.738102,17.2114894 14.3168587,17.1484861 14.1208865,17.022479 L14.1208864,17.022479 C13.9109883,16.8783495 13.7446897,16.6793599 13.6401182,16.4472041 L12.8335263,14.8763276 L12.6186915,14.8763276 L11.9917708,16.4812692 C11.8602692,16.813503 11.6657642,17.023942 11.4082572,17.112586 C11.1507489,17.2012304 10.8159515,17.2455528 10.4038635,17.2455528 L9.00386603,17.2455528 L9.00386603,15.5779734 L9.55331447,15.5779734 C9.78243487,15.5779734 9.95935666,15.5351165 10.0857321,15.4488528 C10.2121054,15.3625894 10.3175998,15.1944577 10.4033135,14.9428115 L11.0384772,13.0219418 Z M9.16705357,18.7202843 L11.227487,18.7202843 L11.227487,28.9010149 L9.16705357,28.9010149 L9.16705357,18.7202843 Z M14.9703342,18.335669 L14.9703342,19.9757756 L13.6395669,19.9757756 C13.1131952,19.9757756 12.762645,19.9098417 12.5879199,19.7779741 C12.4131951,19.6461062 12.2745508,19.4400629 12.1719857,19.1598455 L11.4835271,17.3290793 L13.6379171,17.3290793 L13.9214328,18.0246802 C14.0016523,18.2309069 14.244875,18.3338369 14.6511023,18.3334706 L14.9703342,18.335669 Z M12.4467017,20.7032454 L20.5494333,20.7032454 L20.5494333,26.7301681 L20.5494333,26.7301782 C20.5513614,27.0308233 20.5269081,27.3310581 20.476355,27.6274271 L20.476355,27.6274272 C20.4309708,27.8896799 20.3185403,28.1357409 20.1499821,28.3417123 C19.9811181,28.5479389 19.4474187,28.6510523 18.5488866,28.6510523 L12.4467017,28.6510523 L12.4467017,20.7032454 Z M18.4730828,23.8109297 L18.4730828,22.4631316 L14.4895833,22.4631316 L14.4895833,23.8109297 L18.4730828,23.8109297 Z M18.473089,25.5279587 L14.4895833,25.5279587 L14.4895833,26.9015833 L17.9153991,26.9015833 C18.1153986,26.9015833 18.2588049,26.882902 18.344518,26.8466384 C18.4302321,26.8103749 18.473089,26.7219135 18.473089,26.5845511 L18.473089,25.5279587 Z M20.7653831,26.9015833 L21.6928545,26.9015833 L21.6928545,26.9015833 C21.7982537,26.9052985 21.9005542,26.8655702 21.9758209,26.7916936 C22.0505459,26.7175178 22.0857106,26.5400457 22.0857106,26.259276 L22.0857106,19.7505162 L15.5884684,19.7505162 L15.5884684,17.930192 L24.1653815,17.930192 L24.1653815,27.0131532 C24.1653815,27.1680978 24.1496306,27.4014313 24.1181289,27.7131502 C24.0866271,28.0248712 23.9921218,28.2695576 23.8346132,28.4472158 C23.6774709,28.6241383 23.2067759,28.712783 22.4225275,28.7131493 L20.76539,28.7131493 L20.7653831,26.9015833 Z M18.7395648,12.9939225 L24.1994272,12.9939225 L24.1994272,14.8483119 L22.671408,14.8483119 L22.8944842,15.2516078 L22.8944842,15.2516078 C22.943203,15.3494448 23.0103679,15.4369461 23.0922861,15.5092995 C23.165546,15.5726691 23.3657285,15.604171 23.692834,15.6038047 L24.2340402,15.6038047 L24.2340402,17.2092962 L23.0922861,17.2092962 C22.4329466,17.2092962 21.9965021,17.1376848 21.7829491,16.9944615 C21.5693965,16.8512385 21.3791032,16.5878694 21.2120703,16.2043539 L20.6109725,14.8483136 L20.336248,14.8483136 L19.8900948,16.2043539 C19.7871648,16.5135106 19.6628061,16.7296258 19.5170179,16.852705 L19.5170179,16.852705 C19.3836693,16.969324 19.2248433,17.053065 19.0532839,17.0972099 C18.8902808,17.1371365 18.6084139,17.157283 18.2076809,17.1576493 L16.7988948,17.1576493 L16.7988948,15.5093005 L17.2884552,15.5093005 C17.6089672,15.5093005 17.8064014,15.4849416 17.8807608,15.4362239 C17.9551196,15.3875062 18.0324089,15.2400705 18.1126285,14.9939225 L18.7395648,12.9939225 Z" id="形状"></path>
            </g>
        </g>
    </g>
</svg>