<?xml version="1.0" encoding="UTF-8"?>
<svg width="56px" height="57px" viewBox="0 0 56 57" version="1.1" xmlns="http://www.w3.org/2000/svg" xmlns:xlink="http://www.w3.org/1999/xlink">
    <!-- Generator: Sketch 57.1 (83088) - https://sketch.com -->
    <title> application_fund</title>
    <desc>Created with Sketch.</desc>
    <defs>
        <linearGradient x1="50%" y1="0%" x2="50%" y2="100%" id="linearGradient-1">
            <stop stop-color="#FD9745" offset="0%"></stop>
            <stop stop-color="#F97B48" offset="100%"></stop>
        </linearGradient>
        <linearGradient x1="100%" y1="35.2811182%" x2="-3.71462487%" y2="64.8803562%" id="linearGradient-2">
            <stop stop-color="#FFAE60" offset="0%"></stop>
            <stop stop-color="#F99248" offset="100%"></stop>
        </linearGradient>
    </defs>
    <g id="页面1" stroke="none" stroke-width="1" fill="none" fill-rule="evenodd">
        <g id="1-应用产品" transform="translate(-627.000000, -989.000000)" fill-rule="nonzero">
            <g id="编组-4备份" transform="translate(0.000000, 917.000000)">
                <g id="编组-3备份-3" transform="translate(602.000000, 72.000000)">
                    <g id="编组-7" transform="translate(25.000000, 0.000000)">
                        <g id="基金" transform="translate(5.000000, 2.000000)">
                            <g id="编组-16">
                                <path d="M1.46591589,30.7214105 L7.50423496,32.4827286 C7.83278274,32.5785627 8.18697258,32.5224369 8.46979628,32.3297231 L15.5191034,27.5263839 C15.8465364,27.3032738 16.2660328,27.2652631 16.6282359,27.425885 L22.4373596,30.0019881 C22.8396395,30.1803824 23.3085579,30.1124941 23.6437261,29.8273347 L44.1126641,12.4124685 C44.5943957,12.0026138 45.3171693,12.0608815 45.727024,12.5426131 C45.9032364,12.7497281 46,13.0127879 46,13.2847207 L46,40.9365321 C46,43.4665004 43.9490555,45.517445 41.4190871,45.517445 L4.58091286,45.517445 C2.05094455,45.517445 0,43.4665004 0,40.9365321 L0,31.8208227 C0,31.1883306 0.512736137,30.6755944 1.14522822,30.6755944 C1.253755,30.6755944 1.36173084,30.6910208 1.46591589,30.7214105 Z" id="矩形" fill="url(#linearGradient-1)"></path>
                                <path d="M46,0.099701183 L46,5.44296929 L23.921467,24.997211 C23.3244795,25.5259435 22.4704406,25.6494949 21.7480847,25.3116281 L15.3192682,22.3046841 L8.62699586,27.6165517 C8.0764724,28.0535195 7.33698149,28.1694324 6.67915987,27.921869 L-8.8817842e-16,25.4082451 L-8.8817842e-16,21.1343606 L7.02764561,23.779133 L13.8020034,18.4021116 C14.3960656,17.9305856 15.205733,17.835663 15.8927477,18.1569997 L22.2528345,21.1317968 L46,0.099701183 Z" id="路径" fill="url(#linearGradient-2)"></path>
                            </g>
                        </g>
                    </g>
                </g>
            </g>
        </g>
    </g>
</svg>