<?xml version="1.0" encoding="UTF-8"?>
<svg width="56px" height="56px" viewBox="0 0 56 56" version="1.1" xmlns="http://www.w3.org/2000/svg" xmlns:xlink="http://www.w3.org/1999/xlink">
    <!-- Generator: Sketch 57.1 (83088) - https://sketch.com -->
    <title>小微贷</title>
    <desc>Created with Sketch.</desc>
    <defs>
        <linearGradient x1="50%" y1="0%" x2="50%" y2="100%" id="linearGradient-1">
            <stop stop-color="#2DC8FF" offset="0%"></stop>
            <stop stop-color="#2B8BFF" offset="100%"></stop>
        </linearGradient>
    </defs>
    <g id="页面-1" stroke="none" stroke-width="1" fill="none" fill-rule="evenodd">
        <g id="应用产品" transform="translate(-444.000000, -711.000000)" fill="url(#linearGradient-1)" fill-rule="nonzero">
            <g id="dkw_贷款-31" transform="translate(444.000000, 711.000000)">
                <path d="M33,17.533609 C34.1157885,17.5299676 35.1901498,17.9491131 36,18.704036 L36,18.704036 L36.0409389,18.7432077 C37.2059344,19.8344415 48,28.4135436 48,38.2861487 C48,46.3215934 39.4200107,50 35.0000105,50 L35.0000105,50 L20.9999895,50 C16.5800034,50 8,46.3215796 8,38.2861487 C8,28.2836409 19.0800028,19.6088858 20,18.704036 C20.8098503,17.9491126 21.8842117,17.5299681 23,17.533609 L23,17.533609 Z M33.6420785,26 C33.3615435,26 33.1167508,26.0531064 32.9140099,26.1653137 C32.7110024,26.2804216 32.54084,26.4162376 32.400537,26.5874227 C32.2692273,26.7585903 32.1289065,26.9651446 31.9827738,27.2042729 C31.842453,27.4463721 31.7082462,27.6795762 31.5739328,27.898014 L28.109013,33.5655114 L24.229227,27.5526904 C23.8920128,27.0125026 23.6025556,26.6139847 23.3428687,26.3690026 C23.0921753,26.1239326 22.7668514,26 22.3520208,26 C21.9580028,26 21.6326967,26.126921 21.3820032,26.3748389 C21.1253023,26.6228095 21,26.9533666 21,27.3666509 C21,27.5968666 21.0447711,27.8064972 21.1313097,27.9953845 C21.2268594,28.184307 21.4118625,28.503174 21.7013908,28.9458857 L25.2916129,34.5130417 L23.7576105,34.5130417 C22.6206298,34.5130417 22.0565562,34.8760147 22.0565562,35.6080782 C22.0565562,36.3489839 22.6205409,36.717969 23.7576105,36.717969 L26.4645491,36.717969 L26.4645491,38.4300489 L23.7576105,38.4300665 C22.6205409,38.4300665 22.0565562,38.8049053 22.0565562,39.5486765 C22.0565562,40.2748861 22.6205409,40.6409179 23.7576105,40.6409179 L26.4644425,40.6409179 L26.4644425,41.5854598 C26.4644425,43.1970928 27.0136043,44 28.1089064,44 C29.1862929,44 29.7294473,43.1971104 29.7294473,41.5854598 L29.7294473,40.6409003 L32.4422689,40.6409003 C33.5673236,40.6409003 34.1314151,40.2747807 34.1314151,39.5486589 C34.1314151,38.8048175 33.5673236,38.429961 32.4422689,38.429961 L29.7294473,38.429961 L29.7294473,36.7178811 L32.4422867,36.7178811 C33.5673414,36.7178811 34.1314329,36.3488785 34.1314329,35.6079903 C34.1314329,34.8759268 33.5673414,34.5129538 32.4422689,34.5129538 L30.9142917,34.5129538 L34.3702182,28.8720008 C34.591159,28.5266772 34.743388,28.2374134 34.8477533,28.0100631 C34.9462178,27.7769644 35,27.5230696 35,27.2485722 C35,26.9002777 34.871694,26.6021892 34.6210005,26.3630609 C34.3643885,26.1210496 34.0389935,26 33.6420785,26 Z M27.9999908,7 C29.8799931,7 30.07999,7.98353383 30.999992,8.96706305 C31.9199939,9.95059688 33.2999944,8.81953344 33.9999931,7.98353383 C34.6999918,7.14753422 37.5199929,6.69511161 36.9999943,9.86207911 C36.4799957,13.0290651 34.5499965,15.5764082 32.9999943,15.5764082 L32.9999943,15.5764082 L22.9999873,15.5764082 C21.4399867,15.5764082 19.499989,12.9405288 18.9999873,9.77356134 C18.4999855,6.60658923 21.2499881,7.14753422 21.9999884,7.98353383 C22.7499887,8.81953344 24.0899908,9.95059227 24.9999896,8.96706305 C25.9099884,7.98352922 26.1199885,7 27.9999908,7 Z" id="小微贷"></path>
            </g>
        </g>
    </g>
</svg>