<?xml version="1.0" encoding="UTF-8"?>
<svg width="56px" height="57px" viewBox="0 0 56 57" version="1.1" xmlns="http://www.w3.org/2000/svg" xmlns:xlink="http://www.w3.org/1999/xlink">
    <!-- Generator: Sketch 57.1 (83088) - https://sketch.com -->
    <title> application_hk</title>
    <desc>Created with Sketch.</desc>
    <defs>
        <linearGradient x1="50%" y1="0%" x2="50%" y2="100%" id="linearGradient-1">
            <stop stop-color="#FF7A68" offset="0%"></stop>
            <stop stop-color="#FF3519" offset="100%"></stop>
        </linearGradient>
    </defs>
    <g id="页面1" stroke="none" stroke-width="1" fill="none" fill-rule="evenodd">
        <g id="1-应用产品" transform="translate(-260.000000, -989.000000)" fill="url(#linearGradient-1)" fill-rule="nonzero">
            <g id="编组-4备份" transform="translate(0.000000, 917.000000)">
                <g id="编组-3备份" transform="translate(209.000000, 72.000000)">
                    <g id="香港" transform="translate(51.000000, 0.000000)">
                        <g id="编组-5">
                            <path d="M52.7536946,22.2761833 L52.7536946,40.6838259 C52.7536946,43.6593167 50.5261458,46.0714286 47.7783251,46.0714286 L7.97536946,46.0714286 C5.22754878,46.0714286 3,43.6593167 3,40.6838259 L3,22.2761833 L52.7536946,22.2761833 Z M44.8865349,37.6490346 C44.1992913,35.9885761 42.2960115,35.1995967 40.635553,35.8867817 C41.1207864,37.0592587 40.4731848,37.1963098 41.0298088,38.5409193 C41.5276131,39.7436247 42.1537566,39.5548286 43.1241651,41.899958 C44.7846236,41.2127145 45.5737199,39.3094931 44.8865349,37.6490346 Z M39.1478701,35.5291274 C38.1826069,36.3529543 37.8523161,35.7793743 36.7454412,36.7241149 C35.7553872,37.5690491 36.1284773,38.1063199 34.1981848,39.7541491 C35.3647564,41.1208598 37.4186522,41.2833449 38.7855383,40.1165979 C40.1523075,38.9498508 40.3146171,36.8959551 39.1478701,35.5291274 Z M33.4804789,30.6016018 C32.5410006,32.1335456 33.0214396,34.1370997 34.5533834,35.0765196 C36.0853857,36.0159395 38.0888228,35.5356175 39.0283012,34.0036736 C37.9465095,33.340227 38.3899377,32.8486789 37.1494029,32.0879984 C36.0397215,31.4075957 35.6441793,31.9283783 33.4804789,30.6016018 Z M44.6096308,31.0745759 L44.4251567,31.0838534 C42.6336109,31.2244711 41.2950238,32.7909116 41.4355246,34.5823404 C42.7004994,34.4830602 42.6308629,35.1414201 44.0816519,35.0275811 C45.3791354,34.9259037 45.3931095,34.2720459 47.9234684,34.0736609 C47.783026,32.2820567 46.216644,30.9435865 44.4251567,31.0838534 Z M41.9632649,27.0908948 C40.2159801,26.6707957 38.458814,27.7468574 38.0388903,29.4940838 C37.6187912,31.2414271 38.694853,32.9984177 40.4420794,33.4185168 C40.7386921,32.184589 41.3430852,32.454423 41.6832573,31.0395339 C41.987588,29.7740914 41.3699809,29.5586919 41.9632649,27.0908948 Z M47.7783251,10 C50.5261458,10 52.7536946,12.2275488 52.7536946,14.9753695 L52.7536946,19.1215107 L3,19.1215107 L3,14.9753695 C3,12.2275488 5.22754878,10 7.97536946,10 L47.7783251,10 Z" id="形状结合"></path>
                        </g>
                    </g>
                </g>
            </g>
        </g>
    </g>
</svg>