<?xml version="1.0" encoding="UTF-8"?>
<svg width="124px" height="124px" viewBox="0 0 124 124" version="1.1" xmlns="http://www.w3.org/2000/svg" xmlns:xlink="http://www.w3.org/1999/xlink">
    <!-- Generator: Sketch 55.2 (78181) - https://sketchapp.com -->
    <title>形状</title>
    <desc>Created with Sketch.</desc>
    <g id="页面1" stroke="none" stroke-width="1" fill="none" fill-rule="evenodd">
        <g id="人证对比-识别错误" transform="translate(-313.000000, -248.000000)" fill="#FF6969" fill-rule="nonzero">
            <g id="失败" transform="translate(313.000000, 248.000000)">
                <path d="M62.0000749,52.7000613 L44.7433477,35.4227483 L35.4330076,44.7227591 L52.6897347,62.0000721 L35.4434217,79.2567993 L44.7434325,88.5671394 L62.0001596,71.3104123 L79.2568867,88.5671394 L88.5672269,79.2671286 L71.3104998,62.0001085 L88.5672269,44.7433814 L79.267216,35.4330412 L62.0001959,52.6897683 L62.0000749,52.7000613 Z M62.0000749,124.000144 L62.0000721,124.000144 C27.7583526,124.000144 0,96.2417917 0,62.0000721 C0,27.7583526 27.7583526,0 62.0000721,0 L62.0000694,0 C96.241789,0 124.000142,27.7583526 124.000142,62.0000721 C124.000142,96.2417917 96.241789,124.000144 62.0000694,124.000144 L62.0000749,124.000144 Z" id="形状"></path>
            </g>
        </g>
    </g>
</svg>