<?xml version="1.0" encoding="UTF-8"?>
<svg width="56px" height="56px" viewBox="0 0 56 56" version="1.1" xmlns="http://www.w3.org/2000/svg" xmlns:xlink="http://www.w3.org/1999/xlink">
    <!-- Generator: Sketch 57.1 (83088) - https://sketch.com -->
    <title> application_recharge</title>
    <desc>Created with Sketch.</desc>
    <defs>
        <linearGradient x1="50%" y1="0%" x2="50%" y2="100%" id="linearGradient-1">
            <stop stop-color="#F5C74A" offset="0%"></stop>
            <stop stop-color="#ED9709" offset="100%"></stop>
        </linearGradient>
    </defs>
    <g id="页面1" stroke="none" stroke-width="1" fill="none" fill-rule="evenodd">
        <g id="1-应用产品" transform="translate(-627.000000, -1267.000000)">
            <g id="编组-4备份-2" transform="translate(0.000000, 1195.000000)">
                <g id="编组-3备份-3" transform="translate(602.000000, 72.000000)">
                    <g id="编组-10备份-2" transform="translate(16.000000, 0.000000)">
                        <path d="M58.8789956,35.1130347 C57.5114927,34.2848192 55.9073801,33.8080808 54.1919192,33.8080808 C49.1878846,33.8080808 45.1313131,37.8646523 45.1313131,42.8686869 C45.1313131,45.0539926 45.9049603,47.0586034 47.1933073,48.6235718 C44.1211595,50.1449052 40.6604388,51 37,51 C24.2974508,51 14,40.7025492 14,28 C14,15.2974508 24.2974508,5 37,5 C49.7025492,5 60,15.2974508 60,28 C60,30.4825105 59.6066944,32.8731595 58.8789956,35.1130347 L58.8789956,35.1130347 Z M38.3142187,20.114688 C37.5883957,19.3888651 36.4116043,19.3888651 35.6857813,20.114688 L29.114688,26.6857813 C28.3888651,27.4116043 28.3888651,28.5883957 29.114688,29.3142187 L35.6857813,35.885312 C36.4116043,36.6111349 37.5883957,36.6111349 38.3142187,35.885312 L44.885312,29.3142187 C45.6111349,28.5883957 45.6111349,27.4116043 44.885312,26.6857813 L38.3142187,20.114688 Z M53.030303,41.9393939 L50.9393939,41.9393939 C50.297851,41.9393939 49.7777778,42.4594672 49.7777778,43.1010101 C49.7777778,43.742553 50.297851,44.2626263 50.9393939,44.2626263 L53.030303,44.2626263 L53.030303,46.3535354 C53.030303,46.9950782 53.5503763,47.5151515 54.1919192,47.5151515 C54.8334621,47.5151515 55.3535354,46.9950782 55.3535354,46.3535354 L55.3535354,44.2626263 L57.4444444,44.2626263 C58.0859873,44.2626263 58.6060606,43.742553 58.6060606,43.1010101 C58.6060606,42.4594672 58.0859873,41.9393939 57.4444444,41.9393939 L55.3535354,41.9393939 L55.3535354,39.8484848 C55.3535354,39.206942 54.8334621,38.6868687 54.1919192,38.6868687 C53.5503763,38.6868687 53.030303,39.206942 53.030303,39.8484848 L53.030303,41.9393939 Z M54.3080808,36.0151515 C58.1588384,36.0151515 61.2777778,39.1340909 61.2777778,42.9848485 C61.2777778,46.8356061 58.1588384,49.9545455 54.3080808,49.9545455 C50.4573232,49.9545455 47.3383838,46.8356061 47.3383838,42.9848485 C47.3383838,39.1340909 50.4573232,36.0151515 54.3080808,36.0151515 Z" id="形状" fill="url(#linearGradient-1)" fill-rule="nonzero"></path>
                        <g id="加" transform="translate(0.222222, 35.898990)"></g>
                    </g>
                </g>
            </g>
        </g>
    </g>
</svg>