<?xml version="1.0" encoding="UTF-8"?>
<svg width="56px" height="56px" viewBox="0 0 56 56" version="1.1" xmlns="http://www.w3.org/2000/svg" xmlns:xlink="http://www.w3.org/1999/xlink">
    <!-- Generator: Sketch 57.1 (83088) - https://sketch.com -->
    <title> application_etc</title>
    <desc>Created with Sketch.</desc>
    <defs>
        <linearGradient x1="50%" y1="0%" x2="50%" y2="100%" id="linearGradient-1">
            <stop stop-color="#79E1A5" offset="0%"></stop>
            <stop stop-color="#27B790" offset="100%"></stop>
        </linearGradient>
        <polygon id="path-2" points="0 0.0640460526 8.91851053 0.0640460526 8.91851053 10.8712566 0 10.8712566"></polygon>
    </defs>
    <g id="页面1" stroke="none" stroke-width="1" fill="none" fill-rule="evenodd">
        <g id="1-应用产品" transform="translate(-77.000000, -1267.000000)">
            <g id="编组-4备份-2" transform="translate(0.000000, 1195.000000)">
                <g id="编组-3" transform="translate(52.000000, 72.000000)">
                    <g id="编组" transform="translate(25.000000, 0.000000)">
                        <g transform="translate(2.000000, 7.000000)">
                            <path d="M15.7289555,0.0120446964 C15.6149183,0.0219846658 15.296771,0.0670458607 15.0262219,0.111444391 C11.7203,0.653338393 8.65864917,3.27102935 7.64421391,6.42299367 C7.56108245,6.68110154 6.95866855,9.40001452 6.30601218,12.4633474 L5.11903368,18.0340377 L4.62454194,18.2947962 C3.30220625,18.9922507 2.11374031,20.1595345 1.41001511,21.4520618 C1.08922351,22.0418334 0.790412993,22.8559169 0.661336106,23.4925719 C0.505981081,24.2579495 -0.0361087914,31.4664154 0.00190360825,32.259625 C0.119080962,34.7018755 1.48967587,36.8278693 3.67175288,37.9515828 L4.16112121,38.2033954 L4.27747221,38.5426797 C4.54405482,39.3201509 4.94087122,39.9920929 5.47304481,40.5674514 C6.11181839,41.257948 7.13897954,41.8838347 8.05012023,42.1376353 C10.6686788,42.8675604 13.4589542,41.566087 14.582799,39.0907033 L14.7606309,38.6992342 L25.5006213,38.6992342 L36.2407769,38.6992342 L36.3652262,39.0123432 C36.6780847,39.8004171 37.5431147,40.8535569 38.291959,41.3588387 C40.0134249,42.5199928 42.1860814,42.6561704 43.9976202,41.7161806 C45.2483934,41.0674319 46.2319229,39.935932 46.6839399,38.6261754 L46.8298745,38.2033954 L47.2880065,37.9669898 C48.245919,37.4726419 49.0845056,36.7705488 49.6854321,35.9594473 C50.4995585,34.8605836 51,33.3450696 51,31.9778268 C51,31.5071693 50.5375709,25.2721578 50.4245253,24.218024 C50.1519929,21.6765395 48.5587776,19.3987955 46.23622,18.2305177 L45.8666733,18.0444746 L44.6772158,12.4684831 C44.0225761,9.40001452 43.4195012,6.68143287 43.3363697,6.42299367 C42.4376244,3.62886825 39.8901325,1.19357573 36.9747467,0.341223352 C35.7555403,-0.0152902196 36.5894993,0.0100567025 25.7505115,0.00160772845 C20.3519244,-0.00269959165 15.8434885,0.00193906076 15.7289555,0.0120446964" id="Fill-1" fill="url(#linearGradient-1)"></path>
                            <g transform="translate(11.000000, 22.000000)">
                                <path d="M24.2008112,0.0406754365 C21.9668472,0.392034036 20.398891,2.18424004 20.053056,4.78139905 C19.9460298,5.58558221 20.0089775,7.29757005 20.1697432,7.95625195 C20.6686453,9.99958235 21.7730226,11.2644425 23.5292181,11.803644 C23.9612477,11.9365198 24.2066984,11.9700851 24.9075765,11.9924107 C25.8477162,12.0224348 26.285331,11.9683915 26.9457535,11.7397466 C27.5762872,11.5215717 27.9678611,11.2578218 28.5810351,10.6379403 C29.0364624,10.1772633 29.1917938,9.9704821 29.4090162,9.53490213 C29.6703171,9.01063569 29.8658021,8.45388166 29.9483738,7.99813168 L29.9883766,7.77764723 L28.8233158,7.77764723 L27.6581041,7.77764723 L27.5569651,8.09328488 C27.2955133,8.90947767 26.8779753,9.44436802 26.2857839,9.72243709 C25.9467418,9.88133371 25.8770012,9.89226555 25.1936338,9.89226555 C24.4870194,9.89226555 24.4509415,9.88579883 24.0664624,9.69272096 C23.3098824,9.31287799 22.8161128,8.65327227 22.5481699,7.66447958 C22.4425023,7.27432065 22.4258974,7.05091077 22.4284636,6.05010845 C22.4308789,5.04930613 22.4486914,4.8226629 22.5567743,4.41217998 C22.8313591,3.3696519 23.3686034,2.61812634 24.084124,2.27631385 C24.4030892,2.12372999 24.5511748,2.0907805 25.0126403,2.06968667 C26.3324286,2.00886868 27.1027454,2.4912554 27.5060937,3.63170813 L27.6348572,3.99507636 L28.8174286,4.00985744 L30,4.02479249 L29.9615068,3.69729918 C29.8801428,3.00628367 29.4398108,2.09647737 28.8743382,1.45149877 C28.3216966,0.821301247 27.4304659,0.327982687 26.4667774,0.119045957 C25.9352694,0.00387670498 24.7056004,-0.0387728709 24.2008112,0.0406754365" id="Fill-1" fill="#FEFEFE"></path>
                                <g>
                                    <mask id="mask-3" fill="white">
                                        <use xlink:href="#path-2"></use>
                                    </mask>
                                    <g id="Clip-4"></g>
                                    <polygon id="Fill-3" fill="#FEFEFE" mask="url(#mask-3)" points="-1.57894737e-05 5.46765132 -1.57894737e-05 10.8712566 4.45924737 10.8712566 8.91851053 10.8712566 8.91851053 9.89124342 8.91851053 8.911375 5.65056316 8.911375 2.3823 8.911375 2.3823 7.53941447 2.3823 6.16759868 5.2533 6.16759868 8.12445789 6.16759868 8.12445789 5.21566447 8.12445789 4.26373026 5.28393158 4.26373026 2.44340526 4.26373026 2.44340526 3.11582237 2.44340526 1.96791447 5.55882632 1.96791447 8.67424737 1.96791447 8.67424737 1.01598026 8.67424737 0.0640460526 4.33703684 0.0640460526 -1.57894737e-05 0.0640460526"></polygon>
                                </g>
                                <polygon id="Fill-5" fill="#FEFEFE" points="10 0.968915734 10 1.93783147 11.6731285 1.93783147 13.346108 1.93783147 13.346108 6.46891573 13.346108 11 14.5287802 11 15.7114524 11 15.7114524 6.46891573 15.7114524 1.93783147 17.3556517 1.93783147 19 1.93783147 19 0.968915734 19 0 14.5 0 10 0"></polygon>
                            </g>
                        </g>
                    </g>
                </g>
            </g>
        </g>
    </g>
</svg>