<?xml version="1.0" encoding="UTF-8"?>
<svg width="56px" height="56px" viewBox="0 0 56 56" version="1.1" xmlns="http://www.w3.org/2000/svg" xmlns:xlink="http://www.w3.org/1999/xlink">
    <!-- Generator: Sketch 57.1 (83088) - https://sketch.com -->
    <title>闪付</title>
    <desc>Created with Sketch.</desc>
    <defs>
        <linearGradient x1="50%" y1="0%" x2="50%" y2="100%" id="linearGradient-1">
            <stop stop-color="#F5C74A" offset="0%"></stop>
            <stop stop-color="#ED9709" offset="100%"></stop>
        </linearGradient>
    </defs>
    <g id="页面-1" stroke="none" stroke-width="1" fill="none" fill-rule="evenodd">
        <g id="应用产品" transform="translate(-627.000000, -711.000000)">
            <g id="编组-4" transform="translate(0.000000, 639.000000)">
                <g id="编组-3备份-4" transform="translate(432.000000, 72.000000)">
                    <g id="编组-8备份" transform="translate(195.000000, 0.000000)">
                        <g id="dkw_贷款-31">
                            <path d="M52.7536946,22.2761833 L52.7536946,40.6838259 C52.7536946,43.6593167 50.5261458,46.0714286 47.7783251,46.0714286 L7.97536946,46.0714286 C5.22754878,46.0714286 3,43.6593167 3,40.6838259 L3,22.2761833 L52.7536946,22.2761833 Z M41.6399976,26.2910944 L34.6461451,35.0182158 C34.5063801,35.236438 34.4363806,35.5271056 34.5761459,35.8182169 C34.7161442,36.0364391 34.9261412,36.1817737 35.2056725,36.1817737 L40.7307072,36.1817737 L40.1011805,41.1999994 C40.0311813,41.4911107 40.2411788,41.854444 40.5209426,41.9273332 C40.5909418,42 40.7307072,42 40.8007052,42 C41.0104698,42 41.2202343,41.9273332 41.3602321,41.7088887 L48.3538549,32.9817672 C48.4936199,32.763545 48.5636194,32.4728775 48.4238541,32.2544334 C48.2836179,31.9635428 48.0740869,31.8182098 47.7943242,31.8182098 L42.2692896,31.8182098 L42.8988162,26.7999841 C42.9688154,26.5088728 42.7588179,26.1455395 42.4790541,26.0726503 C42.1992915,25.9273168 41.8499951,26 41.6399976,26.2910944 Z M47.7783251,10 C50.5261458,10 52.7536946,12.2275488 52.7536946,14.9753695 L52.7536946,19.1215107 L3,19.1215107 L3,14.9753695 C3,12.2275488 5.22754878,10 7.97536946,10 L47.7783251,10 Z" id="形状结合" fill="url(#linearGradient-1)" fill-rule="nonzero"></path>
                            <g id="闪电" transform="translate(34.000000, 26.000000)"></g>
                        </g>
                    </g>
                </g>
            </g>
        </g>
    </g>
</svg>