<?xml version="1.0" encoding="UTF-8"?>
<svg width="28px" height="26px" viewBox="0 0 28 26" version="1.1" xmlns="http://www.w3.org/2000/svg" xmlns:xlink="http://www.w3.org/1999/xlink">
    <!-- Generator: Sketch 55.2 (78181) - https://sketchapp.com -->
    <title>common_tips</title>
    <desc>Created with Sketch.</desc>
    <g id="页面1" stroke="none" stroke-width="1" fill="none" fill-rule="evenodd">
        <g id="SZCA数字证书申请2" transform="translate(-92.000000, -266.000000)" fill="#A4A4A4" fill-rule="nonzero">
            <g id="编组-2" transform="translate(92.000000, 266.000000)">
                <g id="安全">
                    <path d="M4.99344059,3.97349255 C4.63875155,3.63493059 4.06388338,3.63493059 3.70962842,3.97349255 C3.35479468,4.31176513 3.35479468,4.86023546 3.70962842,5.19883551 L4.99344059,6.42399823 C5.3479494,6.76245358 5.92256372,6.76245358 6.27710806,6.42399823 C6.63176157,6.08572565 6.63176157,5.53725532 6.27710806,5.19883551 L4.99344059,3.97349255 L4.99344059,3.97349255 L4.99344059,3.97349255 L4.99344059,3.97349255 L4.99344059,3.97349255 Z M22.2431665,3.97349255 L20.9593544,5.19883551 C20.6049522,5.53725278 20.6049522,6.08572311 20.9593544,6.42399823 C21.3134672,6.76245358 21.8884775,6.76245358 22.2431665,6.42399823 L23.526834,5.19883551 C23.8814875,4.86023546 23.8814875,4.31190983 23.526834,3.97349255 C23.1722871,3.6350372 22.5976753,3.6350372 22.2431665,3.97349255 L22.2431665,3.97349255 L22.2431665,3.97349255 L22.2431665,3.97349255 L22.2431665,3.97349255 Z M2.72369371,10.8308123 L0.907934289,10.8308123 C0.406507393,10.8308123 0,11.218842 0,11.6971254 C0,12.1758074 0.406507393,12.5636568 0.907934289,12.5636568 L2.72369371,12.5636568 C3.22512061,12.5636568 3.63151885,12.1758074 3.63151885,11.6971254 C3.63151885,11.218842 3.22512061,10.8308123 2.72369371,10.8308123 L2.72369371,10.8308123 L2.72369371,10.8308123 L2.72369371,10.8308123 Z M26.3284723,10.8308123 L24.5128576,10.8308123 C24.0114307,10.8308123 23.6049233,11.218842 23.6049233,11.6971254 C23.6049233,12.1758074 24.0114307,12.5636568 24.5128576,12.5636568 L26.3284723,12.5636568 C26.8298992,12.5636568 27.236696,12.1758074 27.236696,11.6971254 C27.236696,11.218842 26.8298992,10.8308123 26.3284723,10.8308123 L26.3284723,10.8308123 L26.3284723,10.8308123 L26.3284723,10.8308123 Z M12.7102703,0.866422238 L12.7102703,2.59926671 C12.7102703,3.07780398 13.1167777,3.46554426 13.6182046,3.46554426 C14.1195223,3.46554426 14.5263191,3.07780398 14.5263191,2.59926671 L14.5263191,0.866422238 C14.5263191,0.387884975 14.1195223,0 13.6182046,0 C13.1167777,0 12.7102703,0.387884975 12.7102703,0.866422238 L12.7102703,0.866422238 L12.7102703,0.866422238 L12.7102703,0.866422238 L12.7102703,0.866422238 Z M5.44737473,12.9968616 C5.44737473,17.3040828 9.10532442,20.795634 13.6181893,20.795634 C18.131105,20.795634 21.7891562,17.3040828 21.7891562,12.9968616 C21.7891562,8.6898942 18.131105,5.19879997 13.6181893,5.19879997 C9.10532442,5.19879997 5.44737473,8.68986882 5.44737473,12.9968616 L5.44737473,12.9968616 L5.44737473,12.9968616 L5.44737473,12.9968616 Z M11.8024274,25.1278594 C11.8024274,25.6059981 12.209115,25.9942816 12.7102525,25.9942816 L14.5262988,25.9942816 C15.0274363,25.9942816 15.4340884,25.6059981 15.4340884,25.1278594 C15.4340884,24.6490327 15.0274363,24.2612924 14.5262988,24.2612924 L12.7102525,24.2612924 C12.2089703,24.2612924 11.8024274,24.6490327 11.8024274,25.1278594 L11.8024274,25.1278594 L11.8024274,25.1278594 L11.8024274,25.1278594 L11.8024274,25.1278594 Z M9.98670602,22.5284378 C9.98670602,23.0065765 10.3932134,23.3950048 10.8944956,23.3950048 L16.3419084,23.3950048 C16.8433353,23.3950048 17.249698,23.0065765 17.249698,22.5284378 C17.249698,22.0496112 16.8433353,21.6617617 16.3419084,21.6617617 L10.8944956,21.6617617 C10.3930687,21.6617617 9.98670602,22.0496112 9.98670602,22.5284378 L9.98670602,22.5284378 L9.98670602,22.5284378 L9.98670602,22.5284378 L9.98670602,22.5284378 Z" id="common_tips"></path>
                </g>
            </g>
        </g>
    </g>
</svg>