<?xml version="1.0" encoding="UTF-8"?>
<svg width="56px" height="56px" viewBox="0 0 56 56" version="1.1" xmlns="http://www.w3.org/2000/svg" xmlns:xlink="http://www.w3.org/1999/xlink">
    <!-- Generator: Sketch 57.1 (83088) - https://sketch.com -->
    <title> application_life</title>
    <desc>Created with Sketch.</desc>
    <defs>
        <linearGradient x1="50%" y1="0%" x2="50%" y2="100%" id="linearGradient-1">
            <stop stop-color="#4D8BED" offset="0%"></stop>
            <stop stop-color="#3D5DCF" offset="100%"></stop>
        </linearGradient>
        <linearGradient x1="50%" y1="0%" x2="50%" y2="100%" id="linearGradient-2">
            <stop stop-color="#629DFA" offset="0%"></stop>
            <stop stop-color="#5375ED" offset="100%"></stop>
        </linearGradient>
    </defs>
    <g id="页面1" stroke="none" stroke-width="1" fill="none" fill-rule="evenodd">
        <g id="1-应用产品" transform="translate(-444.000000, -1267.000000)">
            <g id="编组-4备份-2" transform="translate(0.000000, 1195.000000)">
                <g id="编组-3备份-2" transform="translate(419.000000, 72.000000)">
                    <g id="编组-9备份-2" transform="translate(25.000000, 0.000000)">
                        <rect id="矩形备份-5" fill="url(#linearGradient-1)" x="35.5308057" y="4" width="9.09952607" height="16.8341232" rx="4"></rect>
                        <path d="M47.1398226,27.892487 L47.1398226,46.3190273 C47.1398226,49.3343449 44.6954247,51.7787429 41.680107,51.7787429 L14.3815288,51.7787429 C11.3662111,51.7787429 8.92181314,49.3343449 8.92181314,46.3190273 L8.92181314,27.892487 L4.36492891,27.892487 C3.61109949,27.892487 3,27.2813875 3,26.5275581 C3,26.1339636 3.16990694,25.7595281 3.46611693,25.5003444 L25.3343819,6.36561248 C26.878223,5.0147516 29.1834128,5.0147516 30.7272538,6.36561248 L52.5955188,25.5003444 C53.1628333,25.9967445 53.2203207,26.8590556 52.7239205,27.42637 C52.4647368,27.72258 52.0903013,27.892487 51.6967068,27.892487 L47.1398226,27.892487 Z M26.5235158,34.9558474 L23.8165772,34.955865 C22.6795077,34.955865 22.1155229,35.3307038 22.1155229,36.074475 C22.1155229,36.8006846 22.6795077,37.1667163 23.8165772,37.1667163 L26.5234092,37.1667163 L26.5234092,38.1112582 C26.5234092,39.7228913 27.072571,40.5257985 28.1678731,40.5257985 C29.2452596,40.5257985 29.788414,39.7229089 29.788414,38.1112582 L29.788414,37.1666988 L32.5012356,37.1666988 C33.6262904,37.1666988 34.1903818,36.8005791 34.1903818,36.0744574 C34.1903818,35.3306159 33.6262904,34.9557595 32.5012356,34.9557595 L29.788414,34.9557595 L29.788414,33.2436795 L32.5012534,33.2436795 C33.6263081,33.2436795 34.1903996,32.8746769 34.1903996,32.1337888 C34.1903996,31.4017253 33.6263081,31.0387523 32.5012356,31.0387523 L30.9732584,31.0387523 L34.4291849,25.3977993 C34.6501257,25.0524757 34.8023547,24.7632119 34.90672,24.5358615 C35.0051845,24.3027628 35.0589667,24.0488681 35.0589667,23.7743707 C35.0589667,23.4260762 34.9306607,23.1279877 34.6799672,22.8888594 C34.4233552,22.6468481 34.0979602,22.5257985 33.7010452,22.5257985 C33.4205102,22.5257985 33.1757175,22.5789049 32.9729766,22.6911122 C32.7699691,22.8062201 32.5998068,22.9420361 32.4595037,23.1132212 C32.328194,23.2843888 32.1878732,23.4909431 32.0417405,23.7300714 C31.9014197,23.9721706 31.7672129,24.2053747 31.6328995,24.4238124 L28.1679797,30.0913099 L24.2881938,24.0784889 C23.9509795,23.5383011 23.6615223,23.1397832 23.4018355,22.8948011 C23.151142,22.649731 22.8258181,22.5257985 22.4109875,22.5257985 C22.0169695,22.5257985 21.6916634,22.6527195 21.4409699,22.9006373 C21.184269,23.1486079 21.0589667,23.4791651 21.0589667,23.8924494 C21.0589667,24.1226651 21.1037379,24.3322957 21.1902764,24.521183 C21.2858261,24.7101054 21.4708292,25.0289725 21.7603575,25.4716842 L25.3505796,31.0388402 L23.8165772,31.0388402 C22.6795965,31.0388402 22.1155229,31.4018132 22.1155229,32.1338767 C22.1155229,32.8747824 22.6795077,33.2437674 23.8165772,33.2437674 L26.5235158,33.2437674 L26.5235158,34.9558474 Z" id="形状" fill="url(#linearGradient-2)"></path>
                    </g>
                </g>
            </g>
        </g>
    </g>
</svg>