<?xml version="1.0" encoding="UTF-8"?>
<svg width="56px" height="57px" viewBox="0 0 56 57" version="1.1" xmlns="http://www.w3.org/2000/svg" xmlns:xlink="http://www.w3.org/1999/xlink">
    <!-- Generator: Sketch 57.1 (83088) - https://sketch.com -->
    <title> application_pay</title>
    <desc>Created with Sketch.</desc>
    <defs>
        <linearGradient x1="50%" y1="0%" x2="50%" y2="100%" id="linearGradient-1">
            <stop stop-color="#F5C74A" offset="0%"></stop>
            <stop stop-color="#ED9709" offset="100%"></stop>
        </linearGradient>
    </defs>
    <g id="页面1" stroke="none" stroke-width="1" fill="none" fill-rule="evenodd">
        <g id="1-应用产品" transform="translate(-260.000000, -711.000000)" fill="url(#linearGradient-1)" fill-rule="nonzero">
            <g id="编组-4" transform="translate(0.000000, 639.000000)">
                <g id="编组-3备份" transform="translate(222.000000, 72.000000)">
                    <g id="-application_pay" transform="translate(38.000000, 0.000000)">
                        <path d="M44.1555823,7 L12.8443863,7 C10.7287649,7 9,8.71520223 9,10.814226 L9,46.185774 C9,48.2847978 10.7287649,50 12.8443863,50 L44.1555823,50 C46.2712037,50 47.9999843,48.2847978 47.9999843,46.185774 L47.9999843,10.814226 C48.0060132,8.71520223 46.2712037,7 44.1555823,7 Z M35.608472,44.4659693 L21.4035858,44.4659693 C20.5694265,44.4659693 19.8924277,43.7942818 19.8924277,42.9666667 C19.8924277,42.1390516 20.5694265,41.467364 21.4035858,41.467364 L35.608472,41.467364 C36.4426313,41.467364 37.1196302,42.1390516 37.1196302,42.9666667 C37.1196302,43.7942818 36.4365867,44.4659693 35.608472,44.4659693 Z M35.608472,36.1058577 C36.4426313,36.1058577 37.1196302,36.7775453 37.1196302,37.6051604 C37.1135855,38.4327754 36.4365867,39.104463 35.608472,39.104463 L21.4035858,39.104463 C20.5694265,39.104463 19.8924277,38.4327755 19.8924277,37.6051604 C19.8924277,36.7775453 20.5694265,36.1058577 21.4035858,36.1058577 L35.608472,36.1058577 Z M33.6420785,14 C34.0389935,14 34.3643885,14.1210496 34.6210005,14.3630609 C34.871694,14.6021892 35,14.9002777 35,15.2485722 C35,15.5230696 34.9462178,15.7769644 34.8477533,16.0100631 C34.743388,16.2374134 34.591159,16.5266772 34.3702182,16.8720008 L34.3702182,16.8720008 L30.9142917,22.5129538 L32.4422689,22.5129538 C33.5673414,22.5129538 34.1314329,22.8759268 34.1314329,23.6079903 C34.1314329,24.3488785 33.5673414,24.7178811 32.4422867,24.7178811 L32.4422867,24.7178811 L29.7294473,24.7178811 L29.7294473,26.429961 L32.4422689,26.429961 C33.5673236,26.429961 34.1314151,26.8048175 34.1314151,27.5486589 C34.1314151,28.2747807 33.5673236,28.6409003 32.4422689,28.6409003 L32.4422689,28.6409003 L29.7294473,28.6409003 L29.7294473,29.5854598 C29.7294473,31.1971104 29.1862929,32 28.1089064,32 C27.0136043,32 26.4644425,31.1970928 26.4644425,29.5854598 L26.4644425,29.5854598 L26.4644425,28.6409179 L23.7576105,28.6409179 C22.6205409,28.6409179 22.0565562,28.2748861 22.0565562,27.5486765 C22.0565562,26.8049053 22.6205409,26.4300665 23.7576105,26.4300665 L23.7576105,26.4300665 L26.4645491,26.4300489 L26.4645491,24.717969 L23.7576105,24.717969 C22.6205409,24.717969 22.0565562,24.3489839 22.0565562,23.6080782 C22.0565562,22.8760147 22.6206298,22.5130417 23.7576105,22.5130417 L23.7576105,22.5130417 L25.2916129,22.5130417 L21.7013908,16.9458857 C21.4118625,16.503174 21.2268594,16.184307 21.1313097,15.9953845 C21.0447711,15.8064972 21,15.5968666 21,15.3666509 C21,14.9533666 21.1253023,14.6228095 21.3820032,14.3748389 C21.6326967,14.126921 21.9580028,14 22.3520208,14 C22.7668514,14 23.0921753,14.1239326 23.3428687,14.3690026 C23.6025556,14.6139847 23.8920128,15.0125026 24.229227,15.5526904 L24.229227,15.5526904 L28.109013,21.5655114 L31.5739328,15.898014 C31.7082462,15.6795762 31.842453,15.4463721 31.9827738,15.2042729 C32.1289065,14.9651446 32.2692273,14.7585903 32.400537,14.5874227 C32.54084,14.4162376 32.7110024,14.2804216 32.9140099,14.1653137 C33.1167508,14.0531064 33.3615435,14 33.6420785,14 Z" id="形状"></path>
                    </g>
                </g>
            </g>
        </g>
    </g>
</svg>