<?xml version="1.0" encoding="UTF-8"?>
<svg width="56px" height="57px" viewBox="0 0 56 57" version="1.1" xmlns="http://www.w3.org/2000/svg" xmlns:xlink="http://www.w3.org/1999/xlink">
    <!-- Generator: Sketch 57.1 (83088) - https://sketch.com -->
    <title> application_reserveFund</title>
    <desc>Created with Sketch.</desc>
    <defs>
        <linearGradient x1="50%" y1="0%" x2="50%" y2="100%" id="linearGradient-1">
            <stop stop-color="#79E1A5" offset="0%"></stop>
            <stop stop-color="#27B790" offset="100%"></stop>
        </linearGradient>
    </defs>
    <g id="页面1" stroke="none" stroke-width="1" fill="none" fill-rule="evenodd">
        <g id="1-应用产品" transform="translate(-444.000000, -989.000000)" fill="url(#linearGradient-1)">
            <g id="编组-4备份" transform="translate(0.000000, 917.000000)">
                <g id="编组-3备份-2" transform="translate(432.000000, 72.000000)">
                    <g id="编组-6" transform="translate(12.000000, 0.000000)">
                        <path d="M30.2627505,5.49538061 L46.9791442,15.146595 C48.1231767,15.8071025 48.8279298,17.0277706 48.8279298,18.3487856 L48.8279298,37.6512144 C48.8279298,38.9722294 48.1231767,40.1928975 46.9791442,40.853405 L30.2627505,50.5046194 C29.118718,51.1651269 27.7092118,51.1651269 26.5651793,50.5046194 L9.84878559,40.853405 C8.70475308,40.1928975 8,38.9722294 8,37.6512144 L8,18.3487856 C8,17.0277706 8.70475308,15.8071025 9.84878559,15.146595 L26.5651793,5.49538061 C27.7092118,4.83487313 29.118718,4.83487313 30.2627505,5.49538061 Z M26.9143437,31.4297768 L24.2074051,31.4297944 C23.0703356,31.4297944 22.5063508,31.8046332 22.5063508,32.5484044 C22.5063508,33.274614 23.0703356,33.6406457 24.2074051,33.6406457 L26.9142371,33.6406457 L26.9142371,34.5851876 C26.9142371,36.1968207 27.4633989,36.9997279 28.558701,36.9997279 C29.6360875,36.9997279 30.1792419,36.1968383 30.1792419,34.5851876 L30.1792419,33.6406282 L32.8920635,33.6406282 C34.0171183,33.6406282 34.5812097,33.2745085 34.5812097,32.5483868 C34.5812097,31.8045453 34.0171183,31.4296889 32.8920635,31.4296889 L30.1792419,31.4296889 L30.1792419,29.7176089 L32.8920813,29.7176089 C34.0171361,29.7176089 34.5812275,29.3486063 34.5812275,28.6077182 C34.5812275,27.8756547 34.0171361,27.5126817 32.8920635,27.5126817 L31.3640863,27.5126817 L34.8200128,21.8717287 C35.0409536,21.5264051 35.1931826,21.2371413 35.2975479,21.0097909 C35.3960124,20.7766922 35.4497946,20.5227975 35.4497946,20.2483001 C35.4497946,19.9000056 35.3214886,19.6019171 35.0707951,19.3627888 C34.8141831,19.1207775 34.4887881,18.9997279 34.0918731,18.9997279 C33.8113381,18.9997279 33.5665454,19.0528343 33.3638045,19.1650416 C33.160797,19.2801495 32.9906347,19.4159655 32.8503316,19.5871506 C32.7190219,19.7583182 32.5787011,19.9648725 32.4325684,20.2040008 C32.2922476,20.4460999 32.1580408,20.6793041 32.0237274,20.8977418 L28.5588076,26.5652393 L24.6790217,20.5524183 C24.3418074,20.0122305 24.0523502,19.6137126 23.7926634,19.3687305 C23.5419699,19.1236604 23.216646,18.9997279 22.8018154,18.9997279 C22.4077974,18.9997279 22.0824913,19.1266489 21.8317978,19.3745667 C21.5750969,19.6225373 21.4497946,19.9530945 21.4497946,20.3663788 C21.4497946,20.5965945 21.4945658,20.8062251 21.5811043,20.9951124 C21.676654,21.1840348 21.8616571,21.5029019 22.1511854,21.9456136 L25.7414075,27.5127696 L24.2074051,27.5127696 C23.0704244,27.5127696 22.5063508,27.8757426 22.5063508,28.6078061 C22.5063508,29.3487118 23.0703356,29.7176968 24.2074051,29.7176968 L26.9143437,29.7176968 L26.9143437,31.4297768 Z" id="形状"></path>
                    </g>
                </g>
            </g>
        </g>
    </g>
</svg>