<?xml version="1.0" encoding="UTF-8"?>
<svg width="39px" height="36px" viewBox="0 0 39 36" version="1.1" xmlns="http://www.w3.org/2000/svg" xmlns:xlink="http://www.w3.org/1999/xlink">
    <!-- Generator: Sketch 55.2 (78181) - https://sketchapp.com -->
    <title>繁体</title>
    <desc>Created with Sketch.</desc>
    <g id="页面1" stroke="none" stroke-width="1" fill="none" fill-rule="evenodd">
        <g id="home备份" transform="translate(-615.000000, -65.000000)" fill="#333333" fill-rule="nonzero">
            <g id="common_nav_languange" transform="translate(615.000000, 65.000000)">
                <path d="M35.416953,28.9773838 L33.8070654,28.9773838 L33.8070654,32.1977055 C33.8070654,33.9759369 32.3655251,35.4174773 30.5872937,35.4174773 L3.21922179,35.4174773 C1.44120492,35.4174773 -2.84217094e-14,33.9757225 -2.84217094e-14,32.1977055 L-2.84217094e-14,9.65931372 L-2.84217094e-14,9.65876475 C-2.84217094e-14,7.88083775 1.4412948,6.43954295 3.2192218,6.43954295 C3.21940497,6.43954295 3.21958814,6.43954296 3.2197713,6.43954299 L4.8296589,6.43954299 L4.8296589,3.21977125 C4.82965864,1.44154037 6.27119928,1.42108547e-14 8.04943064,1.42108547e-14 L35.4169496,1.42108547e-14 C37.1951809,1.42108547e-14 38.6367212,1.44154037 38.6367212,3.21977174 L38.6367212,25.7576101 C38.6367212,27.5358415 37.1951809,28.9773819 35.4169495,28.9773819 Z M3.21923562,8.04941342 C2.33042264,8.04941342 1.60989802,8.76994036 1.60989802,9.6587534 C1.60989802,9.65893656 1.60989802,9.65911972 1.60989802,9.65930288 L1.60989802,32.1976947 C1.60959114,33.0865013 2.32986588,33.807275 3.21867893,33.8075795 C3.21886209,33.8075795 3.21904524,33.8075795 3.21922841,33.8075795 L30.5873003,33.8075795 C31.4764142,33.8078864 32.1974335,33.0873661 32.1977414,32.1982487 C32.1977414,32.1980634 32.1977414,32.1978781 32.1977414,32.1976928 L32.1977414,9.65930098 C32.1977414,8.77018706 31.4769712,8.04941342 30.5878538,8.04941342 L3.21923562,8.04941342 Z M37.0268579,3.21977024 C37.0268579,2.33065632 36.3060877,1.60988257 35.4169703,1.60988257 L8.04945182,1.60988257 C7.1606388,1.60957915 6.43956415,2.32985735 6.43956415,3.21867039 C6.43956415,3.21903674 6.43956415,3.2194031 6.43956415,3.21976945 L6.43956415,6.43954119 L30.5873075,6.43954119 C32.3655388,6.43954112 33.8070791,7.88108157 33.8070791,9.65931294 L33.8070791,27.3675058 L35.4169667,27.3675058 C36.3060806,27.3675058 37.0268579,26.6467357 37.0268579,25.7576182 L37.0268579,3.21922643 L37.0268579,3.21977024 Z M9.8671875,17.328125 C9.89583348,17.2135411 9.91731764,17.1347658 9.93164062,17.0917969 C9.94596361,17.0488279 9.92447945,16.8268249 9.8671875,16.4257813 L9.82421875,16.125 L9.6953125,15.78125 C9.43749871,15.78125 9.2799482,15.7382817 9.22265625,15.6523438 C9.1653643,15.5664058 9.15104152,15.5091147 9.1796875,15.4804688 C9.23697945,15.3372389 9.42317551,15.0507834 9.73828125,14.6210938 C10.053387,14.1914041 10.2252603,13.9049486 10.2539062,13.7617188 L10.3398437,13.3320313 L10.3398437,13.2890625 L10.296875,12.7734375 L10.4257812,12.515625 L10.3398437,12.5585938 C10.4830736,12.3867179 10.7265608,12.2864585 11.0703125,12.2578125 C11.2994803,12.2578125 11.5930972,12.3079422 11.9511719,12.4082031 C12.3092466,12.508464 12.5455723,12.6015621 12.6601562,12.6875 C12.7747402,12.7734379 12.8606768,12.8522132 12.9179687,12.9238281 C12.9752607,12.9954431 12.9967449,13.0455728 12.9824219,13.0742188 C12.9680989,13.1028647 12.9036464,13.2174469 12.7890625,13.4179688 C13.9062556,13.0169251 14.7369764,12.8020835 15.28125,12.7734375 C15.5963557,12.7734375 15.8684884,12.83789 16.0976562,12.9667969 C16.3268241,13.0957038 16.4414062,13.2174473 16.4414062,13.3320313 C16.4127603,13.5039071 16.2122414,13.6757804 15.8398437,13.8476563 C15.4674461,14.0195321 14.837244,14.1985668 13.9492187,14.3847656 C13.0611935,14.5709645 12.5026053,14.6497397 12.2734375,14.6210938 L11.9726562,14.578125 L11.6289062,14.5351563 L10.8984375,15.1367188 L11.7148437,15.09375 L13.9921875,14.4921875 C14.3932312,14.4062496 14.8730441,14.5208318 15.4316406,14.8359375 C15.9902372,15.1510432 16.2981768,15.4088532 16.3554687,15.609375 L16.2695312,15.6953125 L16.2265625,15.9101563 L16.0546875,16.3398438 L16.5273437,16.4257813 C16.5559897,16.2825514 16.598958,16.1679692 16.65625,16.0820313 L17.2578125,15.265625 L17.6660156,14.4277344 C17.9381524,13.8691378 18.0885415,13.5039071 18.1171875,13.3320313 L18.1601562,12.4296875 C18.2174482,12.1432277 18.4609354,12 18.890625,12 C19.4921905,12.028646 19.9576806,12.1575509 20.2871094,12.3867188 C20.6165381,12.6158866 20.7884114,12.7447915 20.8027344,12.7734375 C20.8170574,12.8020835 20.8242187,12.830729 20.8242187,12.859375 L20.8242187,12.9453125 C20.7955728,13.0312504 20.6595064,13.1959623 20.4160156,13.4394531 C20.1725248,13.6829439 19.9075535,14.0624974 19.6210937,14.578125 L21.5976562,14.0195313 C22.3997436,13.7903634 22.9583318,13.7688793 23.2734375,13.9550781 C23.5885432,14.141277 23.7532551,14.2916661 23.7675781,14.40625 C23.7819011,14.5208339 23.7890625,14.5924478 23.7890625,14.6210938 C23.7604165,14.7070317 23.5598977,14.8645822 23.1875,15.09375 C22.8151023,15.3229178 22.2565141,15.4804683 21.5117187,15.5664063 C21.6549486,15.6236982 21.7194011,15.6809893 21.7050781,15.7382813 C21.6907551,15.7955732 21.6979165,15.8242188 21.7265625,15.8242188 L21.7695312,15.8671875 C21.7695312,15.8958335 21.7623699,15.9316404 21.7480469,15.9746094 C21.7337239,16.0175783 21.6549486,16.1393219 21.5117187,16.3398438 L21.1679687,17.1132813 L20.9101562,17.5429688 C21.8841195,18.0585963 22.7721314,18.3880201 23.5742187,18.53125 L25.5078125,18.9179688 C25.9375021,19.0325527 26.2526032,19.2044259 26.453125,19.4335938 C26.424479,19.6627616 26.0520869,19.8203121 25.3359375,19.90625 L23.2304687,20.2070313 C23.0299469,20.2356772 22.8222667,20.2571614 22.6074219,20.2714844 C22.3925771,20.2858074 22.1562513,20.2213549 21.8984375,20.078125 L21.0390625,19.5195313 C20.5807269,19.2330715 20.2942714,19.0253913 20.1796875,18.8964844 C20.0651036,18.7675775 19.9934897,18.703125 19.9648437,18.703125 L19.7929687,18.7890625 L19.4921875,19.0898438 C19.2916657,19.2903656 18.890628,19.51953 18.2890625,19.7773438 C18.8046901,19.8919277 19.1985663,20.0566396 19.4707031,20.2714844 C19.7428399,20.4863292 19.893229,20.6223955 19.921875,20.6796875 L19.921875,20.9804688 C19.864583,21.0664067 19.5566434,21.2812483 18.9980469,21.625 C18.4394503,21.9687517 18.1028652,22.1835933 17.9882812,22.2695313 L16.1835937,23.6445313 L15.9257812,23.859375 L18.1601562,23.4726563 C17.9309884,23.2721344 17.7877607,23.1145839 17.7304687,23 L17.6230469,22.7851563 C17.6087239,22.7565103 17.630208,22.6992192 17.6875,22.6132813 C17.744792,22.4986973 17.9023425,22.4270835 18.1601562,22.3984375 C18.41797,22.3984375 18.7975235,22.4700514 19.2988281,22.6132813 C19.8001327,22.7565111 20.1510407,22.8925775 20.3515625,23.0214844 C20.5520843,23.1503913 20.731119,23.3222646 20.8886719,23.5371094 C21.0462247,23.7519542 21.1321614,23.8736978 21.1464844,23.9023438 C21.1608074,23.9309897 21.1966143,24.1315086 21.2539062,24.5039063 C21.2252603,24.5898442 21.1608078,24.7187491 21.0605469,24.890625 C20.960286,25.0625009 20.7669285,25.1484375 20.4804687,25.1484375 C20.2513009,25.1770835 19.9863296,25.0983082 19.6855469,24.9121094 C19.3847641,24.7259105 19.1770839,24.5755214 19.0625,24.4609375 C18.9479161,24.3463536 18.8190111,24.3320308 18.6757812,24.4179688 L17.1289062,24.8046875 C17.3007821,24.9479174 17.4153643,25.0624996 17.4726562,25.1484375 L17.3867187,26.4375 L17.3867187,27.8984375 C17.3867187,28.0130214 17.3580732,28.2565086 17.3007812,28.6289063 C17.2434893,29.0013039 17.200521,29.2161455 17.171875,29.2734375 C17.143229,29.3307295 17.1289062,29.3736978 17.1289062,29.4023438 L16.7421875,30.0039063 C16.5130197,30.3763039 16.3411464,30.5839842 16.2265625,30.6269531 C16.1119786,30.6699221 15.9401053,30.6770835 15.7109375,30.6484375 C15.4817697,30.6484375 15.338542,30.6341147 15.28125,30.6054688 C15.223958,30.5768228 15.166667,30.5052089 15.109375,30.390625 L14.5078125,29.4453125 C14.3072907,29.1588527 14.1210946,28.9440111 13.9492187,28.8007813 C13.7773429,28.6575514 13.6914062,28.557292 13.6914062,28.5 L13.6914062,28.4140625 C13.6627603,28.3854165 13.6627603,28.356771 13.6914062,28.328125 C13.6914062,28.2135411 13.8632795,28.1419272 14.2070312,28.1132813 L14.3359375,28.1132813 L15.2382812,28.2851563 C15.3242192,28.2278643 15.3671875,28.1562504 15.3671875,28.0703125 L15.3671875,25.921875 L15.1953125,25.2773438 C15.0234366,25.3346357 14.808595,25.3919268 14.5507812,25.4492188 C14.2929675,25.5065107 14.0136734,25.6067701 13.7128906,25.75 C13.4121079,25.8932299 13.1901049,25.9648438 13.046875,25.9648438 C12.6171854,25.9934897 12.3092457,25.850262 12.1230469,25.5351563 C11.936848,25.2200505 11.8580728,25.0052089 11.8867187,24.890625 L11.9511719,24.6972656 C11.9941408,24.5683587 12.0729161,24.4752607 12.1875,24.4179688 L13.4335937,23.9453125 C13.9205754,23.7447907 14.4934863,23.3723986 15.1523437,22.828125 C14.2643185,23.0572928 13.6914075,23.1432295 13.4335937,23.0859375 C13.118488,23.0572915 12.8893236,22.9283866 12.7460937,22.6992188 C12.6028639,22.4700509 12.5455728,22.2552093 12.5742187,22.0546875 C12.5742187,21.8255197 12.7317693,21.6393236 13.046875,21.4960938 L13.8632812,21.2382813 C14.2356789,21.0091134 14.5794255,20.5794302 14.8945312,19.9492188 L12.4453125,20.25 C11.786455,20.3359379 11.2350283,20.4720043 10.7910156,20.6582031 C10.347003,20.844402 10.1106772,20.9231772 10.0820312,20.8945313 C9.76692551,20.8658853 9.56640668,20.8085942 9.48046875,20.7226563 C9.39453082,20.6367183 9.30859418,20.5292975 9.22265625,20.4003906 C9.13671832,20.2714837 9.07226584,20.1712243 9.02929687,20.0996094 C8.98632791,20.0279944 8.95768236,19.9707033 8.94335937,19.9277344 C8.92903639,19.8847654 8.99348887,19.7916674 9.13671875,19.6484375 C9.22265668,19.5338536 9.36588441,19.2187526 9.56640625,18.703125 C8.70702695,18.9895848 8.16276156,19.1184897 7.93359375,19.0898438 C7.67577996,19.0898438 7.28906508,18.9967457 6.7734375,18.8105469 C6.25780992,18.624348 6,18.4166678 6,18.1875 L6,17.9296875 C6.02864598,17.8151036 6.21484203,17.729167 6.55859375,17.671875 L8.921875,17.4570313 L9.8671875,17.328125 Z M11.2851562,19.21875 L12.359375,19.0898438 C11.9869773,18.6315081 11.815104,18.388021 11.84375,18.359375 L11.84375,18.1875 L11.4570312,18.2734375 L11.2851562,19.21875 Z M11.6289062,17.0703125 L12.3164062,16.9414063 C12.1445304,16.7122384 11.9440116,16.4973968 11.7148437,16.296875 L11.6289062,17.0703125 Z M12.9179687,17.9726563 C13.2617205,18.1158861 13.4908848,18.2877594 13.6054687,18.4882813 C13.6627607,18.6315111 13.6914062,18.7747389 13.6914062,18.9179688 C13.7486982,18.9752605 13.7916665,18.9895835 13.8203125,18.9609375 C13.8489585,18.9322915 13.877604,18.8320321 13.90625,18.6601563 L13.9921875,18.359375 L14.0351562,17.8007813 L12.9179687,17.9726563 Z M12.9609375,15.8242188 C13.0755214,15.9101567 13.1542967,15.9746092 13.1972656,16.0175781 C13.2402346,16.0605471 13.4049465,16.2682273 13.6914062,16.640625 C13.7486982,16.669271 13.8203121,16.6764324 13.90625,16.6621094 C13.9921879,16.6477864 14.0423176,16.6263022 14.0566406,16.5976563 C14.0709636,16.5690103 14.0638021,16.5117192 14.0351562,16.4257813 L13.9492187,16.0390625 L13.734375,15.78125 L13.7773437,15.78125 C13.51953,15.78125 13.2473973,15.7955728 12.9609375,15.8242188 Z M15.5820312,21.7109375 C15.7825531,21.7968754 16.040363,21.825521 16.3554687,21.796875 C16.4127607,21.796875 16.5631498,21.6393245 16.8066406,21.3242188 C17.0501314,21.009113 17.2434889,20.7226575 17.3867187,20.4648438 C17.5299486,20.20703 17.6158853,20.0494795 17.6445312,19.9921875 L17.1289062,20.0351563 C17.0429683,20.2070321 16.9785158,20.3216143 16.9355469,20.3789063 C16.8925779,20.4361982 16.8138027,20.5078121 16.6992187,20.59375 L15.5820312,21.7109375 Z M15.8398437,18.703125 C16.4127633,18.7890629 16.7350257,18.8893223 16.8066406,19.0039063 C16.8782556,19.1184902 16.9140625,19.2187496 16.9140625,19.3046875 L16.9140625,19.4335938 C17.544274,19.0325501 17.9023433,18.7747402 17.9882812,18.6601563 L18.2890625,18.2734375 C18.5468763,17.9869777 18.6829426,17.8294272 18.6972656,17.8007813 C18.7115886,17.7721353 18.2174529,17.3997432 17.2148437,16.6835938 L17.0429687,16.7265625 C17.0143228,16.8411464 17.0071614,16.927083 17.0214844,16.984375 C17.0358074,17.041667 17.028646,17.1061194 17,17.1777344 C16.971354,17.2493493 16.6276075,17.3710929 15.96875,17.5429688 L15.8398437,18.703125 Z M18.203125,16.0820313 C18.2890629,16.1679692 18.3749996,16.2252603 18.4609375,16.2539063 L18.71875,16.3828125 L19.2773437,16.6835938 L19.4277344,16.3828125 C19.4707033,16.2968746 19.520833,16.082033 19.578125,15.7382813 C19.4348951,15.7382813 19.1341169,15.6809902 18.6757812,15.5664063 L18.546875,15.6953125 L18.203125,16.0820313 Z M11.671875,26.1367188 C11.729167,26.1653647 11.8509105,26.2226558 12.0371094,26.3085938 C12.2233082,26.3945317 12.3450518,26.4947911 12.4023437,26.609375 C12.4596357,26.7239589 12.502604,26.8886708 12.53125,27.1035156 C12.559896,27.3183604 12.5813801,27.5188793 12.5957031,27.7050781 C12.6100261,27.891277 12.5169281,28.1562483 12.3164062,28.5 C11.9440086,29.1588575 11.5000026,29.4739585 10.984375,29.4453125 C10.4401014,29.4453125 10.153646,29.3020848 10.125,29.015625 C10.096354,28.7291652 10.096354,28.5429692 10.125,28.4570313 C10.125,28.1992175 10.2395822,27.912762 10.46875,27.5976563 L10.8125,27.0820313 L11.1132812,26.5234375 C11.2565111,26.2656237 11.4427072,26.1367188 11.671875,26.1367188 Z M17.9882812,26.3085938 C17.9596353,26.2799478 17.9596353,26.2226567 17.9882812,26.1367188 C18.0169272,26.0507808 18.3893193,25.9934897 19.1054687,25.9648438 C20.1367239,25.9361978 20.824217,26.0221344 21.1679687,26.2226563 C21.5117205,26.4231781 21.8626284,26.680988 22.2207031,26.9960938 C22.5787778,27.3111995 22.7649739,27.5475253 22.7792969,27.7050781 C22.7936199,27.862631 22.8007812,27.9843746 22.8007812,28.0703125 C22.7721353,28.2708343 22.7148442,28.4283848 22.6289062,28.5429688 C22.5429683,28.6575527 22.3424495,28.7148438 22.0273437,28.7148438 C21.7981759,28.7434897 21.5833343,28.7148442 21.3828125,28.6289063 C21.1822907,28.5429683 20.5664114,28.1920604 19.5351562,27.5761719 C18.5039011,26.9602834 17.9882812,26.5377616 17.9882812,26.3085938 Z" id="繁体"></path>
            </g>
        </g>
    </g>
</svg>