<?xml version="1.0" encoding="UTF-8"?>
<svg width="462px" height="282px" viewBox="0 0 462 282" version="1.1" xmlns="http://www.w3.org/2000/svg" xmlns:xlink="http://www.w3.org/1999/xlink">
    <!-- Generator: Sketch 55.2 (78181) - https://sketchapp.com -->
    <title>id_face</title>
    <desc>Created with Sketch.</desc>
    <defs>
        <path d="M231.11672,81 C263.793268,81 290.23344,107.465077 290.23344,140.057282 C290.23344,172.649487 263.793268,199.114564 231.11672,199.114564 C198.440172,199.114564 172,172.700976 172,140.057282 C172,107.413588 198.440172,81 231.11672,81 L231.11672,81 Z" id="path-1"></path>
        <filter x="-13.1%" y="-9.7%" width="126.2%" height="126.2%" filterUnits="objectBoundingBox" id="filter-2">
            <feOffset dx="0" dy="4" in="SourceAlpha" result="shadowOffsetOuter1"></feOffset>
            <feGaussianBlur stdDeviation="4.5" in="shadowOffsetOuter1" result="shadowBlurOuter1"></feGaussianBlur>
            <feColorMatrix values="0 0 0 0 0.917647059   0 0 0 0 0.254901961   0 0 0 0 0.223529412  0 0 0 0.323371941 0" type="matrix" in="shadowBlurOuter1"></feColorMatrix>
        </filter>
    </defs>
    <g id="页面1" stroke="none" stroke-width="1" fill="none" fill-rule="evenodd">
        <g id="身份证OCR1-无数据" transform="translate(-136.000000, -227.000000)" fill-rule="nonzero">
            <g id="编组-3" transform="translate(30.000000, 158.000000)">
                <g id="id_face" transform="translate(106.000000, 70.000000)">
                    <path d="M6.91061453,0 L455.089385,0 C458.327374,0 461,2.64738598 461,5.96959585 L461,274.030404 C461,277.300704 458.378771,280 455.089385,280 L6.91061453,280 C3.6726257,280 1,277.352614 1,274.030404 L1,5.96959585 C1,2.69929551 3.62122905,0 6.91061453,0 Z" id="路径" stroke="#D9D9D9" fill="#FBFBFB"></path>
                    <path d="M130.945189,226.427739 L130.945189,212.268408 L426.631869,212.268408 L426.631869,226.427739 L130.945189,226.427739 Z M397.820843,169.944881 C397.460061,170.511254 396.377715,171.129116 394.625345,171.695489 C392.821435,172.261862 390.605202,172.828235 387.976647,173.291632 C385.296551,173.806516 382.410295,174.218424 379.214796,174.681821 C376.019298,175.145217 372.772259,175.505636 369.525221,175.763079 C366.278182,176.072009 363.134224,176.277963 360.093347,176.483917 C357.104009,176.689871 354.423914,176.792848 352.104601,176.792848 C349.836828,176.792848 347.156732,176.689871 344.218935,176.483917 C341.229598,176.277963 338.188721,176.020521 334.941682,175.763079 C331.746184,175.454148 328.602225,175.145217 325.458267,174.836286 C322.314309,174.475867 319.479593,174.115447 316.851038,173.652051 C314.222483,173.240143 312.05779,172.776747 310.25388,172.313351 C308.44997,171.849954 307.367623,171.438047 306.903761,171.077627 C306.182197,170.408277 305.563713,168.348738 305.09985,164.89901 C304.635988,161.500771 304.790609,157.072762 305.512173,151.71796 C305.976035,148.577163 307.161462,146.260182 309.016913,144.664039 C310.872363,143.119385 313.088596,141.832173 315.665611,140.853892 C318.242626,139.875611 320.871181,139.000307 323.551276,138.279468 C326.231372,137.558629 328.653766,136.425883 330.766918,134.984206 C332.416207,133.799971 333.653174,132.718713 334.52936,131.740432 C335.405545,130.762151 336.024028,129.78387 336.43635,128.805589 C336.848673,127.827307 337.054834,126.797538 337.054834,125.71628 C337.054834,124.635022 337.003294,123.399299 336.951753,122.060598 C336.745592,120.104036 336.127109,118.559382 335.044762,117.426635 C333.962416,116.293889 332.725449,115.212631 331.436942,114.131373 C330.818458,113.565 330.199975,112.741184 329.736112,111.659926 C329.220709,110.578668 328.808387,109.49741 328.447605,108.416152 C328.086822,107.231917 327.72604,105.944705 327.365258,104.451539 C326.798315,104.245586 326.282912,103.936655 325.715969,103.576235 C325.252106,103.164328 324.788244,102.597954 324.272841,101.825627 C323.757438,101.0533 323.293575,99.9720421 322.829712,98.5818532 C322.36585,97.1916644 322.211229,95.9044525 322.262769,94.7202175 C322.36585,93.4844941 322.572011,92.5062131 322.932793,91.7338859 C323.293575,90.7556049 323.808978,89.8803008 324.427461,89.1079736 C324.324381,85.9671766 324.479002,82.8263796 324.839784,79.5826056 C325.200566,76.8537164 325.767509,73.9703617 326.592154,70.9840301 C327.365258,67.9976985 328.550685,65.2688093 330.199975,62.6943855 C331.694643,60.3259156 333.343933,58.420842 335.147843,56.9791647 C337.003294,55.5374874 338.858744,54.3532524 340.765735,53.5294368 C342.672726,52.7056212 344.579717,52.139248 346.538249,51.8303171 C348.44524,51.5213863 350.30069,51.3669208 352.00152,51.3669208 C356.691687,51.3669208 360.814911,52.3966904 364.525812,54.4562294 C368.185173,56.5157684 370.916809,58.7297729 372.617639,61.0467543 C374.62771,63.6726666 376.122379,66.6589982 377.101644,69.9027722 C378.08091,73.1980346 378.802474,76.2358547 379.214796,79.0677209 C379.678659,82.3629833 379.83328,85.7097342 379.78174,89.0049967 C380.245602,89.4169045 380.657925,89.9317893 381.018707,90.6011394 C381.276408,91.1675127 381.53411,91.9398398 381.791811,92.8666324 C382.049513,93.793425 382.049513,94.9261714 381.894892,96.3163603 C381.688731,98.0669684 381.327949,99.5086458 380.812546,100.589904 C380.245602,101.671162 379.730199,102.494977 379.163256,103.061351 C378.544773,103.730701 377.771668,104.194097 376.947023,104.400051 C376.586241,105.841728 376.225459,107.180429 375.864677,108.364664 C375.503895,109.445922 375.040032,110.52718 374.473089,111.608438 C373.906146,112.689696 373.339203,113.462023 372.669179,113.925419 C371.947615,114.594769 371.277591,115.212631 370.710648,115.676027 C370.092164,116.139423 369.576761,116.654308 369.112898,117.220681 C368.649036,117.735566 368.288254,118.353428 367.927472,119.074267 C367.61823,119.743617 367.360528,120.567432 367.154367,121.545713 C366.999746,122.832925 366.896666,124.120137 366.948206,125.407349 C366.999746,126.74605 367.308988,128.033261 367.824391,129.268985 C368.391334,130.556197 369.267519,131.740432 370.504486,132.924667 C371.741453,134.108902 373.442283,135.138671 375.658516,136.013975 C377.565507,136.889279 379.730199,137.661606 382.049513,138.279468 C384.368826,138.89733 386.636599,139.669657 388.801292,140.544961 C390.965984,141.420265 392.872975,142.553012 394.573805,143.891712 C396.274635,145.281901 397.460061,147.032509 398.181626,149.143537 C398.542408,150.482237 398.851649,152.181357 399.057811,154.137919 C399.263972,156.094481 399.418593,158.051043 399.418593,160.059093 C399.418593,162.067144 399.315512,163.920729 399.00627,165.722826 C398.800109,167.730876 398.387787,169.069577 397.820843,169.944881 L397.820843,169.944881 Z M166.456453,143.737247 L261.084437,143.737247 L261.084437,157.896577 L166.456453,157.896577 L166.456453,143.737247 Z M166.456453,105.893217 L261.084437,105.893217 L261.084437,120.052548 L166.456453,120.052548 L166.456453,105.893217 Z M166.456453,68.1006755 L261.084437,68.1006755 L261.084437,82.2600064 L166.456453,82.2600064 L166.456453,68.1006755 Z M36.3172047,143.737247 L130.945189,143.737247 L130.945189,157.896577 L36.3172047,157.896577 L36.3172047,143.737247 Z M36.3172047,105.893217 L130.945189,105.893217 L130.945189,120.052548 L36.3172047,120.052548 L36.3172047,105.893217 Z M36.3172047,68.1006755 L130.945189,68.1006755 L130.945189,82.2600064 L36.3172047,82.2600064 L36.3172047,68.1006755 Z M95.4854649,226.427739 L36.3172047,226.427739 L36.3172047,212.268408 L95.4339246,212.268408 L95.4339246,226.427739 L95.4854649,226.427739 Z" id="形状" fill="#EDEDED"></path>
                    <g id="路径" opacity="0.900000036">
                        <use fill="black" fill-opacity="1" filter="url(#filter-2)" xlink:href="#path-1"></use>
                        <use fill="#FF665F" xlink:href="#path-1"></use>
                    </g>
                    <path d="M253.10004,158.131242 C251.656911,159.572919 250.265323,160.345246 248.255252,160.345246 L215.114841,160.345246 C213.053229,160.396735 211.661641,159.572919 210.218513,158.131242 C208.775385,156.689564 207.95074,155.299375 208.00228,153.291325 L208.00228,132.026584 C207.95074,129.967045 208.775385,128.422391 210.218513,126.980714 C211.661641,125.539036 213.053229,124.869686 215.114841,124.921175 L219.856549,124.921175 L220.423492,122.861636 C220.887355,121.780378 221.660459,120.853585 222.588184,120.184235 C223.56745,119.411908 224.752877,119 225.989844,119 L237.586411,119 C238.823378,119.051488 239.957264,119.463396 240.93653,120.184235 C241.915795,120.853585 242.63736,121.780378 243.152763,122.861636 L243.874327,124.818198 L248.255252,124.921175 C250.316864,124.869686 251.708452,125.539036 253.15158,127.032202 C254.594708,128.47388 255.419353,129.967045 255.367813,132.026584 L255.367813,153.291325 C255.316273,155.299375 254.491628,156.741053 253.10004,158.131242 L253.10004,158.131242 Z M251.759992,132.026584 C251.759992,130.945326 251.244589,130.327465 250.471485,129.606626 C249.69838,128.834299 249.286058,128.47388 248.203712,128.47388 L241.348852,128.47388 L239.751103,124.251825 C239.544942,123.839917 239.2357,123.479497 238.823378,123.222055 C238.462596,122.913124 238.050273,122.758659 237.586411,122.70717 L225.989844,122.70717 C225.525981,122.70717 225.062119,122.913124 224.752877,123.222055 C224.340554,123.479497 223.979772,123.891405 223.773611,124.354801 L222.072781,128.525368 L215.114841,128.525368 C214.032495,128.525368 213.620173,128.885787 212.847068,129.658115 C212.073964,130.430442 211.558561,130.996815 211.558561,132.078073 L211.558561,153.342813 C211.507021,154.424071 212.073964,154.887468 212.847068,155.659795 C213.568632,156.432122 214.032495,156.947007 215.114841,156.895518 L248.255252,156.895518 C249.337598,156.947007 249.74992,156.432122 250.523025,155.659795 C251.296129,154.938956 251.863073,154.424071 251.811532,153.342813 L251.811532,132.026584 L251.759992,132.026584 Z M231.659276,152.10709 C225.783683,152.10709 220.990435,147.37015 220.990435,141.448975 C220.990435,135.579289 225.732142,130.790861 231.659276,130.790861 C237.586411,130.790861 242.328118,135.527801 242.328118,141.448975 C242.328118,147.37015 237.53487,152.10709 231.659276,152.10709 Z M231.659276,134.395054 C227.742214,134.395054 224.546716,137.58734 224.546716,141.500464 C224.546716,145.413588 227.742214,148.605874 231.659276,148.605874 C235.576339,148.605874 238.771837,145.413588 238.771837,141.500464 C238.771837,137.535851 235.576339,134.395054 231.659276,134.395054 L231.659276,134.395054 Z" id="形状" fill="#FFFFFF"></path>
                </g>
            </g>
        </g>
    </g>
</svg>