<?xml version="1.0" encoding="UTF-8"?>
<svg width="462px" height="282px" viewBox="0 0 462 282" version="1.1" xmlns="http://www.w3.org/2000/svg" xmlns:xlink="http://www.w3.org/1999/xlink">
    <!-- Generator: Sketch 55.2 (78181) - https://sketchapp.com -->
    <title>id_nationalEmblem</title>
    <desc>Created with Sketch.</desc>
    <defs>
        <path d="M231.142256,81 C263.832919,81 290.284513,107.503156 290.284513,140.142256 C290.284513,172.781357 263.832919,199.284513 231.142256,199.284513 C198.451593,199.284513 172,172.832919 172,140.142256 C172,107.451593 198.451593,81 231.142256,81 L231.142256,81 Z" id="path-1"></path>
        <filter x="-13.1%" y="-9.7%" width="126.2%" height="126.2%" filterUnits="objectBoundingBox" id="filter-2">
            <feOffset dx="0" dy="4" in="SourceAlpha" result="shadowOffsetOuter1"></feOffset>
            <feGaussianBlur stdDeviation="4.5" in="shadowOffsetOuter1" result="shadowBlurOuter1"></feGaussianBlur>
            <feColorMatrix values="0 0 0 0 0.917647059   0 0 0 0 0.254901961   0 0 0 0 0.223529412  0 0 0 0.323371941 0" type="matrix" in="shadowBlurOuter1"></feColorMatrix>
        </filter>
    </defs>
    <g id="页面1" stroke="none" stroke-width="1" fill="none" fill-rule="evenodd">
        <g id="身份证OCR1-无数据" transform="translate(-143.000000, -697.000000)" fill-rule="nonzero">
            <g id="编组-4" transform="translate(30.000000, 628.000000)">
                <g id="id_nationalEmblem" transform="translate(114.000000, 70.000000)">
                    <path d="M5.91061453,0 L454.089385,0 C457.327374,0 460,2.64738598 460,5.96959585 L460,274.030404 C460,277.300704 457.378771,280 454.089385,280 L5.91061453,280 C2.6726257,280 0,277.352614 0,274.030404 L0,5.96959585 C0,2.69929551 2.62122905,0 5.91061453,0 Z" id="路径" stroke="#D9D9D9" fill="#FBFBFB"></path>
                    <path d="M167.578358,230.008226 L167.578358,215.931647 L425.958347,215.931647 L425.958347,230.008226 L167.578358,230.008226 Z M167.578358,187.726926 L425.958347,187.726926 L425.958347,201.803505 L167.578358,201.803505 L167.578358,187.726926 Z M168.042268,109.940826 L426.422256,109.940826 L426.422256,122.940826 L168.042268,122.940826 L168.042268,109.940826 Z M332.042268,72.9408262 L425.989252,72.9408262 L425.989252,87.0174051 L332.042268,87.0174051 L332.042268,72.9408262 Z M123.90487,144.311251 C123.90487,148.642506 120.398616,153.695637 116.067361,153.695637 L56.9766672,153.695637 C52.6454122,153.695637 49.1391581,148.642506 49.1391581,144.311251 L51.253223,134.204989 C41.8688371,125.078416 36.0422678,112.342464 36.0422678,98.2143222 C36.0422678,70.473665 58.6266691,47.9408262 86.5220141,47.9408262 C114.417359,47.9408262 137.00176,70.473665 137.00176,98.2143222 C137.00176,112.394026 131.123628,125.181541 121.636117,134.359677 L123.90487,144.311251 L123.90487,144.311251 Z M86.5220141,135.545616 C96.370463,135.545616 105.342348,131.729986 112.045481,125.542479 L60.9985469,125.542479 C67.7016797,131.729986 76.6735651,135.545616 86.5220141,135.545616 Z M124.007995,98.2658848 C124.007995,77.6924234 107.250163,60.9861539 86.5220141,60.9861539 C65.793865,60.9861539 49.0875955,77.6408608 49.0875955,98.2658848 C49.0875955,106.979957 52.078224,115.023717 57.1313549,121.365912 L58.059481,117.086219 L72.1360598,117.086219 L72.1360598,113.786215 L70.8469958,113.786215 L72.7548106,110.022148 L74.5079376,110.022148 L75.3845011,106.722145 L97.7110896,106.722145 L98.5876531,110.022148 L100.34078,110.022148 L102.248595,113.786215 L100.959531,113.786215 L100.959531,117.086219 L114.984547,117.086219 L115.912673,121.365912 C120.965804,115.023717 124.007995,106.979957 124.007995,98.2658848 L124.007995,98.2658848 Z M108.848603,85.7877453 L105.754849,83.2096173 L102.300157,85.3236822 L103.847034,81.6111779 L100.753281,79.0330499 L104.77516,79.3424253 L106.322037,75.629921 L107.301726,79.5486755 L111.323605,79.8580509 L107.868914,81.9721158 L108.848603,85.7877453 L108.848603,85.7877453 Z M95.3907744,94.0893174 L93.2767094,97.544009 L92.9673341,93.5221293 L89.0485795,92.5940032 L92.7610838,91.0471264 L92.4517085,87.0252467 L95.081399,90.0674378 L98.7939034,88.520561 L96.6798384,91.9752525 L99.309529,95.0174435 L95.3907744,94.0893174 L95.3907744,94.0893174 Z M93.4829597,82.3330538 L86.6767018,77.4346106 L79.8704438,82.3330538 L82.4485718,74.3924195 L75.6423139,69.4939763 L84.0470112,69.4939763 L86.6251392,61.5533421 L89.2032672,69.4939763 L97.6079645,69.4939763 L90.8017066,74.3924195 L93.4829597,82.3330538 L93.4829597,82.3330538 Z M78.4266922,90.1705629 L81.0563827,87.0768093 L80.7470074,91.098689 L84.4595117,92.5940032 L80.5407571,93.5736918 L80.2313818,97.5955715 L78.1173168,94.1924426 L74.1985622,95.1721312 L76.8282528,92.0783776 L74.7141878,88.6752486 L78.4266922,90.1705629 L78.4266922,90.1705629 Z M71.0016835,85.117432 L67.546992,83.0549296 L64.504801,85.6846202 L65.432927,81.7658656 L61.9782355,79.7033632 L66.0001152,79.3939878 L66.9282413,75.4752333 L68.4751181,79.1877376 L72.4969978,78.8783622 L69.4548067,81.5080528 L71.0016835,85.117432 L71.0016835,85.117432 Z M132.36113,201.855068 L38.362583,201.855068 L38.362583,187.778489 L132.309567,187.778489 L132.309567,201.855068 L132.36113,201.855068 Z M132.36113,230.008226 L38.362583,230.008226 L38.362583,215.931647 L132.309567,215.931647 L132.309567,230.008226 L132.36113,230.008226 Z" id="形状" fill="#EDEDED"></path>
                    <g id="路径" opacity="0.900000036">
                        <use fill="black" fill-opacity="1" filter="url(#filter-2)" xlink:href="#path-1"></use>
                        <use fill="#FF665F" xlink:href="#path-1"></use>
                    </g>
                    <path d="M252.119521,158.187546 C250.67577,159.631297 249.283581,160.404736 247.272641,160.404736 L214.117915,160.404736 C212.055412,160.456298 210.663223,159.631297 209.219472,158.187546 C207.77572,156.743794 206.950719,155.351605 207.002281,153.340665 L207.002281,132.045328 C206.950719,129.982825 207.77572,128.435948 209.219472,126.992197 C210.663223,125.548445 212.055412,124.878132 214.117915,124.929694 L218.86167,124.929694 L219.428858,122.867192 C219.892921,121.784378 220.66636,120.856252 221.594486,120.185939 C222.574175,119.4125 223.760113,119 224.997615,119 L236.599191,119 C237.836692,119.051563 238.971069,119.464063 239.950757,120.185939 C240.930446,120.856252 241.652322,121.784378 242.167947,122.867192 L242.889823,124.826569 L247.272641,124.929694 C249.335143,124.878132 250.727332,125.548445 252.171084,127.043759 C253.614836,128.487511 254.439837,129.982825 254.388274,132.045328 L254.388274,153.340665 C254.336712,155.351605 253.511711,156.795356 252.119521,158.187546 L252.119521,158.187546 Z M250.778895,132.045328 C250.778895,130.962514 250.263269,130.343763 249.489831,129.621887 C248.716392,128.848449 248.303892,128.487511 247.221078,128.487511 L240.363258,128.487511 L238.764818,124.259381 C238.558568,123.846881 238.249193,123.485943 237.836692,123.22813 C237.475754,122.918755 237.063254,122.764067 236.599191,122.712504 L224.997615,122.712504 C224.533552,122.712504 224.069489,122.918755 223.760113,123.22813 C223.347613,123.485943 222.986675,123.898443 222.780425,124.362506 L221.07886,128.539074 L214.117915,128.539074 C213.035101,128.539074 212.6226,128.900012 211.849162,129.67345 C211.075724,130.446888 210.560098,131.014076 210.560098,132.09689 L210.560098,153.392228 C210.508536,154.475041 211.075724,154.939104 211.849162,155.712543 C212.571038,156.485981 213.035101,157.001607 214.117915,156.950044 L247.272641,156.950044 C248.355455,157.001607 248.767955,156.485981 249.541393,155.712543 C250.314832,154.990667 250.88202,154.475041 250.830457,153.392228 L250.830457,132.045328 L250.778895,132.045328 Z M230.669496,152.154726 C224.791365,152.154726 219.996047,147.410971 219.996047,141.481276 C219.996047,135.603144 224.739802,130.807826 230.669496,130.807826 C236.599191,130.807826 241.342946,135.551582 241.342946,141.481276 C241.342946,147.410971 236.547628,152.154726 230.669496,152.154726 Z M230.669496,134.417205 C226.750742,134.417205 223.553863,137.614084 223.553863,141.532839 C223.553863,145.451593 226.750742,148.648472 230.669496,148.648472 C234.588251,148.648472 237.78513,145.451593 237.78513,141.532839 C237.78513,137.562522 234.588251,134.417205 230.669496,134.417205 L230.669496,134.417205 Z" id="形状" fill="#FFFFFF"></path>
                </g>
            </g>
        </g>
    </g>
</svg>