<?xml version="1.0" encoding="UTF-8"?>
<svg width="23px" height="26px" viewBox="0 0 23 26" version="1.1" xmlns="http://www.w3.org/2000/svg" xmlns:xlink="http://www.w3.org/1999/xlink">
    <!-- Generator: Sketch 55.2 (78181) - https://sketchapp.com -->
    <title>id_protection</title>
    <desc>Created with Sketch.</desc>
    <g id="页面1" stroke="none" stroke-width="1" fill="none" fill-rule="evenodd">
        <g id="身份证OCR1-无数据" transform="translate(-119.000000, -1108.000000)" fill="#A4A4A4" fill-rule="nonzero">
            <g id="编组-2" transform="translate(119.000000, 1108.000000)">
                <g id="安全">
                    <path d="M21.6035597,3.6395472 C21.2850999,3.36657989 20.8756503,3.20735002 20.4662006,3.20735002 L20.3524646,3.20735002 C20.3297175,3.20735002 20.0567524,3.2300972 19.6473027,3.2300972 C18.9421407,3.2300972 17.5773093,3.18460274 16.2807304,2.86614248 C14.5974392,2.45669279 12.6866833,0.636919186 12.1179834,0.272969544 C11.8222711,0.090992184 11.5038088,2.2343776e-06 11.1853491,2.2343776e-06 C10.8668893,2.2343776e-06 10.5256796,0.0909909145 10.2527148,0.272969544 C10.1844734,0.318464011 8.15997389,2.41120543 6.18096788,2.88889251 C4.88437887,3.20735226 3.49679484,3.25284723 2.79164558,3.25284723 C2.35944839,3.25284723 2.10923111,3.23010005 2.06373614,3.23010005 L1.95000022,3.23010005 C1.51780304,3.23010005 1.10835335,3.38933043 0.7898936,3.66229723 C0.448686367,3.95800949 0.266709007,4.39020667 0.266709007,4.84515134 L0.266709007,8.91689827 C0.266709007,23.9527869 10.4347013,25.8862852 10.866901,25.9772853 C10.9578897,26.0000325 11.0716256,26.0000325 11.1626133,26.0000325 C11.253602,26.0000325 11.3673379,26.0000325 11.4583255,25.9772853 C11.8905227,25.9090439 22.1494923,23.9527869 22.1494923,8.91689827 L22.1494923,4.84515134 C22.1494923,4.39020667 21.9447677,3.95801203 21.6035602,3.63954974 L21.6035597,3.6395472 Z M17.8502624,9.46281765 L10.7986428,16.2869623 C10.7531484,16.3552038 10.7076541,16.4234455 10.6394124,16.4916869 C10.4346879,16.6964115 10.1617228,16.7873992 9.88875552,16.7873992 C9.61578821,16.7873992 9.34282344,16.6964105 9.13809859,16.4916869 C9.06985714,16.4234455 9.02436267,16.3552038 8.97886821,16.2869623 L5.20284623,12.6474151 C4.79339654,12.2607129 4.79339654,11.6237909 5.20284623,11.2370887 C5.61229593,10.8503865 6.24921542,10.8503865 6.65866512,11.2370887 L9.88876263,14.3762115 L16.3944577,8.07524123 C16.8039074,7.68853902 17.4408269,7.68853902 17.8502766,8.07524123 C18.2597263,8.43919595 18.2597263,9.07611798 17.8502766,9.46282019 L17.8502624,9.46281765 Z" id="id_protection"></path>
                </g>
            </g>
        </g>
    </g>
</svg>