<?xml version="1.0" encoding="UTF-8"?>
<svg width="462px" height="282px" viewBox="0 0 462 282" version="1.1" xmlns="http://www.w3.org/2000/svg" xmlns:xlink="http://www.w3.org/1999/xlink">
    <!-- Generator: Sketch 55.2 (78181) - https://sketchapp.com -->
    <title>comparison_clickUp</title>
    <desc>Created with Sketch.</desc>
    <defs>
        <path d="M231.11672,81 C263.793268,81 290.23344,107.465077 290.23344,140.057282 C290.23344,172.649487 263.793268,199.114564 231.11672,199.114564 C198.440172,199.114564 172,172.700976 172,140.057282 C172,107.413588 198.440172,81 231.11672,81 L231.11672,81 Z" id="path-1"></path>
        <filter x="-13.1%" y="-9.7%" width="126.2%" height="126.2%" filterUnits="objectBoundingBox" id="filter-2">
            <feOffset dx="0" dy="4" in="SourceAlpha" result="shadowOffsetOuter1"></feOffset>
            <feGaussianBlur stdDeviation="4.5" in="shadowOffsetOuter1" result="shadowBlurOuter1"></feGaussianBlur>
            <feColorMatrix values="0 0 0 0 0.917647059   0 0 0 0 0.254901961   0 0 0 0 0.223529412  0 0 0 0.323371941 0" type="matrix" in="shadowBlurOuter1"></feColorMatrix>
        </filter>
    </defs>
    <g id="页面1" stroke="none" stroke-width="1" fill="none" fill-rule="evenodd">
        <g id="人证对比" transform="translate(-136.000000, -514.000000)" fill-rule="nonzero">
            <g id="编组-3" transform="translate(30.000000, 455.000000)">
                <g id="comparison_clickUp" transform="translate(106.000000, 60.000000)">
                    <path d="M6.91061453,0 L455.089385,0 C458.327374,0 461,2.64738598 461,5.96959585 L461,274.030404 C461,277.300704 458.378771,280 455.089385,280 L6.91061453,280 C3.6726257,280 1,277.352614 1,274.030404 L1,5.96959585 C1,2.69929551 3.62122905,0 6.91061453,0 Z" id="路径" stroke="#D9D9D9" fill="#FBFBFB"></path>
                    <g id="人脸识别" transform="translate(131.000000, 52.000000)" fill="#EDEDED">
                        <path d="M200,171.36897 L176.444444,171.36897 L176.444444,165.61239 L194.222222,165.61239 L194.222222,148.342649 L200,148.342649 L200,171.36897 Z M196.888889,141.257627 L196.888889,34.5394824 L197.343435,34.5394824 L197.343435,141.257627 L196.888889,141.257627 Z M194.222222,5.7565804 L176,5.7565804 L176,0 L200,0 L200,22.1406938 L194.222222,22.1406938 L194.222222,5.7565804 Z M36.8888889,2.65688326 L163.555556,2.65688326 L163.555556,3.10976162 L36.8888889,3.10976162 L36.8888889,2.65688326 L36.8888889,2.65688326 Z M5.77777778,22.5835077 L0,22.5835077 L0,0 L23.5555556,0 L23.5555556,5.7565804 L5.77777778,5.7565804 L5.77777778,22.5835077 Z M3.56565709,34.5394824 L3.56565709,141.257627 L3.11111111,141.257627 L3.11111111,34.5394824 L3.56565709,34.5394824 Z M5.77777778,165.61239 L22.6666667,165.61239 L22.6666667,171.36897 L0,171.36897 L0,148.785463 L5.77777778,148.785463 L5.77777778,165.61239 L5.77777778,165.61239 Z M189.777778,83.6918227 L179.111111,84.5774505 L135.555556,84.5774505 C134.666667,87.2343338 133.777778,89.891217 132.888889,92.9909142 C131.555556,97.4190529 129.333333,101.404378 126.666667,105.389703 C123.555556,110.260655 119.111111,114.24598 113.777778,116.902864 C110.222222,118.674119 106.222222,120.002561 102.222222,120.888188 C99.1111111,121.331002 95.5555556,120.888188 92.4444444,120.002561 C87.5555556,118.674119 83.1111111,116.46005 79.5555556,113.360353 C75.5555556,110.260655 72.4444444,106.27533 69.7777778,101.847192 C66.6666667,96.0906113 64.4444444,90.3340309 63.1111111,84.1346366 L20.8888889,84.1346366 L10.2222222,83.2490089 L20.8888889,82.3633811 L63.1111111,82.3633811 C62.6666667,80.5921256 62.2222222,79.263684 61.7777778,77.4924285 C60.8888889,73.0642897 60,68.6361509 59.1111111,64.650826 C58.6666667,61.9939428 58.6666667,59.3370595 58.2222222,56.6801763 C57.7777778,53.5804791 57.7777778,50.480782 57.7777778,47.3810848 C57.7777778,42.9529461 58.2222222,38.0819934 59.5555556,33.6538547 C60.8888889,30.1113436 62.6666667,27.0116465 65.3333333,23.9119494 C69.7777778,19.0409967 75.5555556,15.4984857 82.2222222,14.1700441 C87.1111111,13.7272302 90.6666667,13.2844163 94.6666667,13.2844163 C97.3333333,13.2844163 99.5555556,12.8416024 102.222222,12.8416024 C108.888889,12.8416024 115.555556,14.1700441 122.222222,16.8269273 C126.666667,18.5981828 130.666667,21.2550661 133.777778,25.240391 C137.333333,29.2257159 140,34.0966685 140.888889,39.4104351 C141.333333,42.5101322 141.333333,46.0526432 141.777778,49.1523403 L141.333333,49.1523403 C141.333333,51.8092236 141.333333,54.023293 140.888889,56.6801763 C140.444444,61.108315 139.555556,65.5364538 139.111111,70.4074064 C138.222222,74.8355452 137.333333,78.8208701 136.444444,82.806195 L179.111111,82.806195 L189.777778,83.6918227 L189.777778,83.6918227 Z M50.2222222,135.058232 C55.5555556,133.729791 60.8888889,132.401349 66.6666667,130.630094 C69.7777778,129.744466 72.4444444,127.97321 74.2222222,125.759141 C75.1111111,124.430699 75.5555556,123.102258 75.5555556,121.331002 L75.5555556,116.46005 C76.8888889,117.788491 78.2222222,119.559747 79.5555556,120.445375 C83.5555556,124.430699 88.4444444,127.087583 93.3333333,128.858838 C98.6666667,130.630094 104,130.18728 108.888889,127.97321 C113.777778,126.201955 117.777778,123.102258 121.333333,119.559747 C121.777778,119.116933 121.777778,118.674119 122.222222,118.231305 L122.666667,118.231305 L122.666667,120.002561 C122.222222,123.987886 124.888889,127.530397 128.444444,129.301652 C132,131.072908 135.555556,131.958535 139.555556,132.844163 L164.444444,139.043557 C168,139.929185 171.555556,140.814813 175.555556,141.700441 C166.222222,153.213601 154.222222,162.069879 140.888889,168.269273 L163.555556,168.269273 L163.555556,168.712087 L140,168.712087 C131.111111,172.697412 121.333333,175.354295 111.555556,176.239923 C94.2222222,178.453992 76.4444444,175.797109 60.4444444,168.712087 L36.8888889,168.712087 L36.8888889,168.269273 L59.1111111,168.269273 C45.7777778,162.069879 33.7777778,152.770788 24.4444444,141.257627 C26.6666667,140.371999 28.8888889,139.929185 31.1111111,139.486371 C37.3333333,138.15793 44,136.829488 50.2222222,135.058232 L50.2222222,135.058232 Z" id="形状"></path>
                    </g>
                    <g id="路径" opacity="0.900000036">
                        <use fill="black" fill-opacity="1" filter="url(#filter-2)" xlink:href="#path-1"></use>
                        <use fill="#FF665F" xlink:href="#path-1"></use>
                    </g>
                    <path d="M252.10004,158.131242 C250.656911,159.572919 249.265323,160.345246 247.255252,160.345246 L214.114841,160.345246 C212.053229,160.396735 210.661641,159.572919 209.218513,158.131242 C207.775385,156.689564 206.95074,155.299375 207.00228,153.291325 L207.00228,132.026584 C206.95074,129.967045 207.775385,128.422391 209.218513,126.980714 C210.661641,125.539036 212.053229,124.869686 214.114841,124.921175 L218.856549,124.921175 L219.423492,122.861636 C219.887355,121.780378 220.660459,120.853585 221.588184,120.184235 C222.56745,119.411908 223.752877,119 224.989844,119 L236.586411,119 C237.823378,119.051488 238.957264,119.463396 239.93653,120.184235 C240.915795,120.853585 241.63736,121.780378 242.152763,122.861636 L242.874327,124.818198 L247.255252,124.921175 C249.316864,124.869686 250.708452,125.539036 252.15158,127.032202 C253.594708,128.47388 254.419353,129.967045 254.367813,132.026584 L254.367813,153.291325 C254.316273,155.299375 253.491628,156.741053 252.10004,158.131242 L252.10004,158.131242 Z M250.759992,132.026584 C250.759992,130.945326 250.244589,130.327465 249.471485,129.606626 C248.69838,128.834299 248.286058,128.47388 247.203712,128.47388 L240.348852,128.47388 L238.751103,124.251825 C238.544942,123.839917 238.2357,123.479497 237.823378,123.222055 C237.462596,122.913124 237.050273,122.758659 236.586411,122.70717 L224.989844,122.70717 C224.525981,122.70717 224.062119,122.913124 223.752877,123.222055 C223.340554,123.479497 222.979772,123.891405 222.773611,124.354801 L221.072781,128.525368 L214.114841,128.525368 C213.032495,128.525368 212.620173,128.885787 211.847068,129.658115 C211.073964,130.430442 210.558561,130.996815 210.558561,132.078073 L210.558561,153.342813 C210.507021,154.424071 211.073964,154.887468 211.847068,155.659795 C212.568632,156.432122 213.032495,156.947007 214.114841,156.895518 L247.255252,156.895518 C248.337598,156.947007 248.74992,156.432122 249.523025,155.659795 C250.296129,154.938956 250.863073,154.424071 250.811532,153.342813 L250.811532,132.026584 L250.759992,132.026584 Z M230.659276,152.10709 C224.783683,152.10709 219.990435,147.37015 219.990435,141.448975 C219.990435,135.579289 224.732142,130.790861 230.659276,130.790861 C236.586411,130.790861 241.328118,135.527801 241.328118,141.448975 C241.328118,147.37015 236.53487,152.10709 230.659276,152.10709 Z M230.659276,134.395054 C226.742214,134.395054 223.546716,137.58734 223.546716,141.500464 C223.546716,145.413588 226.742214,148.605874 230.659276,148.605874 C234.576339,148.605874 237.771837,145.413588 237.771837,141.500464 C237.771837,137.535851 234.576339,134.395054 230.659276,134.395054 L230.659276,134.395054 Z" id="形状" fill="#FFFFFF"></path>
                </g>
            </g>
        </g>
    </g>
</svg>