<?xml version="1.0" encoding="UTF-8"?>
<svg width="162px" height="181px" viewBox="0 0 162 181" version="1.1" xmlns="http://www.w3.org/2000/svg" xmlns:xlink="http://www.w3.org/1999/xlink">
    <!-- Generator: Sketch 57.1 (83088) - https://sketch.com -->
    <title>logo_中国农业银行</title>
    <desc>Created with Sketch.</desc>
    <g id="页面1" stroke="none" stroke-width="1" fill="none" fill-rule="evenodd" opacity="0.077546">
        <g id="2-所有支持银行" transform="translate(-548.000000, -898.000000)" fill="#FFFFFF">
            <g id="编组备份-4" transform="translate(40.000000, 898.000000)">
                <g id="农业银行">
                    <path d="M621.376894,3.07905474 C659.414782,12.6334059 687.601949,46.559258 689.854193,85.4429826 C692.538685,131.870805 657.845037,173.950607 611.355548,180.195945 C559.849699,187.13019 511.77909,148.359402 508.207351,96.860771 C505.22711,53.6967874 534.676898,13.5143035 576.946274,3 L576.923524,52.3302669 C576.923524,58.0448078 576.63915,60.8004364 582.838507,60.8004364 C586.012123,60.81173 589.242613,60.6197393 592.393479,60.8004364 C598.001338,61.1505368 597.011716,65.8147767 597.011715,70.2757325 L597.011715,90.8864783 C595.123471,86.9902004 587.911742,88.6729406 584.487877,88.6729406 L572.544162,88.6729406 C570.087169,88.3567208 568.961048,87.0805487 568.710798,84.663727 L568.710798,25.8694575 C543.344623,37.411475 526.714422,63.3640743 526.714421,91.0332944 C526.714421,126.224025 553.707217,157.247433 588.924114,161.979434 L588.924114,124.394469 C588.924114,122.643967 589.640737,120.870878 587.638743,120.870878 L578.140646,120.870878 C575.160404,120.870878 569.518421,121.977647 568.779048,117.866791 C568.27855,115.585492 568.722174,112.908919 568.722173,110.616326 L568.722173,89.3844348 C568.631174,91.1349364 569.404671,92.4675765 571.145041,92.919319 C575.717778,93.96962 581.439386,93.043548 586.125872,93.0322544 C589.151613,93.0096674 596.135843,91.5640916 596.932091,95.9234057 C597.557714,98.5435115 597.011716,101.863818 597.011715,104.551685 L597.011715,118.770276 C597.011715,120.385255 596.829716,120.181971 597.921713,120.678888 C598.672461,121.017694 600.264956,120.769236 601.106703,120.803117 L601.106703,102.722128 C601.106703,99.4921702 599.900957,93.0096674 604.974192,93.0096674 C609.865428,92.3320538 615.348162,93.0096674 620.296272,93.0096674 C623.560887,93.0096674 629.623745,94.1051427 629.384871,89.1472701 C629.418995,95.4264891 629.384871,101.705708 629.384871,107.996221 C629.396246,110.029061 628.395248,115.178924 629.43037,116.906839 C631.989738,123.253819 612.208671,120.035155 610.013302,120.859585 C608.705181,121.367795 609.410429,120.565952 608.966805,122.158344 C608.773431,122.858545 608.966805,123.999194 608.966805,124.721982 L608.966805,161.990727 C644.195077,157.247433 671.187873,126.224025 671.187873,91.0332944 C671.187873,63.4092483 654.671421,37.5018234 629.396245,25.8694575 L629.396245,77.3455006 C629.396245,78.3167466 628.759247,84.0312877 629.418995,84.5169109 C629.418995,86.4368159 628.452123,88.1873177 626.416004,88.6051792 C621.479269,89.5538382 615.518786,88.6729406 610.468301,88.6729406 C607.48806,88.6729406 602.721949,87.5661719 601.106703,90.8864783 L601.106703,72.749022 C601.106703,69.7901094 599.491458,62.3589476 603.472696,61.0827752 C607.26056,59.8969515 620.398647,63.4544226 621.16077,57.9657528 C622.366516,49.4165284 621.240394,39.8960579 621.274519,31.2677787 L621.376894,3.07905474 L621.376894,3.07905474 Z M592.945128,55.9710946 C591.134193,55.8929426 589.619737,54.5825521 589.298729,52.816029 C588.65457,46.5628481 589.252717,39.9679633 589.252717,33.680612 L589.252717,6.49237361 C589.252717,5.58116337 588.976649,0 589.574797,0 L609.463201,0 C610.049846,0 609.785281,11.5609812 609.78528,13.0189176 L609.78528,47.189305 C609.78528,48.4536094 610.2684,50.9594379 609.78528,52.1098408 C609.78528,52.8046388 609.463201,53.8183602 609.060602,54.3878668 C608.08286,56.3469691 604.793049,55.9710949 603.079127,55.9710946 L592.945128,55.9710946 L592.945128,55.9710946 Z" id="logo_中国农业银行"></path>
                </g>
            </g>
        </g>
    </g>
</svg>