<?xml version="1.0" encoding="UTF-8"?>
<svg width="180px" height="181px" viewBox="0 0 180 181" version="1.1" xmlns="http://www.w3.org/2000/svg" xmlns:xlink="http://www.w3.org/1999/xlink">
    <!-- Generator: Sketch 57.1 (83088) - https://sketch.com -->
    <title>logo_中国交通银行</title>
    <desc>Created with Sketch.</desc>
    <g id="页面1" stroke="none" stroke-width="1" fill="none" fill-rule="evenodd" opacity="0.077546">
        <g id="2-所有支持银行" transform="translate(-530.000000, -1518.000000)" fill="#FFFFFF">
            <g id="编组备份-6" transform="translate(40.000000, 1518.000000)">
                <g id="工商银行">
                    <path d="M654.523881,126.25 C641.645152,126.660348 629.743293,127.078439 616.867886,127.488788 C608.722877,162.116227 541.305587,152.767803 548.815964,108.827333 C552.591642,82.7995152 587.809894,71.4292121 609.662089,91.0861212 C614.473338,96.5013939 616.816939,101.5395 618.366418,112.561394 C629.161823,112.143303 643.727369,111.734061 654.523881,111.31597 C655.068802,55.3194394 591.379566,26.9025303 543.627037,54.0773333 C497.84043,80.1261667 503.131253,159.486015 551.098649,179.75347 L551.098649,181 C524.941361,180.480152 496.248864,160.246985 490,136.204545 L490.355527,7.10957576 C511.125635,-6.99490909 534.073208,-23.9010455 554.842208,-38 C555.666234,-37.5819091 556.503551,-37.1693485 557.328684,-36.7534697 C555.897714,-17.2901212 556.800377,14.7922727 557.948919,38.2175303 C570.968308,25.6062273 579.7258,12.4186667 602.189369,8.04309091 C616.667418,5.21821212 630.519694,6.91933333 639.255034,9.90901515 C704.86146,32.353197 708.952793,117.017712 653.273444,146.156879 C652.021899,146.156879 649.322771,148.605697 647.250523,149.017152 C647.250523,148.599061 648.549693,146.801712 649.535423,144.916985 C651.200088,138.69097 652.858108,132.469379 654.523881,126.25 L654.523881,126.25 Z" id="logo_中国交通银行"></path>
                </g>
            </g>
        </g>
    </g>
</svg>