<?xml version="1.0" encoding="UTF-8"?>
<svg width="171px" height="176px" viewBox="0 0 171 176" version="1.1" xmlns="http://www.w3.org/2000/svg" xmlns:xlink="http://www.w3.org/1999/xlink">
    <!-- Generator: Sketch 57.1 (83088) - https://sketch.com -->
    <title>logo_中国银行</title>
    <desc>Created with Sketch.</desc>
    <g id="页面1" stroke="none" stroke-width="1" fill="none" fill-rule="evenodd" opacity="0.077546">
        <g id="2-所有支持银行" transform="translate(-539.000000, -1828.000000)" fill="#FFFFFF">
            <g id="编组备份-7" transform="translate(40.000000, 1828.000000)">
                <g id="农业银行">
                    <path d="M698.901048,72.6675349 C697.610048,37.6058528 675.662176,13.7119871 675.662176,13.7119871 C641.722269,-25.5763442 598.191166,-21.9092527 598.191166,-21.9092527 C551.705897,-23.3758589 523.120414,11.5267729 523.120414,11.5267729 C503.564987,34.6567932 501.354862,55.9721407 501.354862,55.9721407 C492.681922,91.7746174 510.757083,122.624633 510.757083,122.624633 C524.221859,146.866277 538.423441,158.079907 561.479703,168.710929 C584.536544,179.379407 619.592656,177.91309 641.358208,167.077493 C663.115946,156.234692 676.398691,144.295251 688.572467,121.717297 C700.739009,99.116868 698.901048,72.6675349 698.901048,72.6675349 Z M588.781999,154.034783 C588.781999,154.034783 552.260092,152.015822 532.157705,117.112903 C532.157705,117.112903 514.812404,92.5010049 522.004499,61.832514 C529.20354,31.1637351 545.987701,18.8693115 549.31403,15.7462185 C552.632835,12.6306169 574.124907,-0.10983907 588.781999,0.124414532 L588.781999,36.6757535 L573.289707,36.6757535 C573.289707,36.6757535 552.260381,37.9614109 551.524155,61.0986347 L551.524155,94.8902186 C551.524155,94.8902186 552.07835,115.653788 573.843903,118.03551 L588.781999,118.03551 L588.781999,154.034783 L588.781999,154.034783 Z M576.236059,96.5536208 C576.236059,96.5536208 572.552902,97.4684488 571.998707,93.2492912 L571.998707,60.9246016 C571.998707,60.9246016 572.553192,57.439035 575.317223,57.439035 L620.876132,57.439035 C620.876132,57.439035 624.756657,56.6901726 625.121297,60.9246016 L625.121297,92.3269718 C625.121297,92.3269718 626.047946,97.2869241 622.356977,96.5536211 L576.236059,96.5536208 Z M664.969245,120.235708 C650.205365,142.639628 622.166843,152.930651 609.07452,154.034495 L609.07452,118.035222 L626.412008,118.035222 C626.412008,118.035222 644.867147,114.367843 645.967724,95.260472 L645.967724,56.8791891 C645.967724,56.8791891 643.006324,37.6055648 622.546821,36.6754658 L609.07452,36.6754658 L609.07452,0.13190633 C609.07452,0.13190633 632.131072,1.96185048 650.759849,19.0502603 C669.388916,36.1233991 674.181331,53.2048941 676.216371,62.3917839 C678.244177,71.5786736 679.717497,97.8314986 664.969245,120.235708 Z" id="logo_中国银行"></path>
                </g>
            </g>
        </g>
    </g>
</svg>