<?xml version="1.0" encoding="UTF-8"?>
<svg width="169px" height="174px" viewBox="0 0 169 174" version="1.1" xmlns="http://www.w3.org/2000/svg" xmlns:xlink="http://www.w3.org/1999/xlink">
    <!-- Generator: Sketch 57.1 (83088) - https://sketch.com -->
    <title>logo-中国建设银行</title>
    <desc>Created with Sketch.</desc>
    <g id="页面1" stroke="none" stroke-width="1" fill="none" fill-rule="evenodd" opacity="0.077546">
        <g id="2-所有支持银行" transform="translate(-541.000000, -278.000000)" fill="#FFFFFF">
            <g id="编组备份-2" transform="translate(40.000000, 278.000000)">
                <g id="形状">
                    <path d="M670.738531,85.9081903 L637.033007,85.9081903 C637.033007,85.9081903 634.610981,85.9081903 633.601889,86.3217822 C632.996433,86.5285781 630.978045,88.1829458 630.978045,88.1829458 L589.401192,130.781279 C588.593918,131.401667 587.584825,131.401667 586.777348,130.781279 L542.576853,85.4945985 C541.971398,84.8742105 541.971398,83.6334348 542.576853,83.0130471 L586.979369,37.7263666 C587.584825,36.8991827 588.795939,36.8991827 589.401395,37.7263666 L628.354201,77.6367606 C628.354201,77.6367606 629.968749,79.4979243 631.785319,80.1181079 C633.601686,80.5316998 636.22553,78.2569443 636.22553,78.2569443 L654.188395,59.4393292 L601.712732,6.08801484 C590.612103,-5.28535422 578.502381,-4.25137444 573.658533,-3.63098668 C531.476224,3.60666752 501,40.6217141 501,84.6676189 C501,134.29681 541.164123,174 588.19028,174 C634.409163,174 673.160353,135.950974 675.38056,87.9761499 C675.38056,87.3557619 675.582379,86.9421701 674.371468,86.1149862 C673.160353,85.2878026 670.738531,85.9081903 670.738531,85.9081903 L670.738531,85.9081903 Z M615.639023,4.64044323 L661.656088,51.3744913 L674.371265,38.7603465 C674.371265,38.7603465 675.582176,36.692387 675.985813,34.8314276 C676.187632,33.7974478 674.169446,32.1432844 674.169446,32.1432844 L646.115248,3.19307569 C619.675597,-23.8961734 590.208466,-10.8686409 590.208466,-10.8686409 C590.208466,-10.8686409 602.520209,-10.661845 615.639023,4.64044323 L615.639023,4.64044323 Z" id="logo-中国建设银行"></path>
                </g>
            </g>
        </g>
    </g>
</svg>