<?xml version="1.0" encoding="UTF-8"?>
<svg width="184px" height="184px" viewBox="0 0 184 184" version="1.1" xmlns="http://www.w3.org/2000/svg" xmlns:xlink="http://www.w3.org/1999/xlink">
    <!-- Generator: Sketch 57.1 (83088) - https://sketch.com -->
    <title>logo_中国工商银行</title>
    <desc>Created with Sketch.</desc>
    <g id="页面1" stroke="none" stroke-width="1" fill="none" fill-rule="evenodd" opacity="0.077546">
        <g id="2-所有支持银行" transform="translate(-526.000000, -588.000000)" fill="#FFFFFF">
            <g id="编组备份-3" transform="translate(40.000000, 588.000000)">
                <g id="工商银行">
                    <path d="M645.402462,89.296923 L645.402462,134.545692 L595.312615,134.545692 L595.312615,119.920462 L629.412,119.920462 L629.412,103.223846 L595.312615,103.223846 L595.312615,58.0064615 L629.412,58.0064615 L629.412,42.675077 L595.312615,42.675077 L595.312615,28.042 L645.402462,28.042 L645.402462,73.2593845 L611.310923,73.2593845 L611.310923,88.5907692 L645.402462,88.5907692 L645.402462,89.296923 Z M588,-20 C644.335385,-20 690,25.6646155 690,82 C690,138.335385 644.335385,184 588,184 C531.664615,184 486,138.335385 486,82 C486,25.6646155 531.664615,-20 588,-20 Z M588,0.227384523 C542.837538,0.227384523 506.243077,36.8375385 506.243077,82 C506.243077,127.162462 542.837538,163.764769 588,163.764769 C633.162462,163.764769 669.764769,127.162462 669.764769,82 C669.764769,36.8375385 633.162462,0.227384523 588.007846,0.227384523 L588,0.227384523 Z M580.640308,28.042 L580.640308,42.675077 L546.548769,42.675077 L546.548769,58.0064615 L580.640308,58.0064615 L580.640308,103.223846 L546.548769,103.223846 L546.548769,119.920462 L580.640308,119.920462 L580.640308,134.545692 L530.566154,134.545692 L530.566154,88.5907692 L564.657692,88.5907692 L564.657692,73.2593845 L530.566154,73.2593845 L530.566154,28.042 L580.648154,28.042 L580.640308,28.042 Z" id="logo_中国工商银行"></path>
                </g>
            </g>
        </g>
    </g>
</svg>