<?xml version="1.0" encoding="UTF-8"?>
<svg width="168px" height="167px" viewBox="0 0 168 167" version="1.1" xmlns="http://www.w3.org/2000/svg" xmlns:xlink="http://www.w3.org/1999/xlink">
    <!-- Generator: Sketch 57.1 (83088) - https://sketch.com -->
    <title>logo_中国邮储银行</title>
    <desc>Created with Sketch.</desc>
    <g id="页面1" stroke="none" stroke-width="1" fill="none" fill-rule="evenodd" opacity="0.077546">
        <g id="2-所有支持银行" transform="translate(-542.000000, -1208.000000)" fill="#FFFFFF">
            <g id="编组备份-5" transform="translate(40.000000, 1208.000000)">
                <g id="形状">
                    <path d="M623.29831,-26 L616.261047,2.75828746 L582,2.75828746 L582,21 L623.702301,21 L632.381593,-6.95331488 L705.881898,-6.95331488 L710,-26 L623.29831,-26 Z M570.914882,3 L557.353439,61.8797968 L536,61.8797968 L536,80.1496986 L554.475197,80.1496986 L551.596956,90.2924198 L536,90.2924198 L536,109.368538 L548.316798,109.368538 L536,167 L582,167 L582,147.923882 L551.596956,147.923882 L554.060316,137.781161 L582,137.781161 L582,118.301935 L558.585118,118.301935 L560.646561,110.187758 L582,110.187758 L582,90.2924198 L563.926719,90.2924198 L566.390079,80.1496986 L582,80.1496986 L582,61.8797968 L570.072153,61.8797968 L572.548478,51.3209641 L582,51.3209641 L582,32.2318425 L576.243517,32.2318425 L579.121759,21.2699015 L582,21.2699015 L582,3 L570.914882,3 L570.914882,3 Z M639.887023,3 L631.207232,31.8808037 L582,31.8808037 L582,51 L640.722371,51 L648.579865,21.3111595 L699.862416,21.3111595 L704,3 L639.887023,3 L639.887023,3 Z M626.425679,62 L614.092425,118.49546 L582,118.49546 L582,138 L621.894831,138 L635.474392,79.8769918 L687.300024,79.8769918 L691,62 L626.425679,62 L626.425679,62 Z M582,62 L582,80.1534321 L599.730178,80.1534321 L597.673373,90.231494 L582,90.231494 L582,110 L604.689941,110 L615,62 L582,62 L582,62 Z M512.238783,62.0259771 L502,109.434439 L536,109.434439 L536,90.3801337 L517.978707,90.3801337 L520.434981,80.2490105 L536,80.2490105 L536,62 L536,167 L536,62 L512.238783,62 L512.238783,62.0259771 Z M642.153768,90.0130509 L628.968312,147.854407 L582,147.854407 L582,167 L637.628582,167 L650.814039,109.967797 L681.294029,109.967797 L685,90 L642.153768,90 L642.153768,90.0130509 Z" id="logo_中国邮储银行"></path>
                </g>
            </g>
        </g>
    </g>
</svg>