<?xml version="1.0" encoding="UTF-8"?>
<svg width="90px" height="90px" viewBox="0 0 90 90" version="1.1" xmlns="http://www.w3.org/2000/svg" xmlns:xlink="http://www.w3.org/1999/xlink">
    <!-- Generator: Sketch 57.1 (83088) - https://sketch.com -->
    <title>icon_ detail</title>
    <desc>Created with Sketch.</desc>
    <defs>
        <linearGradient x1="50%" y1="0%" x2="50%" y2="100%" id="linearGradient-1">
            <stop stop-color="#8E69FF" offset="0%"></stop>
            <stop stop-color="#DF89E8" offset="100%"></stop>
        </linearGradient>
        <circle id="path-2" cx="45" cy="45" r="45"></circle>
        <linearGradient x1="50%" y1="39.2759341%" x2="50%" y2="100%" id="linearGradient-4">
            <stop stop-color="#FFFFFF" offset="0%"></stop>
            <stop stop-color="#F9EBFF" offset="100%"></stop>
        </linearGradient>
    </defs>
    <g id="页面1" stroke="none" stroke-width="1" fill="none" fill-rule="evenodd">
        <g id="2-钱包" transform="translate(-420.000000, -582.000000)">
            <g id="编组-4" transform="translate(60.000000, 582.000000)">
                <g id="编组-4备份-3" transform="translate(360.000000, 0.000000)">
                    <g id="icon_-detail">
                        <g id="椭圆形-+-椭圆形备份-蒙版">
                            <mask id="mask-3" fill="white">
                                <use xlink:href="#path-2"></use>
                            </mask>
                            <use id="蒙版" fill="url(#linearGradient-1)" xlink:href="#path-2"></use>
                            <circle id="椭圆形" fill="#FFFFFF" opacity="0.128882999" mask="url(#mask-3)" cx="20.5" cy="15.5" r="29.5"></circle>
                            <circle id="椭圆形备份" fill="#FFFFFF" opacity="0.128882999" mask="url(#mask-3)" cx="66.5" cy="9.5" r="29.5"></circle>
                        </g>
                        <path d="M59.5035165,24 L30.8601198,24 C29.2987757,24 28.032821,25.2471534 28,26.8037508 L28.1969263,26.8037508 C28.1312842,26.8037508 28.0703308,26.8084394 28,26.8131279 L28,63.1352981 C28,64.7153382 29.2847096,66 30.8648085,66 L59.5035165,66 C61.0789268,66 62.3636364,64.7153382 62.3636364,63.1352981 L62.3636364,26.8084394 C62.3308153,25.2471534 61.0601719,24 59.5035165,24 Z M46.1363636,55.9772727 C46.1363636,56.7647727 45.4163636,57.4090909 44.5363636,57.4090909 L37.2363636,57.4090909 C36.3563636,57.4090909 35.6363636,56.7647727 35.6363636,55.9772727 C35.6363636,55.1897727 36.3563636,54.5454545 37.2363636,54.5454545 L44.5363636,54.5454545 C45.4163636,54.5454545 46.1363636,55.1897727 46.1363636,55.9772727 Z M49.9545455,44.5227273 C49.9545455,45.3102273 49.2672727,45.9545455 48.4272727,45.9545455 L37.1636364,45.9545455 C36.3236364,45.9545455 35.6363636,45.3102273 35.6363636,44.5227273 C35.6363636,43.7352273 36.3236364,43.0909091 37.1636364,43.0909091 L48.4272727,43.0909091 C49.2672727,43.0909091 49.9545455,43.7352273 49.9545455,44.5227273 Z M53.7727273,34.9772727 C53.7727273,35.7647727 53.0926136,36.4090909 52.2613636,36.4090909 L37.1477273,36.4090909 C36.3164773,36.4090909 35.6363636,35.7647727 35.6363636,34.9772727 C35.6363636,34.1897727 36.3164773,33.5454545 37.1477273,33.5454545 L52.2613636,33.5454545 C53.0926136,33.5454545 53.7727273,34.1897727 53.7727273,34.9772727 Z" id="形状" fill="url(#linearGradient-4)" fill-rule="nonzero"></path>
                    </g>
                </g>
            </g>
        </g>
    </g>
</svg>