<?xml version="1.0" encoding="UTF-8"?>
<svg width="90px" height="90px" viewBox="0 0 90 90" version="1.1" xmlns="http://www.w3.org/2000/svg" xmlns:xlink="http://www.w3.org/1999/xlink">
    <!-- Generator: Sketch 57.1 (83088) - https://sketch.com -->
    <title>icon_setting</title>
    <desc>Created with Sketch.</desc>
    <defs>
        <linearGradient x1="50%" y1="0%" x2="50%" y2="100%" id="linearGradient-1">
            <stop stop-color="#5789F9" offset="0%"></stop>
            <stop stop-color="#4CB8FE" offset="100%"></stop>
        </linearGradient>
        <circle id="path-2" cx="45" cy="45" r="45"></circle>
        <linearGradient x1="50%" y1="39.2759341%" x2="50%" y2="100%" id="linearGradient-4">
            <stop stop-color="#FFFFFF" offset="0%"></stop>
            <stop stop-color="#E8F4FF" offset="100%"></stop>
        </linearGradient>
    </defs>
    <g id="页面1" stroke="none" stroke-width="1" fill="none" fill-rule="evenodd">
        <g id="2-钱包" transform="translate(-600.000000, -582.000000)">
            <g id="编组-4" transform="translate(60.000000, 582.000000)">
                <g id="编组-4备份-4" transform="translate(540.000000, 0.000000)">
                    <g id="编组-3">
                        <g id="icon_setting">
                            <mask id="mask-3" fill="white">
                                <use xlink:href="#path-2"></use>
                            </mask>
                            <use id="蒙版" fill="url(#linearGradient-1)" xlink:href="#path-2"></use>
                            <rect id="矩形" fill="#FFFFFF" opacity="0.128882999" mask="url(#mask-3)" x="15" y="61" width="45" height="58" rx="3"></rect>
                            <rect id="矩形备份" fill="#FFFFFF" opacity="0.128882999" mask="url(#mask-3)" x="42" y="33" width="68" height="58" rx="3"></rect>
                            <path d="M64.2706353,40.8289145 L60.7488744,40.0365183 C60.4847424,39.156078 60.1105553,38.3196598 59.6923462,37.5052526 L61.6073037,34.3136568 C62.3116558,33.1690845 62.6858429,31.4962481 61.6073037,30.4177089 L59.6703352,28.4807404 C59.142071,27.9744872 58.4597299,27.7103552 57.7333667,27.7323662 C57.0070035,27.7323662 56.2586293,27.9744872 55.6863432,28.3486743 L52.5827914,30.3296648 C51.7683842,29.9114557 50.931966,29.5592796 50.0735368,29.2731366 L49.2811406,25.7073537 C49.0390195,24.4087044 47.8944472,23 46.3756878,23 L43.6243122,23 C42.1055528,23 41.1810905,24.4307154 40.8729365,25.7513757 L39.9924962,29.2731366 C39.068034,29.5592796 38.1655828,29.9554777 37.3071536,30.3956978 L34.1375688,28.3706853 C33.5432716,27.9744872 32.8169085,27.7543772 32.0905453,27.7543772 C31.3641821,27.7323662 30.6818409,27.9964982 30.1535768,28.5027514 L28.2166083,30.4397199 C27.138069,31.5182591 27.5122561,33.1910955 28.2166083,34.3356678 L30.2196098,37.6813407 C29.8454227,38.4517259 29.5152576,39.2221111 29.2511256,40.0365183 L25.7293647,40.8289145 C24.4087044,41.0710355 23,42.2156078 23,43.7343672 L23,46.4857429 C23,48.0045023 24.4307154,48.9289645 25.7513757,49.2371186 L29.3171586,50.1175588 C29.5592796,50.865933 29.8674337,51.5922961 30.2196098,52.3186593 L28.2166083,55.6643322 C27.5122561,56.8089045 27.138069,58.4817409 28.2166083,59.5602801 L30.1535768,61.4972486 C30.6818409,62.0255128 31.3861931,62.2456228 32.0905453,62.2456228 C32.8169085,62.2456228 33.5652826,62.0035018 34.1375688,61.6293147 L37.3071536,59.6043022 C38.1655828,60.0665333 39.068034,60.4407204 39.9924962,60.7268634 L40.8729365,64.2486243 C41.1810905,65.5692846 42.1055528,67 43.6243122,67 L46.3756878,67 C47.8944472,67 49.0390195,65.5912956 49.2811406,64.2706353 L50.0735368,60.6828414 C50.931966,60.3966983 51.7683842,60.0445223 52.5607804,59.6483242 L55.6643322,61.6293147 C56.2146073,62.0035018 56.9629815,62.2456228 57.7113557,62.2456228 C58.4377189,62.2676338 59.142071,62.0035018 59.6483242,61.4972486 L61.5852926,59.5602801 C62.6638319,58.4817409 62.2896448,56.8089045 61.5852926,55.6643322 L59.6703352,52.4727364 C60.0445223,51.7243622 60.3966983,50.931966 60.6608304,50.1175588 L64.2266133,49.2371186 C65.5472736,48.9289645 66.9782398,48.0045023 66.9782398,46.4857429 L66.9782398,43.7343672 C67,42.2156078 65.5692846,41.0710355 64.2706353,40.8289145 Z M45.0330165,51.6583292 C41.3571786,51.6583292 38.3856928,48.6868434 38.3856928,45.0330165 C38.3856928,41.3571786 41.3571786,38.3856928 45.0330165,38.3856928 C48.7088544,38.3856928 51.6803402,41.3571786 51.6803402,45.0330165 C51.6803402,48.6868434 48.7088544,51.6583292 45.0330165,51.6583292 Z" id="形状" fill="url(#linearGradient-4)" fill-rule="nonzero" mask="url(#mask-3)"></path>
                        </g>
                    </g>
                </g>
            </g>
        </g>
    </g>
</svg>