<?xml version="1.0" encoding="UTF-8"?>
<svg width="90px" height="90px" viewBox="0 0 90 90" version="1.1" xmlns="http://www.w3.org/2000/svg" xmlns:xlink="http://www.w3.org/1999/xlink">
    <!-- Generator: Sketch 57.1 (83088) - https://sketch.com -->
    <title>icon_recharge</title>
    <desc>Created with Sketch.</desc>
    <defs>
        <linearGradient x1="50%" y1="0%" x2="50%" y2="100%" id="linearGradient-1">
            <stop stop-color="#FE684A" offset="0%"></stop>
            <stop stop-color="#FDB06B" offset="100%"></stop>
        </linearGradient>
        <circle id="path-2" cx="45" cy="45" r="45"></circle>
        <linearGradient x1="50%" y1="39.2759341%" x2="50%" y2="100%" id="linearGradient-4">
            <stop stop-color="#FFFFFF" offset="0%"></stop>
            <stop stop-color="#FFECE4" offset="100%"></stop>
        </linearGradient>
    </defs>
    <g id="页面1" stroke="none" stroke-width="1" fill="none" fill-rule="evenodd">
        <g id="2-钱包" transform="translate(-60.000000, -582.000000)">
            <g id="编组-4" transform="translate(60.000000, 582.000000)">
                <g id="编组-4备份">
                    <g id="编组-3">
                        <g id="icon_recharge">
                            <mask id="mask-3" fill="white">
                                <use xlink:href="#path-2"></use>
                            </mask>
                            <use id="蒙版" fill="url(#linearGradient-1)" xlink:href="#path-2"></use>
                            <circle id="椭圆形" fill="#FFFFFF" opacity="0.128882999" mask="url(#mask-3)" cx="59.5" cy="84.5" r="29.5"></circle>
                            <circle id="椭圆形备份" fill="#FFFFFF" opacity="0.128882999" mask="url(#mask-3)" cx="88.5" cy="59.5" r="29.5"></circle>
                            <path d="M67.4795706,46.4808577 C67.1513583,46.2032895 66.8182765,46.1195321 66.480325,46.0659663 C64.4506683,46.0620706 62.4219856,46.056227 60.3952507,46.056227 L60.3952507,28.464246 C60.3952507,27.5750539 60.0572992,26.7647495 59.5050846,26.1511776 L59.5050846,26.1482559 C59.1291501,25.7323905 58.6548493,25.4071 58.1182175,25.2103675 L58.1133478,25.2084196 L57.983816,25.1645931 L57.9575201,25.1558278 L57.9409634,25.1509581 C57.8679191,25.1285579 57.7939009,25.1090794 57.7198827,25.0915488 L57.7101435,25.088627 L57.6750822,25.0808357 L57.6302818,25.0710964 L57.6263861,25.0710964 L57.5845074,25.0623311 L57.5426286,25.0545397 L57.5397069,25.0535658 L57.5260719,25.0516179 L57.5260719,25.050644 L57.4939325,25.0457744 L57.4890628,25.0448005 L57.4793236,25.0438266 L57.4705583,25.0418787 L57.4608191,25.0409048 L57.4569234,25.0399309 L57.4510798,25.0389569 L57.4423145,25.0389569 L57.4335492,25.0370091 L57.42381,25.0360352 L57.4150447,25.0340873 L57.4023836,25.0321395 L57.3712181,25.0282438 L57.3566092,25.0262959 L57.3098609,25.0204524 L57.2845389,25.0185045 L57.2631126,25.0165567 L57.1968858,25.0107132 L57.1696159,25.0087653 L57.1452678,25.0068175 L57.1365025,25.0068175 L57.1267633,25.0058435 L57.117998,25.0058435 L57.1092327,25.0048696 L57.0994934,25.0048696 L57.0897542,25.0038957 L57.0751453,25.0029218 L57.0439798,25.0029218 L57.0342405,25.0019478 L57.028397,25.0009739 L56.9787269,25.0009739 L56.9689877,25 L33.5821616,25 C32.9315807,25 32.3219045,25.1821237 31.8008554,25.496701 L31.8008554,25.4957271 C30.9593855,25.9982716 30.3516572,26.8543504 30.1734292,27.8545699 L30.1675857,27.8867094 L30.1597943,27.9393013 L30.1588203,27.9441709 L30.151029,27.9996845 L30.1471333,28.0250065 L30.1432376,28.057146 L30.137394,28.1116857 L30.137394,28.1146075 L30.124733,28.2811484 L30.1237591,28.286992 L30.1237591,28.2879659 L30.1218112,28.3464013 L30.1208373,28.3746451 L30.1208373,28.4048367 L30.1198634,28.464246 L30.1198634,46.0162962 C28.1106591,46.0124005 26.1024288,46.0094787 24.0941984,46.005583 C23.7708558,46.0601227 23.4338783,46.2188723 23.0842397,46.5100754 C21.6574417,47.7976023 21.7265903,49.2468006 22.7803756,50.5343275 C23.0881354,50.9053924 23.5195835,51.2189957 23.8857788,51.5364948 L23.8857788,51.533573 C28.494385,55.5032854 33.1107826,59.4515715 37.7378934,63.4290752 L37.7378934,63.4222577 L41.6949447,66.8222248 L41.6949447,66.8095638 L41.7455887,66.8524165 L41.7640933,66.8738428 L41.7796761,66.8894256 C41.8273983,66.9400696 41.8790163,66.9887658 41.9345299,67.0355141 L41.9393995,67.0403837 L41.9452431,67.0452533 L41.9569302,67.0559665 L41.971539,67.0666797 L42.0260787,67.1095323 L42.0280266,67.1124541 C43.4090502,68.1331259 47.1089857,68.4525729 48.6117497,67.100767 L49.6100214,66.2398186 L49.6100214,66.2359229 C54.8916088,61.6701693 60.1654047,57.1014939 65.4411486,52.5357404 L65.4411486,52.5260011 L67.1328538,51.0612201 C68.8050805,49.5380037 68.7554104,47.8949947 67.4795706,46.4808577 Z M39.3711631,50.8411134 C39.1452129,50.7047641 38.9640631,50.5012141 38.8579054,50.2587071 L38.8520619,50.2460461 L38.8491401,50.2402026 L38.8413487,50.2207241 L38.8403748,50.2168284 L38.8277138,50.1827411 L38.8208963,50.1622887 L38.8189485,50.158393 L38.8140789,50.1437841 L38.8092093,50.1282014 L38.8082353,50.1243057 L38.8014179,50.1038533 L38.800444,50.0989837 L38.7965483,50.0843748 L38.7916786,50.0678181 L38.7907047,50.0639224 L38.7858351,50.04347 L38.7838873,50.0376265 L38.7809655,50.0230176 L38.7770698,50.0064609 L38.7770698,50.0035392 L38.7731741,49.9821128 L38.7712262,49.9752954 L38.7692784,49.9616604 L38.7663566,49.9441298 L38.7663566,49.941208 L38.7624609,49.9207557 L38.761487,49.9119903 L38.7605131,49.8993293 L38.7585652,49.8798509 L38.7575913,49.877903 L38.7556435,49.8564767 L38.7556435,49.8467375 L38.7546695,49.8350504 L38.7536956,49.814598 L38.7536956,49.8136241 L38.7527217,49.7931717 L38.7517478,49.7814846 L38.7517478,49.7162317 L38.7527217,49.7064925 L38.7536956,49.6850662 L38.7536956,49.6840922 L38.7546695,49.6626659 L38.7556435,49.6509788 L38.7556435,49.6412396 L38.7575913,49.6207872 L38.7585652,49.6188394 L38.7605131,49.5993609 L38.761487,49.5866999 L38.7624609,49.5789085 L38.7663566,49.5574822 L38.7663566,49.5545604 L38.7692784,49.5360559 L38.7712262,49.5233948 L38.7731741,49.5156035 L38.7770698,49.4951511 L38.7770698,49.4922293 L38.7809655,49.4746987 L38.7838873,49.4610637 L38.7858351,49.4542463 L38.7907047,49.4337939 L38.7916786,49.4298982 L38.7965483,49.4143154 L38.800444,49.3997066 L38.8014179,49.393863 L38.8082353,49.3743845 L38.8092093,49.3695149 L38.8140789,49.3549061 L38.8189485,49.3402972 L38.8208963,49.3354276 L38.8277138,49.3159491 L38.8286877,49.3101056 L38.8345313,49.2964707 L38.8403748,49.2808879 L38.8413487,49.2779661 L38.8491401,49.2584876 L38.8520619,49.2526441 L38.8579054,49.2399831 C38.965037,48.9974761 39.1471607,48.7949 39.3711631,48.6575768 L39.3711631,48.654655 C39.564,48.5387581 39.7889763,48.4715574 40.0295355,48.4715574 L43.9787954,48.4715574 L43.9787954,46.1477758 L40.0295355,46.1477758 C39.7889763,46.1477758 39.564,46.081549 39.3711631,45.9646782 L39.3711631,45.9627304 C39.1452129,45.8254071 38.9640631,45.6218571 38.8579054,45.3793502 L38.8520619,45.3666892 L38.8491401,45.3608456 L38.8413487,45.3413671 L38.8403748,45.3384454 L38.8345313,45.3228626 L38.8277138,45.3033841 L38.8208963,45.2839057 L38.8189485,45.28001 L38.8140789,45.2644272 L38.8092093,45.2498183 L38.8082353,45.2449487 L38.8014179,45.2244963 L38.800444,45.2196267 L38.7965483,45.2050179 L38.7916786,45.1894351 L38.7907047,45.1855394 L38.7858351,45.165087 L38.7838873,45.1582695 L38.7809655,45.1446346 L38.7770698,45.1280779 L38.7770698,45.1241822 L38.7731741,45.1037298 L38.7712262,45.0959384 L38.7692784,45.0832774 L38.7663566,45.0637989 L38.7663566,45.0618511 L38.7624609,45.0413987 L38.761487,45.0326334 L38.7605131,45.0199724 L38.7585652,45.0004939 L38.7575913,44.9985461 L38.7556435,44.9771197 L38.7556435,44.9683544 L38.7546695,44.9566673 L38.7536956,44.936215 L38.7536956,44.935241 L38.7527217,44.9138147 L38.7517478,44.9031016 L38.7517478,44.8368748 L38.7527217,44.8271355 L38.7536956,44.8057092 L38.7536956,44.8037614 L38.7546695,44.7842829 L38.7556435,44.7716219 L38.7556435,44.7628566 L38.7575913,44.7414302 L38.7585652,44.7394824 L38.7605131,44.7200039 L38.761487,44.7083168 L38.7624609,44.6995515 L38.7663566,44.6781252 L38.7663566,44.6752034 L38.7692784,44.6566989 L38.7712262,44.6440379 L38.7731741,44.6372204 L38.7770698,44.6157941 L38.7770698,44.6128723 L38.7809655,44.5953417 L38.7838873,44.5817068 L38.7858351,44.5748893 L38.7907047,44.5554108 L38.7916786,44.5505412 L38.7965483,44.5349585 L38.800444,44.5203496 L38.8014179,44.51548 L38.8082353,44.4950276 L38.8092093,44.490158 L38.8140789,44.4755491 L38.8189485,44.4599663 L38.8208963,44.4560706 L38.8277138,44.4365922 L38.8403748,44.4015309 L38.8413487,44.3986092 L38.8491401,44.3791307 L38.8520619,44.3732871 L38.8579054,44.3606261 C38.9640631,44.1171453 39.1471607,43.916517 39.3711631,43.7782199 L39.3711631,43.7752981 C39.564,43.6594012 39.7889763,43.5922005 40.0295355,43.5922005 L43.7460277,43.5922005 L39.8357247,39.6731321 C39.602957,39.4413383 39.4802426,39.139422 39.4656337,38.8326361 L39.4646598,38.8102359 L39.4646598,38.7488787 L39.4656337,38.7177131 L39.4666077,38.6875215 L39.4685555,38.6729126 L39.4695294,38.6592777 L39.4705033,38.6573299 L39.4714773,38.6456428 L39.4724512,38.6320079 L39.4734251,38.6261643 L39.474399,38.6183729 L39.475373,38.6037641 L39.4773208,38.5959727 L39.4782947,38.5901291 L39.4802426,38.5764942 L39.4821904,38.5648071 L39.4821904,38.5628593 L39.4851122,38.5492243 L39.48706,38.5355894 L39.4899818,38.5219545 L39.4929036,38.5083196 L39.4938775,38.5053978 L39.4958254,38.4946846 L39.4987471,38.4810497 L39.500695,38.4752062 L39.5026428,38.4674148 L39.5055646,38.4537798 L39.5084864,38.4450145 L39.5094603,38.4401449 L39.5123821,38.42651 L39.5162778,38.4148229 L39.5172517,38.413849 L39.5211474,38.400214 L39.526017,38.3865791 L39.526017,38.3856052 L39.5299127,38.3739181 L39.5338084,38.3602832 L39.5357562,38.3563875 L39.5396519,38.3466483 L39.5435476,38.3339872 L39.5454955,38.3271698 L39.5484172,38.3203523 L39.5532869,38.3076913 L39.5571825,38.298926 L39.5591304,38.2940564 L39.564,38.2813954 L39.5688696,38.2697083 L39.5698436,38.2677604 L39.5756871,38.2550994 L39.5815306,38.2424384 L39.5815306,38.2414645 L39.5873742,38.2297774 L39.5932177,38.2171164 L39.5951656,38.2132207 L39.6000352,38.2034815 L39.6058787,38.1908205 L39.6097744,38.1849769 L39.6126962,38.1791334 L39.6195137,38.1664724 L39.6243833,38.1577071 L39.6263311,38.1538114 L39.6331486,38.1411504 L39.639966,38.1304372 L39.639966,38.1284894 L39.6477574,38.1168023 L39.6555488,38.1051152 L39.6565227,38.1031674 L39.6633402,38.0924542 L39.6711316,38.0807671 L39.6730794,38.0768714 L39.678923,38.0681061 L39.6867144,38.056419 L39.691584,38.0496016 L39.6945058,38.044732 L39.7032711,38.0330449 L39.7100885,38.0242796 L39.7208017,38.0096707 L39.7285931,37.9989575 L39.7285931,37.9979836 L39.7470976,37.9755834 L39.7490455,37.9726616 L39.7568369,37.9638963 L39.7665761,37.9531831 L39.7694979,37.9483135 L39.7753414,37.94247 L39.7860546,37.9307829 L39.7909242,37.9239654 L39.7948199,37.9190958 L39.805533,37.9093566 L39.8133244,37.9005913 L39.8152723,37.8986434 L39.8250115,37.8879303 L39.8357247,37.8772171 L39.8503335,37.8635822 L39.8600728,37.8538429 L39.8639685,37.8509212 L39.8785773,37.8372862 L39.8834469,37.8324166 L39.8922122,37.8246252 L39.9068211,37.8109903 L39.907795,37.8109903 L39.9214299,37.7993032 L39.9321431,37.7905379 L39.9360388,37.7866422 L39.9516216,37.7749551 L39.9574651,37.7700855 L39.9662304,37.764242 L39.9818132,37.7525549 L39.9827871,37.750607 L39.997396,37.7408678 L40.0090831,37.7321025 L40.0120048,37.7301546 L40.0275876,37.7194415 L40.035379,37.7145719 L40.0431704,37.7097023 L40.0597271,37.6989891 L40.0626489,37.6980152 L40.0753099,37.6892499 L40.0889448,37.6804845 L40.0908926,37.6804845 L40.1074493,37.6707453 L40.1162147,37.6658757 L40.1230321,37.66198 L40.1395888,37.6532147 L40.1444584,37.6512668 L40.1561455,37.6444494 L40.1717283,37.636658 L40.1727022,37.636658 L40.1902328,37.6288666 C40.417157,37.521735 40.672325,37.4856998 40.9206755,37.5207611 L40.9206755,37.5178393 C41.1846088,37.5558223 41.4388028,37.6756149 41.640405,37.8772171 L42.4692139,38.7050521 L42.4692139,38.6972607 L45.2721659,41.5011866 L45.5662908,41.2070617 L47.1158032,39.6575493 L48.6643416,38.1090109 L48.9049007,37.8684518 L48.9214574,37.8518951 L48.9282749,37.8460516 L48.9380141,37.8363123 L48.9516491,37.8236513 L48.9565187,37.8207295 L48.9730754,37.8051468 L48.9769711,37.802225 L48.990606,37.7905379 L49.0013192,37.7817726 L49.0091105,37.7759291 L49.0266412,37.7622941 L49.0266412,37.7613202 L49.0451457,37.7476853 L49.0519632,37.7428157 L49.0646242,37.7340503 L49.0782591,37.7243111 L49.0821548,37.7204154 L49.1016333,37.7077544 L49.104555,37.7067805 C49.3236878,37.5626398 49.5788558,37.4925173 49.8330499,37.4973869 L49.8544762,37.4973869 L49.869085,37.4983608 L49.8759025,37.4983608 L49.8983027,37.5003087 L49.8992767,37.5003087 L49.9197291,37.5022565 L49.9294683,37.5032305 L49.9421293,37.5042044 L49.9606338,37.5061522 L49.9635556,37.5071262 L49.9849819,37.5100479 C50.0648437,37.521735 50.1437315,37.5402396 50.2206714,37.5675094 L50.2206714,37.5655616 C50.3998734,37.6259448 50.5683621,37.7282068 50.7095811,37.8684518 C51.2053081,38.3651528 51.2053081,39.178379 50.7095811,39.6731321 L48.6643416,41.7183716 L46.7905127,43.5922005 L50.4846047,43.5922005 C51.1897254,43.5922005 51.7623924,44.1648675 51.7623924,44.8699882 C51.7623924,45.5751088 51.1897254,46.1477758 50.4846047,46.1477758 L46.5353447,46.1477758 L46.5353447,48.4715574 L50.4846047,48.4715574 C51.1897254,48.4715574 51.7623924,49.0442245 51.7623924,49.7493451 C51.7623924,50.4544658 51.1897254,51.0271328 50.4846047,51.0271328 L46.5353447,51.0271328 L46.5353447,54.0472697 C46.5353447,54.6452588 46.1224012,55.1487772 45.5662908,55.2870744 L45.5662908,55.2861005 C45.4990901,55.3016832 45.4309154,55.3143442 45.3617669,55.3211617 L45.3568973,55.3211617 L45.3549494,55.3221356 L45.3374188,55.3221356 L45.3325492,55.3231096 L45.3276795,55.3240835 L45.3082011,55.3240835 L45.3023575,55.3250574 L45.2819051,55.3250574 L45.2770355,55.3260313 L45.257557,55.3260313 C44.6605419,55.3260313 44.1579974,54.9150356 44.0187263,54.361847 L44.0187263,54.349186 C44.0011957,54.2771157 43.9885347,54.2050453 43.9826911,54.132975 L43.9817172,54.1271314 L43.9807433,54.1134965 L43.9807433,54.1037573 L43.9797694,54.0998616 L43.9797694,54.0716178 L43.9787954,54.0657743 L43.9787954,51.0271328 L40.0295355,51.0271328 C39.7889763,51.0271328 39.564,50.960906 39.3711631,50.8440352 L39.3711631,50.8411134 L39.3711631,50.8411134 Z" id="形状" fill="url(#linearGradient-4)" fill-rule="nonzero" mask="url(#mask-3)"></path>
                        </g>
                    </g>
                </g>
            </g>
        </g>
    </g>
</svg>