<?xml version="1.0" encoding="UTF-8"?>
<svg width="37px" height="37px" viewBox="0 0 37 37" version="1.1" xmlns="http://www.w3.org/2000/svg" xmlns:xlink="http://www.w3.org/1999/xlink">
    <!-- Generator: Sketch 57.1 (83088) - https://sketch.com -->
    <title>common_balance</title>
    <desc>Created with Sketch.</desc>
    <g id="页面1" stroke="none" stroke-width="1" fill="none" fill-rule="evenodd">
        <g id="2-默认支付" transform="translate(-31.000000, -243.000000)" fill-rule="nonzero">
            <g id="编组-2" transform="translate(0.000000, 202.000000)">
                <g id="编组-5" transform="translate(30.000000, 40.000000)">
                    <g id="common_balance">
                        <rect id="矩形" fill="#000000" opacity="0" x="0" y="0" width="38" height="38"></rect>
                        <path d="M19.1,1 C9.10477778,1 1,9.10477778 1,19.1 C1,29.0952222 9.10477778,37.2 19.1,37.2 C29.0952222,37.2 37.2,29.0952222 37.2,19.1 C37.2,9.10477778 29.0952222,1 19.1,1 Z M24.7914444,18.5167778 L24.7914444,20.3468889 L20.3066667,20.3468889 L20.3066667,22.8808889 L24.7914444,22.8808889 L24.7914444,24.7512222 L20.3066667,24.7512222 L20.3066667,28.4315556 L17.9938889,28.4315556 L17.9938889,24.7512222 L13.3281111,24.7512222 L13.3281111,22.8808889 L17.9737778,22.8808889 L17.9737778,20.3468889 L13.3281111,20.3468889 L13.3281111,18.5167778 L17.29,18.5167778 L12.4633333,10.2108889 L15.0576667,10.2108889 C17.3302222,14.3336667 18.6977778,16.9682222 19.1804444,18.0743333 L19.2206667,18.0743333 C19.3815556,17.6117778 19.8441111,16.7067778 20.5681111,15.3191111 L23.3434444,10.2108889 L25.797,10.2108889 L20.91,18.5368889 L24.7914444,18.5368889 L24.7914444,18.5167778 Z" id="形状" fill="#FE9C01"></path>
                    </g>
                </g>
            </g>
        </g>
    </g>
</svg>