<?xml version="1.0" encoding="UTF-8"?>
<svg width="90px" height="90px" viewBox="0 0 90 90" version="1.1" xmlns="http://www.w3.org/2000/svg" xmlns:xlink="http://www.w3.org/1999/xlink">
    <!-- Generator: Sketch 57.1 (83088) - https://sketch.com -->
    <title>icon_withdraw</title>
    <desc>Created with Sketch.</desc>
    <defs>
        <linearGradient x1="50%" y1="0%" x2="50%" y2="100%" id="linearGradient-1">
            <stop stop-color="#20CA92" offset="0%"></stop>
            <stop stop-color="#8AE7A7" offset="100%"></stop>
        </linearGradient>
        <circle id="path-2" cx="45" cy="45" r="45"></circle>
        <linearGradient x1="50%" y1="39.2759341%" x2="50%" y2="100%" id="linearGradient-4">
            <stop stop-color="#FFFFFF" offset="0%"></stop>
            <stop stop-color="#EAFFF3" offset="100%"></stop>
        </linearGradient>
    </defs>
    <g id="页面1" stroke="none" stroke-width="1" fill="none" fill-rule="evenodd">
        <g id="2-钱包" transform="translate(-240.000000, -582.000000)">
            <g id="编组-4" transform="translate(60.000000, 582.000000)">
                <g id="编组-4备份-2" transform="translate(180.000000, 0.000000)">
                    <g id="编组-3">
                        <g id="icon_withdraw">
                            <g id="矩形">
                                <mask id="mask-3" fill="white">
                                    <use xlink:href="#path-2"></use>
                                </mask>
                                <use id="蒙版" fill="url(#linearGradient-1)" xlink:href="#path-2"></use>
                                <rect fill="#FFFFFF" opacity="0.128882999" mask="url(#mask-3)" x="-12" y="-9" width="45" height="58" rx="3"></rect>
                                <rect id="矩形备份" fill="#FFFFFF" opacity="0.128882999" mask="url(#mask-3)" x="22" y="-38" width="68" height="58" rx="3"></rect>
                            </g>
                            <g id="提现-(1)" transform="translate(23.000000, 24.000000)" fill="url(#linearGradient-4)" fill-rule="nonzero">
                                <path d="M41.0476744,22.8802326 C42.122093,22.5872093 43.0255814,23.344186 43.05,24.394186 L43.05,24.394186 L43.05,40.1197674 C43.05,41.0476744 42.2930233,41.8046512 41.3651163,41.8046512 L41.3651163,41.8046512 L1.68488372,41.8046512 C0.756976744,41.8046512 8.8817842e-14,41.0476744 8.8817842e-14,40.1197674 L8.8817842e-14,40.1197674 L8.8817842e-14,24.394186 C8.8817842e-14,23.344186 0.903488372,22.5872093 1.97790698,22.8802326 L1.97790698,22.8802326 L21.2197674,30.3523256 L21.9767442,30.3523256 Z M8.22906977,-7.42517159e-13 L34.65,-7.42517159e-13 C36.7080305,-7.42517159e-13 38.3535679,1.55830759 38.4544041,3.60931538 L38.4593023,3.80930233 L38.4593023,20.755814 L21.5127907,27.3244186 L4.56627907,20.755814 L4.56627907,3.80930233 C4.56627907,1.75341335 6.14421388,0.109159548 8.03862088,0.00521797983 L8.22906977,-7.42517159e-13 L34.65,-7.42517159e-13 Z M26.1027284,4.00023719 L26.0813021,4.00023719 C25.8779469,3.9963415 25.6739683,4.04044075 25.4883151,4.13203632 L25.3528073,4.20963075 L25.3498855,4.21060468 L25.330407,4.22326568 L25.3265113,4.22716138 L25.3128764,4.23690061 L25.3002154,4.24566592 L25.2933979,4.25053554 L25.2748934,4.26417047 L25.2748934,4.26514439 L25.2573628,4.27877932 L25.2495714,4.28462287 L25.2388582,4.29338818 L25.2252233,4.30507526 L25.2213276,4.30799703 L25.2047709,4.32357981 L25.1999013,4.32650158 L25.1862664,4.33916258 L25.1765271,4.34890182 L25.1697097,4.35474536 L21.814543,7.70991197 L21.5204181,8.00403688 L18.7174662,5.200111 L18.7174662,5.20790239 L17.8886572,4.38006737 C17.7206554,4.21206556 17.5161315,4.10087596 17.2998844,4.04649856 L17.1689277,4.02068958 C16.9702473,3.994978 16.7672037,4.0128982 16.5777484,4.07594611 L16.4384851,4.13171687 L16.4209545,4.13950826 L16.4199805,4.13950826 L16.4043978,4.14729965 L16.3927107,4.15411711 L16.3878411,4.15606496 L16.3712844,4.16483027 L16.3644669,4.16872596 L16.3557016,4.17359558 L16.3391449,4.18333482 L16.337197,4.18333482 L16.3235621,4.19210013 L16.3109011,4.20086544 L16.3079793,4.20183936 L16.2914226,4.21255252 L16.2758398,4.22229176 L16.2602571,4.23300492 L16.2573353,4.23495276 L16.2456482,4.24371808 L16.2310394,4.25345731 L16.2300654,4.25540516 L16.2144827,4.26709224 L16.2057173,4.27293578 L16.1998738,4.2778054 L16.184291,4.28949248 L16.1803953,4.29338818 L16.1696822,4.30215349 L16.1560472,4.31384057 L16.1550733,4.31384057 L16.1404645,4.3274755 L16.1316992,4.33526689 L16.1268295,4.34013651 L16.0985858,4.36643244 L16.0839769,4.38006737 L16.0732637,4.39078053 L16.0635245,4.40149369 L16.0615767,4.40344154 L16.0537853,4.41220685 L16.0430721,4.42194608 L16.0391764,4.4268157 L16.0343068,4.43363317 L16.0235936,4.44532025 L16.0177501,4.45116379 L16.0148283,4.45603341 L16.0050891,4.46674657 L15.9972977,4.47551188 L15.9953499,4.47843365 L15.9768453,4.50083389 L15.9768453,4.50180782 L15.9690539,4.51252097 L15.9583408,4.52712983 L15.9515233,4.53589514 L15.942758,4.54758222 L15.9398362,4.55245184 L15.9349666,4.5592693 L15.9271752,4.57095639 L15.9213317,4.5797217 L15.9193838,4.58361739 L15.9115924,4.59530448 L15.904775,4.60601763 L15.903801,4.60796548 L15.8882183,4.63133965 L15.8882183,4.63328749 L15.8814008,4.64400065 L15.8745833,4.65666166 L15.8726355,4.66055735 L15.8677659,4.66932267 L15.8609484,4.68198367 L15.8580266,4.68782721 L15.8541309,4.69367075 L15.8482874,4.70633176 L15.8434178,4.716071 L15.8414699,4.71996669 L15.8356264,4.7326277 L15.8297829,4.74431478 L15.8297829,4.7452887 L15.8239393,4.75794971 L15.8180958,4.77061071 L15.8171219,4.77255856 L15.8073826,4.79690665 L15.8054348,4.80177627 L15.8015391,4.81054158 L15.7966695,4.82320259 L15.7937477,4.83002005 L15.7917998,4.83683751 L15.7879041,4.84949852 L15.7840085,4.85923776 L15.7820606,4.86313345 L15.7781649,4.87676838 L15.7742692,4.88845546 L15.7742692,4.88942939 L15.7693996,4.90306432 L15.7655039,4.91669925 L15.76453,4.91767317 L15.7606343,4.92936025 L15.7577125,4.94299518 L15.7567386,4.9478648 L15.7538168,4.95663011 L15.7508951,4.97026504 L15.7489472,4.97805643 L15.7469994,4.98389997 L15.7440776,4.9975349 L15.7421297,5.00824806 L15.7411558,5.01116983 L15.738234,5.02480476 L15.7333644,5.05207462 L15.7304427,5.06570955 L15.7304427,5.06765739 L15.7284948,5.07934448 L15.726547,5.09297941 L15.725573,5.09882295 L15.7236252,5.10661434 L15.7226513,5.12122319 L15.7216773,5.12901458 L15.7207034,5.13485812 L15.7197295,5.14849305 L15.7187556,5.16018013 L15.7177817,5.16212798 L15.7168077,5.17576291 L15.7148599,5.19037176 L15.713886,5.22056339 L15.712912,5.25172894 L15.712912,5.31308613 L15.713886,5.33548637 C15.7264078,5.59844573 15.8183542,5.85782741 15.9909516,6.07253921 L16.0839769,6.17598239 L19.9942799,10.0950507 L16.2777877,10.0950507 C16.0853404,10.0950507 15.9028661,10.1380592 15.7388418,10.2146018 L15.6194154,10.2781484 C15.4402134,10.3911235 15.2871906,10.5421206 15.1787968,10.7226626 L15.1061577,10.8634764 L15.1003141,10.8761374 L15.0973924,10.881981 L15.089601,10.9014594 L15.088627,10.9043812 L15.075966,10.9394424 L15.0691486,10.9589209 L15.0672007,10.9628166 L15.0623311,10.9783994 L15.0574615,10.9930082 L15.0564876,10.9978779 L15.0496701,11.0183303 L15.0486962,11.0231999 L15.0448005,11.0378087 L15.0399309,11.0533915 L15.0389569,11.0582611 L15.0340873,11.0777396 L15.0321395,11.0845571 L15.0292177,11.098192 L15.025322,11.1157226 L15.025322,11.1186444 L15.0214263,11.1400707 L15.0194785,11.1468882 L15.0175306,11.1595492 L15.0146089,11.1780537 L15.0146089,11.1809755 L15.0107132,11.2024018 L15.0097392,11.2111671 L15.0087653,11.2228542 L15.0068175,11.2423327 L15.0058435,11.2442805 L15.0038957,11.2657068 L15.0038957,11.2744721 L15.0029218,11.2871331 L15.0019478,11.3066116 L15.0019478,11.3085595 L15.0009739,11.3299858 L15.0009739,11.416665 L15.0019478,11.4380913 L15.0019478,11.4390652 L15.0029218,11.4595176 L15.0038957,11.4712047 L15.0038957,11.47997 L15.0058435,11.5013963 L15.0068175,11.5033442 L15.0087653,11.5228226 L15.0097392,11.5354837 L15.0107132,11.544249 L15.0146089,11.5647014 L15.0146089,11.5666492 L15.0175306,11.5861277 L15.0194785,11.5987887 L15.0214263,11.6065801 L15.025322,11.6270325 L15.025322,11.6309282 L15.0292177,11.6474849 L15.0321395,11.6611198 L15.0340873,11.6679373 L15.0389569,11.6883896 L15.0399309,11.6922853 L15.0448005,11.7078681 L15.0486962,11.722477 L15.0496701,11.7273466 L15.0564876,11.747799 L15.0574615,11.7526686 L15.0672007,11.7828602 L15.0691486,11.7867559 L15.075966,11.8062344 L15.0827835,11.8257129 L15.088627,11.8412956 L15.089601,11.8442174 L15.0973924,11.8636959 L15.1003141,11.8695394 L15.1061577,11.8822004 C15.1910838,12.076206 15.3240049,12.2452791 15.4894628,12.3754576 L15.6194154,12.4655806 C15.7736849,12.5606356 15.9485236,12.6220317 16.1354546,12.642788 L16.2777877,12.6506261 L20.2270477,12.6506261 L20.2270477,14.9744077 L16.2777877,14.9744077 C16.0853404,14.9744077 15.9028661,15.0174162 15.7388418,15.0939588 L15.6194154,15.1575053 C15.4402134,15.2697013 15.2878139,15.4217892 15.1791708,15.6023001 L15.1061577,15.7428334 L15.1003141,15.7554944 L15.0973924,15.7613379 L15.089601,15.7808164 L15.088627,15.7837382 L15.0827835,15.7993209 L15.07694,15.8129559 L15.075966,15.8187994 L15.0691486,15.8382779 L15.0672007,15.8431475 L15.0623311,15.8577563 L15.0574615,15.8723652 L15.0564876,15.8772348 L15.0496701,15.8967133 L15.0486962,15.9025568 L15.0448005,15.9171657 L15.0399309,15.9327485 L15.0389569,15.9366441 L15.0340873,15.9570965 L15.0321395,15.963914 L15.0292177,15.9775489 L15.025322,15.9950796 L15.025322,15.9980013 L15.0214263,16.0184537 L15.0194785,16.0262451 L15.0175306,16.0389061 L15.0146089,16.0574107 L15.0146089,16.0603324 L15.0107132,16.0817588 L15.0097392,16.0895501 L15.0087653,16.1022112 L15.0068175,16.1216896 L15.0058435,16.1236375 L15.0038957,16.1440899 L15.0038957,16.1538291 L15.0029218,16.1655162 L15.0019478,16.1869425 L15.0019478,16.1879164 L15.0009739,16.2093427 L15.0009739,16.2960219 L15.0019478,16.3164743 L15.0019478,16.3174483 L15.0029218,16.3379007 L15.0038957,16.3495877 L15.0038957,16.359327 L15.0058435,16.3807533 L15.0068175,16.3827011 L15.0087653,16.4021796 L15.0097392,16.4148406 L15.0107132,16.4236059 L15.0146089,16.4440583 L15.0146089,16.4469801 L15.0175306,16.4645107 L15.0194785,16.4781456 L15.0214263,16.4849631 L15.025322,16.5063894 L15.025322,16.5093112 L15.0292177,16.5258679 L15.0321395,16.5404767 L15.0340873,16.5463203 L15.0399309,16.5706684 L15.0448005,16.5872251 L15.0486962,16.6018339 L15.0496701,16.6067035 L15.0564876,16.6271559 L15.0574615,16.6310516 L15.0672007,16.6612433 L15.0691486,16.665139 L15.075966,16.6855914 L15.088627,16.7196787 L15.089601,16.7235744 L15.0973924,16.7430528 L15.1003141,16.7488964 L15.1061577,16.7615574 C15.1910838,16.955563 15.3240049,17.1246361 15.4894628,17.254316 L15.6194154,17.3439637 C15.7736849,17.4397977 15.9485236,17.5013497 16.1354546,17.5221371 L16.2777877,17.5299831 L20.2270477,17.5299831 L20.2270477,20.5686245 L20.2280216,20.5744681 L20.2289955,20.6163468 L20.2299694,20.6299817 L20.2444565,20.7432003 L20.2444565,20.7432003 L20.2669785,20.8520363 L20.2669785,20.8646973 C20.3955364,21.3753329 20.8336291,21.7648101 21.3698359,21.8217082 L21.5058093,21.8288816 L21.5252877,21.8288816 L21.5301574,21.8279077 L21.5506098,21.8279077 L21.5564533,21.8269337 L21.5759318,21.8269337 L21.585671,21.8249859 L21.6100191,21.824012 L21.7130115,21.8097683 L21.7130115,21.8097683 L21.814543,21.7889507 C22.3278757,21.6621908 22.71922,21.2234066 22.7763894,20.6863168 L22.783597,20.55012 L22.783597,17.5299831 L26.7328569,17.5299831 C27.4379776,17.5299831 28.0106446,16.957316 28.0106446,16.2521954 C28.0106446,15.5911448 27.507324,15.0465085 26.8634074,14.9810112 L26.7328569,14.9744077 L22.783597,14.9744077 L22.783597,12.6506261 L26.7328569,12.6506261 C27.4379776,12.6506261 28.0106446,12.0779591 28.0106446,11.3728384 C28.0106446,10.7117878 27.507324,10.1671515 26.8634074,10.1016542 L26.7328569,10.0950507 L23.0387649,10.0950507 L24.9125938,8.22122183 L26.9578333,6.17598239 C27.4535604,5.68122923 27.4535604,4.86800307 26.9578333,4.37130206 C26.8519191,4.26611832 26.7306656,4.18230002 26.6010577,4.12149067 L26.4689237,4.06841184 L26.3521746,4.03554192 L26.3521746,4.03554192 L26.2332342,4.0128982 L26.2118078,4.00997643 L26.2088861,4.0090025 L26.1903815,4.00705465 L26.1777205,4.00608073 L26.1475289,4.00315896 L26.146555,4.00315896 L26.1241547,4.00121111 L26.1173373,4.00121111 L26.1027284,4.00023719 Z" id="形状结合"></path>
                            </g>
                        </g>
                    </g>
                </g>
            </g>
        </g>
    </g>
</svg>