<?xml version="1.0" encoding="UTF-8"?>
<svg width="34px" height="30px" viewBox="0 0 34 30" version="1.1" xmlns="http://www.w3.org/2000/svg" xmlns:xlink="http://www.w3.org/1999/xlink">
    <!-- Generator: Sketch 57.1 (83088) - https://sketch.com -->
    <title>common_wechat</title>
    <desc>Created with Sketch.</desc>
    <g id="页面1" stroke="none" stroke-width="1" fill="none" fill-rule="evenodd">
        <g id="2-默认支付" transform="translate(-32.000000, -474.000000)" fill="#09BB07" fill-rule="nonzero">
            <g id="编组-2" transform="translate(0.000000, 202.000000)">
                <g id="编组-5备份-2" transform="translate(30.000000, 268.000000)">
                    <g id="微信支付">
                        <path d="M14.3580833,22.6851968 C14.2020317,22.7639987 14.042239,22.8016086 13.848259,22.8016086 C13.4144508,22.8016086 13.0605985,22.5687849 12.8626785,22.2195494 L12.7828419,22.0657663 L9.6743071,15.3830096 C9.63625933,15.3042078 9.63625933,15.2291868 9.63625933,15.1503849 C9.63625933,14.8387593 9.87218735,14.6059356 10.1879918,14.6059356 C10.3059956,14.6059356 10.4239198,14.6435058 10.5419236,14.7223077 L14.2020317,17.2865524 C14.4760075,17.4403354 14.7918517,17.556787 15.1455846,17.556787 C15.3434648,17.556787 15.537604,17.5191771 15.7354842,17.4403354 L32.8989691,9.90552353 C29.828522,6.33142096 24.7527662,4 19.0037718,4 C9.63625933,4 2,10.2547193 2,17.9811232 C2,22.1746562 4.28290607,25.9813835 7.86329687,28.5456281 C8.13711346,28.7408419 8.33499371,29.0900774 8.33499371,29.439114 C8.33499371,29.5555258 8.29690614,29.6719377 8.25515707,29.7883495 C7.98130068,30.8357776 7.50570354,32.5477681 7.50570354,32.6229483 C7.46757617,32.7391611 7.4255883,32.893183 7.4255883,33.0507867 C7.4255883,33.3624123 7.66155612,33.595236 7.97740038,33.595236 C8.09532459,33.595236 8.2133284,33.5576658 8.29320484,33.4788241 L11.9914005,31.3426567 C12.265416,31.1886349 12.5812205,31.0722628 12.8970648,31.0722628 C13.0529173,31.0722628 13.2508374,31.109833 13.406889,31.1510647 C15.137983,31.6542823 17.0290686,31.9283377 18.9580429,31.9283377 C28.3255952,31.9283377 35.9617351,25.6736184 35.9617351,17.9472145 C35.9617351,15.6157935 35.2541103,13.4044459 34.0328007,11.4598705 L14.4760075,22.6063551 L14.3580833,22.685157 L14.3580833,22.6851968 Z" id="common_wechat"></path>
                    </g>
                </g>
            </g>
        </g>
    </g>
</svg>