<?xml version="1.0" encoding="UTF-8"?>
<svg width="29px" height="16px" viewBox="0 0 29 16" version="1.1" xmlns="http://www.w3.org/2000/svg" xmlns:xlink="http://www.w3.org/1999/xlink">
    <!-- Generator: Sketch 57.1 (83088) - https://sketch.com -->
    <title>隐藏</title>
    <desc>Created with Sketch.</desc>
    <g id="页面1" stroke="none" stroke-width="1" fill="none" fill-rule="evenodd">
        <g id="2-钱包" transform="translate(-390.000000, -260.000000)" fill-rule="nonzero">
            <g id="隐藏" transform="translate(386.000000, 248.000000)">
                <rect id="矩形" fill="#000000" opacity="0" x="0" y="0" width="36" height="36"></rect>
                <path d="M31.65,13.35 C31.2,13.05 30.45,13.05 30.15,13.65 C25.35,20.25 16.2,21.6 9.60000001,16.95 C8.1,15.9 6.90000001,14.7 6.00000001,13.2 C5.70000002,12.75 4.95,12.6 4.5,12.9 C4.05,13.2 3.89999999,13.95 4.20000001,14.4 C5.25000002,16.05 6.75,17.4 8.25000001,18.6 C8.85000002,19.05 9.60000001,19.5 10.2,19.8 L7.35000001,22.65 C6.90000001,23.1 6.90000001,23.85 7.35000001,24.3 C7.50000002,24.45 7.80000001,24.6 8.1,24.6 C8.39999999,24.6 8.70000001,24.45 8.84999999,24.3 L12.15,21 L12.3,20.85 C13.8,21.45 15.3,21.75 16.8,21.9 L16.8,26.1 C16.8,26.7 17.25,27.3 18,27.3 C18.75,27.3 19.2,26.85 19.2,26.1 L19.2,21.75 C20.55,21.6 21.75,21.45 23.1,21.15 C23.1,21.15 23.1,21.3 23.25,21.3 L26.55,24.6 C26.7,24.75 27,24.9 27.3,24.9 C27.6,24.9 27.9,24.75 28.05,24.6 C28.5,24.15 28.5,23.4 28.05,22.95 L25.35,20.25 C27.9,19.05 30.15,17.25 31.95,14.85 C32.25,14.4 32.1,13.8 31.65,13.35 L31.65,13.35 Z" id="路径" fill="#FFFFFF"></path>
            </g>
        </g>
    </g>
</svg>