<?xml version="1.0" encoding="UTF-8"?>
<svg width="38px" height="38px" viewBox="0 0 38 38" version="1.1" xmlns="http://www.w3.org/2000/svg" xmlns:xlink="http://www.w3.org/1999/xlink">
    <!-- Generator: Sketch 57.1 (83088) - https://sketch.com -->
    <title>common_alipay</title>
    <desc>Created with Sketch.</desc>
    <g id="页面1" stroke="none" stroke-width="1" fill="none" fill-rule="evenodd">
        <g id="2-默认支付" transform="translate(-30.000000, -584.000000)" fill="#06B4FD" fill-rule="nonzero">
            <g id="编组-2" transform="translate(0.000000, 202.000000)">
                <g id="编组-5备份-3" transform="translate(30.000000, 382.000000)">
                    <g id="支付宝">
                        <path d="M8.55,21.394 C8.094,21.755 7.619,22.287 7.486,22.952 C7.296,23.864 7.448,25.004 8.322,25.916 C9.386,26.999 11.02,27.303 11.723,27.36 C13.623,27.493 15.656,26.543 17.195,25.479 C17.803,25.061 18.829,24.206 19.798,22.895 C17.594,21.755 14.839,20.501 11.913,20.615 C10.412,20.672 9.329,20.976 8.55,21.394 Z M36.48,26.429 C37.449,24.149 38,21.641 38,19 C38,8.531 29.469,0 19,0 C8.531,0 0,8.531 0,19 C0,29.469 8.531,38 19,38 C25.327,38 30.932,34.884 34.39,30.134 C31.122,28.519 25.745,25.84 22.42,24.225 C20.843,26.03 18.506,27.835 15.865,28.614 C14.212,29.108 12.711,29.298 11.153,28.975 C9.595,28.652 8.455,27.93 7.79,27.208 C7.448,26.828 7.068,26.372 6.783,25.802 C6.802,25.84 6.821,25.878 6.821,25.916 C6.821,25.916 6.65,25.631 6.536,25.194 C6.479,24.966 6.422,24.757 6.403,24.529 C6.384,24.377 6.384,24.206 6.403,24.054 C6.384,23.769 6.403,23.465 6.46,23.161 C6.612,22.401 6.935,21.527 7.771,20.729 C9.595,18.943 12.027,18.848 13.3,18.867 C15.162,18.886 18.43,19.703 21.166,20.672 C21.926,19.057 22.42,17.328 22.724,16.169 L11.324,16.169 L11.324,14.934 L17.176,14.934 L17.176,12.464 L10.108,12.464 L10.108,11.21 L17.176,11.21 L17.176,8.74 C17.176,8.398 17.252,8.132 17.784,8.132 L20.558,8.132 L20.558,11.21 L28.253,11.21 L28.253,12.445 L20.558,12.445 L20.558,14.915 L26.714,14.915 C26.714,14.915 26.087,18.354 24.168,21.755 C28.443,23.275 34.485,25.631 36.48,26.429 L36.48,26.429 Z" id="common_alipay"></path>
                    </g>
                </g>
            </g>
        </g>
    </g>
</svg>