<?xml version="1.0" encoding="UTF-8"?>
<svg width="295px" height="212px" viewBox="0 0 295 212" version="1.1" xmlns="http://www.w3.org/2000/svg" xmlns:xlink="http://www.w3.org/1999/xlink">
    <!-- Generator: Sketch 57.1 (83088) - https://sketch.com -->
    <title>idcard_people</title>
    <desc>Created with Sketch.</desc>
    <g id="页面1" stroke="none" stroke-width="1" fill="none" fill-rule="evenodd">
        <g id="1-实名认证-无数据" transform="translate(-48.000000, -387.000000)">
            <g id="idcard_people" transform="translate(47.501080, 387.000000)">
                <g id="编组-3" transform="translate(0.498920, 0.000000)" fill="#FE7068" opacity="0.200000003">
                    <path d="M2,0 L16,4.4408921e-16 L16,2.00539084 L2,2.005 L2,16.0431267 L0,16.0431267 L0,0 L2,0 Z" id="形状结合"></path>
                    <path d="M281,-3.8191672e-13 L295,-3.81472631e-13 L295,2.00539084 L281,2.005 L281,16.0431267 L279,16.0431267 L279,-3.8191672e-13 L281,-3.8191672e-13 Z" id="形状结合备份-2" transform="translate(287.000000, 8.021563) scale(-1, 1) translate(-287.000000, -8.021563) "></path>
                    <path d="M2,195.956873 L16,195.956873 L16,197.962264 L2,197.961873 L2,212 L0,212 L0,195.956873 L2,195.956873 Z" id="形状结合备份" transform="translate(8.000000, 203.978437) scale(1, -1) translate(-8.000000, -203.978437) "></path>
                    <path d="M281,195.956873 L295,195.956873 L295,197.962264 L281,197.961873 L281,212 L279,212 L279,195.956873 L281,195.956873 Z" id="形状结合备份-3" transform="translate(287.000000, 203.978437) scale(-1, -1) translate(-287.000000, -203.978437) "></path>
                </g>
                <path d="M34.9616902,21 L259.53507,21 C261.157561,21 262.49676,22.323693 262.49676,23.9847979 L262.49676,158.015202 C262.49676,159.650352 261.183315,161 259.53507,161 L34.9616902,161 C33.3391991,161 32,159.676307 32,158.015202 L32,23.9847979 C32,22.3496478 33.3134452,21 34.9616902,21 Z" id="路径" fill="#FBFBFB" fill-rule="nonzero"></path>
                <path d="M97.112924,134.213869 L97.112924,127.134204 L245.27558,127.134204 L245.27558,134.213869 L97.112924,134.213869 Z M230.838954,105.97244 C230.658173,106.255627 230.115831,106.564558 229.237754,106.847744 C228.333851,107.130931 227.223341,107.414118 225.906225,107.645816 C224.563283,107.903258 223.117038,108.109212 221.515838,108.34091 C219.914637,108.572608 218.287612,108.752818 216.660586,108.881539 C215.03356,109.036005 213.458186,109.138982 211.934463,109.241959 C210.436566,109.344936 209.093624,109.396424 207.931463,109.396424 C206.795127,109.396424 205.452185,109.344936 203.980114,109.241959 C202.482218,109.138982 200.958495,109.01026 199.331469,108.881539 C197.730269,108.727074 196.154895,108.572608 194.579521,108.418143 C193.004146,108.237933 191.583727,108.057724 190.266611,107.826026 C188.949495,107.620072 187.864811,107.388373 186.960907,107.156675 C186.057004,106.924977 185.514662,106.719023 185.28223,106.538814 C184.920669,106.204139 184.610759,105.174369 184.378327,103.449505 C184.145894,101.750385 184.223372,99.5363809 184.584933,96.8589801 C184.817365,95.2885816 185.411359,94.1300909 186.341088,93.3320196 C187.270817,92.5596924 188.381327,91.9160865 189.672617,91.4269459 C190.963908,90.9378054 192.281024,90.5001534 193.623966,90.139734 C194.966908,89.7793147 196.180721,89.2129415 197.239579,88.4921028 C198.066005,87.8999853 198.685824,87.3593564 199.124863,86.8702158 C199.563901,86.3810753 199.873811,85.8919348 200.080418,85.4027943 C200.287024,84.9136537 200.390327,84.398769 200.390327,83.85814 C200.390327,83.317511 200.364501,82.6996493 200.338676,82.0302991 C200.235372,81.0520181 199.925463,80.2796909 199.383121,79.7133177 C198.840779,79.1469445 198.220959,78.6063155 197.575314,78.0656865 C197.265405,77.7824998 196.955495,77.370592 196.723063,76.829963 C196.464805,76.289334 196.258198,75.748705 196.077417,75.208076 C195.896637,74.6159586 195.715856,73.9723526 195.535075,73.2257697 C195.250992,73.1227928 194.992733,72.9683273 194.70865,72.7881177 C194.476217,72.5821638 194.243785,72.2989772 193.985527,71.9128136 C193.727269,71.52665 193.494837,70.986021 193.262404,70.2909266 C193.029972,69.5958322 192.952495,68.9522262 192.978321,68.3601088 C193.029972,67.742247 193.133275,67.2531065 193.314056,66.866943 C193.494837,66.3778024 193.753095,65.9401504 194.063004,65.5539868 C194.011353,63.9835883 194.08883,62.4131898 194.269611,60.7913028 C194.450392,59.4268582 194.734475,57.9851809 195.147688,56.4920151 C195.535075,54.9988493 196.129069,53.6344047 196.955495,52.3471928 C197.704443,51.1629578 198.530869,50.210421 199.434772,49.4895824 C200.364501,48.7687437 201.29423,48.1766262 202.249785,47.7647184 C203.20534,47.3528106 204.160895,47.069624 205.142276,46.9151586 C206.097831,46.7606931 207.02756,46.6834604 207.879811,46.6834604 C210.22996,46.6834604 212.296024,47.1983452 214.155482,48.2281147 C215.989115,49.2578842 217.357883,50.3648864 218.210134,51.5233772 C219.217341,52.8363333 219.966289,54.3294991 220.456979,55.9513861 C220.94767,57.5990173 221.309231,59.1179273 221.515838,60.5338604 C221.74827,62.1814917 221.825747,63.8548671 221.799921,65.5024983 C222.032354,65.7084523 222.23896,65.9658946 222.419741,66.3005697 C222.54887,66.5837563 222.677999,66.9699199 222.807128,67.4333162 C222.936257,67.8967125 222.936257,68.4630857 222.85878,69.1581801 C222.755476,70.0334842 222.574696,70.7543229 222.316438,71.2949519 C222.032354,71.8355809 221.774096,72.2474887 221.490012,72.5306753 C221.180102,72.8653504 220.792715,73.0970485 220.379502,73.2000255 C220.198721,73.9208642 220.017941,74.5902143 219.83716,75.1823318 C219.656379,75.7229608 219.423947,76.2635898 219.139863,76.8042188 C218.855779,77.3448478 218.571696,77.7310114 218.23596,77.9627095 C217.874399,78.2973846 217.538663,78.6063155 217.254579,78.8380136 C216.94467,79.0697117 216.686412,79.3271541 216.453979,79.6103407 C216.221547,79.8677831 216.040766,80.176714 215.859986,80.5371333 C215.705031,80.8718084 215.575902,81.2837162 215.472599,81.7728567 C215.395121,82.4164627 215.34347,83.0600686 215.369295,83.7036746 C215.395121,84.3730248 215.550076,85.0166307 215.808334,85.6344924 C216.092418,86.2780984 216.531457,86.8702158 217.151276,87.4623333 C217.771095,88.0544508 218.623347,88.5693355 219.733857,89.0069876 C220.689412,89.4446396 221.774096,89.8308032 222.936257,90.139734 C224.098418,90.4486649 225.234754,90.8348285 226.319438,91.2724805 C227.404122,91.7101326 228.359676,92.2765058 229.211928,92.945856 C230.06418,93.6409504 230.658173,94.5162545 231.019735,95.5717683 C231.200515,96.2411184 231.35547,97.0906783 231.458773,98.0689593 C231.562077,99.0472404 231.639554,100.025521 231.639554,101.029547 C231.639554,102.033572 231.587902,102.960365 231.432948,103.861413 C231.329644,104.865438 231.123038,105.534788 230.838954,105.97244 L230.838954,105.97244 Z M114.906905,92.8686233 L162.323087,92.8686233 L162.323087,99.9482887 L114.906905,99.9482887 L114.906905,92.8686233 Z M114.906905,73.9466084 L162.323087,73.9466084 L162.323087,81.0262738 L114.906905,81.0262738 L114.906905,73.9466084 Z M114.906905,55.0503377 L162.323087,55.0503377 L162.323087,62.1300032 L114.906905,62.1300032 L114.906905,55.0503377 Z M49.6967419,92.8686233 L97.112924,92.8686233 L97.112924,99.9482887 L49.6967419,99.9482887 L49.6967419,92.8686233 Z M49.6967419,73.9466084 L97.112924,73.9466084 L97.112924,81.0262738 L49.6967419,81.0262738 L49.6967419,73.9466084 Z M49.6967419,55.0503377 L97.112924,55.0503377 L97.112924,62.1300032 L49.6967419,62.1300032 L49.6967419,55.0503377 Z M79.3447686,134.213869 L49.6967419,134.213869 L49.6967419,127.134204 L79.3189428,127.134204 L79.3189428,134.213869 L79.3447686,134.213869 Z" id="形状" fill="#EDEDED" fill-rule="nonzero"></path>
            </g>
        </g>
    </g>
</svg>