<?xml version="1.0" encoding="UTF-8"?>
<svg width="332px" height="244px" viewBox="0 0 332 244" version="1.1" xmlns="http://www.w3.org/2000/svg" xmlns:xlink="http://www.w3.org/1999/xlink">
    <!-- Generator: Sketch 57.1 (83088) - https://sketch.com -->
    <title>realname_bg</title>
    <desc>Created with Sketch.</desc>
    <defs>
        <rect id="path-1" x="0" y="0.764191511" width="690" height="800"></rect>
    </defs>
    <g id="页面1" stroke="none" stroke-width="1" fill="none" fill-rule="evenodd">
        <g id="2-实名信息" transform="translate(-392.000000, -158.000000)">
            <rect fill="#F5F5F9" x="0" y="0" width="750" height="1624"></rect>
            <rect id="矩形" fill="#F9F9FB" x="0" y="128" width="750" height="1578"></rect>
            <rect id="矩形" fill="#F9F9F9" x="0" y="128" width="750" height="1496"></rect>
            <g id="编组-2" transform="translate(30.000000, 157.000000)">
                <g id="实名认证">
                    <g transform="translate(0.000000, 0.235808)">
                        <mask id="mask-2" fill="white">
                            <use xlink:href="#path-1"></use>
                        </mask>
                        <use id="蒙版" fill="#FFFFFF" xlink:href="#path-1"></use>
                        <path d="M654.5,209.764192 C800.027032,209.764192 918,91.7912231 918,-53.7358085 C918,-199.26284 800.027032,-317.235808 654.5,-317.235808 C508.972968,-317.235808 391,-199.26284 391,-53.7358085 C391,91.7912231 508.972968,209.764192 654.5,209.764192 Z M654.5,149.764192 C542.110053,149.764192 451,58.6541381 451,-53.7358085 C451,-166.125755 542.110053,-257.235808 654.5,-257.235808 C766.889947,-257.235808 858,-166.125755 858,-53.7358085 C858,58.6541381 766.889947,149.764192 654.5,149.764192 Z" id="椭圆形" fill="#979797" fill-rule="nonzero" opacity="0.08" mask="url(#mask-2)"></path>
                    </g>
                </g>
                <g id="编组-4" transform="translate(30.000000, 214.000000)" fill="#333333" font-family="PingFangSC-Regular, PingFang SC" font-size="30" font-weight="normal" line-spacing="30">
                    <g id="编组-5">
                        <text id="黄*鸿">
                            <tspan x="188" y="34">黄*鸿</tspan>
                        </text>
                    </g>
                </g>
            </g>
        </g>
    </g>
</svg>