<svg xmlns="http://www.w3.org/2000/svg" width="253" height="53" viewBox="0 0 253 53">
  <path fill="#FFF" d="M23.9189571,0.114511802 L25.1395822,1.13686838e-13 L26.3583084,1.13686838e-13 L27.5751358,1.13686838e-13 L28.6837606,0.114511802 L28.6837606,15.9190744 L28.6837606,16.3637622 L28.5736577,16.4744567 L28.4635547,16.6996631 L28.3496549,16.6996631 L28.24145,16.8084493 L27.9073435,16.9191438 L24.8073683,16.9191438 L24.4770587,16.8084493 L24.3612608,16.6996631 L24.137258,16.6996631 L24.137258,16.4744567 L24.0290531,16.3637622 L23.9170513,15.9190744 L23.9170513,0.114511802 L23.9189497,0.114511802 L23.9189571,0.114511802 Z M35.1058049,26.3835554 L35.1058049,33.958511 L35.1058049,34.2944126 L34.9957019,34.5138933 L34.8818021,34.6264969 L34.7716991,34.8459776 L34.5533913,34.8459776 L34.3293885,34.9623977 L33.883281,35.0711839 L29.2380653,35.0711839 L29.2380653,47.5434259 L30.2308922,47.3163105 L31.2294157,47.2075243 L32.11404,46.87544 L33.002462,46.6521419 L33.4428746,46.5433557 L33.8813891,46.3162403 L34.7698112,45.984156 L35.6563343,45.5337426 L36.4346472,45.0947803 L37.3173728,44.6481842 L38.0937868,44.2054054 L38.7563041,43.6500231 L39.5327181,43.0946407 L40.9735538,41.8674575 L41.6379699,41.1956551 L42.1922823,40.5238527 L42.8566984,39.7528061 L43.4110109,39.0771864 L43.9653233,38.3023233 L44.4076347,37.5198287 L44.8480472,36.6361785 L45.2941548,35.853684 L45.7326693,34.9623977 L46.064877,34.0711114 L46.6229863,32.2847285 L46.9532959,31.4010784 L47.0633988,30.3952811 L47.2874016,29.5039948 L47.3994034,28.5058336 L47.5095064,26.4999661 L47.3994034,24.9445143 L47.2874016,24.1639288 L47.2874016,23.3776161 L46.9532951,21.8278915 L46.5128825,20.2648035 L46.2888798,19.5968176 L46.064877,18.9250152 L45.5143607,17.4802564 L44.7379466,16.1442815 L44.0735305,14.8064053 L43.1889061,13.6956422 L42.1922815,12.468459 L41.1937581,11.3576958 L40.0870321,10.3538075 L38.982205,9.46443028 L37.7596811,8.57505303 L36.4346434,7.79255845 L35.1039169,7.12457255 L35.1039169,25.0514383 L35.1039169,25.3873399 L34.9938139,25.6030041 L34.8799141,25.7194242 L34.7698112,25.938905 L34.5515033,26.0515085 L34.3275005,26.0515085 L33.881393,26.164112 L27.6833415,26.164112 L27.3511338,26.164112 L27.2410309,26.2728983 L27.1290291,26.3855018 L27.129029,18.7055726 L27.2410308,18.4803663 L27.3511337,18.2608856 L27.5713404,18.1520993 L27.7953432,18.1520993 L30.5631076,18.1520993 L31.005419,18.0356793 L31.3357286,17.9230757 L31.5559353,17.8104722 L31.7818369,17.4783879 L31.7818369,6.01006535 L31.7818368,1.67006955 L31.7818368,0.555488326 L33.9933899,1.22347422 L35.1020147,1.55937582 L36.0986393,1.89146012 L37.2053653,2.33233068 L38.1981922,2.90107317 L39.1967157,3.33812643 L40.08134,3.89923433 L41.0779646,4.56912849 L41.9720754,5.11687704 L42.8566998,5.79058849 L43.6293208,6.56736064 L44.515844,7.34985522 L45.2941569,8.12662737 L46.7311948,9.69162433 L47.397509,10.5752745 L48.0619251,11.4703788 L48.6124414,12.470449 L49.1705507,13.3598263 L50.2772767,15.3637848 L50.7214862,16.365764 L51.0517958,17.4784362 L51.7162119,19.5949966 L52.0465216,20.7076688 L52.2705244,21.8241591 L52.3844242,22.9349222 L52.6046309,24.1621055 L52.6046309,25.2709596 L52.6046309,26.4981428 L52.6046309,27.8283906 L52.4945279,29.1700848 L52.384425,30.5041507 L52.1604222,31.8382166 L51.8282145,33.0653998 L51.4979049,34.3994657 L51.0536954,35.6228308 L50.609486,36.7450482 L50.0589697,37.9645952 L49.5008604,39.0753584 L48.8402411,40.1937577 L48.175825,41.3045208 L47.4013059,42.3065001 L46.6248918,43.3065703 L45.846579,44.3085495 L44.9638534,45.2036539 L44.0754314,46.0949402 L43.076908,46.8736206 L42.0802834,47.6484837 L41.0836588,48.4309783 L39.9769328,49.0989642 L38.8702068,49.7745839 L37.761582,50.3261489 L36.5447546,50.8738975 L35.4399274,51.3281274 L34.109201,51.7670897 L32.8923736,52.1068078 L31.6717485,52.4427094 L30.3410221,52.6621901 L29.0102956,52.7747937 L27.6833591,52.8835799 L26.3545237,53 L25.0237972,52.8835799 L23.6987595,52.7747937 L22.3680331,52.6621901 L21.0373066,52.4427094 L19.7122689,52.1068078 L18.4916439,51.7670897 L17.2710188,51.3281274 L16.0522926,50.8738975 L14.9436677,50.3261489 L13.8388406,49.7745839 L12.7302158,49.0989642 L11.6253886,48.4309783 L10.6249663,47.6484837 L9.63213942,46.8736206 L8.63171715,46.0949402 L7.75089046,45.2036539 L6.86436727,44.3085495 L5.97784407,43.3065703 L5.20522305,42.3084091 L4.53890885,41.3064299 L3.87639155,40.1956667 L3.21197541,39.0772674 L2.65956106,37.9665043 L2.10145175,36.7469572 L1.66293724,35.6247398 L1.21682972,34.4013747 L0.884622035,33.0673088 L0.554312413,31.8401256 L0.336004575,30.5060597 L0.110102949,29.1719939 L0,27.8302996 L0,26.5000518 L0,25.2709596 L0.110103026,24.1621055 L0.220205975,22.9349222 L0.444208767,21.8241591 L0.66441544,20.7076688 L0.884622112,19.5949966 L1.55283437,17.4784362 L1.99324694,16.365764 L2.43365951,15.3637848 L2.87976703,14.3637146 L3.43218139,13.3617353 L3.9864938,12.4723581 L4.6490111,11.4722879 L5.31912219,10.5771835 L5.9816395,9.69353336 L6.64985175,8.90912974 L7.42247278,8.1285442 L8.19699186,7.35177205 L8.96961289,6.56927746 L10.7426515,5.23330255 L11.6310736,4.5710422 L12.5175968,3.90114805 L13.5161202,3.34004014 L14.5051494,2.90298688 L15.5055717,2.33424439 L16.5040951,1.89337383 L17.4988209,1.56128953 L18.6055469,1.22538794 L19.7160705,0.891395376 L20.8208977,0.559311074 L20.8208977,6.0138881 L20.8208977,17.4822106 L20.9291026,17.7055087 L21.0411044,17.8142949 L21.3752109,17.9268985 L21.7055205,18.039502 L22.0377282,18.1559221 L24.8073914,18.1559221 L25.0256993,18.1559221 L25.249702,18.2647083 L25.4699087,18.4841891 L25.4699087,18.7093954 L25.4699087,26.3874155 L25.249702,26.1679348 L25.0256993,26.1679348 L18.7156475,26.1679348 L18.271438,26.0553312 L18.0512314,26.0553312 L17.9373315,25.9427277 L17.7152268,25.7232469 L17.6070219,25.6068269 L17.6070219,25.3911626 L17.4969189,25.055261 L17.4969189,7.1283953 L16.1661925,7.7963812 L14.9474663,8.57887578 L13.7325377,9.46825303 L12.5138115,10.3576303 L11.4070855,11.3615186 L10.4085621,12.4722817 L9.52014003,13.6994649 L8.63171801,14.920921 L7.86099581,16.1481042 L7.19468162,17.4840791 L6.86247394,18.1577906 L6.6441661,18.9307454 L6.08795485,20.3793223 L5.75574717,21.8336264 L5.42543755,23.383351 L5.3153346,24.1696637 L5.3153346,24.9502492 L5.20333282,26.505701 L5.20333282,27.5076802 L5.3153346,28.5096595 L5.42543755,29.4009458 L5.53743933,30.3991069 L5.75574717,31.4049042 L5.9778519,32.2885544 L6.30626346,33.1798407 L6.42206137,33.6226195 L6.64796299,34.0730329 L6.97637455,34.9643192 L7.31048107,35.8556055 L8.19510543,37.5217502 L9.30183142,38.9684181 L9.85424578,39.7547307 L10.4085582,40.5257773 L11.0729743,41.1975797 L11.7373905,41.8693821 L13.0662258,43.0965653 L13.8426399,43.6519477 L14.6152609,44.2073301 L16.1661979,45.0986163 L17.0546199,45.5375786 L17.8253421,45.987992 L18.715663,46.3200763 L19.6021862,46.6559779 L20.596912,46.879276 L21.485334,47.2113603 L22.3699583,47.3201465 L23.3665829,47.5472619 L23.3665829,35.0750199 L18.7156707,35.0750199 L18.2714613,34.9662337 L18.1613583,34.8498136 L17.9373555,34.8498136 L17.7152508,34.6303328 L17.6070459,34.5177293 L17.6070459,34.2982485 L17.496943,33.9623469 L17.496943,26.3873914 L17.6070459,26.5038114 L17.7152508,26.616415 L18.0493573,26.8435303 L18.3796669,26.9523166 L18.7137735,27.0611028 L24.8055213,27.0611028 L25.0238291,27.0611028 L25.2478319,27.1737064 L25.4680386,27.3970044 L25.4680386,27.6164852 L25.4680386,34.9681458 L27.129077,34.9681458 L27.129077,27.6164852 L27.2410787,27.3970044 L27.3511817,27.1737064 L27.5713884,27.0611028 L27.7953912,27.0611028 L33.8814424,27.0611028 L34.2193451,26.9523166 L34.5515528,26.8435303 L34.8799643,26.616415 L35.1058652,26.3835749 L35.1058652,26.3835749 L35.1058049,26.3835554 Z M75.9446194,2.88760161 L75.8497033,2.68911402 L75.6541753,2.49444372 L75.2631192,2.39520031 L74.8739612,2.20053002 L73.9039126,1.80737291 L72.4421975,1.41612406 L72.1479565,1.51345921 L71.8556134,1.61079436 L71.7587985,1.80928195 L71.6581866,2.00395224 L71.5651685,2.68911479 L71.5651685,3.56703783 L71.5651685,4.05753008 L71.6581866,4.74460089 L71.6581866,7.09209244 L71.5651685,7.77916325 L71.5651685,8.07307695 L71.4645566,8.1665948 L70.5875276,8.4605085 L69.4219532,8.95481805 L65.230435,9.93007857 L64.2603863,10.0255047 L63.8712283,10.0255047 L63.4763754,10.1247481 L63.1878293,10.2239915 L62.9923013,10.4186618 L62.8935882,10.5217225 L62.7986721,10.7163928 L62.6980602,10.9072458 L62.6980602,11.2107023 L62.6980602,11.5007987 L62.7986721,11.8901386 L62.8935882,12.2832957 L62.9923013,12.7699706 L63.4763754,13.850197 L63.9661445,14.8292756 L64.1635714,15.3140423 L64.4540163,15.7110167 L65.1336192,16.789334 L66.0087494,17.7645945 L66.2042775,18.0546909 L67.1800226,19.7227447 L67.2768376,19.8162626 L67.6678936,19.8162626 L68.7366507,19.3295876 L69.8073066,19.0394912 L70.1945657,18.9459733 L70.6862337,18.8448209 L71.4626477,18.7417602 L71.8537038,18.8448209 L71.9524168,18.9459733 L72.0492318,19.2341615 L72.1460468,20.0204741 L72.2428618,21.2915574 L72.2428619,23.0569486 L72.5352049,24.6181275 L72.5352049,24.5265179 L72.4402888,26.4808492 L72.4402888,29.1241635 L72.3396769,29.6127475 L72.1460469,30.1051488 L71.8537039,30.500215 L71.7568889,30.8914638 L71.8537039,31.0861341 L72.0492319,31.2808044 L72.5333061,31.479292 L72.9243621,31.479292 L73.3154182,31.479292 L73.7064742,31.3781396 L74.6784217,31.1872866 L74.7771348,31.1872866 L74.9707647,31.0861341 L75.0656809,30.8914638 L75.0656809,30.7941287 L74.7771348,29.2215034 L74.7771348,28.9314069 L74.6784217,28.5401581 L74.5778098,26.7728578 L74.5778098,24.3280288 L74.5778098,24.8166128 L74.5778098,24.6200342 L74.6784217,22.858461 L74.9707647,19.1330114 L75.0656809,18.5509095 L75.1624959,18.2608131 L75.3599227,18.1577524 L75.6522657,18.058509 L75.9427107,18.058509 L77.0152654,17.8638387 L78.3782643,17.7684126 L79.8380805,17.7684126 L81.4972201,17.6653519 L81.594035,17.5737423 L81.69085,17.1805852 L81.787665,16.7912454 L81.88448,16.1996007 L81.88448,16.0049304 L81.981295,15.7129249 L82.2774349,15.1212802 L82.8602228,14.2395391 L83.6423334,13.2642786 L83.7391484,12.9703649 L83.9346764,12.6726339 L84.2270194,12.1878672 L84.6142786,11.7985274 L84.8098066,11.6954667 L85.0053346,11.5007964 L85.2976776,11.4053703 L85.5881226,11.2107 L85.7817525,10.9072435 L85.9772805,10.615238 L85.8823644,10.5236284 L85.8823644,10.3213243 L85.4932064,9.93198449 L85.0053354,9.44149224 L84.7148904,9.24682194 L84.4225474,9.04833435 L84.0276945,8.85366405 L83.6423334,8.55975035 L83.1544624,8.36126276 L82.2793322,7.97192295 L81.4991205,7.57876584 L80.8157214,7.38409554 L80.1323223,7.28866943 L79.9386924,7.38409554 L78.773118,7.38409554 L77.6056448,7.48524721 L75.2631031,7.77916091 L74.974557,7.3860038 L74.8739451,6.8974198 L74.8739451,6.3095924 L74.8739451,5.6263381 L74.974557,4.84193448 L74.974557,4.45259467 L75.0694731,4.15677271 L75.1662881,3.96210241 L75.4586311,3.56512801 L75.851586,3.1719709 L75.8515859,2.97920886 L75.944604,2.88759927 L75.944604,2.88759927 L75.9446194,2.88760161 Z M71.8575138,15.9038021 L71.4664578,16.1061062 L70.6900437,16.3007765 L68.2544824,16.8886039 L68.1557693,16.5946902 L67.9621394,16.3007765 L67.7666113,16.0068628 L67.6697964,15.7148574 L67.4742683,15.317883 L67.3755553,14.5392025 L67.2787403,14.0487103 L67.2787403,13.4608829 L67.2787403,12.8692382 L67.4742683,12.3844715 L67.6697964,12.2852281 L68.0570563,12.0867405 L69.7161959,11.5046386 L70.3939,11.2145422 L71.170314,10.9110857 L71.656287,11.0122381 L71.7568989,11.6993089 L71.8537138,12.7738082 L71.8537138,14.1498573 L71.8537138,15.9037943 L71.8575138,15.9037943 L71.8575138,15.9038021 Z M74.9726719,13.0696309 L74.9726719,11.010326 L75.0675881,10.4224986 L75.0675881,10.2278283 L75.1644031,10.1285849 L75.3618299,10.0293415 L75.752886,9.93391535 L76.436285,9.8365802 L77.3114152,9.74115409 L78.8699476,9.74115409 L79.3578186,9.74115409 L79.6482635,9.8365802 L79.9406066,10.0312505 L80.0374215,10.1304939 L80.1342365,10.2297373 L80.2310515,10.4244076 L80.3316634,10.7202296 L80.3316634,11.4073004 L80.2310515,11.9894022 L80.0374215,13.0696286 L79.9406066,13.4589684 L79.7450785,13.8521255 L79.4527355,14.2414653 L79.2591056,14.5372873 L78.9648645,14.6384397 L78.5776053,14.83311 L77.8942063,14.9285361 L77.1139946,15.0277795 L76.331884,15.1232056 L75.55547,15.3178759 L75.1625151,15.4209366 L75.0657001,15.3178759 L75.0657001,15.2262663 L75.0657002,14.9266271 L74.970784,14.342617 L74.970784,13.0696247 L74.9726823,13.0696247 L74.9726719,13.0696309 Z M98.2499801,6.60543851 L97.9595352,6.70277366 L97.6633953,6.89744396 L97.3710523,7.09211425 L97.2761361,7.29060184 L97.0806081,7.58069825 L96.8869781,8.16852566 L96.7863663,8.95865639 L96.6914501,9.9339169 L96.5908382,12.6726596 L96.4940232,16.2988706 L96.5908382,18.258929 L96.4940232,20.2189874 L96.6914501,23.5417395 L96.8869781,24.6181478 L96.9799962,25.4063695 L97.0806081,25.6964659 L97.2761361,25.9941969 L97.3710523,26.1888672 L97.5665803,26.3835375 L97.7640071,26.4808726 L97.9595352,26.5820251 L98.1531651,26.4808726 L98.3486932,26.3835375 L98.8308692,25.8987708 L99.2219253,25.6983749 L99.7078983,25.4082785 L99.9053251,25.4082785 L100.098955,25.3090351 L100.49191,25.1143648 L100.881068,25.0132124 L101.467652,25.0132124 L102.05044,24.913969 L102.24407,24.8147256 L104.485997,24.4253857 L105.461742,24.2307154 L106.04453,24.131472 L106.727929,24.0360459 L107.996017,23.9329852 L109.062883,23.8394674 L110.040527,23.9329852 L110.915657,24.0360459 L111.595259,24.0360459 L111.8895,24.0360459 L112.08313,23.9329852 L112.179945,23.8394674 L112.27676,23.7364067 L112.27676,23.6409806 L112.27676,22.955818 L112.27676,22.5626609 L112.179945,22.3679906 L112.08313,21.8755901 L111.986315,21.4862503 L111.792685,21.3889151 L111.595259,21.2877627 L111.308611,21.1923366 L110.915656,21.1923366 L109.845,21.1923366 L108.4839,21.1923366 L107.022185,21.3889151 L106.240074,21.4862503 L105.46366,21.6771033 L103.709602,21.9767425 L101.860626,22.4634175 L100.400809,22.7592395 L99.7136134,22.8565746 L99.5199834,22.8565746 L99.2276404,22.7592395 L99.1327242,22.658087 L98.9371962,22.3698989 L98.8365843,22.1714113 L98.8365843,21.976741 L98.7397694,21.7782534 L98.7397694,21.488157 L98.6448532,20.999573 L98.8365843,17.5718551 L99.0321124,16.5908675 L99.0321124,16.1977103 L99.1327242,16.0030401 L99.2276404,15.7110346 L99.5199834,12.865417 L99.9110395,10.8137482 L100.104669,10.0274355 L100.300197,9.43960813 L100.400809,8.95484143 L100.497624,8.85178073 L100.594439,8.76017113 L101.08231,8.35937944 L101.765709,7.97003962 L102.638941,7.38221222 L103.517869,6.99287241 L104.001943,6.79820211 L104.489814,6.59971452 L105.465559,6.30580082 L105.560475,6.20274012 L105.852818,6.00806982 L106.925373,5.81339953 L108.092846,5.71797341 L110.332874,5.52330312 L110.625217,5.52330312 L110.820745,5.61872923 L111.113088,5.71797263 L111.310515,5.91646022 L111.794589,6.30580082 L112.085034,6.59971452 L112.278664,6.89171996 L112.474192,7.28487707 L112.574804,7.67803418 L112.768434,8.06928303 L112.867147,8.45862284 L112.962063,9.2449355 L113.058878,9.73542776 L113.058878,10.1247676 L113.157591,10.3194379 L113.157591,11.2088151 L113.252507,11.9855873 L113.744175,20.4098147 L113.935906,23.5378996 L114.032721,24.8108919 L113.839091,25.1086229 L113.64736,25.204049 L113.548647,25.3032924 L113.058878,25.4960537 L112.474192,25.4960537 L111.695879,25.4025358 L111.016277,25.3032924 L110.820749,25.204049 L110.723934,25.1086229 L110.234165,24.7154658 L109.845007,24.6143133 L109.746294,24.7154658 L109.647581,24.8108919 L109.647581,24.9101353 L109.746294,25.1086229 L109.845007,25.4025366 L109.939923,25.5972069 L110.234164,25.8949379 L110.915665,26.5762832 L111.986321,27.2614457 L113.055078,27.9389744 L114.028924,28.5325274 L114.710425,28.9237763 L115.395723,29.2138727 L116.077224,29.4123603 L116.660012,29.5096954 L116.954253,29.4123603 L117.246596,29.3188424 L117.347208,29.1184465 L117.347208,29.0211114 L117.442124,28.6298626 L117.347208,28.3397661 L117.246596,27.0648648 L117.149781,26.5762808 L117.051068,25.8949356 L116.954253,25.2040475 L116.853641,18.739855 L116.758725,11.3004021 L116.660012,11.1076409 L116.660012,10.9053368 L116.563197,10.2239915 L116.466382,9.14949225 L116.466382,7.87459092 L116.466382,7.57876896 L116.563197,7.38409866 L116.758725,6.70084514 L116.853641,6.60351 L116.954253,6.40502241 L117.149781,5.9202557 L117.149781,5.626342 L117.149781,5.42785519 L117.051068,5.23318489 L115.202092,4.35526186 L114.323164,4.15677427 L113.742275,4.05753086 L113.155691,3.96401301 L111.792692,3.86286057 L110.232261,3.86286057 L109.35713,3.96401301 L108.482,4.05753086 L107.701788,4.15677427 L106.921577,4.25601767 L104.973892,4.54993138 L104.19368,4.74460167 L103.514078,4.84193682 L102.830679,5.04042441 L102.342808,5.14157685 L101.856835,5.23318645 L101.173436,5.52900841 L100.493834,5.92216552 L98.2500081,6.60541981 L98.2500081,6.60541981 L98.2499801,6.60543851 Z M101.949824,15.9037709 L102.240269,15.8121613 L102.631325,15.7129179 L103.798798,15.4190042 L103.897511,15.4190042 L103.994326,15.5201567 L104.094938,15.6136745 L104.189854,15.8121621 L104.094938,16.394264 L103.994326,16.6939032 L103.994326,16.9859087 L103.701983,17.3752485 L103.40964,17.6653449 L102.435794,18.058502 L101.657481,18.354324 L100.97598,18.5509025 L100.292581,18.6482377 L100.000238,18.6482377 L99.8066082,18.7436638 L99.6129782,18.8467245 L99.5123664,18.9478769 L99.5123664,19.0413948 L99.5123664,19.4345519 L99.8066074,20.4155395 L99.8066074,20.6102098 L100.000237,20.7056359 L100.097052,20.8048793 L100.29258,20.8048793 L100.393192,20.8048793 L100.685535,20.7056359 L100.97598,20.6102098 L103.217907,20.22087 L109.254596,19.1349165 L111.885683,19.1349165 L112.373554,19.0433069 L112.569082,18.9497891 L112.762712,18.747485 L112.861425,18.4573885 L112.956342,18.1596576 L112.956342,17.667257 L112.956342,17.2779172 L112.861425,17.0832469 L112.665897,16.8885766 L112.373554,16.7931505 L112.079313,16.7931505 L111.788868,16.6958154 L111.591442,16.5946629 L110.327151,14.2433533 L110.327151,14.048683 L110.520781,13.8540127 L110.718208,13.560099 L111.107366,13.2680936 L111.204181,12.2871059 L111.107366,12.0886184 L111.010551,11.8939481 L110.718208,11.8023385 L110.423967,11.8023385 L108.478181,11.8939481 L107.893495,11.8939481 L107.697967,11.8939481 L107.601152,11.1152677 L107.697967,10.7221105 L107.697967,10.6190498 L107.794782,10.6190498 L109.157781,10.1304658 L109.353309,10.0312224 L109.450124,10.0312224 L109.546939,9.93579633 L109.84118,9.83846118 L110.329051,9.74303507 L110.425866,9.64379167 L110.522681,9.54836555 L110.522681,9.44530485 L110.720107,9.25063456 L110.816922,9.34796971 L110.816922,8.56165705 L110.816922,8.66280949 L110.913737,7.97573868 L110.720107,7.78106839 L110.425866,7.5825808 L110.230338,7.48715468 L109.936097,7.48715468 L109.452023,7.48715468 L109.15968,7.48715468 L108.770522,7.5825808 L108.379466,7.5825808 L107.895392,7.78106839 L107.310706,7.87840353 L106.627307,7.97382965 L105.748379,8.2696516 L104.582805,8.56165705 L103.314717,9.05024105 L102.536404,9.24872864 L102.048533,9.44339893 L101.758088,9.54645963 L101.56256,9.64188575 L101.56256,9.93389119 L101.56256,10.2278049 L101.56256,10.5255359 L101.659375,10.9091509 L101.56256,11.3042171 L102.242162,11.7985266 L103.026171,11.5962225 L103.60706,11.5962225 L104.098728,11.5962225 L104.485987,11.6954659 L104.5847,11.7985266 L104.679617,11.9893796 L104.679617,12.0848057 L104.77833,12.2832933 L104.679617,12.7699683 L104.5847,12.8653944 L104.5847,12.9684551 L103.514045,13.0676985 L102.538299,13.3558867 L101.469542,13.4551301 L101.175301,13.4551301 L100.979773,13.5543735 L100.882958,13.5543735 L100.689328,13.6536169 L100.590615,13.7471347 L100.590615,13.9494388 L100.4938,14.5315407 L100.4938,14.6326931 L100.590615,14.6326931 L100.689328,15.0220329 L100.689328,15.41519 L100.786143,15.5163425 L100.882958,15.6098603 L101.078486,15.8083479 L101.370829,15.8999575 L101.94982,15.8999578 L101.94982,15.9037748 L101.949824,15.9037709 Z M107.988412,14.8311792 L108.182042,14.8311792 L108.474385,15.025851 L108.5712,15.3159474 L108.76483,15.7129218 L108.76483,16.0049273 L108.960358,16.298841 L109.153988,16.3923588 L109.252701,16.5908464 L109.252701,16.6919989 L109.153988,16.8866692 L108.861645,16.8866692 L108.573099,16.8866692 L108.085228,16.9859126 L107.792885,16.9859126 L107.599255,16.7912423 L107.403727,16.6939071 L107.306912,16.5927547 L107.111384,16.3007492 L107.012671,15.8121652 L107.012671,15.6136776 L107.111384,15.4190073 L107.111384,15.224337 L107.306912,15.0258495 L107.599255,14.8311792 L107.792885,14.8311792 L107.988413,14.8311792 L107.988413,14.8311792 L107.988412,14.8311792 Z M126.003546,25.4998897 L126.491418,25.6010421 L126.981187,25.4998897 L127.562076,25.4063718 L128.146762,25.3071284 L129.416749,24.719301 L130.092555,24.3261439 L130.874665,23.934895 L130.969581,23.7383165 L131.261924,23.5398289 L131.945324,23.1504891 L132.044037,23.055063 L132.241463,22.6580886 L132.628723,21.6771009 L133.501954,20.4117448 L134.183455,19.5280947 L134.673224,19.0395107 L134.76814,18.9459928 L134.963668,18.8448404 L135.060483,18.8448404 L135.060483,19.2341802 L135.060483,19.8181903 L135.060483,20.608321 L134.963668,21.680919 L134.866853,22.7611454 L134.866853,23.9348912 L134.866853,24.9139697 L134.963668,25.7938018 L135.157298,26.6736339 L135.354725,27.4599465 L135.552152,28.1489264 L135.937513,28.7348455 L136.036226,29.0249419 L136.229856,29.3226729 L136.427283,29.5135259 L136.62471,29.7081962 L136.81834,29.7081962 L137.013868,29.7081962 L137.406823,29.324582 L137.890897,28.9295158 L138.37687,28.538267 L138.864741,28.1508354 L138.961556,28.049683 L139.155186,27.7557693 L140.130931,26.9656385 L141.495829,25.4998881 L141.9837,24.8147256 L142.372858,24.1333803 L142.372858,24.0379542 L142.475368,23.9348935 L142.568386,23.6447971 L142.765812,23.0569697 L143.538434,21.2915784 L144.126916,21.490066 L144.614787,21.680919 L145.102658,21.9805583 L145.489918,22.2725637 L145.979687,22.6619035 L146.270132,23.154304 L146.661188,23.6467046 L146.953531,24.234532 L147.052244,24.4292023 L147.14716,24.6238726 L147.34079,24.725025 L147.631235,24.8204511 L148.314634,25.0189387 L148.806302,25.1200911 L149.290376,25.1200911 L150.457849,25.1200911 L151.627221,25.0189387 L152.695978,24.9196953 L153.573007,24.8204519 L154.355118,24.7250258 L155.13533,24.5303555 L155.720016,24.2364418 L156.205988,24.0417715 L156.205988,23.8451929 L156.304702,23.6467053 L156.111072,23.3508834 L155.720016,23.1543048 L155.328959,22.8603911 L154.744273,22.6619035 L154.159587,22.4672332 L153.379376,22.2725629 L151.627217,21.8794058 L149.68143,21.5874004 L149.096744,21.5874004 L148.314634,21.1961515 L147.245877,20.9003296 L145.296293,20.0224065 L143.840275,19.1349383 L143.249894,18.8486584 L142.864532,18.4555013 L142.570291,18.1577703 L142.374763,17.7665215 L142.570291,17.6634608 L142.767718,17.4687905 L143.840273,17.0794507 L144.419264,16.6901109 L145.102663,16.1977103 L145.296293,16.0030401 L145.491821,15.8999794 L146.173322,15.3121519 L146.568175,15.1174817 L147.054148,14.8273852 L147.247778,14.6327149 L147.540121,14.4342274 L148.51017,13.8464 L148.808208,13.6517297 L148.808208,13.5524862 L148.905023,13.4532428 L148.808208,13.2585725 L148.7038,12.9646588 L148.508272,12.7661713 L148.314642,12.4684403 L148.024197,12.2775873 L147.830567,12.1821611 L147.441409,12.0791004 L147.052251,12.0791004 L146.761806,12.1821611 L146.469463,12.571501 L145.979694,12.9646581 L145.391211,13.6517289 L144.517979,14.4342235 L144.126923,14.8273806 L143.933293,14.9228067 L143.73207,15.117477 L142.477274,15.8064568 L140.721317,16.7855354 L139.941106,16.4897135 L139.064076,15.8980688 L138.580002,15.4133021 L138.185149,15.0201449 L137.989621,14.7262312 L137.894705,14.5315609 L137.989621,14.3368906 L138.088334,14.0391597 L138.67302,12.8615958 L138.870447,12.3768291 L138.967262,11.983672 L139.160892,11.6916666 L139.745578,10.1228515 L139.848088,9.63617656 L140.041718,9.14759256 L140.237246,8.84986156 L140.434673,8.75825197 L140.531488,8.65519127 L142.088122,8.06736386 L142.482974,7.87078531 L142.771521,7.77345016 L143.255595,7.87078531 L143.456818,7.96621142 L143.646651,8.16088172 L143.844078,8.35555201 L143.938994,8.5540396 L144.037707,8.65519205 L144.037707,8.75825275 L144.132623,9.04453264 L144.037707,9.24302023 L144.037707,9.53884219 L143.844077,9.73351249 L143.64665,10.0236089 L143.158779,10.6114363 L142.380466,11.2068975 L141.604052,11.7947249 L140.825739,12.4703446 L140.628312,12.6688322 L140.531497,12.8635025 L140.628312,12.9665632 L141.311711,12.9665632 L142.088125,12.8635025 L142.380468,12.7680764 L142.771524,12.7680764 L143.456822,12.5734061 L144.13073,12.2814007 L144.814129,11.987487 L145.395018,11.6954815 L146.080316,11.2107148 L146.175232,11.1114714 L146.471372,10.8137404 L147.056058,10.4205833 L147.933087,9.9319993 L148.221633,9.737329 L148.610791,9.439598 L148.610791,9.1495016 L146.86053,7.97002871 L146.175233,7.2867752 L145.786075,7.08828761 L145.493732,6.89361731 L144.912842,6.69894702 L144.229443,6.50427672 L143.544146,6.40121602 L142.870238,6.30578991 L141.99131,6.5042775 L140.237252,6.89361731 L140.138539,6.89361731 L140.138539,6.80009946 L139.944909,6.30769895 L139.944909,5.81720669 L139.944909,5.14158698 L140.041724,4.35527433 L140.041724,3.86287381 L140.138539,3.4697167 L140.237252,3.27504641 L140.237252,2.78455415 L140.335965,2.29978745 L140.62641,1.51347479 L140.529595,1.41613964 L140.237252,1.3149872 L139.946807,1.21765205 L139.555751,1.21765205 L139.069778,1.02489079 L138.585704,1.3149872 L138.190851,1.41613964 L138.094036,1.51347479 L137.995323,2.78455805 L137.900407,3.37238545 L137.801694,3.96403015 L137.592877,5.23320437 L137.497961,6.51001474 L137.497961,7.87842769 L137.300534,7.9738538 L136.909478,8.1685241 L135.447763,8.85559491 L135.254133,8.95865561 L135.254133,9.54648301 L135.254133,10.1304931 L135.349049,10.3251634 L135.349049,10.5274675 L135.447762,10.6190771 L135.645189,10.7221378 L135.933735,10.8175639 L136.129263,10.8175639 L136.423504,10.6190763 L136.524116,10.6190763 L135.256028,14.4399545 L135.153518,14.6384421 L134.574527,15.6137026 L133.306439,17.6653714 L132.721753,18.2608326 L132.239576,18.84866 L130.580437,20.8049004 L129.800225,21.5873949 L129.414864,21.980552 L129.021909,22.467227 L128.729566,22.763049 L127.951253,23.2497239 L127.271651,23.8451851 L126.686965,24.4291952 L126.295909,25.0170227 L126.197196,25.0170227 L126.197196,25.2136012 L126.003546,25.4120888 L126.003546,25.4998811 L126.003546,25.4998811 L126.003546,25.4998897 Z M136.524097,23.7402255 L136.909458,21.8794058 L137.008171,20.9003272 L137.008171,20.1178327 L137.103087,19.4345791 L137.207495,18.8467517 L137.207495,18.4535946 L137.302411,18.3524422 L137.403023,18.3524422 L138.466092,18.743691 L139.149491,18.8467517 L139.345019,18.9479042 L139.63926,19.041422 L140.223946,19.3315184 L140.905447,19.8181934 L141.588846,20.4136546 L142.26655,20.8984213 L142.465875,21.1007254 L142.363365,21.2915784 L142.264652,21.5854921 L142.069124,21.7801624 L141.780578,22.1733195 L140.709922,23.3489743 L140.60931,23.452035 L139.341222,24.4272956 L138.369274,25.1143664 L137.883301,25.4082801 L137.590958,25.6029504 L137.205597,25.7002855 L137.00817,25.7002855 L136.620911,25.7002855 L136.524096,25.7002855 L136.423484,25.6029504 L136.328568,25.5017979 L136.328568,25.3090367 L136.22416,24.8166362 L136.328568,24.528448 L136.328568,24.2345343 L136.423484,24.039864 L136.524096,23.7402248 L136.524096,23.7402248 L136.524097,23.7402255 Z M129.699591,13.558204 L129.800205,13.7528743 L129.898918,13.8540267 L130.191261,14.048697 L130.384891,14.1517577 L131.161305,14.346428 L132.04403,14.5410983 L133.017877,14.7357686 L133.598766,14.835012 L133.796193,14.835012 L133.891109,14.7357686 L133.989822,14.6422508 L134.084738,14.4437632 L133.891108,13.4627756 L133.891108,12.6764629 L133.796192,11.9932094 L133.796192,11.3080468 L133.891108,11.0141331 L133.891108,10.7240367 L133.989821,10.2335445 L133.989821,10.0350569 L134.084738,9.84038658 L133.989821,9.55029017 L133.699376,9.44722947 L133.207708,9.44722947 L133.017875,9.55029017 L132.628717,9.84038658 L131.360629,11.1171969 L129.701489,13.2681123 L129.701489,13.5582087 L129.699591,13.5582087 L129.699591,13.558204 Z M168.757766,16.8866832 L169.239942,20.0204874 L169.239942,20.6083148 L169.143127,21.0014719 L168.949497,21.3927207 L168.755867,21.6809089 L168.465422,21.8793965 L167.973754,22.1733102 L167.299847,22.3717978 L166.420919,22.7611376 L165.73752,22.9596252 L164.279603,23.348965 L163.208947,23.7402138 L162.910909,23.7402138 L162.031981,24.0379448 L160.672772,24.326133 L160.088086,24.4253764 L159.5034,24.4253764 L159.404687,24.5265288 L159.309771,24.5265288 L159.203464,24.7211991 L159.203464,24.8166252 L159.203464,25.1143562 L159.402789,25.6010312 L160.08429,26.9656339 L160.08429,27.0706028 L160.184902,27.167938 L160.475347,27.167938 L160.866403,27.0706028 L161.544107,26.6755367 L162.227506,26.2842878 L163.000127,25.9980079 L163.879055,25.6029418 L164.756084,25.3090281 L165.824841,25.1143578 L167.094828,24.8166268 L168.359118,24.6200483 L169.724016,24.425378 L171.865335,24.0379464 L173.131525,23.7402154 L173.911737,23.6447893 L174.788766,23.5417286 L175.956239,23.450119 L177.317339,23.450119 L178.686034,23.2478149 L180.047134,23.1523888 L181.214607,23.1523888 L182.382081,23.2478149 L182.776934,23.450119 L183.840002,23.7383071 L185.303616,24.0360381 L185.892099,24.2307084 L187.059572,24.61814 L187.2551,24.61814 L187.44873,24.5246221 L187.64236,24.4234697 L187.64236,24.2287994 L187.741073,23.9329774 L187.64236,23.0550544 L187.547444,22.5626539 L187.351916,21.9767347 L186.962758,20.4117378 L186.867842,20.3086771 L186.666619,19.91552 L186.281257,19.5261802 L185.893998,19.3276926 L185.499145,19.2322665 L185.305515,19.1292058 L185.016969,19.2322665 L184.428486,19.3276926 L184.13994,19.4307533 L183.841902,19.5261794 L183.553356,19.5261794 L183.262911,19.5261794 L182.970568,19.6254228 L182.780735,19.7208489 L179.956021,19.8143668 L179.173911,19.9136102 L178.782855,20.0166709 L176.544726,20.0166709 L176.446012,19.9136102 L176.544726,18.5451972 L176.544726,18.2551008 L176.544725,18.056614 L176.645337,17.9650044 L176.74405,17.8619437 L177.026901,17.6634561 L177.321143,17.5718465 L178.004542,16.886684 L179.073299,16.0049429 L180.339488,14.8311971 L181.899919,13.2642911 L181.998632,13.0696208 L182.28528,12.8673167 L182.383993,12.7718906 L182.968679,12.4741596 L183.359735,12.1878797 L183.652078,11.8920577 L183.750791,11.6973874 L183.750791,11.5027171 L183.652078,11.3042295 L183.454652,11.1114683 L183.261022,10.8137373 L182.778845,10.2259099 L182.383993,9.73732588 L181.899918,9.54265559 L181.700593,9.43959489 L181.415843,9.43959489 L181.218417,9.43959489 L181.024787,9.54265559 L180.927972,9.6380817 L180.831157,9.83275199 L180.635629,10.1247574 L180.047146,11.0064985 L179.65609,11.4988991 L179.363747,11.8882389 L178.978386,12.4703407 L178.486718,13.0658019 L177.129408,14.5334614 L177.023101,14.5334614 L177.317342,8.35936463 L177.414157,7.77726278 L177.611584,6.50617952 L177.80901,5.42404413 L177.907724,4.93546013 L178.00264,4.54611954 L178.389899,3.95829213 L178.587326,3.76362184 L178.780956,3.66437843 L178.780956,3.56704328 L178.687938,3.37237299 L178.488613,3.1738854 L178.004539,2.7845448 L177.518566,2.58987451 L176.93388,2.39520421 L176.349194,2.2997781 L176.058749,2.39520421 L175.766406,2.49444761 L175.667693,2.68911791 L175.470266,2.97921432 L175.373451,3.46970658 L175.179821,4.05753398 L174.982394,5.82101619 L174.887478,6.8058141 L174.887478,8.07689736 L174.597033,11.6992902 L174.500218,14.1498464 L174.393911,16.3007617 L174.302791,17.0832563 L174.105364,17.8638418 L174.008549,18.5509126 L173.811122,19.0414049 L173.720002,19.5299889 L173.518779,19.818177 L173.325149,20.115908 L173.131519,20.2189687 L172.446222,20.3105783 L172.250694,20.3105783 L172.06086,20.2189687 L171.962147,20.0204811 L171.962147,19.818177 L171.863434,17.8619367 L171.766619,16.8866762 L171.766619,11.9893898 L171.863434,10.0293313 L171.863434,9.93390522 L172.157675,9.05025507 L172.248795,8.76397518 L172.248795,8.56167108 L172.157675,8.36318348 L172.058962,8.16851319 L171.861536,8.07499533 L171.572989,7.87841678 L169.13363,7.19325423 L168.843185,7.29058938 L168.550842,7.48525967 L168.457824,7.58068578 L168.357212,7.77917337 L168.258499,8.07308708 L168.157888,8.46242689 L168.157888,9.24873955 L168.258499,10.3232388 L168.357212,12.086721 L168.457824,14.3445112 L168.260398,14.6384249 L166.318401,15.7129242 L165.633103,16.1060813 L165.344557,16.1995991 L163.975862,16.1995991 L163.394973,16.2988425 L163.294361,16.3923604 L163.294361,16.590848 L163.201343,16.8847617 L163.294361,17.3714366 L163.394973,17.5699242 L163.493686,17.8600206 L163.879047,18.3505129 L164.46753,18.9440658 L164.854789,19.4307408 L165.247744,19.7208372 L165.633105,19.9155075 L165.92355,19.9155075 L166.120977,19.8162641 L166.510135,19.4307408 L167.774425,17.8600167 L168.159786,17.5699203 L168.357213,17.0794281 L168.550843,16.8847578 L168.757761,16.8847581 L168.757761,16.8866667 L168.757766,16.8866832 Z M194.658566,13.0696231 L193.684719,14.3426154 L192.708974,15.6136987 L191.742723,17.0832672 L191.543398,17.7684297 L191.543398,18.0585261 L191.64401,18.1577696 L191.83764,18.2608303 L192.03127,18.2608303 L192.323613,18.2608303 L192.614058,18.1577696 L192.906401,18.0585261 L193.297457,17.8638559 L194.073871,17.3752719 L195.146426,16.5927773 L195.928536,15.9037974 L196.218981,15.9037974 L196.414509,16.2015284 L196.79987,16.8885992 L196.79987,16.9878426 L197.09601,17.277939 L197.581983,17.8657664 L197.676899,18.0604367 L197.676899,18.3562587 L197.48327,18.5528373 L197.285843,18.7475076 L196.9935,18.9498117 L195.831723,19.5319135 L194.370008,19.5319135 L194.17448,19.5319135 L194.07197,19.7265838 L193.977054,19.8201017 L193.977054,20.1178327 L193.977054,20.6083249 L194.07197,21.1961523 L194.267498,21.8794058 L194.464925,22.4672332 L194.563638,22.5664766 L194.658554,22.6619028 L194.854082,22.7630552 L197.099806,21.9805606 L197.194723,21.9805606 L197.289639,22.0740785 L197.289639,22.2725661 L197.388352,22.4672364 L197.388352,24.3280561 L197.488964,25.698378 L197.587677,26.2842972 L197.682593,26.7728812 L197.876223,27.461861 L198.07365,27.6565313 L198.364095,27.7576838 L198.561522,27.6565313 L199.241124,27.1679473 L199.918828,26.7728812 L200.116255,26.5820282 L200.410496,26.2842972 L201.093895,25.5018026 L201.965227,24.1352909 L203.128903,22.4672371 L203.622469,20.8049105 L203.816099,20.0224159 L203.816099,19.8201118 L203.622469,19.7265939 L203.523756,19.8201118 L203.231413,20.0224159 L202.937172,20.415573 L202.551811,21.0034004 L201.577964,22.0759984 L200.797753,22.7630692 L200.507308,23.0588912 L200.218761,23.2497442 L200.025132,23.3508966 L199.916927,23.4539573 L199.531566,23.3508966 L199.434751,23.3508966 L199.337936,23.2497442 L199.237324,22.961556 L199.142408,22.663825 L199.237324,22.3756369 L199.237324,22.0779059 L199.434751,21.7859004 L199.531566,21.495804 L200.025132,21.00722 L200.604123,20.5110022 L200.991382,20.1216624 L201.967127,19.0471632 L202.25947,18.6540061 L202.4531,18.2646662 L202.650527,17.9707525 L202.650527,17.5775954 L202.650527,17.2798644 L202.4531,16.989768 L202.4531,16.8905246 L202.354387,16.8905246 L202.062044,16.7950985 L200.993287,16.9897688 L200.799657,16.5966117 L201.773503,14.735792 L201.969031,14.4437866 L202.063947,14.1536902 L202.063947,13.8578682 L202.063947,13.4647111 L202.063947,12.9761271 L201.969031,12.7776395 L201.870318,12.6783961 L201.773503,12.58297 L201.676688,12.4799093 L201.384345,12.3882997 L200.702844,12.3882997 L200.028937,12.6783961 L199.343639,12.9761271 L198.460914,13.4647111 L197.783209,13.7567165 L197.589579,13.857869 L197.29344,13.857869 L197.103606,13.857869 L196.999198,13.7567165 L196.90618,13.6631987 L196.90618,13.4647111 L196.90618,12.9761271 L196.999198,12.58297 L197.196625,12.1936302 L197.390255,11.8042904 L197.682598,11.4111332 L197.976839,11.0141588 L198.459015,10.6210017 L198.850071,10.327088 L199.341739,9.93774822 L199.632184,9.84041308 L199.825814,9.84041308 L200.118157,9.93774822 L200.509213,10.1324185 L201.676687,11.0141596 L202.160761,10.9130072 L202.553716,10.8194893 L202.939077,10.5293929 L203.428846,10.1324185 L203.721189,9.74307871 L204.011634,9.3499216 L204.10655,8.96058178 L204.205263,8.56360738 L204.10655,8.17045028 L203.91292,7.88035387 L203.525661,7.58453191 L203.426948,7.4891058 L203.23142,7.4891058 L201.674786,7.7830195 L201.479258,7.7830195 L201.285628,7.68759339 L201.285628,7.58453269 L201.190712,7.38986239 L201.285628,7.09594869 L201.576073,6.60927373 L201.963332,6.01762903 L202.549916,5.42980163 L202.646731,5.14352173 L202.842259,4.94121763 L202.84226,4.74463829 L202.84226,4.45263285 L202.84226,4.2560543 L202.743547,4.05756671 L202.646732,3.76937855 L202.449305,3.56707445 L201.963332,3.17391734 L201.477359,2.78457675 L200.98759,2.49448034 L200.600331,2.49448034 L200.406701,2.49448034 L200.304191,2.58990645 L200.213071,2.88572841 L200.110561,3.37049512 L199.525875,4.64920673 L198.939291,5.92219902 L198.25779,7.19328228 L197.580086,8.36320998 L196.699259,9.74116811 L195.827927,11.1133991 L194.658554,13.0696395 L194.658554,13.0696395 L194.658566,13.0696231 Z M208.782174,16.693925 L208.979601,16.4954374 L209.562389,15.9037927 L210.541924,15.3159653 L211.21773,14.8311986 L211.703703,14.5372849 L212.094759,14.1479451 L212.485815,13.6574529 L212.774361,13.1650524 L213.068602,12.4760725 L213.262232,11.8004528 L213.459659,11.0103221 L213.657086,10.0293344 L213.753901,9.54456774 L213.846919,9.05025819 L214.044346,8.46243079 L214.139262,8.07309097 L215.01819,5.72369039 L215.01819,5.62635525 L214.91568,5.42786765 L214.433504,5.0404361 L213.945633,4.74461414 L213.262234,4.54994384 L212.677548,4.45260869 L211.999844,4.35527355 L211.217733,4.45260869 L210.541927,4.65109628 L209.664898,4.93928444 L208.784071,5.33625884 L207.812124,5.72559943 L205.477177,7.19516794 L204.888694,7.6856602 L204.693166,7.78108631 L204.59825,7.87842146 L204.59825,7.97384757 L204.693166,9.05025585 L204.693166,10.5255515 L204.791879,14.7319537 L204.791879,15.9037904 L204.693166,17.0832633 L204.59825,18.2608271 L204.59825,20.7056562 L204.693166,22.0740691 L204.791879,23.3489704 L204.888694,24.7212015 L205.086121,26.0896144 L205.184834,26.3835281 L205.285446,26.7709597 L205.570196,28.2424372 L205.767623,28.6336861 L205.961253,28.9275998 L206.15868,29.1222701 L206.356107,29.1222701 L206.549737,29.1222701 L206.840182,29.0249349 L207.033812,28.9275998 L207.326155,28.7329295 L207.910841,28.2405282 L208.495527,27.4580336 L208.886583,26.9618158 L209.566185,26.1869527 L210.150871,25.4979728 L210.445112,25.2059674 L210.545724,24.8128103 L210.739354,24.4234705 L210.739354,24.3242271 L210.838067,24.3242271 L211.223428,23.8394604 L211.417058,23.3451508 L211.618281,23.0550544 L211.709401,22.65808 L211.811911,22.2687402 L211.908726,21.9767347 L212.102356,21.8755823 L212.201069,21.7782472 L212.301681,21.7782472 L212.687042,21.8755823 L214.148757,22.4634097 L214.642323,22.9558102 L215.027684,23.5398203 L215.31623,24.131465 L215.513657,24.7192924 L215.610472,24.9139627 L215.711084,25.1124503 L215.807899,25.2078764 L216.001529,25.406364 L216.38689,25.4998819 L216.977271,25.6010343 L217.852401,25.6983695 L218.826247,25.7957046 L220.191145,25.6983695 L220.580303,25.6983695 L221.070072,25.6010343 L221.743979,25.3071206 L222.138832,25.1124503 L222.429277,24.9139627 L222.818435,24.7192924 L223.112676,24.4253787 L223.013963,24.3261353 L222.919047,24.131465 L222.621009,23.8413686 L221.945203,23.4501198 L220.969458,23.0569627 L219.70137,22.5645622 L216.001526,21.4900629 L213.565964,20.4155637 L212.590219,19.9193458 L211.912515,19.530006 L211.525256,19.2360923 L211.420848,19.041422 L211.331627,18.9479042 L211.420848,18.7456001 L211.622071,18.5509298 L212.98128,17.7665262 L213.17491,17.5718559 L213.668476,17.0813636 L214.541707,16.1996225 L214.739134,16.1061046 L214.928967,15.8121909 L215.519348,15.0258783 L216.005321,14.5372943 L216.104034,14.4399591 L216.58621,13.8521317 L216.77984,13.558218 L216.77984,13.4589746 L216.68872,13.1650609 L216.39258,12.6745687 L216.19895,12.3844723 L216.00532,12.0867413 L215.81169,11.9913152 L215.714875,11.89398 L215.517448,11.9913152 L215.225105,12.0867413 L214.928965,12.3844723 L214.646114,12.7738121 L213.860206,13.4608829 L212.108047,15.0277889 L211.03929,15.8141015 L209.773101,16.3962034 L209.678184,16.4973558 L208.797358,16.7931778 L208.797357,16.6939344 L208.78217,16.6939344 L208.782174,16.693925 Z M207.6166,19.6292432 L207.81023,19.6292432 L208.00386,19.7246701 L208.588546,20.0204921 L209.951545,20.6083195 L210.338804,20.7037456 L210.540027,20.8984159 L210.733657,21.10072 L210.83237,21.291573 L210.733657,21.4900606 L210.633045,21.6809136 L210.338804,22.1733141 L209.757915,22.8584766 L209.366859,23.2478164 L208.979599,23.6447908 L208.588543,23.9348873 L208.100672,24.2307092 L207.618496,24.4253795 L207.22744,24.526532 L206.836384,24.526532 L206.638957,24.526532 L206.544041,24.4253795 L206.449125,24.3261361 L206.350412,24.23071 L206.246004,23.3470599 L206.246004,22.3698903 L206.350412,21.2896639 L206.544042,20.1159182 L206.544042,20.0204921 L206.638958,19.9174314 L206.931301,19.7227611 L207.616598,19.6292432 L207.616598,19.6292432 L207.6166,19.6292432 Z M208.393014,8.26969758 L208.586644,7.97387562 L208.878987,7.48529162 L209.266246,7.19328618 L209.661099,6.99861588 L210.04646,6.89937247 L210.335006,6.99861588 L210.536229,7.09213373 L210.629247,7.19328618 L210.729859,7.38795647 L210.729859,7.68568747 L210.729859,7.97578388 L210.729859,8.96058178 L210.629247,10.1305095 L210.435617,11.0122506 L210.23819,11.8023813 L210.04456,12.287148 L209.945847,12.478001 L209.752217,12.6764886 L209.361161,13.1669809 L208.973902,13.4608946 L207.707713,14.3445447 L207.510286,14.3445447 L207.413471,14.539215 L207.219841,14.4418799 L207.117331,14.3464538 L207.020516,14.1517835 L207.020516,13.8559615 L207.117331,13.6612912 L207.219841,13.4628036 L207.314757,13.2681333 L207.610897,12.9742196 L208.288601,12.2890571 L209.260549,11.4130431 L209.94205,10.6229123 L210.137578,10.3289986 L210.234393,10.1343283 L210.234393,9.93965804 L210.234393,9.64765259 L210.137578,9.449165 L210.040763,9.35373889 L209.847133,9.25640374 L209.552892,9.16097763 L208.970104,9.25640374 L208.480335,9.45107404 L207.609002,9.9415663 L207.411575,9.9415663 L207.411575,9.84423115 L207.411575,9.74880504 L207.411575,9.45107404 L207.609002,9.16097763 L207.89565,8.77163782 L208.393013,8.26969446 L208.393013,8.26969446 L208.393014,8.26969758 Z M225.827258,22.465371 L225.925972,22.5646144 L225.925972,22.6600405 L226.112009,22.7611929 L226.313232,22.7611929 L226.795408,22.7611929 L227.190261,22.6600405 L228.065391,22.3718523 L228.551364,22.1733647 L228.938624,21.879451 L229.333477,21.5874456 L229.722635,21.1961967 L230.500948,20.4156112 L230.595864,20.1178802 L230.595864,19.7247231 L230.694578,19.4346267 L230.892004,19.0414696 L231.176754,18.5509773 L231.37418,18.2608809 L231.668421,17.8639065 L231.863949,17.6654189 L232.057579,17.7684796 L232.158191,17.8639057 L232.251209,18.058576 L232.251209,18.2608801 L232.355617,19.0433747 L232.450534,20.0224533 L232.355617,20.6102807 L232.251209,23.4520802 L232.158191,25.50184 L232.057579,25.9007227 L232.057579,26.1908191 L232.158191,26.3854894 L232.251209,26.583977 L232.355617,26.77483 L232.551145,26.8797989 L232.839691,26.8797989 L233.128237,26.8797989 L233.619905,26.8797989 L233.813535,26.77483 L234.010961,26.6774948 L234.107776,26.583977 L234.107776,26.4828245 L234.204591,25.9980578 L234.204591,25.309078 L234.107776,24.5284924 L234.107776,23.8452389 L234.107776,22.5684285 L234.204591,20.6121882 L234.204591,19.8220575 L234.307101,19.2380473 L234.307101,19.1349866 L234.307101,19.043377 L234.402018,18.5528848 L234.597546,16.7932206 L234.791176,15.5202284 L234.988602,14.7320067 L235.18413,14.3426668 L235.573288,13.8521746 L235.960548,13.4590175 L236.154178,13.1651038 L236.154178,12.9704335 L236.154178,12.6727025 L235.869428,12.2833627 L235.48027,11.989449 L235.186029,11.798596 L234.897483,11.5962919 L234.603242,11.5962919 L234.506427,11.5962919 L234.312797,11.5962919 L234.018556,11.798596 L233.821129,12.0848759 L233.532583,12.4742157 L233.042813,13.0696769 L232.752368,13.5563519 L232.460025,13.9533263 L232.365109,14.2396061 L232.365109,14.3426668 L232.260701,14.438093 L231.584895,15.4171716 L230.516137,16.7894026 L228.953807,18.7418327 L227.004224,20.9996229 L226.618863,21.3908717 L226.231603,21.6790599 L226.034177,21.9786991 L225.943057,22.1733694 L225.844344,22.371857 L225.844343,22.4653748 L225.827258,22.4653748 L225.827258,22.465371 Z M235.858066,8.4644193 L236.34214,8.07507949 L236.634483,7.68383064 L236.828113,7.38609964 L236.828113,7.09218594 L236.731298,6.89751564 L236.537668,6.6055102 L236.241528,6.3115965 L235.757454,5.82110424 L234.979141,5.33633754 L234.686798,5.14166724 L234.493168,5.14166724 L234.394455,5.14166724 L234.197029,5.33633754 L233.904686,5.62643394 L233.614241,6.01577454 L232.834029,7.09409186 L231.955101,8.76596369 L231.17489,9.93589139 L230.692714,10.8176325 L230.402269,11.5047033 L230.305454,11.8005253 L230.305454,11.8921349 L230.305454,12.1879568 L230.500982,12.4742367 L230.89014,12.6727243 L231.085668,12.5772982 L231.372316,12.3826279 L231.862086,11.9894708 L232.351855,11.5027958 L232.6423,11.3043082 L233.02956,10.9092421 L234.301438,10.02941 L234.495068,9.83473973 L234.688698,9.54464332 L234.981041,9.24882136 L235.176569,9.15339525 L235.373995,8.95872495 L235.66444,8.662903 L235.85807,8.46441618 L235.85807,8.46441618 L235.858066,8.4644193 Z M242.08839,12.6727305 L241.209462,12.8674008 L240.533656,13.0697049 L239.753444,13.1632228 L239.164961,13.1632228 L238.876415,13.1632228 L238.682785,13.2643752 L237.215374,13.6575323 L236.928726,13.6575323 L236.638281,13.7510502 L236.541466,13.9533543 L236.442753,14.2396342 L236.541466,14.4381218 L236.638281,14.6366094 L236.735096,14.9267058 L236.930624,15.2244368 L237.217272,15.6137766 L237.517208,16.1061771 L237.517208,16.199695 L237.710838,16.199695 L238.196811,16.2989384 L238.878312,16.0050247 L239.656624,15.7130192 L240.535552,15.4191055 L241.511297,15.1232836 L242.483245,15.0278575 L243.356476,15.0278575 L243.846246,15.0278575 L244.237302,15.1232836 L244.334117,15.2263443 L244.531543,15.6156841 L244.725173,16.2035115 L244.821988,16.9898241 L245.015618,17.7704097 L245.015618,18.4574805 L245.015618,19.238066 L245.213044,20.7076346 L245.213044,22.0760475 L245.306062,23.4540056 L245.306062,24.7231799 L245.213044,25.2117639 L245.116229,25.4102514 L244.821988,25.6049217 L244.434728,25.7022569 L244.04557,25.7022569 L243.455189,25.7022569 L242.777485,25.6049217 L242.094086,25.5037693 L241.215158,25.311008 L240.338129,25.0170943 L239.950869,25.0170943 L239.466795,24.9178509 L239.170655,24.7231806 L238.584071,24.5266021 L238.193014,24.4254496 L238.092403,24.4254496 L238.092403,24.5266021 L238.092403,24.6201199 L238.193014,24.8166985 L238.287931,25.0151861 L238.584071,25.2117646 L239.16496,25.7976838 L240.041989,26.3874194 L240.727287,27.072582 L241.308176,27.3626784 L242.282023,27.7577445 L243.451395,28.1528107 L245.009927,28.6375774 L246.957612,29.1261614 L247.441686,29.3265572 L247.735927,29.3265572 L247.929557,29.3265572 L248.126983,29.2215883 L248.223798,29.026918 L248.322511,28.836065 L247.838437,25.6011052 L247.737825,24.7212732 L247.737825,24.3281161 L247.838437,17.8639236 L247.838437,15.6137696 L247.931455,15.5202517 L248.128881,14.928607 L248.324409,14.7320285 L248.518039,14.6385106 L248.719262,14.440023 L249.007808,14.440023 L249.302049,14.3445969 L249.689309,14.3445969 L250.661257,14.440023 L251.82873,14.6385106 L252.316601,14.6385106 L252.605147,14.5373582 L252.899388,14.3426879 L252.899388,14.2396272 L253,14.1480176 L253,13.8521956 L252.899388,13.1651248 L252.80637,12.8693029 L252.705758,12.4761458 L252.314702,11.800526 L251.730016,11.1134552 L251.33896,11.0103945 L250.759969,11.0103945 L250.175283,11.0103945 L249.491884,11.0103945 L248.616754,11.1134552 L247.735927,11.2126986 L245.691425,11.5027951 L245.300369,11.5963129 L244.71948,11.6955563 L244.039877,11.8902266 L242.088394,12.6727212 L242.088394,12.6727212 L242.08839,12.6727305 Z M248.028269,8.16859656 L248.318714,7.97392627 L248.419326,7.77925597 L248.512344,7.58076838 L248.616752,7.38609808 L248.512344,7.09218438 L248.419326,6.80399623 L248.318714,6.31159572 L248.123186,5.82110346 L247.92576,5.72567735 L247.73213,5.53100705 L247.534704,5.53100705 L247.244259,5.42794635 L246.659573,5.53100705 L245.788241,5.82110346 L242.862912,6.80590137 L241.890964,7.09408952 L241.012037,7.29257711 L240.328637,7.38800322 L239.844563,7.48724663 L239.649035,7.58267274 L239.554118,7.68573344 L239.455405,7.78115955 L239.455405,7.97582985 L239.455405,8.17050014 L239.554118,8.36517044 L239.747748,9.05224125 L239.844563,9.15530195 L240.038193,9.9358875 L240.140703,10.1305578 L240.23562,10.3252281 L240.425453,10.4263805 L240.626676,10.4263805 L241.207565,10.3252281 L241.987777,10.2317102 L244.231603,10.1324668 L245.008017,9.64579187 L245.689518,9.35187817 L246.661465,8.96253835 L248.028262,8.16858955 L248.028262,8.16858955 L248.028269,8.16859656 Z M65.6215786,43.6310145 L67.7685947,43.6310145 L66.6960399,40.7987524 L65.6215786,43.6310145 L65.6215786,43.6310145 L65.6215786,43.6310145 Z M65.7221905,39.1287896 L67.6717742,39.1287896 L70.6901228,46.3754766 L68.740539,46.3754766 L68.2545661,44.9059081 L65.1375091,44.9059081 L64.5490262,46.3754766 L62.7000497,46.3754766 L65.7221959,39.1287896 L65.7221959,39.1287896 L65.7221905,39.1287896 Z M77.5070549,41.3789436 L77.4121387,41.1842733 L77.3115268,40.9857858 L77.1159988,40.6956893 L77.0172858,40.5964459 L76.8236558,40.4991108 L76.5313128,40.3006232 L76.0415437,40.2071054 L75.5574696,40.2071054 L75.0677005,40.2071054 L74.5817275,40.3006232 L74.3899964,40.4017756 L74.1944683,40.4991108 L73.8053103,40.7968418 L73.5129673,41.1842733 L73.3174393,41.6766746 L73.2187263,42.2549592 L73.2187263,42.8523294 L73.2187263,43.4382486 L73.4123562,44.0241677 L73.5129681,44.2226553 L73.6078843,44.4173256 L73.7084961,44.6158132 L73.9021261,44.8143008 L74.2893853,45.0089711 L74.6823401,45.2036414 L75.0695993,45.3086104 L75.5593684,45.3086104 L75.9466275,45.3086104 L76.3338875,45.1960068 L76.5313143,45.1960068 L76.7249443,45.102489 L77.0172873,44.9040014 L77.2128153,44.6100877 L77.4121403,44.316174 L77.6057702,44.0222603 L77.7006864,43.7283466 L75.7530015,43.7283466 L75.7530015,42.4572633 L79.2611175,42.4572633 L79.2611175,46.3754789 L78.0898467,46.3754789 L77.8962167,45.4956468 L77.4140406,45.9842308 L77.0191877,46.2743273 L76.6300297,46.3754797 L76.2408717,46.57015 L75.7530007,46.57015 L75.2632316,46.57015 L74.8740736,46.57015 L74.4887125,46.57015 L74.0995545,46.4804487 L73.7103965,46.3754797 L73.4142566,46.1769921 L73.1238117,46.079657 L72.5372276,45.5948903 L72.2448846,45.3009765 L72.0512546,45.102489 L71.8557266,44.7074228 L71.6582997,44.4135091 L71.5652817,44.0222603 L71.4646698,43.6310114 L71.3659567,43.2397626 L71.3659567,42.852331 L71.3659567,42.363747 L71.4646698,41.9686809 L71.5652817,41.5736147 L71.6582997,41.1861832 L71.8557266,40.8922695 L72.0512546,40.5983558 L72.2448846,40.3044421 L72.5372276,40.0105284 L72.8314687,39.7204319 L73.1238117,39.5257617 L73.8072107,39.1306955 L74.1963687,39.0333604 L74.5836279,38.9322079 L75.4587581,38.9322079 L76.2427674,38.9322079 L76.9223696,39.1306955 L77.3134257,39.2318479 L77.6057687,39.317732 L78.0879447,39.615463 L78.5777138,40.0067118 L78.8700568,40.401778 L78.964973,40.5964483 L79.0655849,40.890362 L79.2592148,41.378946 L77.5070556,41.3789459 L77.5070556,41.3789459 L77.5070549,41.3789436 Z M82.763531,40.4017707 L82.763531,42.3618325 L84.7131162,42.3618325 L85.2959042,42.2530463 L85.5863491,42.2530463 L85.8805902,42.0660106 L86.0761182,41.867523 L86.1748313,41.6728527 L86.1748313,41.378939 L86.1748313,41.0850253 L86.0761183,40.7987454 L85.8805903,40.5983495 L85.6850622,40.5010144 L85.2959043,40.4036792 L84.8080332,40.4036792 L82.763531,40.4036792 L82.763531,40.4017707 L82.763531,40.4017707 Z M86.5620927,39.3177297 L86.7576208,39.4226986 L86.9512507,39.5238511 L87.1467788,39.6173689 L87.3442056,39.8158565 L87.6346506,40.1097702 L87.7314655,40.4036839 L87.9288924,40.79875 L87.9288924,41.1861816 L87.8301794,41.6785829 L87.6346513,42.1633496 L87.4410214,42.4572633 L87.2454933,42.6576592 L86.9512523,42.751177 L86.6589093,42.94203 L87.1467803,43.1462431 L87.3442072,43.3409134 L87.4410221,43.5355837 L87.6346521,44.0241677 L87.7314671,44.3180814 L87.7314671,44.6119951 L87.7314671,45.1043964 L87.7314671,45.789559 L87.8301801,46.0796554 L88.1225231,46.2743257 L88.1225231,46.3754781 L86.0761221,46.3754781 L85.9755102,45.9842293 L85.9755101,45.6922238 L85.9755101,45.3906763 L85.8805939,44.7093311 L85.8805939,44.4135091 L85.8805939,44.1195954 L85.779982,43.9249251 L85.5863521,43.82759 L85.4914359,43.6291024 L85.1971949,43.6291024 L84.9048518,43.5317672 L84.5156939,43.5317673 L82.7635346,43.5317673 L82.7635346,46.3716578 L81.0113754,46.3716578 L81.0113754,39.1249708 L85.1971972,39.1249708 L85.9736112,39.1249708 L86.5620941,39.3177321 L86.5620941,39.3177321 L86.5620927,39.3177297 Z M91.0421563,46.3735675 L89.2880983,46.3735675 L89.2880983,39.1268805 L91.0421563,39.1268805 L91.0421563,46.3735675 L91.0421563,46.3735675 Z M93.5745272,39.8139467 L93.8668703,39.6154591 L94.1573152,39.4207888 L94.4496582,39.3158198 L94.7438993,39.2261185 L95.4254003,39.0276309 L95.8183552,38.9264785 L96.2056143,38.9264785 L96.6953834,38.9264785 L97.1832544,39.0276309 L97.6654305,39.1249661 L98.0583854,39.2261185 L98.4456446,39.4207888 L98.7360895,39.6154591 L98.9335164,39.7166115 L99.0284325,39.9150991 L99.2239605,40.008617 L99.3207755,40.2090128 L99.6169154,40.4991092 L99.7099335,40.8903581 L99.9073611,41.1842718 L99.9073611,41.5717033 L98.1571,41.5717033 L97.96347,41.0831193 L97.6673301,40.6956878 L97.4737002,40.4972002 L97.0845422,40.3998651 L96.6953842,40.2987126 L96.3024293,40.2987126 L95.8202532,40.2987126 L95.4272983,40.3998651 L95.0381403,40.5945353 L94.8426123,40.7949312 L94.7457973,40.8884491 L94.4515563,41.2796979 L94.3566401,41.7644646 L94.261724,42.2530486 L94.159214,42.8504189 L94.261724,43.436338 L94.3566401,43.924922 L94.5521681,44.3161708 L94.7457981,44.7074197 L95.1349561,45.0013334 L95.4272991,45.1960037 L95.820254,45.3009727 L96.3024301,45.3009727 L96.695385,45.3009727 L97.0845429,45.1960037 L97.4737009,45.0013334 L97.6673309,44.8066631 L97.9634708,44.411597 L98.1571008,43.923013 L99.9073611,43.923013 L99.7099343,44.5165659 L99.5163043,45.0013326 L99.1290452,45.4937339 L98.9335171,45.6922215 L98.7360903,45.8868918 L98.4456453,46.0815621 L98.2520154,46.1788972 L97.6654313,46.4804448 L97.3730883,46.4804448 L96.9820322,46.5701461 L96.3005312,46.6674812 L95.8183552,46.5701461 L95.4254003,46.5701461 L95.0362423,46.4804448 L94.6470843,46.3754758 L94.3547413,46.2743234 L93.9636852,46.0796531 L93.6751391,45.8849828 L93.3846942,45.5948864 L92.9917393,45.1024851 L92.7962113,44.7074189 L92.6025813,44.4135052 L92.5038683,44.0222564 L92.4051552,43.6310075 L92.4051552,43.2397587 L92.4051552,42.8523271 L92.4051552,42.3637431 L92.4051552,41.8713418 L92.5038683,41.4724592 L92.6993963,41.0850276 L92.7962113,40.7987477 L93.0885543,40.4036816 L93.2840823,40.1097679 L93.5745272,39.8139459 L93.5745272,39.8139459 L93.5745272,39.8139467 Z M101.268465,39.1287841 L103.022523,39.1287841 L103.022523,43.6310091 L103.119338,44.2207447 L103.216153,44.5184757 L103.216153,44.7093287 L103.311069,44.8104812 L103.508496,45.0051515 L103.797042,45.1998218 L104.188098,45.3047907 L104.672172,45.3047907 L105.160043,45.3047907 L105.549201,45.1998218 L105.841544,45.0051515 L106.037072,44.7112378 L106.133887,44.5203848 L106.230702,44.2226538 L106.230702,43.6310091 L106.230702,39.1287841 L108.083477,39.1287841 L108.083477,43.6310091 L108.083477,44.1195931 L107.98856,44.6119944 L107.791134,45.1043957 L107.694319,45.3906756 L107.401976,45.6922231 L107.204549,45.9823195 L106.81729,46.1769898 L106.524947,46.2743249 L106.131992,46.4785381 L105.647918,46.5682394 L105.160047,46.5682394 L104.672175,46.5682394 L104.093184,46.5682394 L103.601517,46.5682394 L103.214257,46.4785381 L102.823201,46.2743249 L102.432145,46.1769898 L102.1417,45.9823195 L101.849357,45.6922231 L101.653829,45.3906756 L101.460199,45.1043957 L101.361486,44.6119944 L101.264671,44.1195931 L101.264671,43.6310091 L101.264671,39.1287841 L101.268468,39.1287841 L101.268465,39.1287841 Z M109.738817,39.1287841 L111.496673,39.1287841 L111.496673,45.1043957 L115.678697,45.1043957 L115.678697,46.3754789 L109.738817,46.3754789 L109.738817,39.1287841 L109.738817,39.1287841 L109.738817,39.1287841 Z M122.207037,39.1287841 L122.207037,40.4036855 L119.672759,40.4036855 L119.672759,46.3754789 L117.922499,46.3754789 L117.922499,40.4036855 L115.392027,40.4036855 L115.392027,39.1287841 L122.207037,39.1287841 L122.207037,39.1287841 L122.207037,39.1287841 Z M123.277685,39.1287841 L125.126662,39.1287841 L125.126662,43.6310091 L125.126662,44.2207447 L125.225375,44.5184757 L125.320291,44.7093287 L125.420903,44.8104812 L125.517718,45.0051515 L125.808163,45.1998218 L126.197321,45.3047907 L126.68709,45.3047907 L127.174961,45.3047907 L127.56222,45.1998218 L127.856461,45.0051515 L128.145007,44.7112378 L128.145007,44.5203848 L128.241822,44.2226538 L128.340535,43.6329181 L128.340535,39.1306932 L130.092694,39.1306932 L130.092694,43.6329181 L130.092694,44.1215021 L129.997778,44.6139034 L129.899065,45.1063047 L129.701638,45.3925846 L129.508008,45.6941321 L129.217563,45.9842285 L128.92522,46.1788988 L128.537961,46.276234 L128.146905,46.4804471 L127.759646,46.5701484 L127.271775,46.5701484 L126.687089,46.5701484 L126.19732,46.5701484 L125.711347,46.5701484 L125.225374,46.4804471 L124.834318,46.276234 L124.540077,46.1788988 L124.150919,45.9842285 L123.955391,45.6941321 L123.663048,45.3925846 L123.568132,45.1063047 L123.370705,44.6139034 L123.275789,44.1215021 L123.275789,43.6310099 L123.275789,39.1287841 L123.277687,39.1287841 L123.277685,39.1287841 Z M133.597034,40.4017731 L133.597034,42.3618349 L135.548519,42.3618349 L136.129408,42.2530486 L136.524261,42.2530486 L136.717891,42.0660129 L136.911521,41.8675253 L137.010234,41.672855 L137.010234,41.3789413 L137.010234,41.0850276 L136.911521,40.7987477 L136.717891,40.5983519 L136.524261,40.5010167 L136.129408,40.4036816 L135.645334,40.4036816 L133.597034,40.4036816 L133.597034,40.4017731 L133.597034,40.4017731 Z M137.401293,39.317732 L137.593025,39.422701 L137.788553,39.5238534 L137.982183,39.6173712 L138.177711,39.8158588 L138.466257,40.1097725 L138.663684,40.4036862 L138.764295,40.7987524 L138.764295,41.1861839 L138.764295,41.6785852 L138.466258,42.1633519 L138.272628,42.4572656 L138.078998,42.6576615 L137.788553,42.7511793 L137.500007,42.9420323 L137.982183,43.1462455 L138.177711,43.3409158 L138.274526,43.5355861 L138.468156,44.0241701 L138.574462,44.3180838 L138.574462,44.6119975 L138.574462,45.1043988 L138.574462,45.7895613 L138.768092,46.0796577 L138.961722,46.274328 L138.961722,46.3754805 L137.015936,46.3754805 L136.820408,45.9842316 L136.820408,45.6922262 L136.820408,45.3906787 L136.820408,44.7093334 L136.723593,44.4154197 L136.723593,44.121506 L136.626778,43.9268357 L136.429351,43.8295006 L136.334435,43.631013 L136.038295,43.631013 L135.74785,43.5336778 L135.455507,43.5336778 L133.602733,43.5336778 L133.602733,46.3735683 L131.850574,46.3735683 L131.850574,39.1268813 L136.038295,39.1268813 L136.818506,39.1268813 L137.401294,39.3177343 L137.401294,39.3177343 L137.401293,39.317732 Z M142.661569,43.6310091 L144.800989,43.6310091 L143.722738,40.7987469 L142.661569,43.6310091 L142.661569,43.6310091 L142.661569,43.6310091 Z M142.754587,39.1287841 L144.698474,39.1287841 L147.722519,46.3754711 L145.771037,46.3754711 L145.283166,44.9059026 L142.166109,44.9059026 L141.585219,46.3754711 L139.728655,46.3754711 L142.754592,39.1287841 L142.754592,39.1287841 L142.754587,39.1287841 Z M148.795066,39.1287841 L150.547233,39.1287841 L150.547233,45.1043957 L154.829864,45.1043957 L154.829864,46.3754789 L148.795066,46.3754789 L148.795066,39.1287841 L148.795066,39.1287841 L148.795066,39.1287841 Z M160.769744,40.4017764 L160.769744,41.9667734 L162.911064,41.9667734 L163.402732,41.9667734 L163.788093,41.7663775 L163.983621,41.6766762 L164.086131,41.5717072 L164.086131,41.378946 L164.177251,41.1842757 L164.086131,40.890362 L164.086131,40.6956917 L163.888704,40.5945392 L163.695074,40.4972041 L163.211,40.3998689 L162.719332,40.3998689 L160.769744,40.3998689 L160.769744,40.4017776 L160.769744,40.4017764 Z M160.769744,43.2397579 L160.769744,45.1043957 L162.911064,45.1043957 L163.402732,45.1043957 L163.788093,45.0032432 L163.983621,44.9059081 L164.177251,44.7074205 L164.283558,44.4135068 L164.380373,44.1195931 L164.283558,43.8294967 L164.177251,43.6310091 L163.983621,43.4363388 L163.788093,43.3390036 L163.402732,43.2378512 L162.911064,43.2378512 L160.769744,43.2378512 L160.769744,43.2397599 L160.769744,43.2397579 Z M165.445333,39.9150968 L165.638963,40.1097671 L165.737676,40.4036808 L165.832593,40.6975945 L165.832593,40.9876909 L165.832593,41.2816046 L165.737676,41.571701 L165.638963,41.869432 L165.445333,42.0679196 L165.15299,42.2549553 L164.761934,42.4553511 L165.15299,42.655747 L165.350417,42.7492649 L165.638963,42.9401179 L165.737676,43.144331 L165.931306,43.3390013 L166.031918,43.6290977 L166.130631,43.9230114 L166.130631,44.2169251 L166.130631,44.5146561 L166.031918,44.8047525 L165.931306,45.0986662 L165.737676,45.3849461 L165.447232,45.6864936 L165.154889,45.97659 L164.668916,46.1712603 L164.17535,46.2685955 L163.59446,46.3697479 L163.005978,46.3697479 L159.118195,46.3697479 L159.118195,39.1230609 L163.2072,39.1230609 L163.979821,39.1230609 L164.277859,39.2242134 L164.566405,39.3139147 L165.048581,39.5181278 L165.249804,39.7127981 L165.445332,39.9151022 L165.445332,39.9151022 L165.445333,39.9150968 Z M169.929195,43.6310091 L172.068615,43.6310091 L170.999858,40.7987469 L169.929195,43.6310091 L169.929195,43.6310091 L169.929195,43.6310091 Z M170.020315,39.1287841 L172.068615,39.1287841 L174.988247,46.3754711 L173.137372,46.3754711 L172.552686,44.9059026 L169.43373,44.9059026 L168.849044,46.3754711 L167.001966,46.3754711 L170.020315,39.1287841 L170.020315,39.1287841 L170.020315,39.1287841 Z M176.062701,39.1287841 L177.913576,39.1287841 L181.322976,44.2207455 L181.322976,39.1287841 L182.972629,39.1287841 L182.972629,46.3754711 L181.22047,46.3754711 L177.714253,41.18618 L177.714253,46.3754711 L176.062701,46.3754711 L176.062701,39.1287841 L176.062701,39.1287841 L176.062701,39.1287841 Z M184.626057,39.1287841 L186.383912,39.1287841 L186.383912,42.0698302 L189.690806,39.1287841 L191.934632,39.1287841 L188.428415,42.0698302 L192.128259,46.3754711 L189.882534,46.3754711 L187.259043,43.2397579 L186.382013,43.9249204 L186.382013,46.3735675 L184.624158,46.3735675 L184.624158,39.1287841 L184.626056,39.1287841 L184.626057,39.1287841 Z M201.866699,44.6119889 L202.060329,44.3180752 L202.257756,43.8294912 L202.451385,43.3409072 L202.451385,42.7511716 L202.451385,42.1614359 L202.257755,41.6766692 L202.060329,41.1842679 L201.965412,40.9857803 L201.866699,40.8884452 L201.673069,40.6937749 L201.477541,40.4952873 L201.09218,40.2967997 L200.697327,40.2032818 L200.215151,40.2032818 L199.626668,40.2032818 L199.235612,40.2967997 L199.041982,40.3979521 L198.844556,40.4952873 L198.650926,40.6937749 L198.453499,40.7949273 L198.166851,41.1823589 L197.971323,41.6747601 L197.868813,42.1595269 L197.868813,42.7492625 L197.868813,43.3389982 L197.971323,43.8275822 L198.166851,44.3161662 L198.360481,44.516562 L198.455397,44.6100799 L198.652824,44.8085675 L198.846454,44.9059026 L199.23751,45.195999 L199.628566,45.300968 L200.217049,45.300968 L200.699225,45.300968 L201.094078,45.195999 L201.287708,45.1024812 L201.481338,44.9039936 L201.676866,44.8066584 L201.866699,44.6119881 L201.866699,44.6119881 L201.866699,44.6119889 Z M202.935456,45.7895528 L202.64691,45.9842231 L202.449483,46.1788933 L201.769881,46.3773809 L200.989669,46.5720512 L200.217048,46.6693864 L199.33812,46.5720512 L198.945165,46.4823499 L198.557906,46.3773809 L197.872608,46.1788933 L197.678978,45.9842231 L197.386635,45.7895528 L197.099987,45.4956391 L196.801949,45.1959998 L196.608319,44.8085682 L196.414689,44.5184718 L196.315976,44.1195892 L196.219161,43.6310052 L196.122346,43.2397563 L196.122346,42.7511723 L196.122346,42.2549545 L196.219161,41.7663705 L196.315976,41.378939 L196.414689,40.9876901 L196.608319,40.5964413 L196.801949,40.3025276 L197.098089,40.0086139 L197.384737,39.7185175 L197.67708,39.5238472 L197.87071,39.319634 L198.556008,39.128781 L199.33622,38.9302934 L200.215147,38.8329583 L200.987769,38.9302934 L201.378825,39.0314459 L201.767983,39.128781 L202.447585,39.319634 L202.645012,39.5238472 L202.933558,39.7185175 L203.227799,40.0086139 L203.520142,40.3025276 L203.71567,40.5964413 L203.9093,40.9876901 L204.008013,41.378939 L204.102929,41.7663705 L204.201642,42.2549545 L204.201642,42.7511723 L204.201642,43.2397563 L204.102929,43.6310052 L204.008013,44.1195892 L203.9093,44.5184718 L203.71567,44.8085682 L203.520142,45.1959998 L203.227799,45.4937308 L202.935456,45.7895528 L202.935456,45.7895528 L202.935456,45.7895528 Z M205.566543,39.1287841 L211.610827,39.1287841 L211.610827,40.4036855 L207.320601,40.4036855 L207.320601,42.0698302 L211.022344,42.0698302 L211.022344,43.3409134 L207.320601,43.3409134 L207.320601,46.3754789 L205.566543,46.3754789 L205.566543,39.1287841 L205.566543,39.1287841 L205.566543,39.1287841 Z M216.867321,39.8139467 L217.155867,39.6154591 L217.446312,39.4207888 L217.738655,39.3158198 L218.032896,39.2261185 L218.712498,39.0276309 L219.101656,38.9264785 L219.488915,38.9264785 L220.077398,38.9264785 L220.468454,39.0276309 L220.954427,39.1249661 L221.341686,39.2261185 L221.727047,39.4207888 L222.1219,39.6154591 L222.220613,39.7166115 L222.414243,39.9150991 L222.511058,40.008617 L222.607873,40.2090128 L222.905911,40.4991092 L223.099541,40.8903581 L223.194457,41.1842718 L223.194457,41.5717033 L221.440399,41.5717033 L221.246769,41.0831193 L221.053139,40.6956878 L220.758898,40.4972002 L220.367842,40.3998651 L219.980583,40.2987126 L219.58573,40.2987126 L219.103554,40.2987126 L218.714396,40.3998651 L218.32334,40.5945353 L218.226525,40.7949312 L218.032895,40.8884491 L217.835468,41.2796979 L217.638041,41.7644646 L217.545023,42.2530486 L217.545023,42.8504189 L217.545023,43.436338 L217.638041,43.924922 L217.835468,44.3161708 L218.127811,44.7074197 L218.418256,45.0013334 L218.710599,45.1960037 L219.196572,45.3009727 L219.581933,45.3009727 L219.976786,45.3009727 L220.364045,45.1960037 L220.755101,45.0013334 L221.049342,44.8066631 L221.242972,44.411597 L221.436602,43.923013 L223.19066,43.923013 L223.095744,44.5165659 L222.801503,45.0013326 L222.50916,45.4937339 L222.220614,45.6922215 L222.023187,45.8868918 L221.82576,46.0815621 L221.539112,46.1788972 L220.954426,46.4804448 L220.662083,46.4804448 L220.271027,46.5701461 L219.585729,46.6674812 L219.200368,46.5701461 L218.714395,46.5701461 L218.323339,46.4804448 L217.93608,46.3754758 L217.63994,46.2743234 L217.349495,46.0796531 L216.964134,45.8849828 L216.762911,45.5948864 L216.280735,45.1024851 L216.087105,44.7074189 L215.988392,44.4135052 L215.794762,44.0222564 L215.794762,43.6310075 L215.697947,43.2397587 L215.697947,42.8523271 L215.697947,42.3637431 L215.794762,41.8713418 L215.891577,41.4724592 L215.988392,41.0850276 L216.182022,40.7987477 L216.375652,40.4036816 L216.57118,40.1097679 L216.867319,39.8139459 L216.867319,39.8139459 L216.867321,39.8139467 Z M224.557461,46.3735675 L224.557461,39.1268805 L226.313418,39.1268805 L226.313418,41.8713504 L229.620312,41.8713504 L229.620312,39.1268805 L231.372471,39.1268805 L231.372471,46.3735675 L229.620312,46.3735675 L229.620312,43.1462439 L226.313418,43.1462439 L226.313418,46.3735675 L224.557461,46.3735675 L224.557461,46.3735675 L224.557461,46.3735675 Z M234.686929,46.3735675 L232.930972,46.3735675 L232.930972,39.1268805 L234.686929,39.1268805 L234.686929,46.3735675 L234.686929,46.3735675 Z M236.342271,39.1287896 L238.193146,39.1287896 L241.507635,44.220751 L241.507635,39.1287896 L243.157289,39.1287896 L243.157289,46.3754766 L241.401332,46.3754766 L237.999519,41.1861855 L237.999519,46.3754766 L236.342271,46.3754766 L236.342271,39.1287896 L236.342271,39.1287896 L236.342271,39.1287896 Z M247.151367,43.6310145 L249.298383,43.6310145 L248.22203,40.7987524 L247.151367,43.6310145 L247.151367,43.6310145 L247.151367,43.6310145 Z M247.246284,39.1287896 L249.298381,39.1287896 L252.312932,46.3754766 L250.369037,46.3754766 L249.784351,44.9059081 L246.661598,44.9059081 L246.07881,46.3754766 L244.229833,46.3754766 L247.246283,39.1287896 L247.246283,39.1287896 L247.246284,39.1287896 Z"/>
</svg>
