<svg xmlns="http://www.w3.org/2000/svg" width="172" height="36" viewBox="0 0 172 36">
  <path fill="#FFF" d="M16.2611092,0.0777816011 L17.0909413,0 L17.9194824,0 L18.7467326,0 L19.5004223,0.0777816011 L19.5004223,10.8129562 L19.5004223,11.1150083 L19.4255697,11.190197 L19.3507171,11.3431674 L19.2732832,11.3431674 L19.199721,11.4170599 L18.9725813,11.4922486 L16.8650883,11.4922486 L16.64053,11.4170599 L16.5618058,11.3431674 L16.4095193,11.3431674 L16.4095193,11.190197 L16.3359571,11.1150083 L16.2598136,10.8129562 L16.2598136,0.0777816011 L16.2611041,0.0777816011 L16.2611092,0.0777816011 Z M23.866397,17.9209056 L23.866397,23.0661584 L23.866397,23.294318 L23.7915444,23.4433992 L23.7141105,23.5198847 L23.6392579,23.6689659 L23.4908431,23.6689659 L23.3385566,23.7480437 L23.035274,23.8219362 L19.8772618,23.8219362 L19.8772618,32.2936478 L20.5522271,32.1393807 L21.2310652,32.0654882 L21.8324699,31.8399215 L22.4364564,31.6882474 L22.7358673,31.6143548 L23.0339879,31.4600878 L23.6379744,31.2345211 L24.24067,30.9285799 L24.7697997,30.6304168 L25.3699135,30.3270685 L25.8977523,30.0263131 L26.3481593,29.6490723 L26.8759981,29.2718314 L27.8555385,28.438273 L28.3072364,27.9819544 L28.6840813,27.5256358 L29.1357792,27.001906 L29.512624,26.5429945 L29.8894688,26.0166724 L30.1901706,25.4851667 L30.4895815,24.8849515 L30.7928641,24.3534457 L31.0909846,23.7480437 L31.3168333,23.1426417 L31.6962594,21.9292496 L31.9208178,21.3290344 L31.9956704,20.6458513 L32.1479568,20.0404493 L32.2241003,19.362453 L32.2989529,17.999977 L32.2241003,16.9434437 L32.1479568,16.4132346 L32.1479568,15.8791355 L31.9208172,14.8264923 L31.6214063,13.7647722 L31.4691198,13.3110459 L31.3168333,12.8547273 L30.9425693,11.8733817 L30.4147305,10.965927 L29.9630326,10.057181 L29.3616279,9.30270034 L28.6840807,8.46914194 L28.0052427,7.7146613 L27.252844,7.03277493 L26.5017362,6.42866963 L25.6706132,5.82456432 L24.7697971,5.29305857 L23.8651135,4.8393323 L23.8651135,17.0160713 L23.8651135,17.2442309 L23.7902609,17.3907198 L23.712827,17.4697976 L23.6379744,17.6188788 L23.4895596,17.6953643 L23.3372731,17.6953643 L23.0339905,17.7718497 L18.8202954,17.7718497 L18.5944467,17.7718497 L18.5195941,17.8457422 L18.4434506,17.9222277 L18.4434505,12.705672 L18.519594,12.5527017 L18.5944466,12.4036204 L18.7441524,12.3297278 L18.8964388,12.3297278 L20.778081,12.3297278 L21.0787829,12.2506501 L21.3033412,12.1741646 L21.4530469,12.0976792 L21.6066243,11.8721125 L21.6066243,4.08230854 L21.6066242,1.13438686 L21.6066242,0.377312825 L23.1101307,0.831039096 L23.8638203,1.05919867 L24.5413674,1.28476537 L25.2937661,1.58422461 L25.9687315,1.97054027 L26.6475695,2.26740663 L27.2489742,2.64853653 L27.9265214,3.10355897 L28.5343754,3.47561459 L29.1357801,3.93322992 L29.6610402,4.46084873 L30.2637358,4.99235449 L30.7928655,5.51997331 L31.7698241,6.58299011 L32.2228124,7.1832053 L32.6745104,7.79120072 L33.0487744,8.47049368 L33.4282005,9.07459899 L34.1805992,10.4357783 L34.4825914,11.116368 L34.7071497,11.8721453 L35.1588476,13.309809 L35.383406,14.0655864 L35.5356925,14.8239571 L35.6131263,15.5784378 L35.7628321,16.4119962 L35.7628321,17.1651801 L35.7628321,17.9987385 L35.7628321,18.902303 L35.6879795,19.8136425 L35.6131269,20.7198005 L35.4608404,21.6259584 L35.2349917,22.4595168 L35.0104334,23.3656748 L34.7084412,24.1966398 L34.406449,24.9589006 L34.0321849,25.7872722 L33.6527588,26.5417529 L33.2036422,27.3014203 L32.7519443,28.0559009 L32.2253937,28.7364906 L31.6975549,29.4157836 L31.1684252,30.0963732 L30.5683114,30.7043687 L29.9643249,31.3097707 L29.2854869,31.8386857 L28.6079397,32.3650078 L27.9303925,32.8965135 L27.1779938,33.3502398 L26.4255951,33.8091513 L25.6719055,34.1837993 L24.8446553,34.5558549 L24.0935475,34.8643884 L23.1888639,35.1625515 L22.3616137,35.3933034 L21.5317816,35.621463 L20.627098,35.7705443 L19.7224144,35.8470297 L18.8203074,35.9209222 L17.9169094,36 L17.0122258,35.9209222 L16.1114096,35.8470297 L15.206726,35.7705443 L14.3020424,35.621463 L13.4012263,35.3933034 L12.5713942,35.1625515 L11.7415622,34.8643884 L10.913021,34.5558549 L10.1593314,34.1837993 L9.40822364,33.8091513 L8.65453403,33.3502398 L7.90342624,32.8965135 L7.22329727,32.3650078 L6.54833193,31.8386857 L5.86820297,31.3097707 L5.26938008,30.7043687 L4.66668447,30.0963732 L4.06398886,29.4157836 L3.53872871,28.7377873 L3.0857404,28.0571976 L2.63533338,27.302717 L2.18363546,26.5430496 L1.80808104,25.7885689 L1.42865494,24.9601973 L1.13053441,24.1979365 L0.827251823,23.3669715 L0.601403122,22.4608135 L0.376844803,21.6272551 L0.228429988,20.7210972 L0.0748525976,19.8149392 L0,18.9035997 L0,18.0000352 L0,17.1651801 L0.0748526503,16.4119962 L0.149705248,15.5784378 L0.301991731,14.8239571 L0.451697453,14.0655864 L0.601403175,13.309809 L1.05568186,11.8721453 L1.35509278,11.116368 L1.6545037,10.4357783 L1.95778628,9.75648536 L2.33334071,9.07589569 L2.71018551,8.47179039 L3.16059253,7.79249742 L3.61616212,7.18450201 L4.06656914,6.58428681 L4.52084783,6.05148435 L5.04610798,5.5212753 L5.5726585,4.99365649 L6.09791864,4.46215073 L7.3033046,3.55469607 L7.90729111,3.10485885 L8.50998672,2.64983641 L9.18882479,2.26870651 L9.86120831,1.97184015 L10.5413373,1.58552449 L11.2201753,1.28606525 L11.8964316,1.06049855 L12.6488303,0.832338975 L13.4038108,0.605476105 L14.1549186,0.379909409 L14.1549186,4.08490512 L14.1549186,11.8747091 L14.2284808,12.0263833 L14.3046243,12.1002758 L14.5317639,12.1767612 L14.7563222,12.2532467 L14.9821709,12.3323244 L16.865104,12.3323244 L17.0135189,12.3323244 L17.1658053,12.406217 L17.3155111,12.5552982 L17.3155111,12.7082686 L17.3155111,17.9235275 L17.1658053,17.7744463 L17.0135189,17.7744463 L12.7236813,17.7744463 L12.4216891,17.6979608 L12.2719834,17.6979608 L12.1945495,17.6214754 L12.0435534,17.4723941 L11.9699912,17.3933164 L11.9699912,17.2468275 L11.8951386,17.0186679 L11.8951386,4.84192888 L10.990455,5.29565515 L10.1619138,5.82716091 L9.33595449,6.43126621 L8.50741334,7.03537151 L7.75501464,7.71725789 L7.07617658,8.47173852 L6.47219006,9.30529693 L5.86820355,10.1349652 L5.34423431,10.9685236 L4.891246,11.8759783 L4.6653973,12.3335936 L4.51698249,12.8586195 L4.13884678,13.8425586 L3.91299808,14.8303877 L3.68843976,15.8830309 L3.61358716,16.41713 L3.61358716,16.9473391 L3.53744365,18.0038724 L3.53744365,18.6844621 L3.61358716,19.3650517 L3.68843976,19.9704537 L3.76458326,20.64845 L3.91299808,21.3316331 L4.06399418,21.9318483 L4.28726212,22.5372503 L4.36598638,22.8380057 L4.51956377,23.1439469 L4.74283171,23.7493489 L4.96997132,24.3547509 L5.57137602,25.4864718 L6.32377472,26.4691141 L6.69932914,27.0032133 L7.07617395,27.5269431 L7.52787187,27.9832617 L7.9795698,28.4395803 L8.88296776,29.2731387 L9.41080656,29.6503796 L9.9360667,30.0276204 L10.9904587,30.6330224 L11.5944452,30.9311855 L12.1184144,31.2371267 L12.7236918,31.4626934 L13.3263875,31.6908529 L14.0026437,31.8425271 L14.6066302,32.0680938 L15.2080349,32.1419863 L15.8855821,32.2962534 L15.8855821,23.8245418 L12.7236971,23.8245418 L12.4217049,23.7506493 L12.3468523,23.6715715 L12.1945658,23.6715715 L12.0435697,23.5224902 L11.9700075,23.4460048 L11.9700075,23.2969235 L11.8951549,23.068764 L11.8951549,17.9235111 L11.9700075,18.0025889 L12.0435697,18.0790743 L12.2707093,18.2333414 L12.4952676,18.3072339 L12.7224073,18.3811265 L16.8638326,18.3811265 L17.0122474,18.3811265 L17.1645339,18.4576119 L17.3142397,18.609286 L17.3142397,18.7583673 L17.3142397,23.7519481 L18.4434832,23.7519481 L18.4434832,18.7583673 L18.5196267,18.609286 L18.5944793,18.4576119 L18.744185,18.3811265 L18.8964715,18.3811265 L23.0340241,18.3811265 L23.2637445,18.3072339 L23.4895932,18.2333414 L23.7128611,18.0790743 L23.866438,17.9209188 L23.866438,17.9209188 L23.866397,17.9209056 Z M51.6303342,1.96138977 L51.5658062,1.82656801 L51.432878,1.69433913 L51.1670218,1.62692851 L50.9024558,1.49469963 L50.2429761,1.22764952 L49.249241,0.961895587 L49.0492036,1.02801003 L48.8504566,1.09412447 L48.7846377,1.22894623 L48.7162375,1.36117511 L48.6529999,1.82656854 L48.6529999,2.42289362 L48.6529999,2.75605817 L48.7162375,3.22274778 L48.7162375,4.81727033 L48.6529999,5.28395994 L48.6529999,5.48359944 L48.5845998,5.547121 L47.9883587,5.74676049 L47.1959524,6.08251792 L44.3463827,6.74495903 L43.686903,6.80977677 L43.4223371,6.80977677 L43.1538995,6.87718738 L42.9577337,6.944598 L42.8248056,7.07682688 L42.7576963,7.14683037 L42.6931684,7.27905925 L42.6247682,7.40869525 L42.6247682,7.61481668 L42.6247682,7.8118633 L42.6931684,8.07632053 L42.7576963,8.34337064 L42.8248056,8.67394231 L43.1538995,9.40768097 L43.486865,10.0727155 L43.6210841,10.401991 L43.8185407,10.671634 L44.2805633,11.4040759 L44.8755134,12.066517 L45.0084416,12.2635637 L45.671794,13.3965813 L45.7376129,13.4601029 L46.0034692,13.4601029 L46.730055,13.1295312 L47.4579318,12.9324846 L47.7212068,12.868963 L48.0554632,12.8002557 L48.583302,12.7302522 L48.8491583,12.8002557 L48.9162676,12.868963 L48.9820864,13.0647135 L49.0479053,13.5988126 L49.1137242,14.4621899 L49.1137243,15.6613236 L49.3124713,16.721747 L49.3124713,16.6595216 L49.2479434,17.9869919 L49.2479434,19.7824507 L49.1795432,20.1143191 L49.0479054,20.4487803 L48.8491584,20.7171271 L48.7833395,20.9828811 L48.8491584,21.11511 L48.9820865,21.2473388 L49.3111804,21.3821606 L49.5770367,21.3821606 L49.842893,21.3821606 L50.1087493,21.3134533 L50.7695199,21.1838173 L50.8366292,21.1838173 L50.9682669,21.11511 L51.0327949,20.9828811 L51.0327949,20.9167666 L50.8366292,19.8485683 L50.8366292,19.6515217 L50.7695199,19.3857678 L50.7011197,18.1853374 L50.7011197,16.5246988 L50.7011197,16.8565672 L50.7011197,16.7230421 L50.7695199,15.5265018 L50.9682669,12.9960077 L51.0327949,12.6006178 L51.0986138,12.4035712 L51.2328328,12.3335677 L51.4315799,12.2661571 L51.6290365,12.2661571 L52.3582041,12.1339282 L53.2848279,12.0691104 L54.2772721,12.0691104 L55.4052247,11.999107 L55.4710436,11.9368816 L55.5368625,11.6698315 L55.6026814,11.4053742 L55.6685002,11.0035024 L55.6685002,10.8712735 L55.7343191,10.6729301 L55.9356474,10.2710583 L56.3318511,9.67213979 L56.8635626,9.00969868 L56.9293815,8.81005919 L57.0623096,8.60782681 L57.2610567,8.27855132 L57.5243317,8.01409408 L57.6572598,7.94409059 L57.790188,7.81186171 L57.988935,7.74704397 L58.1863916,7.61481509 L58.3180294,7.40869367 L58.4509575,7.21035034 L58.3864296,7.14812496 L58.3864296,7.01071085 L58.1218636,6.74625362 L57.7901885,6.41308907 L57.5927318,6.28086019 L57.3939848,6.14603843 L57.1255472,6.01380955 L56.8635626,5.81417005 L56.5318874,5.67934829 L55.9369373,5.41489106 L55.4065167,5.14784095 L54.9419134,5.01561207 L54.47731,4.95079433 L54.3456723,5.01561207 L53.553266,5.01561207 L52.7595688,5.08431886 L51.1670108,5.28395835 L50.9708451,5.01690824 L50.9024449,4.68503987 L50.9024449,4.28576087 L50.9024449,3.82166362 L50.9708451,3.28886116 L50.9708451,3.02440393 L51.035373,2.82346826 L51.1011919,2.69123937 L51.2999389,2.42159639 L51.5670861,2.15454627 L51.5670861,2.02361357 L51.6303237,1.96138818 L51.6303237,1.96138818 L51.6303342,1.96138977 Z M48.8517485,10.8025826 L48.5858922,10.9399967 L48.0580535,11.0722255 L46.4022568,11.4715045 L46.3351475,11.271865 L46.2035098,11.0722255 L46.0705816,10.8725861 L46.0047627,10.6742427 L45.8718346,10.4045997 L45.8047253,9.87568475 L45.7389065,9.5425202 L45.7389065,9.14324121 L45.7389065,8.74136934 L45.8718346,8.41209384 L46.0047627,8.34468322 L46.2680383,8.20986146 L47.3959909,7.81447153 L47.8567225,7.61742491 L48.3845613,7.41130348 L48.7149461,7.4800108 L48.7833463,7.94670041 L48.8491651,8.67654895 L48.8491651,9.61122381 L48.8491651,10.8025773 L48.8517485,10.8025773 L48.8517485,10.8025826 Z M50.9695635,8.87748515 L50.9695635,7.47871198 L51.0340915,7.07943299 L51.0340915,6.94720411 L51.0999104,6.87979349 L51.2341294,6.81238288 L51.4999857,6.74756514 L51.964589,6.6814507 L52.5595392,6.61663296 L53.6190948,6.61663296 L53.95077,6.61663296 L54.1482266,6.6814507 L54.3469736,6.81367958 L54.4127925,6.8810902 L54.4786114,6.94850081 L54.5444303,7.08072969 L54.6128304,7.28166536 L54.6128304,7.74835497 L54.5444303,8.14374491 L54.4127925,8.87748356 L54.3469736,9.1419408 L54.2140455,9.40899091 L54.0152985,9.67344814 L53.8836607,9.87438381 L53.6836233,9.94309113 L53.4203483,10.07532 L52.955745,10.1401377 L52.4253244,10.2075484 L51.8936128,10.2723661 L51.365774,10.404595 L51.0986269,10.4745985 L51.032808,10.404595 L51.032808,10.3423696 L51.032808,10.138841 L50.9682801,9.74215493 L50.9682801,8.87748092 L50.9695706,8.87748092 L50.9695635,8.87748515 Z M66.7944529,4.48671295 L66.5969962,4.55282739 L66.3956679,4.68505627 L66.1969209,4.81728515 L66.1323929,4.95210691 L65.9994648,5.14915353 L65.867827,5.54843252 L65.7994269,6.08512509 L65.7348989,6.7475662 L65.6664987,8.60784428 L65.6006798,11.070931 L65.6664987,12.4022914 L65.6006798,13.7336518 L65.7348989,15.9906155 L65.867827,16.7217608 L65.9310646,17.2571566 L65.9994648,17.4542032 L66.1323929,17.6564356 L66.1969209,17.7886645 L66.3298491,17.9208934 L66.4640681,17.9870078 L66.5969962,18.0557151 L66.728634,17.9870078 L66.8615622,17.9208934 L67.1893657,17.5916179 L67.4552219,17.4554999 L67.7856067,17.2584533 L67.9198258,17.2584533 L68.0514635,17.1910427 L68.3186107,17.0588138 L68.5831766,16.9901065 L68.9819611,16.9901065 L69.3781647,16.9226959 L69.5098025,16.8552853 L71.0339582,16.5908281 L71.6973107,16.4585992 L72.0935143,16.3911886 L72.5581177,16.3263708 L73.4202171,16.2563673 L74.1455173,16.1928458 L74.8101607,16.2563673 L75.4051108,16.3263708 L75.8671329,16.3263708 L76.0671703,16.3263708 L76.198808,16.2563673 L76.2646269,16.1928458 L76.3304458,16.1228423 L76.3304458,16.0580245 L76.3304458,15.5926311 L76.3304458,15.325581 L76.2646269,15.1933521 L76.198808,14.8588914 L76.1329891,14.5944342 L76.0013514,14.5283197 L75.8671323,14.4596124 L75.672257,14.3947947 L75.4051098,14.3947947 L74.677233,14.3947947 L73.7519002,14.3947947 L72.7581651,14.5283197 L72.2264536,14.5944342 L71.6986148,14.7240702 L70.5061326,14.9275987 L69.2491209,15.2581704 L68.2566767,15.459106 L67.7894921,15.5252205 L67.6578543,15.5252205 L67.4591073,15.459106 L67.3945793,15.3903987 L67.2616512,15.1946483 L67.193251,15.0598265 L67.193251,14.9275976 L67.1274321,14.7927759 L67.1274321,14.5957293 L67.0629042,14.2638609 L67.193251,11.9355997 L67.3261792,11.2692685 L67.3261792,11.0022183 L67.3945793,10.8699895 L67.4591073,10.6716461 L67.6578543,8.73877381 L67.9237106,7.34518745 L68.0553484,6.81108829 L68.1882765,6.4118093 L68.2566767,6.0825338 L68.3224956,6.01253031 L68.3883145,5.95030492 L68.7199896,5.67806905 L69.1845929,5.41361182 L69.7782522,5.01433283 L70.3757842,4.7498756 L70.7048781,4.61764672 L71.0365532,4.48282496 L71.6999057,4.28318546 L71.7644336,4.21318197 L71.9631807,4.08095309 L72.6923483,3.94872421 L73.4860455,3.88390647 L75.0089103,3.75167759 L75.2076573,3.75167759 L75.3405855,3.81649533 L75.5393325,3.88390594 L75.6735516,4.0187277 L76.0026454,4.28318546 L76.2001021,4.48282496 L76.3317399,4.68116828 L76.464668,4.94821839 L76.5330682,5.2152685 L76.6647059,5.48102243 L76.7318152,5.74547967 L76.7963432,6.27957883 L76.862162,6.61274338 L76.862162,6.87720061 L76.9292713,7.00942949 L76.9292713,7.6135348 L76.9937993,8.14115362 L77.3280557,13.8632704 L77.4584026,15.9880073 L77.5242215,16.8526813 L77.3925837,17.0549137 L77.2622369,17.1197314 L77.1951276,17.187142 L76.862162,17.3180742 L76.464668,17.3180742 L75.9355383,17.2545526 L75.4735163,17.187142 L75.3405881,17.1197314 L75.2747692,17.0549137 L74.9418037,16.7878636 L74.6772378,16.7191562 L74.6101285,16.7878636 L74.5430193,16.8526813 L74.5430193,16.9200919 L74.6101285,17.0549137 L74.6772378,17.2545532 L74.7417658,17.386782 L74.9418032,17.5890144 L75.4051161,18.051815 L76.1329928,18.5172084 L76.8595787,18.9774166 L77.5216402,19.3805847 L77.9849531,19.6463386 L78.4508473,19.8433852 L78.9141603,19.978207 L79.3103639,20.0443214 L79.5104013,19.978207 L79.7091484,19.9146854 L79.7775485,19.7785675 L79.7775485,19.712453 L79.8420765,19.4466991 L79.7775485,19.2496525 L79.7091484,18.3836818 L79.6433295,18.0518134 L79.5762202,17.5890128 L79.5104013,17.1197303 L79.4420012,12.7289581 L79.3774732,7.67574483 L79.3103639,7.54481266 L79.3103639,7.40739855 L79.2445451,6.944598 L79.1787262,6.21474945 L79.1787262,5.34877873 L79.1787262,5.14784306 L79.2445451,5.01561418 L79.3774732,4.55151746 L79.4420012,4.48540302 L79.5104013,4.35058126 L79.6433295,4.02130576 L79.6433295,3.82166626 L79.6433295,3.68684503 L79.5762203,3.55461615 L78.3192086,2.95829107 L77.7216766,2.82346931 L77.3267638,2.7560587 L76.9279794,2.69253714 L76.0013556,2.62382982 L74.9405092,2.62382982 L74.345559,2.69253714 L73.7506088,2.7560587 L73.2201882,2.82346931 L72.6897676,2.89087993 L71.3656498,3.09051942 L70.8352292,3.22274831 L70.3732072,3.28886275 L69.9086038,3.42368451 L69.5769287,3.49239182 L69.2465439,3.55461721 L68.7819406,3.75555288 L68.3199186,4.02260299 L66.7944719,4.48670025 L66.7944719,4.48670025 L66.7944529,4.48671295 Z M69.3097619,10.8025614 L69.5072186,10.740336 L69.7730749,10.6729254 L70.5667721,10.4732859 L70.6338813,10.4732859 L70.6997002,10.5419932 L70.7681004,10.6055148 L70.8326283,10.7403365 L70.7681004,11.1357265 L70.6997002,11.339255 L70.6997002,11.5375983 L70.5009532,11.8020556 L70.3022062,11.9991022 L69.6401446,12.2661523 L69.1110149,12.467088 L68.647702,12.600613 L68.1830987,12.6667275 L67.9843516,12.6667275 L67.8527139,12.7315452 L67.7210761,12.8015487 L67.6526759,12.870256 L67.6526759,12.9337776 L67.6526759,13.2008277 L67.8527134,13.8671589 L67.8527134,13.9993878 L67.9843511,14.0642055 L68.05017,14.1316161 L68.1830981,14.1316161 L68.2514983,14.1316161 L68.4502453,14.0642055 L68.647702,13.9993878 L70.1718577,13.7349306 L74.275852,12.9973018 L76.0645753,12.9973018 L76.3962504,12.9350764 L76.5291786,12.8715548 L76.6608163,12.7341407 L76.7279256,12.5370941 L76.7924536,12.3348617 L76.7924536,12.000401 L76.7924536,11.7359438 L76.7279256,11.6037149 L76.5949975,11.471486 L76.3962504,11.4066683 L76.196213,11.4066683 L75.9987564,11.3405538 L75.8645373,11.2718465 L75.0050197,9.67473055 L75.0050197,9.54250167 L75.1366574,9.41027279 L75.2708765,9.2106333 L75.5354424,9.01228998 L75.6012613,8.34595876 L75.5354424,8.211137 L75.4696235,8.07890812 L75.2708765,8.01668273 L75.0708391,8.01668273 L73.7480122,8.07890812 L73.3505181,8.07890812 L73.21759,8.07890812 L73.1517711,7.54999312 L73.21759,7.28294301 L73.21759,7.21293952 L73.2834089,7.21293952 L74.2100326,6.88107114 L74.3429608,6.81366053 L74.4087797,6.81366053 L74.4745985,6.74884279 L74.674636,6.68272835 L75.0063111,6.61791061 L75.07213,6.5505 L75.1379489,6.48568226 L75.1379489,6.41567877 L75.2721679,6.28344989 L75.3379868,6.34956433 L75.3379868,5.81546517 L75.3379868,5.88417248 L75.4038057,5.41748288 L75.2721679,5.285254 L75.0721305,5.15043224 L74.9392024,5.0856145 L74.739165,5.0856145 L74.4100711,5.0856145 L74.2113241,5.0856145 L73.9467582,5.15043224 L73.6809019,5.15043224 L73.351808,5.285254 L72.954314,5.35136844 L72.4897106,5.41618617 L71.8921787,5.61712184 L71.0997724,5.81546517 L70.2376729,6.14733354 L69.7085432,6.2821553 L69.376868,6.41438418 L69.1794114,6.48438768 L69.0464832,6.54920541 L69.0464832,6.74754873 L69.0464832,6.94718823 L69.0464832,7.1494206 L69.1123021,7.40998931 L69.0464832,7.67833613 L69.5085053,8.01409356 L70.0415077,7.87667945 L70.4364205,7.87667945 L70.7706769,7.87667945 L71.0339519,7.94409006 L71.1010612,8.01409356 L71.1655891,8.14372956 L71.1655891,8.20854729 L71.2326984,8.34336905 L71.1655891,8.67394073 L71.1010612,8.73875846 L71.1010612,8.80876196 L70.3731844,8.87617257 L69.709832,9.07192301 L68.9832462,9.13933363 L68.7832088,9.13933363 L68.6502806,9.20674424 L68.5844617,9.20674424 L68.452824,9.27415486 L68.3857147,9.33767642 L68.3857147,9.47509053 L68.3198958,9.87048047 L68.3198958,9.93918779 L68.3857147,9.93918779 L68.452824,10.203645 L68.452824,10.4706951 L68.5186429,10.5394024 L68.5844617,10.602924 L68.7173899,10.7377458 L68.9161369,10.7999712 L69.3097593,10.7999713 L69.3097593,10.802564 L69.3097619,10.8025614 Z M73.4150472,10.0740085 L73.5466849,10.0740085 L73.745432,10.2062384 L73.8112508,10.403285 L73.9428886,10.672928 L73.9428886,10.8712714 L74.0758168,11.0709108 L74.2074545,11.1344324 L74.2745638,11.2692542 L74.2745638,11.3379615 L74.2074545,11.4701904 L74.0087075,11.4701904 L73.8125418,11.4701904 L73.4808666,11.537601 L73.2821196,11.537601 L73.1504818,11.4053721 L73.0175537,11.3392577 L72.9517348,11.2705503 L72.8188066,11.072207 L72.7516973,10.7403386 L72.7516973,10.6055169 L72.8188066,10.473288 L72.8188066,10.3410591 L72.9517347,10.2062374 L73.1504817,10.0740085 L73.2821195,10.0740085 L73.4150477,10.0740085 L73.4150477,10.0740085 L73.4150472,10.0740085 Z M85.6624901,17.3206798 L85.9941653,17.3893871 L86.3271308,17.3206798 L86.7220436,17.2571582 L87.1195376,17.1897476 L87.982928,16.7904686 L88.4423693,16.5234185 L88.9740808,16.2576646 L89.0386087,16.1241395 L89.2373558,15.9893177 L89.7019591,15.7248605 L89.7690683,15.6600428 L89.9032874,15.3903998 L90.1665624,14.7240686 L90.7602217,13.8645814 L91.2235346,13.2643662 L91.5565001,12.9324978 L91.6210281,12.8689762 L91.7539563,12.8002689 L91.8197751,12.8002689 L91.8197751,13.0647262 L91.8197751,13.4614123 L91.8197751,13.9981048 L91.7539563,14.726662 L91.6881374,15.4604006 L91.6881374,16.2576619 L91.6881374,16.9226964 L91.7539563,17.5203182 L91.885594,18.11794 L92.0198131,18.6520392 L92.1540321,19.1200255 L92.4160167,19.5180083 L92.483126,19.7150549 L92.6147638,19.9172873 L92.7489828,20.0469233 L92.8832019,20.1791522 L93.0148396,20.1791522 L93.1477678,20.1791522 L93.414915,19.918584 L93.7440088,19.6502372 L94.0743936,19.3844832 L94.4060688,19.1213222 L94.4718877,19.0526149 L94.6035254,18.8529754 L95.2668779,18.3162828 L96.1947925,17.3206787 L96.5264677,16.8552853 L96.7910336,16.3924847 L96.7910336,16.327667 L96.8607242,16.2576635 L96.9239618,16.0606169 L97.0581808,15.6613379 L97.583441,14.4622042 L97.9835163,14.597026 L98.3151915,14.726662 L98.6468666,14.9301905 L98.9101416,15.1285338 L99.2431072,15.3929911 L99.4405638,15.7274518 L99.7064201,16.0619125 L99.9051671,16.4611915 L99.9722764,16.5934204 L100.036804,16.7256493 L100.168442,16.7943566 L100.365899,16.8591743 L100.830502,16.9939961 L101.164759,17.0627034 L101.493852,17.0627034 L102.28755,17.0627034 L103.082538,16.9939961 L103.809124,16.9265855 L104.405365,16.8591749 L104.937076,16.7943571 L105.467497,16.6621283 L105.864991,16.4624888 L106.195376,16.3302599 L106.195376,16.1967348 L106.262485,16.0619131 L106.130847,15.8609774 L105.864991,15.7274523 L105.599135,15.5278128 L105.20164,15.3929911 L104.804146,15.2607622 L104.273726,15.1285333 L103.082535,14.8614832 L101.759708,14.6631399 L101.362214,14.6631399 L100.830502,14.397386 L100.103916,14.1964503 L98.7785076,13.6001252 L97.7886452,12.9973166 L97.3872794,12.8028623 L97.1252948,12.5358122 L96.9252574,12.3335798 L96.7923293,12.0678259 L96.9252574,11.9978224 L97.0594765,11.8655935 L97.7886441,11.6011363 L98.1822665,11.3366791 L98.6468698,11.0022183 L98.7785076,10.8699895 L98.9114357,10.799986 L99.3747486,10.400707 L99.6431862,10.2684781 L99.973571,10.0714315 L100.105209,9.9392026 L100.303956,9.80438085 L100.963436,9.40510185 L101.166054,9.27287297 L101.166054,9.20546236 L101.231873,9.13805174 L101.166054,9.00582286 L101.095073,8.80618337 L100.962145,8.67136161 L100.830507,8.46912923 L100.633051,8.33949323 L100.501413,8.2746755 L100.236847,8.204672 L99.9722811,8.204672 L99.7748245,8.2746755 L99.5760775,8.53913273 L99.2431119,8.80618284 L98.8430366,9.27287244 L98.2493773,9.8043782 L97.983521,10.0714283 L97.8518833,10.136246 L97.7150835,10.2684749 L96.8620203,10.7364612 L95.6682473,11.4014958 L95.1378267,11.2005601 L94.5415856,10.7986882 L94.2124917,10.4694127 L93.9440541,10.2023626 L93.811126,10.0027231 L93.746598,9.87049423 L93.811126,9.73826535 L93.8782353,9.53603297 L94.2757293,8.73617829 L94.4099484,8.40690279 L94.4757672,8.13985268 L94.607405,7.94150936 L95.0048991,6.87589915 L95.0745896,6.54532747 L95.2062274,6.2134591 L95.3391555,6.01122672 L95.4733746,5.94900134 L95.5391934,5.87899784 L96.5974581,5.47971885 L96.8658957,5.3461938 L97.0620614,5.28007935 L97.3911553,5.3461938 L97.5279551,5.41101153 L97.6570116,5.54324041 L97.7912307,5.67546929 L97.8557586,5.81029105 L97.9228679,5.87899837 L97.9228679,5.94900187 L97.9873959,6.14345613 L97.9228679,6.27827789 L97.9228679,6.47921356 L97.7912301,6.61144244 L97.6570111,6.80848906 L97.3253359,7.20776805 L96.7962062,7.61223227 L96.2683674,8.01151126 L95.7392377,8.47042276 L95.6050187,8.60524452 L95.5391998,8.7374734 L95.6050187,8.8074769 L96.069622,8.8074769 L96.5974608,8.7374734 L96.7962078,8.67265567 L97.0620641,8.67265567 L97.5279583,8.54042678 L97.9861086,8.34208346 L98.450712,8.14244397 L98.8456247,7.94410065 L99.3115189,7.61482515 L99.3760469,7.54741453 L99.5773752,7.34518216 L99.9748693,7.07813205 L100.57111,6.74626367 L100.767276,6.61403479 L101.031842,6.41180242 L101.031842,6.2147558 L99.8419417,5.41360441 L99.3760474,4.94950768 L99.1114815,4.81468592 L98.9127345,4.68245704 L98.5178217,4.55022816 L98.0532184,4.41799928 L97.5873242,4.34799579 L97.1291739,4.28317805 L96.5316419,4.41799981 L95.3391597,4.68245704 L95.2720505,4.68245704 L95.2720505,4.61893548 L95.1404127,4.28447476 L95.1404127,3.9513102 L95.1404123,3.4923987 L95.2062312,2.95829954 L95.2062312,2.62383882 L95.2720501,2.35678871 L95.3391594,2.22455982 L95.3391594,1.89139527 L95.4062686,1.56211978 L95.6037253,1.02802061 L95.5379064,0.961906173 L95.3391594,0.893198853 L95.1417027,0.827084413 L94.8758464,0.827084413 L94.5454616,0.696152237 L94.2163678,0.893198853 L93.9479302,0.961906173 L93.8821113,1.02802061 L93.815002,1.89139792 L93.7504741,2.29067691 L93.6833648,2.69254878 L93.5414024,3.55462938 L93.4768745,4.4218968 L93.4768745,5.35138485 L93.3426554,5.41620258 L93.0767991,5.54843146 L92.083064,6.01512107 L91.9514262,6.08512456 L91.9514262,6.48440355 L91.9514262,6.88108967 L92.0159542,7.01331855 L92.0159542,7.15073266 L92.0830635,7.21295804 L92.2172825,7.28296154 L92.4134483,7.34777927 L92.5463764,7.34777927 L92.7464138,7.21295751 L92.814814,7.21295751 L91.9527145,9.80827096 L91.883024,9.94309272 L91.4894016,10.6055338 L90.6273021,11.9991202 L90.2298081,12.4035844 L89.9020046,12.8028634 L88.774052,14.1316304 L88.2436313,14.6631362 L87.9816467,14.9301863 L87.7144995,15.260758 L87.5157525,15.4616936 L86.9866228,15.7922653 L86.5246008,16.1967295 L86.1271067,16.5934156 L85.8612504,16.9926946 L85.7941412,16.9926946 L85.7941412,17.1262197 L85.6624901,17.2610414 L85.6624901,17.320674 L85.6624901,17.320674 L85.6624901,17.3206798 Z M92.8148012,16.1254362 L93.0767858,14.8614832 L93.143895,14.1964487 L93.143895,13.6649429 L93.208423,13.2008462 L93.2794039,12.8015672 L93.2794039,12.5345171 L93.3439319,12.4658098 L93.4123321,12.4658098 L94.1350505,12.7315637 L94.5996538,12.8015672 L94.7325819,12.8702745 L94.9326193,12.9337961 L95.3301134,13.1308427 L95.7934263,13.4614144 L96.2580296,13.8658786 L96.7187613,14.1951541 L96.8542707,14.3325682 L96.7845801,14.4622042 L96.7174709,14.6618437 L96.5845427,14.7940726 L96.388377,15.0611227 L95.6605003,15.8596807 L95.5921001,15.9296842 L94.7300006,16.5921253 L94.06923,17.0588149 L93.7388452,17.2584544 L93.5400982,17.3906833 L93.2781136,17.4567977 L93.1438945,17.4567977 L92.8806195,17.4567977 L92.8148006,17.4567977 L92.7464005,17.3906833 L92.6818725,17.321976 L92.6818725,17.1910438 L92.6108916,16.856583 L92.6818725,16.6608326 L92.6818725,16.4611931 L92.7464005,16.3289642 L92.8148006,16.1254357 L92.8148006,16.1254357 L92.8148012,16.1254362 Z M88.1752161,9.20934612 L88.2436175,9.341575 L88.3107268,9.41028232 L88.5094738,9.5425112 L88.6411115,9.61251469 L89.1689503,9.74474357 L89.7690641,9.87697245 L90.4311257,10.0092013 L90.8260384,10.076612 L90.9602575,10.076612 L91.0247855,10.0092013 L91.0918947,9.94567977 L91.1564227,9.81085801 L91.0247849,9.1445268 L91.0247849,8.61042763 L90.960257,8.1463309 L90.960257,7.68093747 L91.0247849,7.48129798 L91.0247849,7.28425136 L91.0918942,6.95108681 L91.0918942,6.81626505 L91.1564227,6.68403617 L91.0918942,6.48698955 L90.8944375,6.41698606 L90.5601811,6.41698606 L90.4311246,6.48698955 L90.1665587,6.68403617 L89.3044592,7.55130359 L88.1765066,9.01230268 L88.1765066,9.20934929 L88.1752161,9.20934929 L88.1752161,9.20934612 Z M114.7286,11.4701999 L115.056403,13.5988216 L115.056403,13.9981006 L114.990584,14.2651507 L114.858946,14.5309047 L114.727309,14.7266551 L114.529852,14.8614769 L114.195596,15.0611164 L113.737445,15.1959381 L113.139913,15.4603953 L112.67531,15.5952171 L111.684157,15.8596743 L110.95628,16.1254283 L110.753661,16.1254283 L110.156129,16.3276606 L109.232082,16.5234111 L108.834588,16.5908217 L108.437094,16.5908217 L108.369985,16.659529 L108.305457,16.659529 L108.233185,16.7917579 L108.233185,16.8565756 L108.233185,17.058808 L108.368694,17.3893797 L108.832007,18.3162796 L108.832007,18.3875793 L108.900407,18.4536937 L109.097864,18.4536937 L109.36372,18.3875793 L109.824452,18.1192325 L110.289055,17.8534785 L110.814315,17.6590243 L111.411847,17.3906774 L112.008089,17.191038 L112.734674,17.0588091 L113.598065,16.8565767 L114.457582,16.7230516 L115.385497,16.5908228 L116.841256,16.3276617 L117.702064,16.1254293 L118.232485,16.0606116 L118.828726,15.9906081 L119.622423,15.9283827 L120.547756,15.9283827 L121.478253,15.7909686 L122.403585,15.7261509 L123.197283,15.7261509 L123.99098,15.7909686 L124.259417,15.9283827 L124.982136,16.1241332 L125.977162,16.3263655 L126.377237,16.4585944 L127.170934,16.7217555 L127.303862,16.7217555 L127.4355,16.6582339 L127.567138,16.5895266 L127.567138,16.4572977 L127.634247,16.256362 L127.567138,15.660037 L127.50261,15.3255762 L127.369682,14.9275934 L127.105116,13.8645766 L127.040588,13.7945731 L126.903788,13.527523 L126.641803,13.2630658 L126.378528,13.128244 L126.110091,13.0634263 L125.978453,12.9934228 L125.782287,13.0634263 L125.382212,13.128244 L125.186046,13.1982475 L124.983428,13.2630652 L124.787262,13.2630652 L124.589805,13.2630652 L124.391058,13.3304759 L124.262002,13.3952936 L122.341643,13.4588152 L121.809931,13.5262258 L121.544075,13.5962293 L120.022501,13.5962293 L119.955392,13.5262258 L120.022501,12.5967377 L120.022501,12.3996911 L120.022501,12.2648699 L120.090901,12.2026445 L120.15801,12.132641 L120.350305,11.9978192 L120.550342,11.9355939 L121.014945,11.4702004 L121.741531,10.8712819 L122.60234,10.0740207 L123.663186,9.00970715 L123.730295,8.87747827 L123.925171,8.74006416 L123.99228,8.67524643 L124.389774,8.47301405 L124.65563,8.27855979 L124.854377,8.07762411 L124.921487,7.94539523 L124.921487,7.81316635 L124.854377,7.67834459 L124.720158,7.54741242 L124.588521,7.34518004 L124.260717,6.94590105 L123.992279,6.61403268 L123.663186,6.48180379 L123.527676,6.4118003 L123.334091,6.4118003 L123.199872,6.4118003 L123.068234,6.48180379 L123.002416,6.54662153 L122.936597,6.67885041 L122.803668,6.87719373 L122.403593,7.47611222 L122.137737,7.81057295 L121.93899,8.07503018 L121.677005,8.47042012 L121.342749,8.87488433 L120.419992,9.87178511 L120.347721,9.87178511 L120.547758,5.678059 L120.613577,5.28266906 L120.747796,4.41929175 L120.882015,3.68425639 L120.949124,3.35238801 L121.013652,3.08793025 L121.276927,2.68865126 L121.411146,2.55642238 L121.542784,2.48901176 L121.542784,2.42289732 L121.479547,2.29066844 L121.344037,2.15584668 L121.014943,1.89138892 L120.684559,1.75916004 L120.287064,1.62693116 L119.88957,1.56211342 L119.692114,1.62693116 L119.493367,1.69434178 L119.426257,1.82657066 L119.292038,2.02361727 L119.22622,2.35678182 L119.094582,2.75606082 L118.960363,3.95389779 L118.895835,4.62281712 L118.895835,5.48619443 L118.698378,7.9466877 L118.632559,9.6112164 L118.560287,11.0722155 L118.49834,11.6037212 L118.364121,12.1339303 L118.298302,12.6006199 L118.164083,12.9337845 L118.102136,13.2656528 L117.965336,13.4614033 L117.833698,13.6636356 L117.702061,13.7336391 L117.236166,13.7958645 L117.103238,13.7958645 L116.974182,13.7336391 L116.907073,13.5988174 L116.907073,13.4614033 L116.839963,12.1326362 L116.774144,11.4701951 L116.774144,8.14373644 L116.839963,6.812376 L116.839963,6.74755826 L117.040001,6.14734307 L117.101948,5.9528888 L117.101948,5.81547469 L117.040001,5.68065293 L116.972891,5.54842405 L116.838672,5.48490249 L116.642507,5.35137744 L114.984128,4.885984 L114.786672,4.95209844 L114.587925,5.08432732 L114.524687,5.14914506 L114.456287,5.28396682 L114.389177,5.48360632 L114.320777,5.74806355 L114.320777,6.28216271 L114.389177,7.01201126 L114.456287,8.20984823 L114.524687,9.74344158 L114.390468,9.94308107 L113.070218,10.6729296 L112.604323,10.9399797 L112.408158,11.0035013 L111.477661,11.0035013 L111.082748,11.0709119 L111.014348,11.1344335 L111.014348,11.2692552 L110.951111,11.4688947 L111.014348,11.7994664 L111.082748,11.9342882 L111.149858,12.1313348 L111.411842,12.4644993 L111.811918,12.8676674 L112.075193,13.198239 L112.34234,13.3952857 L112.604324,13.5275145 L112.801781,13.5275145 L112.936,13.4601039 L113.200566,13.198239 L114.060084,12.1313321 L114.322068,11.9342855 L114.456287,11.601121 L114.587925,11.4688921 L114.728597,11.4688923 L114.728597,11.4701887 L114.7286,11.4701999 Z M132.337049,8.87747986 L131.674987,9.74215387 L131.011635,10.6055312 L130.354737,11.6037287 L130.219227,12.0691221 L130.219227,12.2661687 L130.287627,12.3335793 L130.419265,12.4035828 L130.550903,12.4035828 L130.74965,12.4035828 L130.947107,12.3335793 L131.145854,12.2661687 L131.41171,12.1339398 L131.939549,11.8020714 L132.668716,11.2705657 L133.200428,10.8025794 L133.397885,10.8025794 L133.530813,11.0048118 L133.792797,11.4715014 L133.792797,11.538912 L133.994126,11.7359586 L134.32451,12.1352376 L134.389038,12.2674665 L134.389038,12.4684021 L134.257401,12.6019272 L134.123182,12.7341561 L133.924435,12.8715702 L133.13461,13.2669601 L132.140875,13.2669601 L132.007947,13.2669601 L131.938256,13.399189 L131.873728,13.4627106 L131.873728,13.6649429 L131.873728,13.9981075 L131.938256,14.3973865 L132.071184,14.8614832 L132.205403,15.2607622 L132.272513,15.3281728 L132.337041,15.3929906 L132.469969,15.4616979 L133.996706,14.9301921 L134.061234,14.9301921 L134.125762,14.9937137 L134.125762,15.1285354 L134.192872,15.2607643 L134.192872,16.5247173 L134.261272,17.4555021 L134.328381,17.8534849 L134.392909,18.1853533 L134.524547,18.6533396 L134.658766,18.7855684 L134.856222,18.8542758 L134.990442,18.7855684 L135.452464,18.4537001 L135.913195,18.1853533 L136.047414,18.0557173 L136.247452,17.8534849 L136.712055,17.3219791 L137.304423,16.3937825 L138.095539,15.2607648 L138.431086,14.1316373 L138.562723,13.6001316 L138.562723,13.4627174 L138.431086,13.3991959 L138.363976,13.4627174 L138.165229,13.6001316 L137.965192,13.8671817 L137.703207,14.2664607 L137.041146,14.9950178 L136.510725,15.4617074 L136.313268,15.6626431 L136.117103,15.7922791 L135.985465,15.8609864 L135.911903,15.9309899 L135.649918,15.8609864 L135.584099,15.8609864 L135.51828,15.7922791 L135.44988,15.5965286 L135.385352,15.3942963 L135.44988,15.1985458 L135.44988,14.9963134 L135.584099,14.7979701 L135.649918,14.6009235 L135.985465,14.2690551 L136.379087,13.9320015 L136.642362,13.6675443 L137.305715,12.9376957 L137.504462,12.6706456 L137.6361,12.4061884 L137.770319,12.2065489 L137.770319,11.9394988 L137.770319,11.7372664 L137.6361,11.5402198 L137.6361,11.4728092 L137.56899,11.4728092 L137.370243,11.4079914 L136.643657,11.5402203 L136.51202,11.2731702 L137.174081,10.0092172 L137.307009,9.81087389 L137.371537,9.61382728 L137.371537,9.41289161 L137.371537,9.14584149 L137.371537,8.81397312 L137.307009,8.67915136 L137.2399,8.61174074 L137.174081,8.54692301 L137.108262,8.47691951 L136.909515,8.41469413 L136.446202,8.41469413 L135.988052,8.61174074 L135.522158,8.81397312 L134.922044,9.14584149 L134.461312,9.34418482 L134.329675,9.41289213 L134.128346,9.41289213 L133.99929,9.41289213 L133.928309,9.34418482 L133.865071,9.28066325 L133.865071,9.14584149 L133.865071,8.81397312 L133.928309,8.54692301 L134.062528,8.28246578 L134.194166,8.01800854 L134.392913,7.75095843 L134.59295,7.48131544 L134.920754,7.21426533 L135.18661,7.01462584 L135.520866,6.7501686 L135.718323,6.68405416 L135.849961,6.68405416 L136.048708,6.7501686 L136.314564,6.88239749 L137.108261,7.48131597 L137.437355,7.41260865 L137.704502,7.34908709 L137.966487,7.15204047 L138.299452,6.88239749 L138.4982,6.61794025 L138.695656,6.35089014 L138.760184,6.08643291 L138.827293,5.81678992 L138.760184,5.54973981 L138.628546,5.35269319 L138.365271,5.15175752 L138.298162,5.08693979 L138.165234,5.08693979 L137.106969,5.28657928 L136.974041,5.28657928 L136.842403,5.22176155 L136.842403,5.15175805 L136.777875,5.01952917 L136.842403,4.81988968 L137.03986,4.489318 L137.303135,4.08744613 L137.701919,3.68816714 L137.767738,3.49371287 L137.900666,3.35629877 L137.900667,3.22277318 L137.900667,3.02442986 L137.900667,2.8909048 L137.833558,2.75608305 L137.767739,2.5603326 L137.63352,2.42291849 L137.303135,2.15586838 L136.97275,1.89141062 L136.639784,1.69436401 L136.376509,1.69436401 L136.244872,1.69436401 L136.175181,1.75918174 L136.113234,1.96011741 L136.043543,2.28939291 L135.646049,3.15795174 L135.247265,4.02262575 L134.783952,4.88600306 L134.32322,5.68067093 L133.724397,6.61664249 L133.132029,7.54872394 L132.337041,8.87749097 L132.337041,8.87749097 L132.337049,8.87747986 Z M141.938869,11.3392698 L142.073088,11.2044481 L142.469292,10.8025762 L143.135221,10.4032972 L143.594662,10.0740217 L143.925047,9.87438222 L144.190903,9.60992499 L144.45676,9.27676044 L144.652925,8.94229971 L144.852963,8.4743134 L144.984601,8.0154019 L145.11882,7.47870933 L145.253039,6.81237811 L145.318858,6.48310262 L145.382095,6.14734519 L145.516314,5.74806619 L145.580842,5.48360896 L146.178374,3.8877897 L146.178374,3.82167526 L146.108684,3.6868535 L145.78088,3.42369244 L145.449205,3.22275677 L144.984602,3.09052789 L144.587108,3.02441345 L144.126376,2.95829901 L143.594664,3.02441345 L143.135223,3.15923521 L142.538982,3.35498565 L141.940159,3.62462864 L141.279388,3.88908641 L139.691994,4.88728388 L139.291919,5.22044843 L139.158991,5.28526617 L139.094463,5.35138061 L139.094463,5.41619835 L139.158991,6.1473436 L139.158991,7.14943119 L139.2261,10.00661 L139.2261,10.8025746 L139.158991,11.603726 L139.094463,12.4035807 L139.094463,14.0642193 L139.158991,14.9937073 L139.2261,15.859678 L139.291919,16.7917595 L139.426138,17.7212475 L139.493247,17.920887 L139.561647,18.1840481 L139.755232,19.1835423 L139.889451,19.4492962 L140.021089,19.6489357 L140.155308,19.7811646 L140.289527,19.7811646 L140.421165,19.7811646 L140.618622,19.7150501 L140.750259,19.6489357 L140.949006,19.5167068 L141.3465,19.1822456 L141.743994,18.6507398 L142.009851,18.3136862 L142.471873,17.7873641 L142.869367,17.3193778 L143.069404,17.1210345 L143.137804,16.8539843 L143.269442,16.5895271 L143.269442,16.5221165 L143.336551,16.5221165 L143.598536,16.192841 L143.730174,15.8570836 L143.866974,15.660037 L143.928921,15.390394 L143.998611,15.1259367 L144.06443,14.9275934 L144.196068,14.8588861 L144.263177,14.7927717 L144.331577,14.7927717 L144.593562,14.8588861 L145.587297,15.2581651 L145.922844,15.5926258 L146.184829,15.9893119 L146.380994,16.3911838 L146.515213,16.7904628 L146.581032,16.9226917 L146.649432,17.0575134 L146.715251,17.1223312 L146.846889,17.2571529 L147.108874,17.3206745 L147.510239,17.3893818 L148.10519,17.4554962 L148.767251,17.5216107 L149.695166,17.4554962 L149.959732,17.4554962 L150.292697,17.3893818 L150.750848,17.1897423 L151.019285,17.0575134 L151.216742,16.9226917 L151.481308,16.7904628 L151.681345,16.5908233 L151.614236,16.5234127 L151.549708,16.3911838 L151.347089,16.1941372 L150.887648,15.9283832 L150.224296,15.6613331 L149.362196,15.3268724 L146.846887,14.5970239 L145.19109,13.8671753 L144.527738,13.5301217 L144.067006,13.2656645 L143.803731,13.066025 L143.73275,12.9337961 L143.672094,12.8702745 L143.73275,12.7328604 L143.86955,12.6006315 L144.793597,12.0678291 L144.925235,11.9356002 L145.260782,11.6024357 L145.854441,11.0035172 L145.98866,10.9399956 L146.117717,10.7403561 L146.519082,10.2062569 L146.849467,9.87438857 L146.916576,9.80827413 L147.24438,9.40899514 L147.376018,9.20935565 L147.376018,9.14194503 L147.314071,8.94230554 L147.112742,8.60914098 L146.981104,8.41209437 L146.849467,8.20986199 L146.717829,8.14504426 L146.65201,8.07892982 L146.517791,8.14504426 L146.319044,8.20986199 L146.117716,8.41209437 L145.925422,8.6765516 L145.391128,9.14324121 L144.199937,10.2075547 L143.473351,10.7416539 L142.612543,11.1370438 L142.548015,11.2057511 L141.949192,11.4066868 L141.949191,11.3392762 L141.938867,11.3392762 L141.938869,11.3392698 Z M141.146463,13.3330709 L141.278101,13.3330709 L141.409739,13.3978891 L141.807233,13.5988248 L142.733856,13.9981038 L142.997131,14.0629215 L143.133931,14.1951504 L143.265569,14.3325645 L143.332678,14.4622005 L143.265569,14.5970223 L143.197169,14.7266583 L142.997131,15.061119 L142.602219,15.5265124 L142.336362,15.7909697 L142.073087,16.0606127 L141.807231,16.2576593 L141.475556,16.4585949 L141.147752,16.5908238 L140.881896,16.6595311 L140.61604,16.6595311 L140.481821,16.6595311 L140.417293,16.5908238 L140.352765,16.5234132 L140.285656,16.4585955 L140.214675,15.8583803 L140.214675,15.1946425 L140.285656,14.4609038 L140.417293,13.6636425 L140.417293,13.5988248 L140.481821,13.5288213 L140.680568,13.3965924 L141.146462,13.3330709 L141.146462,13.3330709 L141.146463,13.3330709 Z M141.674302,5.61715307 L141.80594,5.4162174 L142.004687,5.08434902 L142.267962,4.8860057 L142.536399,4.75377682 L142.798384,4.68636621 L142.99455,4.75377682 L143.131349,4.81729838 L143.194587,4.8860057 L143.262987,5.01823458 L143.262987,5.22046696 L143.262987,5.41751358 L143.262987,6.08643291 L143.194587,6.88110078 L143.062949,7.48001927 L142.92873,8.01671184 L142.797092,8.34598734 L142.729983,8.47562334 L142.598345,8.6104451 L142.332489,8.94360965 L142.069214,9.14324914 L141.208406,9.74346434 L141.074186,9.74346434 L141.008368,9.87569322 L140.87673,9.80957878 L140.807039,9.74476104 L140.74122,9.61253216 L140.74122,9.41159649 L140.807039,9.27936761 L140.87673,9.14454585 L140.941258,9.01231697 L141.142586,8.81267747 L141.603318,8.34728404 L142.264088,7.75225567 L142.727401,7.21556309 L142.860329,7.0159236 L142.926148,6.88369472 L142.926148,6.75146584 L142.926148,6.55312252 L142.860329,6.41830076 L142.794511,6.35348302 L142.662873,6.28736858 L142.462835,6.22255084 L142.066632,6.28736858 L141.733666,6.41959746 L141.141298,6.75276201 L141.007079,6.75276201 L141.007079,6.68664757 L141.007079,6.62182984 L141.007079,6.41959746 L141.141298,6.22255084 L141.336173,5.95809361 L141.674301,5.61715095 L141.674301,5.61715095 L141.674302,5.61715307 Z M153.526832,15.2594973 L153.593942,15.3269079 L153.593942,15.3917256 L153.720417,15.4604329 L153.857217,15.4604329 L154.18502,15.4604329 L154.453458,15.3917256 L155.048408,15.1959752 L155.378793,15.0611534 L155.642068,14.8615139 L155.910506,14.6631706 L156.175072,14.3974166 L156.704202,13.8672076 L156.76873,13.6649752 L156.76873,13.3979251 L156.835839,13.2008785 L156.970058,12.9338284 L157.163643,12.6006638 L157.297861,12.4036172 L157.497899,12.1339742 L157.630827,11.9991525 L157.762465,12.069156 L157.830865,12.1339737 L157.894102,12.2662026 L157.894102,12.4036167 L157.965083,12.9351224 L158.029612,13.600157 L157.965083,13.9994359 L157.894102,15.9297149 L157.830865,17.3220045 L157.762465,17.5929437 L157.762465,17.7899903 L157.830865,17.9222192 L157.894102,18.057041 L157.965083,18.186677 L158.098011,18.2579766 L158.294177,18.2579766 L158.490343,18.2579766 L158.824599,18.2579766 L158.956237,18.186677 L159.090456,18.1205625 L159.156275,18.057041 L159.156275,17.9883336 L159.222093,17.6590581 L159.222093,17.1910718 L159.156275,16.6608628 L159.156275,16.196766 L159.156275,15.3294986 L159.222093,14.0007316 L159.222093,13.464039 L159.291784,13.0673529 L159.291784,12.9973494 L159.291784,12.935124 L159.356312,12.6019595 L159.489241,11.4067159 L159.620878,10.5420419 L159.755097,10.006646 L159.888025,9.7421888 L160.152591,9.40902425 L160.415866,9.14197414 L160.547504,8.94233465 L160.547504,8.81010576 L160.547504,8.60787339 L160.353919,8.34341616 L160.089353,8.14377666 L159.889316,8.01414066 L159.69315,7.87672655 L159.493113,7.87672655 L159.427294,7.87672655 L159.295656,7.87672655 L159.095619,8.01414066 L158.9614,8.20859493 L158.765235,8.47305216 L158.432268,8.87751638 L158.234812,9.20808805 L158.036065,9.47773104 L157.971536,9.67218531 L157.971536,9.7421888 L157.900555,9.80700654 L157.441114,10.4720411 L156.714528,11.4041225 L155.652391,12.7303014 L154.326982,14.2638948 L154.064998,14.5296487 L153.801723,14.7253991 L153.667503,14.9289277 L153.605556,15.0611566 L153.538447,15.1959783 L153.538447,15.2594999 L153.526832,15.2594999 L153.526832,15.2594973 Z M160.346195,5.74941688 L160.675289,5.48495965 L160.874036,5.21920572 L161.005674,5.01697334 L161.005674,4.81733385 L160.939855,4.68510497 L160.808217,4.48676164 L160.606889,4.28712215 L160.277795,3.9539576 L159.748665,3.6246821 L159.549918,3.49245322 L159.41828,3.49245322 L159.351171,3.49245322 L159.216952,3.6246821 L159.018205,3.82172872 L158.820749,4.08618648 L158.290328,4.81862843 L157.692796,5.95423949 L157.162376,6.74890736 L156.834572,7.34782585 L156.637115,7.81451545 L156.571297,8.01545113 L156.571297,8.07767651 L156.571297,8.27861218 L156.704225,8.47306645 L156.968791,8.60788821 L157.101719,8.54307047 L157.296594,8.41084159 L157.62956,8.14379148 L157.962526,7.81321981 L158.159983,7.67839805 L158.423258,7.41005124 L159.287934,6.81242945 L159.419572,6.68020057 L159.55121,6.48315395 L159.749957,6.28221828 L159.882885,6.21740055 L160.017104,6.08517167 L160.21456,5.884236 L160.346198,5.74941477 L160.346198,5.74941477 L160.346195,5.74941688 Z M164.58183,8.60789244 L163.984298,8.74012132 L163.524857,8.87753543 L162.994436,8.94105699 L162.594361,8.94105699 L162.398195,8.94105699 L162.266557,9.00976431 L161.26895,9.27681442 L161.074074,9.27681442 L160.876618,9.34033599 L160.810799,9.47775009 L160.743689,9.67220436 L160.810799,9.80702612 L160.876618,9.94184788 L160.942437,10.1388945 L161.075365,10.3411269 L161.27024,10.6055841 L161.474149,10.9400448 L161.474149,11.0035664 L161.605787,11.0035664 L161.936172,11.070977 L162.399485,10.8713375 L162.928614,10.6729942 L163.526146,10.4733547 L164.189499,10.272419 L164.850269,10.2076013 L165.443929,10.2076013 L165.776895,10.2076013 L166.042751,10.272419 L166.10857,10.3424225 L166.242788,10.6068798 L166.374426,11.0061587 L166.440245,11.5402579 L166.571883,12.070467 L166.571883,12.5371566 L166.571883,13.0673656 L166.706101,14.0655631 L166.706101,14.9950511 L166.769339,15.9310227 L166.769339,16.7931033 L166.706101,17.1249717 L166.640282,17.2597934 L166.440245,17.3920223 L166.176969,17.4581368 L165.912404,17.4581368 L165.511038,17.4581368 L165.050306,17.3920223 L164.585703,17.323315 L163.988171,17.1923828 L163.39193,16.9927433 L163.128654,16.9927433 L162.79956,16.9253327 L162.598232,16.7931038 L162.199447,16.6595788 L161.933591,16.5908715 L161.865191,16.5908715 L161.865191,16.6595788 L161.865191,16.7231003 L161.933591,16.8566254 L161.998119,16.9914471 L162.199448,17.1249722 L162.59436,17.522955 L163.190602,17.9235302 L163.656496,18.3889236 L164.051408,18.5859702 L164.71347,18.8543171 L165.508458,19.1226639 L166.568014,19.4519394 L167.892132,19.7838077 L168.221225,19.9199257 L168.421263,19.9199257 L168.552901,19.9199257 L168.687119,19.848626 L168.752938,19.7163971 L168.820047,19.5867611 L168.490953,17.38943 L168.422553,16.7918082 L168.422553,16.5247581 L168.490953,12.1339859 L168.490953,10.6055793 L168.554191,10.5420578 L168.688409,10.1401859 L168.821338,10.0066609 L168.952975,9.94313929 L169.089775,9.80831753 L169.285941,9.80831753 L169.485978,9.7434998 L169.749254,9.7434998 L170.410024,9.80831753 L171.203722,9.94313929 L171.535397,9.94313929 L171.731562,9.87443197 L171.9316,9.74220309 L171.9316,9.6721996 L172,9.60997421 L172,9.40903854 L171.9316,8.94234894 L171.868362,8.74141326 L171.799962,8.47436315 L171.534106,8.01545165 L171.136612,7.54876205 L170.870755,7.47875855 L170.477133,7.47875855 L170.079639,7.47875855 L169.615036,7.47875855 L169.020086,7.54876205 L168.421263,7.61617266 L167.031324,7.81321928 L166.765468,7.87674084 L166.370555,7.94415146 L165.908533,8.07638034 L164.581833,8.60788609 L164.581833,8.60788609 L164.58183,8.60789244 Z M168.620009,5.54848068 L168.817466,5.4162518 L168.885866,5.28402292 L168.949104,5.14920116 L169.020085,5.01697228 L168.949104,4.81733279 L168.885866,4.62158235 L168.817466,4.28712162 L168.684538,3.95395707 L168.550319,3.88913933 L168.418682,3.75691045 L168.284463,3.75691045 L168.087006,3.68690696 L167.689512,3.75691045 L167.097144,3.95395707 L165.108383,4.6228764 L164.447612,4.81862684 L163.85008,4.9534486 L163.385477,5.01826634 L163.056383,5.08567696 L162.923455,5.15049469 L162.858926,5.22049819 L162.791817,5.28531592 L162.791817,5.4175448 L162.791817,5.54977368 L162.858926,5.68200256 L162.990564,6.14869217 L163.056383,6.21869566 L163.188021,6.74890472 L163.257711,6.8811336 L163.32224,7.01336248 L163.451296,7.0820698 L163.588096,7.0820698 L163.983009,7.01336248 L164.513429,6.94984091 L166.038876,6.8824303 L166.566715,6.55185863 L167.030028,6.35221913 L167.690798,6.0877619 L168.620004,5.54847592 L168.620004,5.54847592 L168.620009,5.54848068 Z M44.6122985,29.6361608 L46.07193,29.6361608 L45.3427623,27.7123601 L44.6122985,29.6361608 L44.6122985,29.6361608 L44.6122985,29.6361608 Z M44.6806987,26.5780458 L46.0061074,26.5780458 L48.0581072,31.5003237 L46.7326985,31.5003237 L46.4023137,30.5021262 L44.2832078,30.5021262 L43.8831325,31.5003237 L42.6261208,31.5003237 L44.6807024,26.5780458 L44.6807024,26.5780458 L44.6806987,26.5780458 Z M52.6925432,28.1064523 L52.6280152,27.9742234 L52.5596151,27.8394016 L52.4266869,27.642355 L52.3595777,27.5749444 L52.2279399,27.50883 L52.0291929,27.3740082 L51.6962273,27.3104867 L51.3671335,27.3104867 L51.0341679,27.3104867 L50.7037831,27.3740082 L50.5734363,27.4427155 L50.4405081,27.50883 L50.1759422,27.7110623 L49.9771952,27.9742234 L49.844267,28.3086847 L49.7771578,28.7014817 L49.7771578,29.1072426 L49.7771578,29.5052255 L49.9087955,29.9032083 L49.9771957,30.03803 L50.0417237,30.1702589 L50.1101239,30.3050807 L50.2417616,30.4399024 L50.5050366,30.5721313 L50.7721838,30.7043602 L51.0354588,30.7756599 L51.3684244,30.7756599 L51.6316994,30.7756599 L51.8949749,30.6991744 L52.0291939,30.6991744 L52.1608317,30.6356529 L52.3595787,30.5008311 L52.4925069,30.3011916 L52.6280163,30.1015521 L52.7596541,29.9019126 L52.824182,29.7022731 L51.5000642,29.7022731 L51.5000642,28.8388958 L53.8850285,28.8388958 L53.8850285,31.5003253 L53.0887495,31.5003253 L52.9571118,30.9027035 L52.6293083,31.2345719 L52.3608707,31.4316185 L52.0963048,31.5003258 L51.8317389,31.6325547 L51.5000637,31.6325547 L51.1670982,31.6325547 L50.9025323,31.6325547 L50.6405476,31.6325547 L50.3759817,31.5716255 L50.1114158,31.5003258 L49.9100875,31.3655041 L49.7126309,31.2993896 L49.3138464,30.9701141 L49.1150994,30.7704746 L48.9834616,30.6356529 L48.8505335,30.3673061 L48.7163145,30.1676666 L48.6530769,29.9019126 L48.5846767,29.6361587 L48.5175674,29.3704048 L48.5175674,29.1072437 L48.5175674,28.7753753 L48.5846767,28.5070285 L48.6530769,28.2386817 L48.7163145,27.9755206 L48.8505335,27.7758811 L48.9834616,27.5762416 L49.1150994,27.3766022 L49.3138464,27.1769627 L49.5138838,26.979916 L49.7126309,26.8476872 L50.1772342,26.5793403 L50.4418001,26.5132259 L50.7050751,26.4445186 L51.3000252,26.4445186 L51.8330277,26.4445186 L52.2950497,26.5793403 L52.560906,26.6480477 L52.759653,26.706384 L53.0874565,26.9086164 L53.4204221,27.1743703 L53.6191691,27.4427171 L53.6836971,27.574946 L53.7520972,27.7745855 L53.883735,28.1064539 L52.6925437,28.1064538 L52.6925437,28.1064538 L52.6925432,28.1064523 Z M56.2661159,27.4427122 L56.2661159,28.7740749 L57.5915257,28.7740749 L57.9877293,28.7001824 L58.185186,28.7001824 L58.3852234,28.5731392 L58.5181515,28.4383175 L58.5852608,28.3060886 L58.5852608,28.1064491 L58.5852608,27.9068096 L58.5181516,27.7123553 L58.3852234,27.5762374 L58.2522953,27.510123 L57.9877294,27.4440085 L57.6560542,27.4440085 L56.2661159,27.4440085 L56.2661159,27.4427122 L56.2661159,27.4427122 Z M58.8485374,26.7063824 L58.9814655,26.7776821 L59.1131033,26.8463894 L59.2460314,26.909911 L59.3802505,27.0447327 L59.5777071,27.2443722 L59.643526,27.4440117 L59.777745,27.7123585 L59.777745,27.9755196 L59.7106358,28.3099808 L59.5777076,28.6392563 L59.4460699,28.8388958 L59.3131417,28.9750138 L59.1131043,29.0385353 L58.9143573,29.1681713 L59.2460325,29.3068821 L59.3802515,29.439111 L59.4460704,29.5713399 L59.5777082,29.9032083 L59.643527,30.1028478 L59.643527,30.3024873 L59.643527,30.6369485 L59.643527,31.102342 L59.7106363,31.2993886 L59.9093833,31.4316175 L59.9093833,31.5003248 L58.5181541,31.5003248 L58.449754,31.2345708 L58.4497539,31.0362275 L58.4497539,30.8314028 L58.3852259,30.3686022 L58.3852259,30.1676666 L58.3852259,29.9680271 L58.3168257,29.8357982 L58.185188,29.7696838 L58.12066,29.634862 L57.9206226,29.634862 L57.7218756,29.5687476 L57.4573097,29.5687476 L56.2661184,29.5687476 L56.2661184,31.4977298 L55.0749272,31.4977298 L55.0749272,26.5754519 L57.9206242,26.5754519 L58.448463,26.5754519 L58.8485383,26.706384 L58.8485383,26.706384 L58.8485374,26.7063824 Z M61.8942723,31.499027 L60.7017901,31.499027 L60.7017901,26.5767491 L61.8942723,26.5767491 L61.8942723,31.499027 L61.8942723,31.499027 Z M63.6158841,27.0434355 L63.8146312,26.9086137 L64.0120878,26.7763848 L64.2108348,26.7050852 L64.4108722,26.644156 L64.8741852,26.5093342 L65.1413324,26.4406269 L65.4046074,26.4406269 L65.7375729,26.4406269 L66.0692481,26.5093342 L66.3970516,26.5754486 L66.6641988,26.644156 L66.9274738,26.7763848 L67.1249304,26.9086137 L67.2591495,26.977321 L67.3236774,27.1121428 L67.4566056,27.1756644 L67.5224245,27.3117823 L67.7237528,27.5088289 L67.7869904,27.7745829 L67.9212099,27.9742223 L67.9212099,28.2373834 L66.7313091,28.2373834 L66.5996713,27.905515 L66.398343,27.642354 L66.2667052,27.5075322 L66.0021393,27.4414178 L65.7375734,27.3727105 L65.4704262,27.3727105 L65.1426227,27.3727105 L64.8754755,27.4414178 L64.6109096,27.5736467 L64.4779815,27.7097646 L64.4121626,27.7732861 L64.2121252,28.0390401 L64.1475972,28.3683156 L64.0830693,28.700184 L64.0133787,29.1059449 L64.0830693,29.5039277 L64.1475972,29.8357961 L64.2805254,30.10155 L64.4121631,30.3673039 L64.676729,30.5669434 L64.8754761,30.6991723 L65.1426233,30.770472 L65.4704268,30.770472 L65.737574,30.770472 L66.0021399,30.6991723 L66.2667058,30.5669434 L66.3983435,30.4347146 L66.5996718,30.1663677 L66.7313096,29.8344994 L67.9212099,29.8344994 L67.7869909,30.2376674 L67.6553531,30.5669429 L67.3920781,30.9014042 L67.25915,31.0362259 L67.1249309,31.1684548 L66.9274743,31.3006837 L66.7958365,31.3667981 L66.3970521,31.5716229 L66.1983051,31.5716229 L65.9324488,31.6325521 L65.4691359,31.6986665 L65.1413324,31.6325521 L64.8741852,31.6325521 L64.6096193,31.5716229 L64.3450534,31.5003232 L64.1463063,31.4316159 L63.88045,31.299387 L63.6842843,31.1671581 L63.4868277,30.9701115 L63.2196805,30.6356502 L63.0867523,30.3673034 L62.9551146,30.1676639 L62.8880053,29.90191 L62.820896,29.636156 L62.820896,29.3704021 L62.820896,29.1072411 L62.820896,28.7753727 L62.820896,28.4409114 L62.8880053,28.1699723 L63.0209334,27.9068112 L63.0867523,27.7123569 L63.2854993,27.4440101 L63.4184275,27.2443706 L63.6158841,27.043435 L63.6158841,27.043435 L63.6158841,27.0434355 Z M68.8465454,26.5780421 L70.0390276,26.5780421 L70.0390276,29.6361571 L70.1048465,30.0367323 L70.1706653,30.2389646 L70.1706653,30.3686006 L70.2351933,30.437308 L70.3694124,30.5695368 L70.5655781,30.7017657 L70.8314344,30.7730654 L71.1605283,30.7730654 L71.4922034,30.7730654 L71.7567693,30.7017657 L71.9555164,30.5695368 L72.0884445,30.3698974 L72.1542634,30.2402614 L72.2200823,30.038029 L72.2200823,29.6361571 L72.2200823,26.5780421 L73.4796758,26.5780421 L73.4796758,29.6361571 L73.4796758,29.9680255 L73.4151478,30.3024867 L73.2809288,30.636948 L73.2151099,30.8314023 L73.0163629,31.036227 L72.8821438,31.2332736 L72.6188688,31.3655025 L72.4201218,31.4316169 L72.1529746,31.5703277 L71.8238807,31.6312569 L71.4922055,31.6312569 L71.1605304,31.6312569 L70.766908,31.6312569 L70.4326515,31.6312569 L70.1693765,31.5703277 L69.9035203,31.4316169 L69.637664,31.3655025 L69.4402073,31.2332736 L69.2414603,31.036227 L69.1085322,30.8314023 L68.9768944,30.636948 L68.9097851,30.3024867 L68.8439662,29.9680255 L68.8439662,29.6361571 L68.8439662,26.5780421 L68.8465473,26.5780421 L68.8465454,26.5780421 Z M74.6050455,26.5780421 L75.8001095,26.5780421 L75.8001095,30.636948 L78.6432247,30.636948 L78.6432247,31.5003253 L74.6050455,31.5003253 L74.6050455,26.5780421 L74.6050455,26.5780421 L74.6050455,26.5780421 Z M83.0814639,26.5780421 L83.0814639,27.4440128 L81.3585558,27.4440128 L81.3585558,31.5003253 L80.1686555,31.5003253 L80.1686555,27.4440128 L78.4483345,27.4440128 L78.4483345,26.5780421 L83.0814639,26.5780421 L83.0814639,26.5780421 L83.0814639,26.5780421 Z M83.8093353,26.5780421 L85.066347,26.5780421 L85.066347,29.6361571 L85.066347,30.0367323 L85.1334563,30.2389646 L85.1979843,30.3686006 L85.2663844,30.437308 L85.3322033,30.5695368 L85.5296599,30.7017657 L85.7942259,30.7730654 L86.1271914,30.7730654 L86.4588666,30.7730654 L86.7221416,30.7017657 L86.922179,30.5695368 L87.1183447,30.3698974 L87.1183447,30.2402614 L87.1841636,30.038029 L87.2512729,29.6374538 L87.2512729,26.5793388 L88.4424641,26.5793388 L88.4424641,29.6374538 L88.4424641,29.9693222 L88.3779361,30.3037834 L88.3108269,30.6382447 L88.1766078,30.832699 L88.04497,31.0375237 L87.8475134,31.2345703 L87.6487664,31.3667992 L87.3854914,31.4329136 L87.1196351,31.5716244 L86.8563601,31.6325537 L86.5246849,31.6325537 L86.1271909,31.6325537 L85.7942253,31.6325537 L85.4638405,31.6325537 L85.1334558,31.5716244 L84.8675995,31.4329136 L84.6675621,31.3667992 L84.4029962,31.2345703 L84.270068,31.0375237 L84.071321,30.832699 L84.006793,30.6382447 L83.872574,30.3037834 L83.808046,29.9693222 L83.808046,29.6361576 L83.808046,26.5780421 L83.8093366,26.5780421 L83.8093353,26.5780421 Z M90.8248613,27.4427138 L90.8248613,28.7740765 L92.1515625,28.7740765 L92.5464753,28.700184 L92.8149129,28.700184 L92.9465506,28.5731408 L93.0781884,28.4383191 L93.1452977,28.3060902 L93.1452977,28.1064507 L93.1452977,27.9068112 L93.0781884,27.7123569 L92.9465506,27.576239 L92.8149129,27.5101246 L92.5464753,27.4440101 L92.2173814,27.4440101 L90.8248613,27.4440101 L90.8248613,27.4427138 L90.8248613,27.4427138 Z M93.411156,26.706384 L93.5415029,26.7776837 L93.674431,26.846391 L93.8060688,26.9099125 L93.938997,27.0447343 L94.1351627,27.2443738 L94.2693817,27.4440133 L94.3377819,27.7123601 L94.3377819,27.9755212 L94.3377819,28.3099824 L94.1351632,28.6392579 L94.0035255,28.8388974 L93.8718877,28.9750154 L93.674431,29.0385369 L93.4782653,29.1681729 L93.8060688,29.3068837 L93.938997,29.4391126 L94.0048158,29.5713415 L94.1364536,29.9032099 L94.2087254,30.1028494 L94.2087254,30.3024889 L94.2087254,30.6369501 L94.2087254,31.1023435 L94.3403632,31.2993902 L94.472001,31.431619 L94.472001,31.5003264 L93.1491741,31.5003264 L93.0162459,31.2345724 L93.0162459,31.0362291 L93.0162459,30.8314044 L93.0162459,30.3686038 L92.950427,30.1689643 L92.950427,29.9693248 L92.8846081,29.837096 L92.7503891,29.7709815 L92.6858611,29.6361598 L92.4845328,29.6361598 L92.2870761,29.5700453 L92.0883291,29.5700453 L90.8287356,29.5700453 L90.8287356,31.4990275 L89.6375443,31.4990275 L89.6375443,26.5767496 L92.4845322,26.5767496 L93.0149529,26.5767496 L93.4111565,26.7063856 L93.4111565,26.7063856 L93.411156,26.706384 Z M96.9873116,29.6361571 L98.4417794,29.6361571 L97.708739,27.7123564 L96.9873116,29.6361571 L96.9873116,29.6361571 L96.9873116,29.6361571 Z M97.0505492,26.5780421 L98.3720852,26.5780421 L100.427958,31.50032 L99.1012581,31.50032 L98.7695829,30.5021225 L96.650477,30.5021225 L96.2555642,31.50032 L94.9933942,31.50032 L97.0505523,26.5780421 L97.0505523,26.5780421 L97.0505492,26.5780421 Z M101.15712,26.5780421 L102.348317,26.5780421 L102.348317,30.636948 L105.259829,30.636948 L105.259829,31.5003253 L101.15712,31.5003253 L101.15712,26.5780421 L101.15712,26.5780421 L101.15712,26.5780421 Z M109.298008,27.4427161 L109.298008,28.5057329 L110.753767,28.5057329 L111.088023,28.5057329 L111.350008,28.3696149 L111.482936,28.3086857 L111.552626,28.2373861 L111.552626,28.1064539 L111.614574,27.974225 L111.552626,27.7745855 L111.552626,27.6423566 L111.418407,27.5736493 L111.28677,27.5075349 L110.957676,27.4414204 L110.623419,27.4414204 L109.298008,27.4414204 L109.298008,27.4427169 L109.298008,27.4427161 Z M109.298008,29.3704016 L109.298008,30.636948 L110.753767,30.636948 L111.088023,30.636948 L111.350008,30.5682407 L111.482936,30.5021262 L111.614574,30.3673045 L111.686845,30.167665 L111.752664,29.9680255 L111.686845,29.7709789 L111.614574,29.6361571 L111.482936,29.5039282 L111.350008,29.4378138 L111.088023,29.3691065 L110.753767,29.3691065 L109.298008,29.3691065 L109.298008,29.370403 L109.298008,29.3704016 Z M112.476669,27.1121412 L112.608307,27.2443701 L112.675416,27.4440096 L112.739944,27.6436491 L112.739944,27.8406957 L112.739944,28.0403352 L112.675416,28.2373818 L112.608307,28.4396142 L112.476669,28.574436 L112.277922,28.7014791 L112.012066,28.837597 L112.277922,28.9737149 L112.412141,29.0372365 L112.608307,29.1668725 L112.675416,29.3055833 L112.807054,29.4378122 L112.875454,29.6348588 L112.942564,29.8344983 L112.942564,30.0341378 L112.942564,30.2363702 L112.875454,30.4334168 L112.807054,30.6330563 L112.675416,30.8275106 L112.47796,31.0323353 L112.279213,31.2293819 L111.948828,31.3616108 L111.613281,31.4277252 L111.218368,31.4964325 L110.818293,31.4964325 L108.175216,31.4964325 L108.175216,26.5741546 L110.955092,26.5741546 L111.480352,26.5741546 L111.682971,26.6428619 L111.879137,26.7037911 L112.20694,26.8425019 L112.34374,26.9747308 L112.476668,27.1121449 L112.476668,27.1121449 L112.476669,27.1121412 Z M115.524986,29.6361571 L116.979454,29.6361571 L116.252868,27.7123564 L115.524986,29.6361571 L115.524986,29.6361571 L115.524986,29.6361571 Z M115.586933,26.5780421 L116.979453,26.5780421 L118.964342,31.50032 L117.706039,31.50032 L117.308545,30.5021225 L115.188148,30.5021225 L114.790654,31.50032 L113.534934,31.50032 L115.586933,26.5780421 L115.586933,26.5780421 L115.586933,26.5780421 Z M119.6948,26.5780421 L120.953103,26.5780421 L123.270956,30.0367328 L123.270956,26.5780421 L124.392459,26.5780421 L124.392459,31.50032 L123.201268,31.50032 L120.817595,27.9755185 L120.817595,31.50032 L119.6948,31.50032 L119.6948,26.5780421 L119.6948,26.5780421 L119.6948,26.5780421 Z M125.516529,26.5780421 L126.711593,26.5780421 L126.711593,28.5757337 L128.959758,26.5780421 L130.485204,26.5780421 L128.101531,28.5757337 L130.61684,31.50032 L129.090102,31.50032 L127.306543,29.3704016 L126.710302,29.835795 L126.710302,31.499027 L125.515238,31.499027 L125.515238,26.5780421 L125.516528,26.5780421 L125.516529,26.5780421 Z M137.237439,30.302483 L137.369077,30.1028435 L137.503296,29.7709752 L137.634934,29.4391068 L137.634934,29.0385316 L137.634934,28.6379565 L137.503296,28.308681 L137.369077,27.9742197 L137.304549,27.8393979 L137.23744,27.7732835 L137.105802,27.6410546 L136.972874,27.5062329 L136.710889,27.3714111 L136.442452,27.3078895 L136.114648,27.3078895 L135.714573,27.3078895 L135.448717,27.3714111 L135.317079,27.4401184 L135.18286,27.5062329 L135.051222,27.6410546 L134.917003,27.7097619 L134.722128,27.972923 L134.5892,28.3073843 L134.519509,28.6366597 L134.519509,29.0372349 L134.519509,29.4378101 L134.5892,29.7696785 L134.722128,30.1015468 L134.853765,30.2376648 L134.918293,30.3011863 L135.052512,30.4360081 L135.18415,30.5021225 L135.450007,30.6991691 L135.715863,30.7704688 L136.115938,30.7704688 L136.443742,30.7704688 L136.712179,30.6991691 L136.843817,30.6356476 L136.975455,30.5008258 L137.108383,30.4347114 L137.237439,30.3024825 L137.237439,30.3024825 L137.237439,30.302483 Z M137.964025,31.1023377 L137.76786,31.2345666 L137.63364,31.3667955 L137.171618,31.5016172 L136.641198,31.6338461 L136.115938,31.6999606 L135.518406,31.6338461 L135.251259,31.5729169 L134.987984,31.5016172 L134.522089,31.3667955 L134.390452,31.2345666 L134.191705,31.1023377 L133.996829,30.9026982 L133.79421,30.6991697 L133.662573,30.4360086 L133.530935,30.238962 L133.463826,29.9680228 L133.398007,29.6361545 L133.332188,29.3704005 L133.332188,29.0385321 L133.332188,28.7014785 L133.398007,28.3696102 L133.463826,28.1064491 L133.530935,27.8406952 L133.662573,27.5749412 L133.79421,27.3753017 L133.995539,27.1756622 L134.190414,26.9786156 L134.389161,26.8463867 L134.520799,26.7076759 L134.986693,26.5780399 L135.517114,26.4432182 L136.114646,26.3771037 L136.639906,26.4432182 L136.905762,26.5119255 L137.170328,26.5780399 L137.63235,26.7076759 L137.766569,26.8463867 L137.962735,26.9786156 L138.162772,27.1756622 L138.361519,27.3753017 L138.494447,27.5749412 L138.626085,27.8406952 L138.693194,28.1064491 L138.757722,28.3696102 L138.824832,28.7014785 L138.824832,29.0385321 L138.824832,29.3704005 L138.757722,29.6361545 L138.693194,29.9680228 L138.626085,30.238962 L138.494447,30.4360086 L138.361519,30.6991697 L138.162772,30.9014021 L137.964025,31.1023377 L137.964025,31.1023377 L137.964025,31.1023377 Z M139.752748,26.5780421 L143.861906,26.5780421 L143.861906,27.4440128 L140.945231,27.4440128 L140.945231,28.5757337 L143.461831,28.5757337 L143.461831,29.439111 L140.945231,29.439111 L140.945231,31.5003253 L139.752748,31.5003253 L139.752748,26.5780421 L139.752748,26.5780421 L139.752748,26.5780421 Z M147.435491,27.0434355 L147.631656,26.9086137 L147.829113,26.7763848 L148.02786,26.7050852 L148.227898,26.644156 L148.68992,26.5093342 L148.954485,26.4406269 L149.21776,26.4406269 L149.617836,26.4406269 L149.883692,26.5093342 L150.214077,26.5754486 L150.477352,26.644156 L150.739336,26.7763848 L151.007774,26.9086137 L151.074883,26.977321 L151.206521,27.1121428 L151.27234,27.1756644 L151.338159,27.3117823 L151.540778,27.5088289 L151.672415,27.7745829 L151.736943,27.9742223 L151.736943,28.2373834 L150.544461,28.2373834 L150.412823,27.905515 L150.281186,27.642354 L150.081148,27.5075322 L149.815292,27.4414178 L149.552017,27.3727105 L149.283579,27.3727105 L148.955776,27.3727105 L148.69121,27.4414178 L148.425354,27.5736467 L148.359535,27.7097646 L148.227897,27.7732861 L148.093678,28.0390401 L147.959459,28.3683156 L147.896221,28.700184 L147.896221,29.1059449 L147.896221,29.5039277 L147.959459,29.8357961 L148.093678,30.10155 L148.292425,30.3673039 L148.489882,30.5669434 L148.688629,30.6991723 L149.019013,30.770472 L149.280998,30.770472 L149.549436,30.770472 L149.812711,30.6991723 L150.078567,30.5669434 L150.278604,30.4347146 L150.410242,30.1663677 L150.54188,29.8344994 L151.734362,29.8344994 L151.669834,30.2376674 L151.469797,30.5669429 L151.27105,30.9014042 L151.074884,31.0362259 L150.940665,31.1684548 L150.806446,31.3006837 L150.61157,31.3667981 L150.214076,31.5716229 L150.015329,31.5716229 L149.749473,31.6325521 L149.283579,31.6986665 L149.021594,31.6325521 L148.691209,31.6325521 L148.425353,31.5716229 L148.162078,31.5003232 L147.96075,31.4316159 L147.763293,31.299387 L147.501309,31.1671581 L147.364509,30.9701115 L147.036705,30.6356502 L146.905067,30.3673034 L146.837958,30.1676639 L146.70632,29.90191 L146.706321,29.636156 L146.640502,29.3704021 L146.640502,29.1072411 L146.640502,28.7753727 L146.706321,28.4409114 L146.772139,28.1699723 L146.837958,27.9068112 L146.969596,27.7123569 L147.101234,27.4440101 L147.234162,27.2443706 L147.43549,27.043435 L147.43549,27.043435 L147.435491,27.0434355 Z M152.66357,31.499027 L152.66357,26.5767491 L153.857343,26.5767491 L153.857343,28.4409172 L156.105508,28.4409172 L156.105508,26.5767491 L157.296699,26.5767491 L157.296699,31.499027 L156.105508,31.499027 L156.105508,29.3068827 L153.857343,29.3068827 L153.857343,31.499027 L152.66357,31.499027 L152.66357,31.499027 L152.66357,31.499027 Z M159.550007,31.499027 L158.356234,31.499027 L158.356234,26.5767491 L159.550007,26.5767491 L159.550007,31.499027 L159.550007,31.499027 Z M160.675378,26.5780458 L161.93368,26.5780458 L164.187009,30.0367365 L164.187009,26.5780458 L165.308512,26.5780458 L165.308512,31.5003237 L164.114739,31.5003237 L161.802045,27.9755222 L161.802045,31.5003237 L160.675378,31.5003237 L160.675378,26.5780458 L160.675378,26.5780458 L160.675378,26.5780458 Z M168.023854,29.6361608 L169.483486,29.6361608 L168.751736,27.7123601 L168.023854,29.6361608 L168.023854,29.6361608 L168.023854,29.6361608 Z M168.088383,26.5780458 L169.483485,26.5780458 L171.532902,31.5003237 L170.211361,31.5003237 L169.813867,30.5021262 L167.690889,30.5021262 L167.294685,31.5003237 L166.037673,31.5003237 L168.088382,26.5780458 L168.088382,26.5780458 L168.088383,26.5780458 Z"/>
</svg>
