<?xml version="1.0" encoding="UTF-8"?>
<svg width="94px" height="94px" viewBox="0 0 94 94" version="1.1" xmlns="http://www.w3.org/2000/svg" xmlns:xlink="http://www.w3.org/1999/xlink">
    <!-- Generator: Sketch 57.1 (83088) - https://sketch.com -->
    <title>idcard_camera</title>
    <desc>Created with Sketch.</desc>
    <defs>
        <path d="M29.6222009,1.49213975e-13 C45.9957627,1.49213975e-13 59.2444018,13.2325383 59.2444018,29.5286409 C59.2444018,45.8247435 45.9957627,59.0572818 29.6222009,59.0572818 C13.2486391,59.0572818 -3.55271368e-14,45.8504878 -3.55271368e-14,29.5286409 C-3.55271368e-14,13.2067941 13.2486391,1.49213975e-13 29.6222009,1.49213975e-13 L29.6222009,1.49213975e-13 Z" id="path-1"></path>
        <filter x="-52.3%" y="-38.9%" width="204.7%" height="205.0%" filterUnits="objectBoundingBox" id="filter-2">
            <feOffset dx="0" dy="8" in="SourceAlpha" result="shadowOffsetOuter1"></feOffset>
            <feGaussianBlur stdDeviation="9" in="shadowOffsetOuter1" result="shadowBlurOuter1"></feGaussianBlur>
            <feColorMatrix values="0 0 0 0 0.917647059   0 0 0 0 0.254901961   0 0 0 0 0.223529412  0 0 0 0.4 0" type="matrix" in="shadowBlurOuter1"></feColorMatrix>
        </filter>
    </defs>
    <g id="页面1" stroke="none" stroke-width="1" fill="none" fill-rule="evenodd">
        <g id="1-实名认证-无数据" transform="translate(-148.000000, -439.000000)" fill-rule="nonzero">
            <g id="id_face" transform="translate(79.000000, 408.000000)">
                <g id="idcard_camera" transform="translate(86.185745, 40.500000)">
                    <g id="路径" opacity="0.900000036">
                        <use fill="black" fill-opacity="1" filter="url(#filter-2)" xlink:href="#path-1"></use>
                        <use fill="#FF665F" xlink:href="#path-1"></use>
                    </g>
                    <path d="M40.6376009,38.5656208 C39.9144783,39.2864595 39.2171815,39.6726231 38.209975,39.6726231 L21.603981,39.6726231 C20.5709487,39.6983673 19.8736519,39.2864595 19.1505293,38.5656208 C18.4274067,37.8447822 18.0141938,37.1496877 18.0400196,36.1456625 L18.0400196,25.5132922 C18.0141938,24.4835227 18.4274067,23.7111955 19.1505293,22.9903569 C19.8736519,22.2695182 20.5709487,21.9348431 21.603981,21.9605874 L23.9799552,21.9605874 L24.2640391,20.9308178 C24.4964714,20.3901888 24.8838585,19.9267926 25.348723,19.5921175 C25.8394134,19.2059539 26.4334069,19 27.0532263,19 L32.8640329,19 C33.4838523,19.0257442 34.0520201,19.2316981 34.5427104,19.5921175 C35.0334007,19.9267926 35.394962,20.3901888 35.6532201,20.9308178 L36.0147814,21.9090989 L38.209975,21.9605874 C39.2430073,21.9348431 39.9403041,22.2695182 40.6634267,23.0161011 C41.3865493,23.7369398 41.7997622,24.4835227 41.7739364,25.5132922 L41.7739364,36.1456625 C41.7481106,37.1496877 41.3348977,37.8705264 40.6376009,38.5656208 L40.6376009,38.5656208 Z M39.9661299,25.5132922 C39.9661299,24.9726632 39.7078719,24.6637323 39.3204847,24.303313 C38.9330976,23.9171494 38.7264912,23.7369398 38.1841492,23.7369398 L34.7493169,23.7369398 L33.9487168,21.6259123 C33.8454136,21.4199584 33.6904588,21.2397487 33.4838523,21.1110275 C33.3030717,20.9565621 33.0964652,20.8793294 32.8640329,20.8535851 L27.0532263,20.8535851 C26.820794,20.8535851 26.5883618,20.9565621 26.4334069,21.1110275 C26.2268005,21.2397487 26.0460198,21.4457026 25.9427166,21.6774007 L25.090465,23.762684 L21.603981,23.762684 C21.061639,23.762684 20.8550326,23.9428937 20.4676455,24.3290573 C20.0802583,24.7152208 19.8220003,24.9984074 19.8220003,25.5390364 L19.8220003,36.1714067 C19.7961745,36.7120357 20.0802583,36.9437338 20.4676455,37.3298974 C20.8292068,37.716061 21.061639,37.9735034 21.603981,37.9477591 L38.209975,37.9477591 C38.752317,37.9735034 38.9589234,37.716061 39.3463106,37.3298974 C39.7336977,36.9694781 40.0177815,36.7120357 39.9919557,36.1714067 L39.9919557,25.5132922 L39.9661299,25.5132922 Z M29.8940651,35.553545 C26.9499231,35.553545 24.548123,33.1850751 24.548123,30.2244877 C24.548123,27.2896446 26.9240973,24.8954305 29.8940651,24.8954305 C32.8640329,24.8954305 35.2400072,27.2639004 35.2400072,30.2244877 C35.2400072,33.1850751 32.8382071,35.553545 29.8940651,35.553545 Z M29.8940651,26.6975271 C27.9313037,26.6975271 26.3301037,28.2936699 26.3301037,30.250232 C26.3301037,32.2067941 27.9313037,33.8029368 29.8940651,33.8029368 C31.8568265,33.8029368 33.4580265,32.2067941 33.4580265,30.250232 C33.4580265,28.2679257 31.8568265,26.6975271 29.8940651,26.6975271 L29.8940651,26.6975271 Z" id="形状" fill="#FFFFFF"></path>
                </g>
            </g>
        </g>
    </g>
</svg>