<?xml version="1.0" encoding="UTF-8"?>
<svg width="231px" height="156px" viewBox="0 0 231 156" version="1.1" xmlns="http://www.w3.org/2000/svg" xmlns:xlink="http://www.w3.org/1999/xlink">
    <!-- Generator: Sketch 55.2 (78181) - https://sketchapp.com -->
    <title>szac_ signature</title>
    <desc>Created with Sketch.</desc>
    <g id="页面1" stroke="none" stroke-width="1" fill="none" fill-rule="evenodd">
        <g id="SZCA数字证书申请4" transform="translate(-459.000000, -493.000000)" fill="#EFEFEF" fill-rule="nonzero">
            <g id="编组-3" transform="translate(30.000000, 275.000000)">
                <g id="数字签名" transform="translate(0.000000, 54.000000)">
                    <g id="szac_-signature" transform="translate(547.000000, 229.000000) rotate(13.000000) translate(-547.000000, -229.000000) translate(440.000000, 146.000000)">
                        <path d="M193.176616,47.5005313 C203.839874,35.6969611 211.971344,21.8358452 204.852577,9.51368766 C196.734334,-3.83559155 176.417317,-0.238973992 162.199607,4.89329949 C157.62917,13.1069542 143.404879,34.6699042 142.905093,34.6699042 C141.882454,34.6699042 145.946532,18.245865 146.965864,11.5678824 L146.965859,11.5678853 C135.526964,19.0572919 125.111085,28.0336913 115.985552,38.266379 L115.985551,38.2663822 C115.049743,44.0532278 113.523646,49.7265423 111.431657,55.1955075 C110.418946,55.1955075 110.418946,49.0360961 110.418946,44.415708 L110.41895,44.4157032 C107.36169,48.2773776 104.642077,52.400256 102.290779,56.7378607 L102.290781,56.7378562 C96.0899309,71.2374042 91.4916463,86.3847898 88.5794699,101.904531 L88.579459,101.904544 C83.4374793,108.340361 78.8502761,115.209628 74.8681484,122.436941 C73.3457717,127.057329 77.4098493,128.596352 79.9482513,126.033558 C81.9769873,123.975964 87.5601268,116.274195 92.1371933,111.141921 C99.2427174,107.545303 117.524417,98.3078782 135.30324,88.5517846 C131.745506,88.5517846 127.691365,88.0398944 127.691365,87.0127695 C127.691365,85.9856446 138.354623,83.9313883 144.957111,82.9076177 L144.957116,82.9076151 C156.060765,77.2654152 166.604514,70.5612879 176.443775,62.887104 L176.443775,62.8871038 C178.089833,61.6636478 179.619888,60.2882417 181.014212,58.778601 C175.431056,58.778601 167.302901,59.2904911 167.302901,58.2667108 C167.809257,57.7514761 186.09763,50.0497051 193.203202,47.4869113 L193.176616,47.5005313 Z M132.235269,63.4192901 C117.011502,78.3109274 86.5309003,112.704521 85.0052808,115.785869 C82.9754428,118.355349 82.4679837,118.355349 83.4829041,115.785869 C85.5116401,111.165481 116.495343,69.0701025 129.187273,56.23266 C140.863234,44.4290899 162.199711,32.1068676 174.891642,31.0798593 C182.003779,30.5679691 180.984463,31.5917494 174.891642,34.1612405 C162.7027,38.2663923 146.962733,49.0528777 132.231946,63.4259599 L132.235269,63.4192901 Z" id="形状"></path>
                        <path d="M4.42059437,146.878046 L4.4205946,146.878046 C3.18158047,147.529678 1.64797488,147.055298 0.995170618,145.818491 C0.342376075,144.581683 0.817601766,143.050808 2.0566159,142.399167 C2.05661593,142.399167 2.05661593,142.399167 2.05661596,142.399167 C21.2831694,132.316121 45.7521501,125.984399 75.46372,123.404 C119.127012,119.593613 134.92137,122.909319 134.92137,136.613347 C134.92137,143.007449 129.202284,145.106491 109.376425,149.465045 L109.259231,149.491785 L109.259225,149.491786 C103.659888,150.515943 98.1477808,151.968613 92.7717533,153.836948 C88.9344788,155.341049 87.6085045,156.621208 87.8596329,157.607226 C88.3351065,159.465631 99.0399672,161.133502 118.243093,160.836032 C139.103601,160.51293 169.976032,158.152045 210.860062,153.753399 L210.860062,153.753399 C212.251727,153.585848 213.515964,154.576181 213.683815,155.965361 C213.851664,157.354548 212.859565,158.616533 211.467907,158.784085 C211.448367,158.786438 211.4288,158.788563 211.409211,158.790462 C125.854135,167.985529 85.4521093,168.613898 82.9542726,158.85731 C81.8292076,154.488729 84.9633162,151.463816 90.9301759,149.130799 L90.9301821,149.130796 C96.5464503,147.148102 102.311532,145.613561 108.171039,144.541632 L108.291581,144.514892 C123.737777,141.122319 129.855249,138.872851 129.855249,136.610008 C129.855249,127.732481 116.394653,124.91146 75.9091394,128.441068 C46.820368,130.972414 22.9908737,137.118066 4.42065647,146.877943 L4.42059437,146.878046 Z" id="路径"></path>
                    </g>
                </g>
            </g>
        </g>
    </g>
</svg>