<?xml version="1.0" standalone="no"?>
<!DOCTYPE svg PUBLIC "-//W3C//DTD SVG 1.1//EN" "http://www.w3.org/Graphics/SVG/1.1/DTD/svg11.dtd" >
<!--
2013-9-30: Created.
-->
<svg>
<metadata>
Created by iconfont
</metadata>
<defs>

<font id="iconfont" horiz-adv-x="1024" >
  <font-face
    font-family="iconfont"
    font-weight="500"
    font-stretch="normal"
    units-per-em="1024"
    ascent="896"
    descent="-128"
  />
    <missing-glyph />
    
    <glyph glyph-name="publicManage" unicode="&#58887;" d="M0 592.2303999999999l454.2464-235.4688v-478.208L0 110.89919999999995V592.2303999999999z m1010.8928 0v-481.3824l-454.2976-232.2432v478.208l454.2976 235.4176zM93.0304 439.296v-271.4624l268.1856-137.1136v269.5168L93.0304 439.296z m824.832 0l-268.2368-139.0592V30.720000000000027l268.2368 137.1136V439.2448zM497.408 896l452.3008-218.0608-452.3008-235.8272-474.112 252.416L497.408 896z m-2.4064-102.0928l-256-108.8L497.8688 547.328l244.3776 127.4368-247.2448 119.1936z"  horiz-adv-x="1024" />

    
    <glyph glyph-name="productManagement" unicode="&#58888;" d="M426.307368 896l63.919158-142.066526H1077.894737v-837.847579H0V896h426.307368zM350.531368 798.019368H97.980632v-783.952842h881.933473V655.952842H414.558316L350.531368 797.965474zM779.048421 410.947368v-97.980631h-480.202105V410.947368h480.202105z"  horiz-adv-x="1077" />

    
    <glyph glyph-name="facilitatorManage" unicode="&#58889;" d="M797.534316 798.019368H293.995789v-196.015157H195.961263V896h699.553684v-293.995789H1077.894737v-685.918316H0V602.0042109999999h797.534316V798.019368z m182.379789-293.995789H97.980632v-489.903158h881.933473v489.903158z"  horiz-adv-x="1077" />

    
    <glyph glyph-name="orderManagement" unicode="&#58890;" d="M956.5184 896v-1024H25.6V896h930.9184zM258.304 802.9184H118.6816v-837.8368h744.7552V802.9184h-139.6736v-232.7552h-465.408l-0.0512 232.7552z m512-605.0816v-93.1328H211.7632v93.1328h558.592z m0 209.408v-93.0816H211.7632V407.296h558.592z m-139.6224 395.6736H351.3856v-139.6224h279.296V802.9184z"  horiz-adv-x="1024" />

    
    <glyph glyph-name="customerManagement" unicode="&#58892;" d="M516.4032 896a279.296 279.296 0 0 0 124.672-529.2032c201.4208-53.8624 354.6624-228.6592 374.0672-444.0576l4.5568-50.7392H0l4.608 50.688c19.6608 218.5728 177.0496 395.264 382.6688 446.3616A279.296 279.296 0 0 0 516.352 896z m-6.5536-605.0816a414.464 414.464 0 0 1-404.7872-325.8368h809.5744a414.464 414.464 0 0 1-404.7872 325.8368z m6.5536 512a186.1632 186.1632 0 1 1 0-372.3776 186.1632 186.1632 0 0 1 0 372.3776z"  horiz-adv-x="1024" />

    
    <glyph glyph-name="statisticsManage" unicode="&#58893;" d="M441.344 851.456v-89.6a400.7424 400.7424 0 1 1 444.3136-459.8784h89.9072c-30.5152-241.152-236.3904-427.6224-485.8368-427.6224A489.728 489.728 0 0 0 0 364.08320000000003C0 618.24 193.536 827.1872 441.344 851.5072zM534.272 853.8624h44.544A400.6912 400.6912 0 0 0 979.456 453.12v-44.544h-445.184V853.9136z m89.0368-356.1984h263.9872a311.808 311.808 0 0 1-263.9872 263.9872V497.664z"  horiz-adv-x="1024" />

    
    <glyph glyph-name="systemManagement" unicode="&#58894;" d="M770.304 896v-558.5408h186.2144v-325.8368l-186.2144 0.0512V-128h-93.0816v139.6736H491.0592V337.408h186.1632V896h93.0816z m-465.408 0l-0.0512-139.6224h186.2144v-325.8368L304.8448 430.592V-128H211.8144V430.592H25.6V756.3264h186.1632V896h93.1328z m558.5408-651.6224h-279.296v-139.6736h279.296v139.6736zM397.9776 663.296H118.6816v-139.6736h279.296V663.296z"  horiz-adv-x="1024" />

    
    <glyph glyph-name="resourceManage" unicode="&#58895;" d="M24.380952 896h930.864762v-406.137905H24.380952V896z m88.649143-88.649143v-228.839619h753.615238V807.350857H113.030095zM24.380952 341.86971400000004h930.864762v-425.545143H24.380952v425.545143z m88.649143-88.697904v-248.198096h753.615238v248.198096H113.030095zM268.190476 75.92228599999999V164.57142899999997h88.746667v-88.649143H268.190476z m0 585.142857V749.714286h88.746667v-88.649143H268.190476z"  horiz-adv-x="1024" />

    
    <glyph glyph-name="merchantManagement" unicode="&#58891;" d="M1024 896v-476.0064h-139.6736v-501.4528H139.6736V419.9936H0V896h1024z m-232.7552-476.0064H232.704v-408.32h558.5408V419.9936z m139.6736 382.9248H93.0816V513.024h837.8368V802.816zM759.7568 691.2v-93.0816H256V691.2h503.7568z"  horiz-adv-x="1024" />

    
    <glyph glyph-name="back" unicode="&#58896;" d="M6.279195 357.70959300000004a59.019215 59.019215 0 0 0 12.404906 69.569779L468.393892 876.989163a59.274986 59.274986 0 1 0 83.765082-83.765083l-349.767177-349.767177h918.666368a59.274986 59.274986 0 0 0 0-118.549972H202.327854l349.895063-349.895062a59.274986 59.274986 0 0 0-83.765083-83.765083L17.405245 342.23543299999994a59.211043 59.211043 0 0 0-11.12605 15.410218v0.063942z"  horiz-adv-x="1214" />

    
    <glyph glyph-name="success" unicode="&#58897;" d="M416.896 164.565333l-197.461333 190.165334 58.496 58.538666 138.965333-138.965333 329.173333 329.130667 58.496-51.2-387.669333-387.669334zM512 896C226.730667 896 0 669.269333 0 384s226.730667-512 512-512 512 226.730667 512 512S797.269333 896 512 896z"  horiz-adv-x="1024" />

    
    <glyph glyph-name="accessory" unicode="&#58898;" d="M673.133369 895.997806c28.306225 0 56.539307-7.021699 77.750691-14.189684 84.918675-35.327924 134.436283-113.2249 134.436283-205.165275 0-56.539307-21.211383-113.151758-63.634149-155.647666l-396.140866-403.162565c-14.189684-14.189684-28.306225-21.211383-42.422766-28.233082-14.262827-7.021699-28.306225-7.021699-49.517608-7.0217-14.189684 0-35.47421 0-49.517608 7.0217-14.189684 7.021699-28.306225 14.189684-35.401067 28.233082-14.189684 14.189684-21.211383 28.306225-28.306226 42.422766-7.021699 14.262827-7.021699 35.401067-7.021699 49.590751 0 35.401067 14.189684 70.728991 35.401067 91.940375L609.572362 676.569704c7.021699 7.021699 21.211383 14.189684 28.233083 14.189684 14.189684 0 28.306225-7.021699 35.474209-14.189684 7.021699-7.021699 14.189684-21.211383 14.189684-28.233082-7.094842-14.189684-7.094842-21.211383-14.189684-35.47421L305.298729 245.24720000000002a54.198741 54.198741 0 0 1-14.189684-35.401067c0-21.211383 21.211383-42.422766 42.422766-42.422766 14.262827 0 21.211383 6.948557 28.306225 14.116541l396.140865 403.162565c28.233082 28.233082 35.254782 56.539307 35.254782 91.940374 0 35.401067-14.189684 63.707292-35.254782 91.940375a100.936927 100.936927 0 0 1-84.918675 42.495909c-35.47421 0-70.728991-14.189684-92.013517-42.422767L185.052129 365.420657c-21.211383-21.211383-35.401067-42.422766-49.444465-70.728991a215.770966 215.770966 0 0 1 0-162.742509c14.189684-28.233082 28.233082-49.444465 49.444465-70.728991 42.422766-42.422766 92.013517-63.634149 148.479682-63.634149 56.61245 0 113.2249 21.211383 148.479682 63.634149l403.30885 396.140865c7.021699 14.189684 14.189684 14.189684 28.306225 14.189684 14.189684 0 21.211383-7.021699 28.233082-14.189684 7.021699-7.021699 14.189684-14.189684 14.189684-28.306225 0-14.043398-7.021699-21.211383-14.189684-28.233082l-396.067722-403.235707c-28.306225-28.306225-63.707292-49.517608-99.035217-70.728992a292.570802 292.570802 0 0 0-113.151757-21.211383 292.570802 292.570802 0 0 0-113.224901 21.211383c-35.401067 14.189684-70.728991 35.401067-98.962073 70.728992a298.056504 298.056504 0 0 0-63.707292 98.962073A322.266738 322.266738 0 0 0 36.572447 209.91927599999997c0 42.422766 7.021699 77.750691 21.211383 120.173457a296.959364 296.959364 0 0 0 63.707293 99.035216L517.631988 832.217371A218.623532 218.623532 0 0 0 673.133369 895.997806z"  horiz-adv-x="1024" />

    
    <glyph glyph-name="date" unicode="&#58899;" d="M876.8 779.456H760.32V855.616c0 22.336-19.2 40.384-43.008 40.384-23.744 0-43.008-18.048-43.008-40.32v-76.224H349.76V855.616C349.76 878.016 330.496 896 306.752 896 282.88 896 263.68 877.952 263.68 855.68v-76.224H147.328C66.048 779.456 0 717.6320000000001 0 641.216v-631.04C0-66.17600000000004 66.048-128 147.328-128h729.344C958.08-128 1024-66.17600000000004 1024 10.176000000000045v631.04c0.128 76.416-65.92 138.24-147.2 138.24zM147.328 698.816H263.68v-89.6c0-22.272 19.264-40.32 43.072-40.32 23.68 0 43.008 18.048 43.008 40.32v89.6h324.608v-89.6c0-22.272 19.264-40.32 43.008-40.32 23.808 0 43.008 18.048 43.008 40.32v89.6H876.8c33.92 0 61.44-25.792 61.44-57.6V462.72H86.016V641.28c0 31.744 27.52 57.6 61.312 57.6zM876.8-47.360000000000014H147.328c-33.92 0-61.44 25.792-61.44 57.6V382.08000000000004h852.224v-371.968c0-31.808-27.52-57.6-61.312-57.6z"  horiz-adv-x="1024" />

    
    <glyph glyph-name="warning" unicode="&#58900;" d="M512 896c282.453333 0 512-229.546667 512-512s-229.546667-512-512-512S0 101.54666699999996 0 384 229.546667 896 512 896z m-36.565333-231.637333v-414.464h73.130666V664.362667h-73.130666z m0-487.594667v-73.130667h73.130666v73.130667h-73.130666z"  horiz-adv-x="1024" />

    
    <glyph glyph-name="close" unicode="&#58901;" d="M591.292304 384.0032l416.893395 416.957394a54.527659 54.527659 0 0 1 0 76.79952l-2.239986 2.303986a54.527659 54.527659 0 0 1-76.79952 0L512.316798 462.46671 95.359404 880.192099a54.527659 54.527659 0 0 1-76.79952 0L16.255898 877.952113a53.567665 53.567665 0 0 1 0-76.79952L433.277292 384.0032 16.255898-33.14619300000004a54.527659 54.527659 0 0 1 0-76.671521l2.303986-2.367985a54.527659 54.527659 0 0 1 76.73552 0l416.957394 417.085393 416.957394-417.021393a54.527659 54.527659 0 0 1 76.735521 0l2.367985 2.303985a54.527659 54.527659 0 0 1 0 76.671521L591.228305 384.0672v-0.128z"  horiz-adv-x="1024" />

    
    <glyph glyph-name="upload" unicode="&#58902;" d="M982.418286 586.459429C965.595429 760.173714 819.273143 896 641.170286 896c-175.945143 0-320.731429-132.534857-340.48-303.177143C130.304 565.394286 0 418.011429 0 239.90857100000005c0-197.595429 160.219429-357.814857 357.851429-357.814857h182.198857v328.045715H291.620571l334.628572 357.814857 334.628571-357.851429H718.994286v-328.045714h205.458285v1.572571c183.661714 15.140571 328.045714 168.740571 328.045715 356.315429 0 167.277714-114.980571 307.309714-270.08 346.514286z"  horiz-adv-x="1280" />

    
    <glyph glyph-name="research" unicode="&#58903;" d="M792.752 137.08799999999997l186.496-186.496c17.28-17.28 17.28-45.376 0-62.72l-0.832-0.768a44.288 44.288 0 0 0-62.656 0l-190.848 190.784a434.304 434.304 0 0 0-251.648-80.064C229.424-2.1760000000000446 31.792 198.84799999999996 31.792 446.912 31.792 694.912 229.424 896 473.264 896c243.84 0 441.472-201.088 441.472-449.088a451.712 451.712 0 0 0-121.92-309.824h-0.064z m-319.488-49.472c195.008 0 353.152 160.896 353.152 359.296s-158.08 359.296-353.152 359.296c-195.072 0-353.152-160.896-353.152-359.296s158.08-359.296 353.152-359.296z"  horiz-adv-x="1024" />

    
    <glyph glyph-name="question" unicode="&#58904;" d="M512 896c282.331429 0 512-229.668571 512-512s-229.668571-512-512-512-512 229.668571-512 512 229.668571 512 512 512zM426.642286 468.918857C427.373714 527.213714 449.828571 566.857143 512 566.857143c54.418286 0 85.357714-27.209143 85.357714-73.142857 0-22.381714-8.338286-36.205714-35.108571-61.805715l-14.628572-13.897142C498.176 370.54171399999996 475.428571 329.874286 475.428571 262.07085700000005h73.142858c0 44.544 13.238857 68.169143 49.737142 103.131429l14.628572 13.970285c39.716571 38.034286 57.563429 67.584 57.563428 114.541715 0 88.576-65.609143 146.285714-158.500571 146.285714-62.902857 0-108.251429-26.916571-134.144-72.557714-17.261714-30.354286-23.917714-64.512-24.356571-97.718857l73.142857-0.804572zM475.428571 201.14285700000005v-73.142857h73.142858v73.142857h-73.142858z"  horiz-adv-x="1024" />

    
    <glyph glyph-name="refresh" unicode="&#58905;" d="M948.988543 182.01464399999998a43.071812 43.071812 0 0 1-59.39174-15.039935 427.45413 427.45413 0 0 0-365.438402-207.80709 424.510143 424.510143 0 0 0-407.230218 302.718675l77.951659-77.887659a43.007812 43.007812 0 0 1 30.591866-12.671945 43.39181 43.39181 0 0 1 30.527867 73.855677L86.272317 414.909625A43.135811 43.135811 0 1 1 12.48064 384.317759c0-282.110766 229.566996-511.677761 511.677761-511.677762a514.557749 514.557749 0 0 1 439.870076 250.046906 43.45581 43.45581 0 0 1-15.039934 59.327741zM529.406378 895.93152L524.094402 895.99552A508.413776 508.413776 0 0 1 64.064414 608.444778a43.007812 43.007812 0 0 1-2.047991-33.023855c3.775983-10.943952 11.51995-19.775913 21.951904-24.831892 10.303955-5.119978 22.079903-5.823975 33.087855-2.047991a42.879812 42.879812 0 0 1 24.767892 21.887904 422.526151 422.526151 0 0 0 382.334327 238.910955 424.510143 424.510143 0 0 0 407.166219-302.654676L850.492974 587.5168699999999a42.943812 42.943812 0 0 1-61.119733 0 43.32781 43.32781 0 0 1 0-61.183733l172.671245-172.671244a43.007812 43.007812 0 0 1 47.167793-9.343959 43.135811 43.135811 0 0 1 26.687884 39.935825C1035.836163 664.636532 809.149155 893.051533 529.406378 895.99552z"  horiz-adv-x="1036" />

    
    <glyph glyph-name="failure" unicode="&#58906;" d="M563.712 384.341333l155.178667 155.178667-51.712 51.712L512 436.096 356.821333 591.232 305.109333 539.52l155.178667-155.178667-155.178667-155.136 51.712-51.712L512 332.629333l155.178667-155.136 51.712 51.712-155.178667 155.136zM512 896c282.453333 0 512-229.546667 512-512s-229.546667-512-512-512S0 101.54666699999996 0 384 229.546667 896 512 896z"  horiz-adv-x="1024" />

    
    <glyph glyph-name="lang" unicode="&#58907;" d="M1024 384.398222C1024 666.965333 794.737778 896 512 896S0 666.851556 0 384.398222c0-261.006222 195.697778-476.330667 448.284444-507.676444 22.755556-4.380444 46.08-5.688889 69.176889-3.811556C797.582222-124.35911099999998 1024 103.65155600000003 1024 384.341333z m-73.216-7.224889a500.906667 500.906667 0 0 1-9.955556 74.808889c0.398222 8.647111 0.568889 16.896 0.284445 24.462222 6.997333-32.597333 10.24-65.934222 9.614222-99.271111h0.056889zM73.216 384.398222c0 31.004444 3.185778 61.212444 9.329778 90.453334 18.944-20.252444 63.658667-19.797333 74.524444 10.524444 19.512889-11.662222 45.681778-13.767111 45.681778-36.977778 0-76.629333 2.673778-158.72 72.305778-160.028444 1.934222 0 38.855111-13.994667 56.376889-59.505778 6.087111-15.701333 30.151111 0 56.32 0 13.198222 0 0-22.186667 0-69.973333 0-47.672889 102.855111-121.059556 102.855111-121.059556-0.625778-25.884444 0.512-51.768889 3.470222-77.425778a172.088889 172.088889 0 0 1-58.083556-7.964444 438.727111 438.727111 0 0 0-362.780444 432.014222v-0.056889z m546.816-425.130666c-2.275556 11.150222-12.174222 17.294222-30.378667 12.515555 14.506667 61.667556 21.560889 96.256 51.825778 122.481778 43.690667 37.944889 5.12 80.156444-28.16 75.093333-26.225778-3.925333-9.614222 32.540444-32.995555 34.588445-23.438222 1.934222-54.101333 48.526222-87.779556 64.568889-17.92 8.476444-35.441778 31.288889-63.032889 32.256-24.405333 0.967111-60.188444-20.650667-60.188444-3.982223 0 53.589333-5.347556 91.875556-6.485334 107.178667-0.910222 12.288-7.964444 4.152889 24.917334 3.413333 18.090667-0.568889 9.329778 36.067556 27.079111 37.489778 17.464889 1.422222 59.107556-16.384 69.688889-9.272889 9.898667 6.599111 72.476444-164.295111 72.476444-28.216889 0 16.099556-8.305778 44.145778 0 59.505778 32.995556 60.302222 64 109.568 61.269333 116.792889-1.649778 3.982222-33.905778 7.395556-59.676444-1.308444-8.704-2.844444 2.730667-16.497778-9.671111-19.456-46.876444-10.808889-88.348444 12.686222-73.841778 34.702222 14.791111 22.584889 68.664889 9.841778 73.386667 55.182222 2.730667 25.998222 4.949333 56.035556 6.428444 78.392889 63.146667-9.841778 56.092444 81.863111-37.660444 91.648a438.954667 438.954667 0 0 0 409.486222-294.798222 17.92 17.92 0 0 1-10.410667 4.835555c-28.387556 70.826667-97.28 19.569778-73.898666-42.894222-125.041778-96.142222-93.013333-163.214222-51.939556-201.614222 21.617778-20.195556 42.211556-50.574222 55.694222-72.305778-14.677333-42.666667 53.76-25.6 87.552 46.705778a439.466667 439.466667 0 0 0-313.628444-303.502222z"  horiz-adv-x="1024" />

    
    <glyph glyph-name="fullScreen" unicode="&#58908;" d="M186.527451 778.24l147.090286 0.585143c21.796571-0.585143 41.910857 15.725714 45.202286 43.52v29.988571C378.308023 876.032 360.31488 895.561143 338.664594 896L57.72288 894.171429C57.357166 894.244571 57.064594 894.390857 56.69888 894.390857L36.950309 894.902857A35.84 35.84 0 0 1 9.521737 882.834286C2.353737 875.373714-0.206263 864.768 0.013166 852.918857L2.207451 831.561143c0-0.438857-1.462857-0.731429-1.462857-1.243429l1.024-305.517714c0.512-23.552 18.505143-37.668571 40.228572-38.253714h29.257143c21.796571-0.512 39.058286 20.041143 38.619428 43.52L108.630309 696.3199999999999l193.609142-206.262857a50.907429 50.907429 0 0 1 76.214858 0 62.025143 62.025143 0 0 1 0 82.578286L186.527451 778.1668569999999z m835.291429-841.874286c0 0.585143 1.462857 0.877714 1.462857 1.316572l-1.170286 300.836571c-0.585143 23.552-18.505143 37.595429-40.228571 38.180572h-27.721143c-21.650286 0.512-38.985143-20.041143-38.473143-43.593143l1.243429-162.596572-193.609143 207.725715a50.834286 50.834286 0 0 1-76.141714 0 61.952 61.952 0 0 1 0-82.651429l193.609143-207.506286-146.870858-0.585143c-21.796571 0.512-41.910857-13.970286-45.202285-41.764571v-29.988571c0.512-23.625143 18.578286-43.154286 40.228571-43.739429l277.211429 1.828571c0.438857 0 0.731429-0.219429 1.170285-0.219428l19.602286-0.512a35.84 35.84 0 0 1 27.648 11.995428c7.094857 7.533714 9.581714 18.139429 9.362286 29.988572l-2.121143 21.357714zM378.381166 278.23542899999995a50.834286 50.834286 0 0 1-76.141715 0l-193.682285-206.262858 1.243428 163.620572c0.512 23.552-16.822857 44.105143-38.473143 43.52h-29.257142c-21.796571-0.585143-39.789714-14.628571-40.228572-38.180572l-1.170286-303.104c0-0.438857 1.462857-0.731429 1.462858-1.170285L0.013166-84.84571400000004c-0.219429-11.849143 2.340571-22.454857 9.362285-29.988572a35.84 35.84 0 0 1 27.574858-11.995428l19.748571 0.512c0.365714 0 0.585143 0.219429 1.024 0.219428l280.868571-1.828571c21.723429 0.585143 39.716571 20.041143 40.228572 43.666286v29.988571c-3.291429 27.794286-23.405714 42.276571-45.129143 41.764571l-148.772571 0.585143 193.462857 207.433143a62.025143 62.025143 0 0 1 0 82.651429zM1014.504594 882.907429a35.693714 35.693714 0 0 1-27.574857 11.922285l-19.675428-0.438857c-0.438857 0-0.731429-0.146286-1.097143-0.219428L684.996023 895.926857c-21.796571-0.512-39.716571-20.041143-40.228572-43.593143l-0.146285-29.988571c3.364571-27.940571 23.552-44.178286 45.202285-43.593143l149.211429-0.731429-191.634286-205.531428a61.732571 61.732571 0 0 1-0.146285-82.505143 50.834286 50.834286 0 0 1 76.141714 0l193.609143 207.579429-1.243429-167.497143c-0.512-23.552 16.822857-44.105143 38.546286-43.593143h27.648c21.723429 0.658286 39.716571 14.701714 40.228571 38.253714l1.170286 305.590857c0 0.512-1.462857 0.731429-1.462857 1.243429L1024.013166 852.845714c0.219429 11.849143-2.340571 22.454857-9.435429 29.988572z"  horiz-adv-x="1024" />

    
    <glyph glyph-name="upload2" unicode="&#58909;" d="M1017.539855 280.543945v-245.26814a25.676755 25.676755 0 0 0-25.361703-25.834281H110.425797a25.676755 25.676755 0 0 0-25.361702 25.834281V280.78023399999995a43.004626 43.004626 0 0 1-41.744417 44.107309 42.925863 42.925863 0 0 1-43.319678-42.610811v-281.262855c0-43.083389 34.261927-77.97542 76.400159-77.97542h949.882394c42.138232 0 76.400159 34.892032 76.40016 77.97542V280.70147099999997a43.004626 43.004626 0 0 1-42.532048 43.319678 43.004626 43.004626 0 0 1-42.61081-43.477204zM498.176297 883.2388100000001a42.216995 42.216995 0 0 0 60.332497 0l191.788029-195.647418a43.949782 43.949782 0 0 0 0.236289-61.356417 41.980706 41.980706 0 0 0-60.174971-0.236289L571.032119 747.8451259999999v-530.626674a43.004626 43.004626 0 0 0-42.532047-43.398441 43.004626 43.004626 0 0 0-42.610811 43.319678V747.8451259999999L366.563239 626.2349750000001a41.980706 41.980706 0 0 0-60.253734 0 44.028545 44.028545 0 0 0 0 61.356417L498.176297 883.2388100000001z"  horiz-adv-x="1102" />

    
    <glyph glyph-name="fold" unicode="&#58910;" d="M0 896h1024v-93.0816H0V896z m0-930.9184h1024V-128H0v93.0816zM325.8368 430.592H1024v-93.0816H325.8368V430.5408zM131.584 372.736l131.6864-131.584-65.8432-65.8944L0 372.736l197.4784 197.4784 65.8432-65.792-131.6864-131.6864z"  horiz-adv-x="1024" />

    


  </font>
</defs>
</svg>
