<?xml version="1.0" encoding="UTF-8"?>
<svg width="61px" height="58px" viewBox="0 0 61 58" version="1.1" xmlns="http://www.w3.org/2000/svg" xmlns:xlink="http://www.w3.org/1999/xlink">
    <!-- Generator: Sketch 55.2 (78181) - https://sketchapp.com -->
    <title>five_open</title>
    <desc>Created with Sketch.</desc>
    <g id="页面1" stroke="none" stroke-width="1" fill="none" fill-rule="evenodd">
        <g id="宣传首页" transform="translate(-1257.000000, -3951.000000)" fill="#FFFFFF" fill-rule="nonzero">
            <g id="8大模块备份" transform="translate(0.000000, 3704.000000)">
                <g id="位图">
                    <g id="编组-4备份" transform="translate(1012.000000, 211.000000)">
                        <g id="开放" transform="translate(245.000000, 36.000000)">
                            <path d="M48.4418376,57.0430715 C42.1603188,57.0430715 36.9716969,52.2814609 36.2938908,46.177623 L24.3714611,46.177623 C23.6936947,52.281447 18.505047,57.0430715 12.2235142,57.0430715 C5.48308378,57.0430715 0,51.5599596 0,44.8195013 C0,38.0790708 5.4830559,32.595987 12.2235142,32.595987 C12.4940929,32.595987 12.7540427,32.6145345 13.0007221,32.6410716 L21.044955,20.1523047 C19.1443444,17.938668 18.1084646,15.1626119 18.1084646,12.2235142 C18.1084646,5.48308378 23.5915205,0 30.3319788,0 C37.0724092,0 42.555493,5.4830559 42.555493,12.2235142 C42.555493,15.2316264 41.4692535,18.0593946 39.4744068,20.2982111 L47.4351251,32.6570356 C47.7640573,32.6198693 48.096984,32.596043 48.4418237,32.596043 C55.1809645,32.596043 60.6640134,38.0790989 60.6640134,44.8195572 C60.6640134,51.5599877 55.1810342,57.0430715 48.4418934,57.0430715 L48.4418376,57.0430715 Z M21.7307152,43.4613795 L38.9346367,43.4613795 L38.9346367,44.8195501 C38.9346367,50.0612016 43.2001233,54.326751 48.4418376,54.326751 C53.6835589,54.326751 57.9477141,50.0612643 57.9477141,44.8195501 C57.9477141,39.5778288 53.6835101,35.3123491 48.4418376,35.3123491 C47.9815757,35.3123491 47.5041187,35.3813313 46.97224,35.4648663 L46.0995133,35.6014752 L35.9928621,19.9095988 L36.8178642,19.135026 C38.7662761,17.3073198 39.8392425,14.8522787 39.8392425,12.2234605 C39.8392425,6.98180901 35.5737558,2.71625958 30.3320415,2.71625958 C25.0903203,2.71625958 20.8248406,6.98174627 20.8248406,12.2234605 C20.8248406,14.7978479 21.8487997,17.2131534 23.7083293,19.023599 L24.5041571,19.7995242 L14.3510083,35.5616699 L13.2475082,35.411792 C12.909303,35.364068 12.5737363,35.3123491 12.2235491,35.3123491 C6.98189755,35.3123491 2.71634811,39.5778358 2.71634811,44.8195501 C2.71634811,50.0612713 6.98183481,54.326751 12.2235491,54.326751 C17.4652703,54.326751 21.73075,50.0612643 21.73075,44.8195501 L21.73075,43.4613795 L21.7307152,43.4613795 Z M39.1998894,42.555477 L21.4628134,42.555477 L21.1418709,41.6522166 C20.3447604,39.4094055 18.7385489,37.5591546 16.6164365,36.4423814 L15.3047009,35.7527021 L25.2482966,20.3128331 L26.3213397,20.8128331 C28.9023566,22.0131309 31.6625045,22.0197674 34.1851589,20.8977192 L35.2488537,20.4255443 L45.167144,35.8256079 L43.8925089,36.5272693 C41.8486549,37.6520314 40.2955148,39.4717486 39.5208793,41.6522166 L39.1998657,42.555477 L39.1998894,42.555477 Z M23.3395199,39.8391289 L37.3231131,39.8391289 C38.2064709,37.8721737 39.5964579,36.1771496 41.353832,34.9210578 L34.1956338,23.8077011 C31.6291657,24.6751507 28.8743716,24.6618845 26.2773698,23.7294449 L19.1456619,34.8043208 C20.9812874,36.0696146 22.4283473,37.8057964 23.3395269,39.8391289 L23.3395199,39.8391289 Z" id="five_open"></path>
                        </g>
                    </g>
                </g>
            </g>
        </g>
    </g>
</svg>