<?xml version="1.0" encoding="UTF-8"?>
<svg width="60px" height="60px" viewBox="0 0 60 60" version="1.1" xmlns="http://www.w3.org/2000/svg" xmlns:xlink="http://www.w3.org/1999/xlink">
    <!-- Generator: Sketch 55.2 (78181) - https://sketchapp.com -->
    <title>five_stand</title>
    <desc>Created with Sketch.</desc>
    <g id="页面1" stroke="none" stroke-width="1" fill="none" fill-rule="evenodd">
        <g id="宣传首页" transform="translate(-606.000000, -3950.000000)" fill="#FFFFFF" fill-rule="nonzero">
            <g id="8大模块备份" transform="translate(0.000000, 3704.000000)">
                <g id="位图">
                    <g id="编组-4" transform="translate(360.000000, 211.000000)">
                        <g id="标准" transform="translate(246.000000, 35.000000)">
                            <path d="M29.9657575,30.4372034 L52.3886156,18.1971891 L29.9657575,4.28572764 L8.0529,17.9100208 L29.9657575,30.4372034 Z M1.02427854,18.0514663 L29.8200347,0.0257226862 L58.7572363,18.2014665 L29.9657575,34.7829311 L1.02427854,18.0557437 L1.02427854,18.0514663 Z M59.2586236,28.3457556 L59.2586236,28.3457556 C59.6726804,29.2854598 59.3101116,30.3861154 58.4186227,30.8957586 L29.9614216,47.1386095 L1.58994325,31.1528683 L1.58994308,31.1528682 C0.697108058,30.6508926 0.330187709,29.5538429 0.741369828,28.6157207 L0.74136976,28.6157208 C1.10372213,27.7873332 2.06900607,27.4095378 2.89739375,27.7718937 C2.94703104,27.793606 2.99556008,27.817769 3.04280134,27.8442934 L29.9656647,42.9600336 L56.9656961,27.5871837 L56.9656961,27.5871837 C57.7481345,27.1435875 58.7420321,27.418273 59.1856284,28.2007079 C59.2123347,28.2478139 59.2366751,28.2962228 59.2585589,28.3457534 L59.2586236,28.3457556 Z M3.06000356,40.2172148 L29.9657575,55.7529555 L56.9272342,40.6543832 L56.9272343,40.6543832 C57.7267469,40.2073469 58.7372793,40.4930861 59.184315,41.2925988 C59.2116189,41.3414311 59.2364343,41.3916136 59.2586665,41.4429541 L59.2586665,41.442954 C59.6713117,42.4024571 59.2942979,43.5187162 58.3843822,44.0315293 L29.9657945,60.0001025 L1.60292944,43.5986382 L1.60292931,43.5986381 C0.696301302,43.0722875 0.326304778,41.9512494 0.741500574,40.988635 L0.741500557,40.9886351 C1.09725527,40.1599661 2.0574181,39.7765985 2.88608704,40.1323509 C2.94425218,40.1573217 3.00091627,40.1856537 3.05579173,40.2172035 L3.06000356,40.2172148 Z" id="five_stand"></path>
                        </g>
                    </g>
                </g>
            </g>
        </g>
    </g>
</svg>