<?xml version="1.0" encoding="UTF-8"?>
<svg width="44px" height="44px" viewBox="0 0 44 44" version="1.1" xmlns="http://www.w3.org/2000/svg" xmlns:xlink="http://www.w3.org/1999/xlink">
    <!-- Generator: Sketch 55.2 (78181) - https://sketchapp.com -->
    <title>four_processing</title>
    <desc>Created with Sketch.</desc>
    <g id="页面1" stroke="none" stroke-width="1" fill="none" fill-rule="evenodd">
        <g id="宣传首页" transform="translate(-1238.000000, -3203.000000)" fill="#FF665F" fill-rule="nonzero">
            <g id="优势" transform="translate(0.000000, 3004.000000)">
                <g id="AI备份" transform="translate(959.000000, 159.000000)">
                    <g id="four_processing" transform="translate(279.000000, 40.000000)">
                        <path d="M22.0000282,3.85000704 C24.453117,3.85000704 26.8305807,4.32739041 29.0662473,5.27743058 C31.2262889,6.1896582 33.1689083,7.49891754 34.8373868,9.16739604 C36.5058654,10.8358745 37.8151247,12.778494 38.7273523,14.9385356 C39.6726659,17.1742022 40.1547758,19.5516659 40.1547758,22.0047547 C40.1547758,24.4578435 39.6773925,26.8353072 38.7273523,29.0709739 C37.8151247,31.2310155 36.5058654,33.1736349 34.8373868,34.8421134 C33.1689083,36.5105919 31.2262889,37.8198513 29.0662473,38.7320789 C26.8305807,39.6773925 24.453117,40.1595024 22.0000282,40.1595024 C19.5469394,40.1595024 17.1694757,39.682119 14.933809,38.7320789 C12.7737674,37.8198513 10.831148,36.5105919 9.16266947,34.8421134 C7.49419097,33.1736349 6.18493163,31.2310155 5.27270401,29.0709739 C4.32739041,26.8353072 3.84528047,24.4578435 3.84528047,22.0047547 C3.84528047,19.5516659 4.32266384,17.1742022 5.27270401,14.9385356 C6.18493163,12.778494 7.49419097,10.8358745 9.16266947,9.16739604 C10.831148,7.49891754 12.7737674,6.1896582 14.933809,5.27743058 C17.1694757,4.32739041 19.5469394,3.85000704 22.0000282,3.85000704 L22.0000282,3.85000704 Z M22.0000282,0.82500352 C10.3064989,0.82500352 0.82500352,10.3064989 0.82500352,22.0000282 C0.82500352,33.6935574 10.3064989,43.1750528 22.0000282,43.1750528 C33.6935574,43.1750528 43.1750528,33.6935574 43.1750528,22.0000282 C43.1750528,10.3064989 33.6935574,0.82500352 22.0000282,0.82500352 Z" id="形状"></path>
                        <path d="M9.80548272,16.848069 C10.4719288,15.2741219 11.4266955,13.8561515 12.6414235,12.6414235 C13.8561515,11.4266955 15.2741219,10.4719288 16.848069,9.80548272 C18.478735,9.11540379 20.2133855,8.76563776 22.0000282,8.76563776 C23.7866709,8.76563776 25.5213213,9.11540379 27.1519873,9.80548272 C28.7259344,10.4719288 30.1439048,11.4266955 31.3586328,12.6414235 L32.6962515,11.3038048 C29.9595687,8.5671219 26.1783143,6.87501056 22.0000282,6.87501056 C13.6481825,6.87501056 6.87501056,13.6481825 6.87501056,22.0000282 L8.76563776,22.0000282 C8.76563776,20.2133855 9.11540379,18.478735 9.80548272,16.848069 Z M24.1411635,24.1364369 C22.9595215,25.3180789 21.0452614,25.3180789 19.8636194,24.1364369 C18.6819774,22.9547949 18.6819774,21.0405349 19.8636194,19.8588929 C21.0452614,18.6772509 30.5551162,13.4449401 30.5551162,13.4449401 C30.5551162,13.4449401 25.3228055,22.9547949 24.1411635,24.1364369 Z" id="形状"></path>
                    </g>
                </g>
            </g>
        </g>
    </g>
</svg>