<?xml version="1.0" encoding="UTF-8"?>
<svg width="46px" height="46px" viewBox="0 0 46 46" version="1.1" xmlns="http://www.w3.org/2000/svg" xmlns:xlink="http://www.w3.org/1999/xlink">
    <!-- Generator: Sketch 55.2 (78181) - https://sketchapp.com -->
    <title>four_supports</title>
    <desc>Created with Sketch.</desc>
    <g id="页面1" stroke="none" stroke-width="1" fill="none" fill-rule="evenodd">
        <g id="宣传首页" transform="translate(-637.000000, -3452.000000)" fill="#FD655E" fill-rule="nonzero">
            <g id="优势" transform="translate(0.000000, 3004.000000)">
                <g id="AI备份-2" transform="translate(359.000000, 409.000000)">
                    <g id="支持中心" transform="translate(278.000000, 39.000000)">
                        <path d="M23.0000294,0.86250368 C10.7737902,0.86250368 0.86250368,10.7737902 0.86250368,23.0000294 C0.86250368,35.2262687 10.7737902,45.1375552 23.0000294,45.1375552 C35.2262687,45.1375552 45.1375552,35.2262687 45.1375552,23.0000294 C45.1375552,10.7737902 35.2262687,0.86250368 23.0000294,0.86250368 L23.0000294,0.86250368 Z M38.2466079,11.7034675 L32.8565651,15.0715882 C32.2532039,14.3224702 31.5669406,13.6430409 30.8105389,13.0485445 L34.0849161,7.59910595 C35.6743016,8.74506387 37.0792982,10.1306358 38.2466079,11.7034724 L38.2466079,11.7034724 L38.2466079,11.7034675 Z M32.4875405,23.0000294 C32.4875405,28.2398533 28.2398484,32.4875405 23.0000294,32.4875405 C17.7602056,32.4875405 13.5125184,28.2398484 13.5125184,23.0000294 C13.5125184,17.7602056 17.7602105,13.5125184 23.0000294,13.5125184 C28.2398533,13.5125184 32.4875405,17.7602105 32.4875405,23.0000294 L32.4875405,23.0000294 Z M23.0000294,4.02497277 C26.0391411,4.02497277 28.9107488,4.74069183 31.4573549,6.01089166 L28.1843909,11.4580572 C26.6022348,10.7462665 24.8474406,10.349995 23.0000097,10.349995 C21.0893485,10.349995 19.2780838,10.7743916 17.6540937,11.5328257 L14.2850686,6.14125105 C16.8948704,4.78939438 19.8580425,4.02497277 23.0000393,4.02497277 L23.0000393,4.02497277 L23.0000294,4.02497277 Z M11.6819229,7.76913006 L15.0506663,13.1603094 C14.298613,13.7686417 13.6174888,14.4610027 13.0221475,15.223843 L7.57359838,11.9500291 C8.71932899,10.3534737 10.1063685,8.94186548 11.681918,7.76913006 L11.681918,7.76913006 L11.6819229,7.76913006 Z M6.16113035,31.7527031 C4.79701898,29.1337202 4.02497277,26.1572606 4.02497277,23.0000443 C4.02497277,19.9762411 4.73348725,17.1182816 5.99165475,14.5813112 L11.4405992,17.8554068 C10.739991,19.4272255 10.3499851,21.1680158 10.3499851,23.0000591 C10.3499851,24.9259695 10.781102,26.7509021 11.5509458,28.384864 L6.16115012,31.7527031 L6.16115012,31.7527031 L6.16113035,31.7527031 Z M7.79422255,34.3525282 L13.1870819,30.9826532 C13.794337,31.7282135 14.4847807,32.40324 15.2444042,32.9936102 L11.9709313,38.4416652 C10.3771974,37.3014146 8.96706174,35.9209818 7.79422255,34.352548 L7.79422255,34.352548 L7.79422255,34.3525282 Z M22.999985,41.9750515 C19.9853827,41.9750515 17.1356654,41.2708855 14.6044272,40.019888 L17.8791454,34.569807 C19.4447527,35.2638086 21.177187,35.6500293 22.99998,35.6500293 C24.9164029,35.6500293 26.7327523,35.223035 28.3604732,34.460419 L31.7290486,39.8513512 C29.1158619,41.2077837 26.1476249,41.9750515 22.9999949,41.9750515 L22.9999949,41.9750515 L22.999985,41.9750515 Z M34.3309886,38.2214512 L30.9617906,32.829669 C31.7044156,32.2273801 32.3778016,31.5431526 32.9673812,30.7899085 L38.4162268,34.0639448 C37.2755809,35.6505037 35.8966157,37.0540377 34.3310083,38.2214512 L34.3310083,38.2214512 L34.3309886,38.2214512 Z M34.5523638,28.1605782 C35.2574885,26.5845791 35.6499799,24.8382545 35.6499799,23.000064 C35.6499799,21.0988904 35.2298186,19.2961496 34.4784996,17.678361 L39.8711119,14.3086589 C41.215344,16.9126991 41.9749675,19.8675498 41.9749675,23.0000591 C41.9749675,26.0299649 41.2635722,28.8933353 40.0006066,31.4342093 L34.552354,28.1605684 L34.552354,28.1605684 L34.5523638,28.1605782 Z" id="four_supports"></path>
                    </g>
                </g>
            </g>
        </g>
    </g>
</svg>