<?xml version="1.0" encoding="UTF-8"?>
<svg width="44px" height="44px" viewBox="0 0 44 44" version="1.1" xmlns="http://www.w3.org/2000/svg" xmlns:xlink="http://www.w3.org/1999/xlink">
    <!-- Generator: Sketch 55.2 (78181) - https://sketchapp.com -->
    <title>four_implementation</title>
    <desc>Created with Sketch.</desc>
    <g id="页面1" stroke="none" stroke-width="1" fill="none" fill-rule="evenodd">
        <g id="宣传首页" transform="translate(-638.000000, -3203.000000)" fill="#FF665F" fill-rule="nonzero">
            <g id="优势" transform="translate(0.000000, 3004.000000)">
                <g id="AI" transform="translate(359.000000, 159.000000)">
                    <path d="M290.34552,80.2536213 C289.904871,80.7136796 289.524404,81.1116223 289.037812,81.1116223 C288.744047,81.1116223 288.454162,80.9647399 288.150695,80.662564 C287.941048,80.4535637 282.639689,75.1424911 282.433267,74.936069 C282.348502,74.8519511 282.272149,74.7807746 282.204208,74.7160688 C281.940208,74.4682449 281.790737,74.3161861 281.788135,74.0832458 C281.786208,73.792069 281.991325,73.5772452 282.705034,72.8764799 L283.147621,72.4390661 L284.037974,71.5493584 L284.21268,71.7240644 C284.21268,71.7240644 287.085625,74.6047744 288.149391,75.6678913 L288.324097,75.8425973 L290.119041,74.0444174 L285.833565,69.7511769 L288.32539,67.2528806 L292.612808,71.54677 L294.40581,69.7511812 L290.119041,65.4547051 L291.898456,63.6752897 L299.391399,71.1811657 L299.21734,71.3552245 C299.21734,71.3552245 291.470753,79.1244562 290.642486,79.9475236 C290.537662,80.0523473 290.439309,80.1545825 290.345486,80.2529355 L290.34552,80.2536213 Z M282.567867,44.0900909 L282.567867,44.0900909 C282.520402,43.9128884 282.558722,43.7236835 282.671396,43.5789125 L282.671396,43.5789126 C282.803959,43.4047059 283.022539,43.318871 283.238219,43.3563239 L290.443872,44.5656765 L290.443872,44.5656765 C290.663348,44.6001793 290.844071,44.7565542 290.909757,44.9687947 L290.909757,44.9687947 C290.979031,45.1797556 290.9226,45.4117515 290.764169,45.5673243 L285.306229,51.0259088 L285.306229,51.0259088 C285.197419,51.1374816 285.047955,51.2000695 284.89211,51.1993532 L284.89211,51.1993532 C284.621296,51.2021599 284.383549,51.0197084 284.316225,50.7573778 L282.567223,44.0907256 L282.567867,44.0900909 Z M305.475737,50.0715198 L309.763155,54.3679959 L311.557451,52.5704649 L307.268094,48.2765755 L309.048154,46.4932801 L313.334924,50.7884628 L315.127926,48.9915763 L310.841156,44.6951002 L312.445865,43.0903917 C312.803689,42.7332149 313.079981,42.4808621 313.372453,42.4808621 C313.620277,42.4808621 313.7801,42.6342152 314.042805,42.9046862 C314.096511,42.9609804 314.156687,43.0230983 314.224628,43.0903922 C314.496394,43.360216 316.702867,45.5718661 316.702867,45.5718661 C318.067517,46.9403966 319.547986,48.4247538 319.943342,48.8168699 C320.039107,48.9113407 320.122577,48.9915759 320.205401,49.0692231 C320.459695,49.3073411 320.603989,49.4522822 320.60667,49.6696949 C320.611107,49.9181658 320.450636,50.0902834 319.942693,50.5975803 C319.082105,51.4504036 310.650904,59.9023021 310.65026,59.9023021 L310.475554,60.0783023 L302.983901,52.5698053 L305.475726,50.071509 L305.475737,50.0715198 Z M307.618153,75.8257724 L285.83035,54.0030361 L293.327847,46.494539 L315.112384,68.3179199 L307.618153,75.8264169 L307.618153,75.8257724 Z M311.312864,79.5625412 C311.215805,79.4505997 311.115511,79.3360703 311.010687,79.2241292 C310.126801,78.2865414 309.680334,77.8717765 309.618214,77.820012 L309.389155,77.6491882 L316.908008,70.114824 L318.592303,71.8017103 C318.985068,72.1912401 319.579717,72.7787693 319.579717,73.4238899 C319.579717,73.7124783 319.456776,73.9874773 319.223835,74.2191264 C318.862776,74.5782446 317.776362,75.6672437 316.632361,76.8157783 L316.509419,76.9387197 C315.273533,78.179779 313.996239,79.4603094 313.507065,79.946901 C313.184182,80.2691365 312.878122,80.4257238 312.571415,80.4257238 C312.062179,80.4257238 311.697885,80.0064291 311.313529,79.5625451 L311.312864,79.5625412 Z M312.445216,62.0530989 L312.271804,61.878393 L312.445863,61.703687 C312.445863,61.703687 319.791938,54.335612 321.735718,52.3976761 C323.597307,50.5406162 322.995542,48.2830225 322.451367,47.7368934 C322.079955,47.3680694 320.169187,45.4540685 318.405305,43.6863019 C318.405305,43.6863019 315.613888,40.8903565 315.303301,40.580414 C314.928007,40.2057664 314.350185,40 313.675948,40 C312.611534,40 311.451359,40.4969428 310.650296,41.2960593 C309.189236,42.7512966 301.362418,50.5936483 301.362418,50.5936483 L301.187712,50.7683542 L293.864282,43.437834 C293.610634,43.1841866 293.059987,43.1253043 292.473102,43.0638336 C292.071925,43.0217747 291.618986,42.9745392 291.191278,42.8554804 C290.516393,42.6697744 287.728217,42.174773 285.693206,41.8130659 L285.605206,41.7968894 C284.467675,41.595007 283.570203,41.4345361 283.269318,41.3711241 L283.269319,41.3711241 C283.087326,41.3318936 282.901606,41.3125838 282.715434,41.3135356 C282.079375,41.3135356 281.529374,41.5180065 281.332667,41.7127711 C281.297726,41.7477123 281.25955,41.7839477 281.218785,41.8214771 C280.886843,42.1340068 280.431962,42.5604201 280.628669,44.0797152 C280.868081,45.9173662 281.94867,51.0602116 282.223022,52.1135918 C282.333022,52.5367687 282.391904,52.9521795 282.44561,53.3287709 C282.534258,53.9628873 282.602199,54.3614788 282.78467,54.5439501 L290.099034,61.8770914 L289.924328,62.0517974 C289.924328,62.0517974 281.591474,70.4066509 279.919472,72.0734536 C279.309943,72.6823387 279,73.3345707 279,74.0133402 C279,74.9929902 279.643178,75.7409911 279.919472,76.0172847 L287.06948,83.1763595 C287.365834,83.4740069 288.195366,83.9463604 289.160776,83.9463604 C289.872542,83.9463604 290.49372,83.6862423 291.005543,83.1750661 C292.40966,81.7819489 299.934331,74.2359229 301.190266,72.9774097 L301.507325,73.3022336 L302.458504,74.2553504 L302.458175,74.2550206 C304.949424,76.7532438 307.442126,79.2500146 309.93625,81.7453847 C310.55225,82.3600921 311.595958,82.7412082 312.661666,82.7412082 C313.71961,82.7412082 314.657197,82.3872664 315.301669,81.7460293 C316.241199,80.809086 317.624614,79.4224398 318.88638,78.1567895 L321.020383,76.0195515 C321.59109,75.4520798 321.918499,74.5015497 321.918499,73.4118997 C321.918499,72.2737206 321.565852,71.1873103 321.020383,70.643132 C319.881559,69.5081885 312.44424,62.0527665 312.444884,62.0527665 L312.445216,62.0530989 Z" id="four_implementation"></path>
                </g>
            </g>
        </g>
    </g>
</svg>