<?xml version="1.0" encoding="UTF-8"?>
<svg width="44px" height="40px" viewBox="0 0 44 40" version="1.1" xmlns="http://www.w3.org/2000/svg" xmlns:xlink="http://www.w3.org/1999/xlink">
    <!-- Generator: Sketch 55.2 (78181) - https://sketchapp.com -->
    <title>four_useage</title>
    <desc>Created with Sketch.</desc>
    <g id="页面1" stroke="none" stroke-width="1" fill="none" fill-rule="evenodd">
        <g id="宣传首页" transform="translate(-1238.000000, -3455.000000)" fill="#FF665F" fill-rule="nonzero">
            <g id="优势" transform="translate(0.000000, 3004.000000)">
                <g id="AI备份-3" transform="translate(959.000000, 409.000000)">
                    <g id="使用指引" transform="translate(279.000000, 42.000000)">
                        <path d="M40.1500493,15.2625229 L23.5125299,15.2625229 L23.5125299,18.2875264 L35.612544,18.2875264 L40.9063002,23.5812826 L43.1750528,25.8500352 L40.9063002,28.1187878 L35.612544,33.412544 L23.5125299,33.412544 L23.5125299,39.462551 L20.4875264,39.462551 L20.4875264,33.412544 L0.82500352,33.412544 L0.82500352,18.2875264 L20.4875264,18.2875264 L20.4875264,15.2625229 L8.38751232,15.2625229 L3.09375616,9.96876672 L0.82500352,7.70001408 L3.09375616,5.43126144 L8.38751232,0.13750528 L43.1750528,0.13750528 L43.1750528,15.2625229 L40.1500493,15.2625229 Z M3.85000704,21.3125299 L3.85000704,30.3875405 L34.1000422,30.3875405 L38.6375475,25.8500352 L34.1000422,21.3125299 L3.85000704,21.3125299 Z M40.1500493,3.1625088 L9.90001408,3.1625088 L5.3625088,7.70001408 L9.90001408,12.2375194 L40.1500493,12.2375194 L40.1500493,3.1625088 Z" id="four_useage"></path>
                    </g>
                </g>
            </g>
        </g>
    </g>
</svg>