<?xml version="1.0" encoding="UTF-8"?>
<svg width="186px" height="36px" viewBox="0 0 186 36" version="1.1" xmlns="http://www.w3.org/2000/svg" xmlns:xlink="http://www.w3.org/1999/xlink">
    <!-- Generator: Sketch 55.2 (78181) - https://sketchapp.com -->
    <title>LOGO </title>
    <desc>Created with Sketch.</desc>
    <g id="页面1" stroke="none" stroke-width="1" fill="none" fill-rule="evenodd">
        <g id="资源中心-服务产品" transform="translate(-360.000000, -14.000000)">
            <g id="导航栏">
                <g id="导航" transform="translate(360.000000, 14.000000)">
                    <g id="LOGO-">
                        <g id="编组">
                            <polygon id="Fill-1" fill="#F34A44" points="0 27.4709374 14.5539387 35.873735 14.5539387 33.8782748 1.72777914 26.4733178 1.72777914 11.9048025 0 10.9071828"></polygon>
                            <polygon id="Fill-2" fill="#F34A44" points="14.5275018 18.9211141 3.85118282 12.9720589 3.85118282 20.9011141 11.039919 24.8820957 11.039919 22.9069546 5.57896196 19.8827337 5.57896196 15.9127951 12.7995018 19.9366233 12.7995018 28.6903656 3.84764908 23.6932123 3.84764908 25.672108 14.5275018 31.6337521"></polygon>
                            <polygon id="Fill-3" fill="#179FEB" points="29.540054 11.9048245 29.540054 26.4733399 16.7138945 33.8782969 16.7138945 35.8737571 31.268054 27.4709595 31.268054 10.9072049"></polygon>
                            <polygon id="Fill-4" fill="#179FEB" points="18.4419387 19.936535 27.3902577 14.9581546 27.3902577 12.9721914 16.7139387 18.9210258 16.7139387 31.6336638 18.4417178 30.669173"></polygon>
                            <polygon id="Fill-5" fill="#179FEB" points="27.3901693 20.9010699 27.3901693 19.0253153 20.2014331 22.9071313 20.2014331 24.8820515"></polygon>
                            <polygon id="Fill-6" fill="#F3A119" points="15.2999558 -8.83435583e-05 0.536201227 8.52373988 2.26420123 9.52135951 15.2999558 1.99537178 28.3354896 9.52135951 30.0637104 8.52373988"></polygon>
                            <polygon id="Fill-7" fill="#F3A119" points="13.944081 4.77686871 13.9431975 4.77731043 13.4743141 5.06155583 13.4749767 5.06199755 11.0881546 6.51171534 4.30712393 10.621016 15.5947804 17.0621448 17.1648663 16.0371387 7.71784785 10.5746356 11.1128908 8.51733497 15.1983387 6.0428319 23.1711239 10.5790528 20.2679337 12.3558626 14.3104859 8.89478282 14.2466577 8.9115681 12.5632712 9.8835681 20.1946086 14.3135558 26.5836147 10.5313472 15.166535 4.03610798"></polygon>
                        </g>
                        <g id="超级大脑LOGO" transform="translate(40.000000, 9.000000)" fill="#FFFFFF">
                            <path d="M5.70233129,10.8144785 L5.37104294,10.8696933 C5.26944785,10.8851534 5.17668712,10.8961963 5.09496933,10.9028221 C5.01772845,10.9071199 4.94030836,10.9071199 4.86306748,10.9028221 C4.23446599,10.90964 3.61096108,10.7894463 3.02993865,10.5494479 C2.46352089,10.3099356 1.95234247,9.95662107 1.52809816,9.51141104 C1.09772444,9.05852219 0.760096789,8.52582079 0.534233129,7.94331288 C0.307392534,7.33609236 0.195065905,6.69208635 0.202944785,6.04392638 C0.201791009,5.72250081 0.223934908,5.40141428 0.269202454,5.08319018 C0.313289176,4.78570374 0.387283664,4.49342552 0.49006135,4.21079755 C0.590948576,3.92252348 0.72042791,3.64506776 0.876564417,3.38257669 C1.03531238,3.12084402 1.21635217,2.87329981 1.41766871,2.64269939 C1.65022363,2.36724155 1.9132523,2.11903141 2.20171779,1.90282209 C2.48784551,1.69145531 2.7949885,1.51012993 3.11828221,1.36171779 C3.45269322,1.202663 3.80487061,1.08403483 4.16736196,1.00834356 C4.53081722,0.934539869 4.90078372,0.897526168 5.27165644,0.89791411 C5.96035495,0.889908506 6.64487663,1.00586573 7.29251534,1.2402454 C8.50568396,1.71727217 9.46579532,2.67738352 9.94282209,3.89055215 C10.1792128,4.54531355 10.2951911,5.23744211 10.2851534,5.93349693 C10.2853276,6.24480789 10.2557452,6.55542283 10.1968098,6.86110429 C10.1337621,7.19140454 10.045152,7.51630824 9.93177914,7.83288344 C9.8189712,8.1837612 9.67483222,8.52378137 9.50110429,8.84883436 C9.31705521,9.20220859 9.10723926,9.57030675 8.87165644,9.95312883 L4.10110429,17.329816 L1.71582822,17.329816 L6.1595092,10.7371779 L5.70233129,10.8144785 Z M5.2606135,2.67582822 C4.85055686,2.68408403 4.44581484,2.77027909 4.06797546,2.92981595 C3.70584721,3.08865201 3.37634161,3.31331492 3.09619632,3.59239264 C2.82030713,3.88324775 2.60286906,4.22440059 2.45570552,4.59730061 C2.30386323,5.00322558 2.22896608,5.43388424 2.23484663,5.86723926 C2.22864673,6.31682424 2.29578502,6.76441284 2.43361963,7.19239264 C2.562305,7.57576629 2.77338411,7.92630838 3.05202454,8.2193865 C3.31892476,8.50110553 3.64789679,8.71663893 4.01276074,8.84883436 C4.41200518,8.99704463 4.83475239,9.07186714 5.2606135,9.06969325 C5.66164488,9.07513732 6.05968978,9.00003451 6.43116564,8.84883436 C6.79529396,8.69512138 7.11995329,8.46106465 7.3808589,8.16417178 C7.66025077,7.87166687 7.87143659,7.52094757 7.9992638,7.13717791 C8.26422864,6.29243738 8.26422864,5.38682643 7.9992638,4.54208589 C7.87669986,4.17552358 7.68138648,3.8374812 7.42503067,3.54822086 C7.17162927,3.2581561 6.85399314,3.03127315 6.49742331,2.88564417 C6.10272573,2.73484731 5.68310866,2.65991569 5.2606135,2.66478528 L5.2606135,2.67582822 Z" id="形状" fill-rule="nonzero"></path>
                            <polygon id="路径" fill-rule="nonzero" points="13.4986503 0.467239264 22.2667485 0.467239264 22.2667485 2.47705521 15.7072393 2.47705521 15.7072393 7.73349693 22.2667485 7.73349693 22.2667485 9.67705521 15.7072393 9.67705521 15.7072393 17.3408589 13.4986503 17.3408589"></polygon>
                            <path d="M33.3428221,13.8733742 C33.6405395,14.6689873 34.2949242,15.2783831 35.1096933,15.518773 C36.00136,15.7867265 36.9504559,15.7982075 37.8483436,15.5519018 C38.2219484,15.4438344 38.5708228,15.2637703 38.8753374,15.0218405 C39.1555539,14.7901067 39.3816967,14.4998902 39.5379141,14.1715337 C39.6887349,13.8426496 39.7641915,13.4842306 39.758773,13.122454 C39.7633701,12.7685856 39.703498,12.4168372 39.5820859,12.0844172 C39.4681934,11.781247 39.2955678,11.5035448 39.0741104,11.2672393 C38.9383415,11.135785 38.7904436,11.0174667 38.6323926,10.913865 C38.4333187,10.7841255 38.2268316,10.6661328 38.0139877,10.5604908 C37.7776687,10.4434356 37.5104294,10.3263804 37.2078528,10.2071166 C36.9052761,10.0878528 36.5784049,9.97300613 36.2250307,9.85374233 C36.1542175,9.82056582 36.0802182,9.79466609 36.0041718,9.77644172 C35.8993037,9.74920087 35.7960695,9.71601846 35.6949693,9.67705521 C35.0620518,9.46421527 34.4425256,9.21345467 33.8397546,8.92613497 C33.3826497,8.71301012 32.9526147,8.44609182 32.558773,8.13104294 C32.3278043,7.93128924 32.1169796,7.70936851 31.9293252,7.46846626 C31.7443044,7.23234775 31.5920086,6.97233062 31.4765644,6.69546012 C31.3586868,6.39926303 31.2699246,6.09229376 31.2115337,5.77889571 C31.1502537,5.44005114 31.120678,5.09623392 31.1231902,4.75190184 C31.1145025,4.10985811 31.2307716,3.47225339 31.4655215,2.87460123 C31.69231,2.31680479 32.0435854,1.81822026 32.4925153,1.41693252 C32.9634286,0.990114557 33.520902,0.669944025 34.1268712,0.478282209 C35.5350543,0.0697303849 37.0318882,0.0812444922 38.4336196,0.511411043 C39.7118146,0.924753982 40.7448875,1.8771181 41.2606135,3.11754601 C41.5394088,3.79900719 41.6963932,4.52412542 41.7244172,5.2598773 L39.4937423,5.23779141 C39.446713,4.75643873 39.3314479,4.2842237 39.151411,3.83533742 C39.0018006,3.46110744 38.7804717,3.11973573 38.4998773,2.83042945 C38.2227089,2.55330165 37.8868355,2.34196563 37.5170552,2.21202454 C37.1080864,2.07419308 36.6786413,2.00697558 36.2471166,2.01325153 C35.8309466,2.00745546 35.4167091,2.07089724 35.0213497,2.2009816 C34.667102,2.32352728 34.3405912,2.51493019 34.0606135,2.76417178 C33.7854582,2.99285248 33.5695338,3.28453982 33.4311656,3.61447853 C33.2822436,3.97504116 33.2071433,4.36180805 33.2103067,4.75190184 C33.2095378,4.95255342 33.2317688,5.15263202 33.2765644,5.34822086 C33.3177422,5.53032848 33.3769292,5.70788942 33.4532515,5.87828221 C33.5230564,6.03587968 33.612075,6.18424392 33.7182822,6.32 C33.8280721,6.45962765 33.9541147,6.58567022 34.0937423,6.69546012 C34.213624,6.78098718 34.3390534,6.85845826 34.4692025,6.92736196 C34.6268989,7.01002875 34.789118,7.08376472 34.955092,7.14822086 C35.1486987,7.24453365 35.3478174,7.32934349 35.551411,7.40220859 C35.7722699,7.48392638 36.008589,7.56122699 36.2581595,7.62306748 C36.406135,7.66723926 36.5342331,7.70478528 36.6446626,7.73349693 C36.755092,7.76220859 36.8478528,7.79312883 36.9207362,7.82184049 C37.7548453,8.09414655 38.5639669,8.4377461 39.3391411,8.84883436 C39.9059516,9.13894839 40.4268907,9.51104774 40.8851534,9.95312883 C41.2558947,10.3260741 41.5355466,10.7795637 41.7023313,11.2782822 C41.8848264,11.822618 41.9744209,12.393783 41.967362,12.9678528 C41.9796829,13.62098 41.8477101,14.2687779 41.5808589,14.8650307 C41.3101766,15.4483745 40.9142891,15.9649133 40.4213497,16.3779141 C39.9077731,16.8197658 39.3106927,17.1539806 38.6655215,17.3607362 C37.9545254,17.5829134 37.2128095,17.6910027 36.4679755,17.6809816 C35.7267115,17.6917493 34.9885133,17.5836294 34.2814724,17.3607362 C33.6419899,17.1528009 33.0545448,16.8101246 32.558773,16.3558282 C32.0570653,15.9133081 31.6576437,15.3669295 31.3882209,14.7546012 C31.0965676,14.0855278 30.9174685,13.3728624 30.8581595,12.6453988 L33.0888344,12.5349693 C33.0941427,12.9925679 33.1801224,13.4456436 33.3428221,13.8733742 L33.3428221,13.8733742 Z" id="路径" fill-rule="nonzero"></path>
                            <path d="M47.0184049,12.1948466 C47.0110033,12.7162904 47.0741523,13.2363403 47.206135,13.7408589 C47.3121045,14.1511151 47.495792,14.5372338 47.7472393,14.8782822 C47.9794278,15.188158 48.2823221,15.4380458 48.6306748,15.6071166 C49.3889289,15.9310971 50.246654,15.9310971 51.004908,15.6071166 C51.3493501,15.4467792 51.6489791,15.2040418 51.8773006,14.9003681 C52.1386219,14.5605831 52.3320813,14.1736642 52.4471166,13.7607362 C52.5792077,13.259998 52.6423668,12.7435798 52.6348466,12.2257669 L52.6348466,5.76785276 L54.6667485,5.76785276 L54.6667485,12.3052761 C54.680533,13.0684519 54.5724249,13.8289369 54.3465031,14.5580368 C54.1483182,15.1790838 53.8208938,15.7511356 53.3857669,16.2365644 C52.9656928,16.7043488 52.4392145,17.0641721 51.8507975,17.2856442 C51.2040476,17.5233814 50.5189038,17.639444 49.8299387,17.6279755 C49.1336825,17.6406981 48.4410704,17.5246388 47.7869939,17.2856442 C47.1988561,17.0680945 46.6695168,16.7164619 46.2409816,16.2586503 C45.8149028,15.7644344 45.492002,15.1899715 45.2912883,14.5690798 C45.0598225,13.8447969 44.9479268,13.0876359 44.96,12.327362 L44.96,5.76785276 L47.0184049,5.76785276 L47.0184049,12.1948466 Z" id="路径" fill-rule="nonzero"></path>
                            <path d="M57.957546,5.76785276 L59.8282209,5.76785276 L59.8282209,7.66723926 C60.0748703,7.33285206 60.3602983,7.02888972 60.6785276,6.76171779 C60.9916068,6.49851354 61.3366672,6.27589399 61.7055215,6.0991411 C62.0849649,5.92435279 62.4807533,5.78749138 62.8871166,5.69055215 C63.3034726,5.59386133 63.7296213,5.54568801 64.1570552,5.54699387 C64.9740741,5.53575277 65.7862441,5.67423337 66.5533742,5.95558282 C67.261648,6.22538644 67.8996721,6.65199431 68.4196319,7.20343558 C68.9587679,7.73995354 69.3734503,8.38836603 69.6343558,9.10282209 C69.9090051,9.8828825 70.0435914,10.7053541 70.0319018,11.5322699 C70.0327422,11.9355804 69.999495,12.3382403 69.9325153,12.7359509 C69.8682829,13.1126516 69.7684489,13.4824071 69.6343558,13.8402454 C69.5045212,14.1882605 69.3379346,14.5214336 69.1374233,14.8341104 C68.7252843,15.4896891 68.1750643,16.0474464 67.5251534,16.4684663 C67.1930269,16.690355 66.8419728,16.8825109 66.4760736,17.0426994 C66.1128981,17.1886973 65.7353554,17.2960379 65.3496933,17.3629448 C64.9557317,17.4302039 64.5567154,17.4634553 64.1570552,17.4623313 C63.7280534,17.4645232 63.2996034,17.4312813 62.8760736,17.3629448 C62.4844746,17.2985986 62.1047723,17.1757537 61.7496933,16.9985276 C61.3948073,16.8361841 61.0670394,16.6201552 60.7779141,16.3580368 C60.4792872,16.0889563 60.2057667,15.7932584 59.9607362,15.4746012 L59.9607362,22.122454 L57.9509202,22.122454 L57.957546,5.76785276 Z M63.8986503,15.728589 C64.444939,15.7512968 64.9900393,15.6610733 65.4998773,15.4635583 C65.9844264,15.268674 66.4185845,14.966651 66.769816,14.5801227 C67.147615,14.2066034 67.4380035,13.7540499 67.6201227,13.2549693 C67.8111605,12.7079099 67.9046053,12.1315423 67.8961963,11.5521472 C67.901795,10.9844974 67.8083714,10.4202185 67.6201227,9.88466258 C67.2349896,8.89072516 66.4729977,8.08904619 65.4998773,7.65398773 C64.4694158,7.25638687 63.3278849,7.25638687 62.2974233,7.65398773 C61.8101557,7.85570199 61.3701648,8.15655052 61.0053988,8.53742331 C60.6386482,8.91763574 60.3531005,9.3685004 60.166135,9.86257669 C59.9699118,10.3963437 59.8726165,10.9614052 59.8790184,11.5300613 C59.8713109,12.1060155 59.9686052,12.6785547 60.166135,13.2196319 C60.3525431,13.7139864 60.6381584,14.1649579 61.0053988,14.5447853 C61.367142,14.9292065 61.8079459,15.2306109 62.2974233,15.4282209 C62.8077846,15.6258317 63.3514253,15.7233121 63.8986503,15.7153374 L63.8986503,15.728589 Z" id="形状" fill-rule="nonzero"></path>
                            <path d="M74.2017178,13.6966871 C74.4192052,14.1300312 74.714979,14.5194043 75.0741104,14.8451534 C75.4583112,15.1711894 75.9003292,15.4221657 76.3771779,15.5850307 C77.243311,15.8705372 78.1705649,15.9163275 79.0606135,15.717546 C79.4090999,15.6372017 79.7465394,15.5148335 80.0655215,15.3531288 C80.3937793,15.1900122 80.7045833,14.9939097 80.9931288,14.7678528 C81.3031947,14.5247625 81.5914091,14.2550234 81.8544785,13.9617178 L83.3121472,15.110184 C82.9652218,15.5309999 82.5767544,15.9157676 82.152638,16.2586503 C81.3852152,16.8925783 80.4655482,17.3151074 79.4846626,17.4844172 C78.9604031,17.5829503 78.4279084,17.6310228 77.8944785,17.6279755 C77.4499123,17.6295031 77.0062047,17.5888299 76.5693252,17.5065031 C76.1547213,17.4301201 75.7480784,17.3155207 75.3546012,17.1641718 C74.9652458,17.0075665 74.5948043,16.8075281 74.2503067,16.5678528 C73.906505,16.3279833 73.5882684,16.0534117 73.3006135,15.7484663 C73.0627186,15.4803231 72.8484255,15.1921358 72.6601227,14.8871166 C72.4657716,14.5726673 72.3030153,14.2397567 72.1742331,13.8932515 C72.0438695,13.5342245 71.944127,13.1648079 71.8760736,12.7889571 C71.809361,12.4172201 71.7760991,12.040252 71.7766871,11.6625767 C71.7685117,10.8095738 71.9105565,9.96179079 72.196319,9.15803681 C72.4611913,8.42671436 72.8790872,7.76033982 73.4220859,7.20343558 C73.960847,6.64308231 74.6118564,6.20280427 75.3325153,5.91141104 C76.1061834,5.60858018 76.9312134,5.45857474 77.7619632,5.46969325 C78.6057096,5.45653392 79.4433891,5.61430315 80.2245399,5.93349693 C80.9590578,6.24678366 81.617995,6.71368776 82.1570552,7.30282209 C82.7161281,7.90652329 83.1413626,8.62151928 83.404908,9.4009816 C83.6884794,10.2705305 83.8265324,11.1809339 83.8134969,12.0954601 L83.8134969,12.2279755 L73.8306748,12.2279755 C73.8576903,12.7370134 73.9837239,13.2358964 74.2017178,13.6966871 Z M73.8152147,10.5825767 L81.5231902,10.5825767 C81.4685551,10.1281758 81.333966,9.68702265 81.1256442,9.2795092 C80.9154028,8.87626973 80.63062,8.51654404 80.2863804,8.2193865 C79.9430938,7.91638182 79.5460547,7.68040576 79.1158282,7.52368098 C78.203869,7.20711456 77.2118365,7.20711456 76.2998773,7.52368098 C75.8612712,7.68887425 75.4541687,7.92790691 75.0961963,8.23042945 C74.7410793,8.52265109 74.4481855,8.88313572 74.2348466,9.29055215 C74.0252087,9.69926855 73.8834791,10.1393761 73.8152147,10.5936196 L73.8152147,10.5825767 Z" id="形状" fill-rule="nonzero"></path>
                            <path d="M86.4704294,5.76785276 L88.3919018,5.76785276 L88.3919018,7.31386503 C88.5625478,7.04245611 88.7625227,6.79063585 88.9882209,6.56294479 C89.1948422,6.35361307 89.4245298,6.16838117 89.6728834,6.01079755 C89.928521,5.8628556 90.2035714,5.75134869 90.4900613,5.6795092 C90.8009734,5.60430703 91.1198824,5.56722459 91.4397546,5.56897738 L91.6826994,5.56897738 C91.7423457,5.568002 91.8018408,5.57543888 91.8593865,5.59116564 L91.9919018,5.59116564 C92.0154641,5.60476363 92.0420129,5.61234899 92.0692025,5.61325153 L92.1244172,5.61325153 L92.1244172,7.68932515 C92.0206135,7.67607362 91.9256442,7.6606135 91.8373006,7.64515337 C91.7489571,7.62969325 91.6672393,7.61644172 91.5943558,7.6009816 C91.5140171,7.58773691 91.4328211,7.58035546 91.351411,7.57889571 L91.1305521,7.57889571 C90.7349225,7.57077525 90.3413785,7.63823993 89.9710429,7.77766871 C89.6452667,7.90716181 89.3595324,8.12051012 89.1428221,8.39607362 C88.9084502,8.70477722 88.7393732,9.0579603 88.6458896,9.43411043 C88.5279245,9.91080194 88.4722459,10.4007735 88.4802454,10.8917791 L88.4802454,17.3408589 L86.4704294,17.3408589 L86.4704294,5.76785276 Z" id="路径" fill-rule="nonzero"></path>
                            <path d="M94.4655215,0.467239264 L97.3366871,0.467239264 C97.8947239,0.483435583 98.3916564,0.505521472 98.8274847,0.533496933 C99.2086363,0.558256047 99.5882729,0.602485554 99.964908,0.66601227 C100.264112,0.719243688 100.55929,0.793038257 100.848344,0.886871166 C101.102666,0.970331185 101.347071,1.08142442 101.577178,1.21815951 C101.927978,1.41354294 102.251085,1.65494471 102.537914,1.93595092 C102.809432,2.20927249 103.043385,2.51749709 103.23362,2.85251534 C103.423681,3.17605892 103.565074,3.52582122 103.653252,3.89055215 C103.74325,4.27417633 103.787728,4.66706956 103.785767,5.06110429 C103.786809,5.39323415 103.742221,5.72393288 103.653252,6.04392638 C103.5658,6.35304113 103.439648,6.64986967 103.277791,6.92736196 C103.098166,7.21131416 102.882919,7.47109558 102.637301,7.7003681 C102.377488,7.94209498 102.088061,8.14988844 101.775951,8.31877301 C102.267134,8.47682664 102.735059,8.69964769 103.167362,8.98134969 C103.556298,9.23943039 103.899627,9.56036896 104.183313,9.93104294 C104.449866,10.3030336 104.651491,10.7174836 104.779632,11.1568098 C104.916827,11.6416826 104.983766,12.1437271 104.978405,12.6476074 C104.984283,13.2794738 104.852388,13.9050309 104.591902,14.4807362 C104.313294,15.06844 103.910095,15.5884537 103.410307,16.0046626 C102.897859,16.4591625 102.296017,16.8014599 101.643436,17.0095706 C100.947106,17.2295667 100.220275,17.3376595 99.4900613,17.329816 L94.4544785,17.329816 L94.4655215,0.467239264 Z M98.4785276,7.73349693 C98.9250133,7.75452299 99.3720565,7.70609331 99.803681,7.58993865 C100.167968,7.48922111 100.506724,7.31231547 100.797546,7.07092025 C101.071884,6.84146808 101.287649,6.54999575 101.426994,6.2206135 C101.576089,5.86010289 101.651196,5.47330054 101.647853,5.08319018 C101.652357,4.68582051 101.577262,4.2915703 101.426994,3.92368098 C101.287062,3.59463454 101.071391,3.30329035 100.797546,3.07337423 C100.490748,2.84009544 100.14215,2.66767053 99.7705521,2.56539877 C99.298887,2.43961707 98.8119999,2.38014994 98.3239264,2.38871166 L96.6674847,2.36662577 L96.6674847,7.73349693 L98.4785276,7.73349693 Z M98.8981595,15.3752147 C99.4553573,15.3984565 100.013039,15.3426883 100.554601,15.2095706 C100.98239,15.1050892 101.386881,14.92157 101.747239,14.6684663 C102.069926,14.4377102 102.325309,14.1251512 102.487117,13.7629448 C102.649298,13.3712019 102.728269,12.9500213 102.719018,12.526135 C102.72875,12.1057866 102.64973,11.6881106 102.487117,11.3003681 C102.330226,10.947571 102.082535,10.64272 101.769325,10.4169325 C101.423641,10.1504323 101.024282,9.9620555 100.598773,9.86478528 C100.063101,9.74023041 99.5143327,9.68090415 98.9644172,9.68809816 L96.6674847,9.66601227 L96.6674847,15.3641718 L98.8981595,15.3752147 Z" id="形状" fill-rule="nonzero"></path>
                            <path d="M108.004172,5.76785276 L109.925644,5.76785276 L109.925644,7.31386503 C110.09629,7.04245611 110.296265,6.79063585 110.521963,6.56294479 C110.728585,6.35361307 110.958272,6.16838117 111.206626,6.01079755 C111.462083,5.86248802 111.737187,5.75095957 112.023804,5.6795092 C112.334692,5.60417705 112.653618,5.56709274 112.973497,5.56897738 L113.216442,5.56897738 C113.276088,5.568002 113.335583,5.57543888 113.393129,5.59116564 L113.525644,5.59116564 C113.549206,5.60476363 113.575755,5.61234899 113.602945,5.61325153 L113.65816,5.61325153 L113.65816,7.68932515 C113.554356,7.67607362 113.459387,7.6606135 113.371043,7.64515337 C113.282699,7.62969325 113.200982,7.61644172 113.128098,7.6009816 C113.047759,7.58773691 112.966563,7.58035546 112.885153,7.57889571 L112.664294,7.57889571 C112.268665,7.57077525 111.875121,7.63823993 111.504785,7.77766871 C111.179009,7.90716181 110.893275,8.12051012 110.676564,8.39607362 C110.442193,8.70477722 110.273116,9.0579603 110.179632,9.43411043 C110.061667,9.91080194 110.005988,10.4007735 110.013988,10.8917791 L110.013988,17.3408589 L108.004172,17.3408589 L108.004172,5.76785276 Z" id="路径" fill-rule="nonzero"></path>
                            <path d="M124.981595,17.3408589 L124.981595,15.4635583 C124.750383,15.7968029 124.479705,16.1008522 124.17546,16.3690798 C123.880937,16.6294901 123.549804,16.8452846 123.192638,17.0095706 C122.837559,17.1867967 122.457857,17.3096415 122.066258,17.3739877 C121.642717,17.4422345 121.214275,17.4754758 120.785276,17.473468 C120.386045,17.4747686 119.987306,17.4452323 119.592638,17.3850307 C119.206311,17.326682 118.828231,17.2228952 118.466258,17.0758282 C118.105756,16.9188976 117.761735,16.726542 117.439264,16.5015951 C117.110822,16.2723993 116.804023,16.0136536 116.522699,15.728589 C116.261715,15.4582235 116.028636,15.1622502 115.826994,14.8451534 C115.625727,14.5255521 115.452092,14.1893639 115.307975,13.8402454 C115.174034,13.4823585 115.074204,13.1126175 115.009816,12.7359509 C114.809938,11.5224364 114.912347,10.2783593 115.307975,9.11386503 C115.568881,8.39940898 115.983563,7.75099649 116.522699,7.21447853 C117.04226,6.6625658 117.6804,6.23588058 118.388957,5.96662577 C119.155382,5.68151296 119.967573,5.53928595 120.785276,5.54699387 C121.216327,5.54620317 121.646075,5.59436448 122.066258,5.69055215 C122.469963,5.78438524 122.862404,5.92136944 123.23681,6.0991411 C123.988633,6.45937505 124.635125,7.00699107 125.11411,7.68932515 L125.11411,5.76785276 L127.013497,5.76785276 L127.013497,17.3408589 L124.981595,17.3408589 Z M121.050307,15.728589 C121.600138,15.7504332 122.148671,15.6602634 122.662577,15.4635583 C123.151353,15.270618 123.58952,14.9684333 123.943558,14.5801227 C124.321816,14.2048243 124.615492,13.7530149 124.804908,13.2549693 C125.001396,12.7136164 125.098658,12.141269 125.092025,11.5653988 C125.097352,10.9968289 125.000089,10.4319593 124.804908,9.89791411 C124.615067,9.40008464 124.321446,8.94836005 123.943558,8.57276074 C123.586499,8.18792648 123.149177,7.88632482 122.662577,7.68932515 C122.149779,7.48561278 121.602044,7.38431927 121.050307,7.39116564 C120.505588,7.38260362 119.96474,7.48401269 119.460123,7.68932515 C118.977141,7.89298358 118.541138,8.19367528 118.179141,8.57276074 C117.799917,8.94727247 117.506096,9.39930511 117.317791,9.89791411 C117.123149,10.4275091 117.025879,10.9879369 117.030675,11.5521472 C117.022967,12.1281014 117.120262,12.7006406 117.317791,13.2417178 C117.710093,14.2333142 118.480932,15.0279935 119.460123,15.4503067 C119.966408,15.6487296 120.506599,15.7462642 121.050307,15.7374233 L121.050307,15.728589 Z" id="形状" fill-rule="nonzero"></path>
                            <path d="M130.090061,1.8807362 C130.089477,1.70652422 130.12325,1.53390674 130.189448,1.37276074 C130.261621,1.20226798 130.362465,1.04539824 130.487607,0.908957055 C130.628224,0.781014551 130.788568,0.67660467 130.962454,0.599754601 C131.133262,0.52597502 131.3175,0.488375368 131.503558,0.489307598 C131.689573,0.488817412 131.873722,0.526398866 132.044663,0.599754601 C132.209373,0.675288647 132.359031,0.780049077 132.48638,0.908957055 C132.614188,1.03487415 132.715557,1.1850511 132.78454,1.35067485 C132.917688,1.70292993 132.917688,2.0916713 132.78454,2.44392638 C132.719295,2.61369197 132.619235,2.76791968 132.490798,2.89668712 C132.354356,3.02182901 132.197487,3.12267384 132.026994,3.19484663 C131.858432,3.26206335 131.678395,3.29582014 131.496933,3.29423313 C131.3119,3.29564309 131.128282,3.26191731 130.955828,3.19484663 C130.781517,3.12575381 130.626273,3.01594699 130.503067,2.87460123 C130.363622,2.75408489 130.254006,2.60288973 130.182822,2.43288344 C130.115165,2.26444939 130.081391,2.08432518 130.083436,1.90282209 L130.090061,1.8807362 Z M130.42135,5.76785276 L132.490798,5.76785276 L132.490798,17.3408589 L130.414724,17.3408589 L130.42135,5.76785276 Z" id="形状" fill-rule="nonzero"></path>
                            <path d="M136.02454,5.76785276 L138.034356,5.76785276 L138.034356,7.09300613 C138.277585,6.8481981 138.539748,6.62295952 138.818405,6.4193865 C139.075303,6.2297869 139.353213,6.07045175 139.646626,5.94453988 C139.93359,5.81427912 140.233376,5.71435038 140.541104,5.64638037 C140.849458,5.57931036 141.164193,5.54598547 141.479755,5.54699387 C142.085964,5.53864182 142.687402,5.65517057 143.246626,5.88932515 C143.778585,6.11951825 144.249664,6.47036985 144.622577,6.91411043 C145.014248,7.3887758 145.3071,7.93693509 145.483926,8.52638037 C145.684404,9.21494661 145.781172,9.92953996 145.771043,10.6466258 L145.771043,17.3386503 L143.739141,17.3386503 L143.739141,10.8476074 C143.745269,10.3275322 143.689666,9.80856697 143.573497,9.30159509 C143.488979,8.90597802 143.327649,8.53079122 143.09865,8.19730061 C142.898588,7.90411643 142.61889,7.67422749 142.292515,7.53472393 C141.924626,7.38445618 141.530376,7.3093609 141.133006,7.31386503 C140.67391,7.3002753 140.216494,7.37526144 139.785767,7.53472393 C139.414245,7.68135106 139.081657,7.91189517 138.813988,8.20834356 C138.547737,8.53241878 138.352146,8.90855582 138.239755,9.31263804 C138.098871,9.82691385 138.031942,10.3586319 138.040982,10.8917791 L138.040982,17.2966871 L136.02454,17.2966871 L136.02454,5.76785276 Z" id="路径" fill-rule="nonzero"></path>
                        </g>
                    </g>
                </g>
            </g>
        </g>
    </g>
</svg>