<?xml version="1.0" encoding="UTF-8"?>
<svg width="187px" height="36px" viewBox="0 0 187 36" version="1.1" xmlns="http://www.w3.org/2000/svg" xmlns:xlink="http://www.w3.org/1999/xlink">
    <!-- Generator: Sketch 55.2 (78181) - https://sketchapp.com -->
    <title>LOGO </title>
    <desc>Created with Sketch.</desc>
    <g id="页面1" stroke="none" stroke-width="1" fill="none" fill-rule="evenodd">
        <g id="资源中心-服务产品-详情" transform="translate(-360.000000, -14.000000)">
            <g id="导航栏">
                <g id="LOGO-" transform="translate(360.000000, 14.000000)">
                    <g id="编组">
                        <g>
                            <g id="编组-3" transform="translate(44.736842, 6.631579)" fill="#FFFFFF">
                                <path d="M7.33074847,21.6164054 L7.33074847,19.8306287 C12.6560098,15.8832618 15.7897325,10.5892741 16.7295313,3.94734037 L12.9700712,3.94734037 C12.2181791,6.01457963 10.6203092,7.7388692 8.17699141,9.11623362 L8.17699141,7.51862871 C10.0563239,5.76492074 11.1842945,3.28953423 11.560108,0.0937943558 L14.0039558,0.0937943558 C13.8775362,0.971840982 13.7216982,1.69139926 13.5337914,2.25538454 L19.2672,2.25538454 L19.2672,3.85325448 C18.5767951,7.11180663 17.7631509,9.74356123 16.8233521,11.7479882 C17.7631509,14.6938042 19.422508,17.3560373 21.8043387,19.7365428 L21.8043387,21.6164054 C18.670616,19.2989772 16.5416245,16.8551293 15.413389,14.2856569 C13.7216982,16.9168815 11.0271313,19.3607293 7.33074847,21.6164054 L7.33074847,21.6164054 Z M0.0938208589,3.0075416 L0.0938208589,1.40940663 L7.89473374,1.40940663 L7.89473374,3.0075416 L5.16942331,3.0075416 L5.16942331,8.64633423 L7.42456933,8.64633423 L7.42456933,10.2442042 L5.16942331,10.2442042 L5.16942331,16.541068 C6.10922209,16.3531612 7.11050798,16.0711686 8.17699141,15.6953551 L8.17699141,17.29296 C5.73340859,18.3591784 3.0075681,19.0477281 4.12114787e-13,19.3607293 L4.12114787e-13,17.4808667 C0.376078528,17.4196447 0.940328834,17.3560373 1.69195583,17.29296 C2.19233374,17.1681306 2.56841227,17.1050533 2.81966135,17.1050533 L2.81966135,10.2442042 L0.281727607,10.2442042 L0.281727607,8.64633423 L2.81966135,8.64633423 L2.81966135,3.0075416 L0.0938208589,3.0075416 Z" id="Fill-1"></path>
                                <path d="M40.3198056,19.7365958 C41.2596044,19.7365958 41.6971701,19.3607823 41.6354179,18.6088903 L41.6354179,17.6690915 L36.184532,17.6690915 L36.184532,19.7365958 L40.3198056,19.7365958 Z M36.1847971,16.3532142 L41.6354179,16.3532142 L41.6354179,14.2857099 L36.1847971,14.2857099 L36.1847971,16.3532142 Z M29.9814891,10.2442572 L38.8157566,10.2442572 C39.5679136,10.2442572 39.9439921,9.86817865 39.9439921,9.11628663 L39.9439921,8.45848049 L29.9814891,8.45848049 L29.9814891,10.2442572 Z M28.1954474,19.7365958 L33.7409492,19.7365958 L33.7409492,17.6690915 L28.1954474,17.6690915 L28.1954474,19.7365958 Z M28.1954474,16.3529492 L33.7409492,16.3529492 L33.7409492,14.2854449 L28.1954474,14.2854449 L28.1954474,16.3529492 Z M27.5376412,11.5598694 L27.5376412,7.14260319 L42.3873099,7.14260319 L42.3873099,9.11628663 C42.4490621,10.8082425 41.5092633,11.6229467 39.5679136,11.5598694 L27.5376412,11.5598694 Z M27.5376412,5.82672589 L42.3870449,5.82672589 L42.3870449,4.51111362 L27.5376412,4.51111362 L27.5376412,5.82672589 Z M25.7521296,21.2406449 L25.7521296,12.8754817 L44.0792658,12.8754817 L44.0792658,18.6088903 C44.1410179,20.4254106 43.1702106,21.301867 41.1655185,21.2406449 L25.7521296,21.2406449 Z M24.7182449,5.26300564 L24.7182449,1.50354552 L33.5530425,1.50354552 L33.5530425,2.65030676e-05 L36.3724388,2.65030676e-05 L36.3724388,1.50354552 L45.2067063,1.50354552 L45.2067063,5.26300564 L42.7633885,5.26300564 L42.7633885,2.91350871 L27.1618277,2.91350871 L27.1618277,5.26300564 L24.7182449,5.26300564 Z" id="Fill-3"></path>
                                <path d="M61.0903126,15.9771092 L65.1315004,15.9771092 C66.1327863,16.0404515 66.6029507,15.5705521 66.5409335,14.5676761 L66.5409335,11.2781153 L61.0903126,11.2781153 L61.0903126,15.9771092 Z M58.9284574,17.5752442 L58.9284574,9.77406626 L68.7030537,9.77406626 L68.7030537,14.6614969 C68.8276182,16.7290012 67.8570758,17.7013988 65.7893065,17.5752442 L58.9284574,17.5752442 Z M58.2703863,9.30416687 L58.2703863,7.89446871 C60.2750783,6.89318282 61.2148771,5.26297914 61.0903126,3.0075681 L61.0903126,2.63122454 L58.2703863,2.63122454 L58.2703863,0.939533742 L68.7968746,0.939533742 L68.7968746,5.45088589 C68.8586267,7.51865521 67.919093,8.52179632 65.9772133,8.45845399 L64.2857875,8.45845399 L64.2857875,6.86084908 L65.3194071,6.86084908 C66.320958,6.92366135 66.7908574,6.45376196 66.7291053,5.45088589 L66.7291053,2.63122454 L63.1578169,2.63122454 L63.1578169,2.81939632 C63.4072108,6.14102577 61.7788623,8.30261595 58.2703863,9.30416687 L58.2703863,9.30416687 Z M48.7780476,4.32318037 L48.7780476,2.72531043 L52.0673433,2.72531043 L52.0673433,-3.01980663e-14 L54.4171053,-3.01980663e-14 L54.4171053,2.72531043 L57.3308525,2.72531043 L57.3308525,4.32318037 L54.4171053,4.32318037 L54.4171053,7.70656196 L57.706666,7.70656196 L57.706666,9.39825276 L55.2630832,9.39825276 L55.2630832,12.9695411 L57.8007519,12.9695411 L57.8007519,14.5676761 L55.2630832,14.5676761 L55.2630832,19.2666699 C56.202882,19.3912344 57.2985188,19.4545767 58.5526439,19.4545767 L69.8307593,19.4545767 L69.8307593,21.0521816 L57.706666,21.0521816 C54.6360206,21.1139337 52.3170022,20.3315632 50.751731,18.7029497 C50.3759175,19.6427485 49.4668623,20.6761031 48.0261556,21.8043387 L48.0261556,19.9244761 C49.0274415,18.8595828 49.4978709,17.1048147 49.4361188,14.6614969 L49.4361188,10.808216 L51.4098022,10.808216 L51.4098022,14.4735902 C51.4098022,15.2882945 51.3467249,16.0094429 51.2218955,16.6349153 C51.7856157,17.3255853 52.3806096,17.8569718 53.0076721,18.2330503 L53.0076721,9.39825276 L48.2140623,9.39825276 L48.2140623,7.70656196 L52.0673433,7.70656196 L52.0673433,4.32318037 L48.7780476,4.32318037 Z" id="Fill-5"></path>
                                <path d="M84.1166547,5.07488687 C84.1166547,6.57893595 84.0535774,8.36444761 83.9284829,10.4322169 L85.2446253,10.4322169 C85.8698326,12.6258758 86.7481443,14.4119175 87.8763799,15.789282 C89.1283848,14.2240108 90.037705,11.9680697 90.6014253,9.02225374 L86.8419652,9.02225374 L86.8419652,7.61255558 C87.8435161,5.92059975 88.5015872,4.32325988 88.8156486,2.81947583 L84.1166547,2.81947583 L84.1166547,5.07488687 Z M82.4246989,21.7105973 L82.4246989,20.0183764 C84.0535774,19.2049973 85.432532,18.2651985 86.5602375,17.1989801 C85.3691897,15.8831028 84.3986474,14.2544893 83.6464903,12.3118145 C83.1442572,15.8216157 81.578986,18.8906709 78.9472314,21.5224255 L78.9472314,19.3605703 L79.5112167,18.6089433 C77.5054645,19.1726636 75.0939504,19.4223225 72.2742891,19.3605703 L72.2742891,17.6691445 C75.0939504,17.6691445 77.5377983,17.4194856 79.6053026,16.9169875 L79.6053026,18.3269507 C81.2339161,15.6951961 81.9855431,11.2164427 81.8609787,4.88698012 L81.8609787,2.81947583 L79.8870302,2.81947583 L79.8870302,1.22160589 L91.3533173,1.22160589 L91.3533173,2.81947583 C90.789332,4.57450896 90.0053713,6.14084025 89.0038204,7.51873472 L92.9511872,7.51873472 L92.9511872,9.02225374 C92.3241247,12.7199617 91.1023333,15.4762807 89.285813,17.292801 C90.6631774,18.4838488 92.1672265,19.3605703 93.7969001,19.9245556 L93.7969001,21.6165114 C91.5417541,20.7379347 89.5675406,19.7366488 87.8763799,18.6089433 C86.4971602,19.5484771 84.68064,20.5823617 82.4246989,21.7105973 L82.4246989,21.7105973 Z M72.6501026,15.0373899 L72.6501026,13.1575274 C73.9662449,11.7801629 75.0939504,10.2766439 76.0337492,8.64644025 C75.0311382,8.77259485 73.7460044,8.80360344 72.1804682,8.74052613 L72.1804682,7.04883534 C73.8088167,4.98106601 74.9370523,2.69464638 75.5638498,0.187986258 L78.0076977,0.187986258 C77.129651,2.88255313 75.876851,5.16897276 74.2482375,7.04883534 C74.9370523,7.11191264 75.7517566,7.08116908 76.6918204,6.95474945 L76.974078,6.95474945 C77.3498915,6.07802798 77.6936363,5.23231509 78.0076977,4.41708074 L80.2631087,4.41708074 C79.0723259,7.86353963 77.2865492,10.7772869 74.9060437,13.1575274 C75.9709369,13.1575274 77.4437124,13.0637065 79.3233099,12.8755347 C79.5112167,12.8140476 79.6363112,12.7817139 79.6991234,12.7817139 L79.6991234,14.3795838 C77.6316191,14.8184746 75.2818572,15.0373899 72.6501026,15.0373899 L72.6501026,15.0373899 Z" id="Fill-7"></path>
                                <path d="M96.6160579,6.67296883 L96.6160579,4.88692712 L105.732848,4.88692712 L105.732848,0.093847362 L108.552509,0.093847362 L108.552509,4.88692712 L117.669035,4.88692712 L117.669035,6.67296883 L108.552509,6.67296883 C108.677074,12.3751038 111.809206,16.7923701 117.950762,19.9245026 L117.950762,21.7105443 C112.561628,19.4546032 108.990075,16.4470351 107.236367,12.687575 C105.35677,16.5103774 101.722404,19.5163553 96.3343303,21.7105443 L96.3343303,19.9245026 C102.537373,16.7923701 105.669506,12.3751038 105.732848,6.67296883 L96.6160579,6.67296883 Z" id="Fill-9"></path>
                                <path d="M138.721534,18.7028702 C137.218015,17.0742567 136.09031,15.6335499 135.337888,14.3796898 C134.711355,15.5073953 133.614128,16.9491622 132.048592,18.7028702 L132.048592,16.541015 C132.988656,15.2254027 133.771026,13.9726027 134.398354,12.7815548 C133.3324,10.5892211 132.455414,8.05155239 131.766599,5.16907877 L133.646727,5.16907877 C134.084027,7.11175362 134.648013,8.9916162 135.337888,10.8081364 C136.026967,8.9916162 136.590688,7.11175362 137.029843,5.16907877 L138.909441,5.16907877 C138.282908,8.11489472 137.405922,10.6525634 136.278216,12.7815548 C136.903954,13.9726027 137.718658,15.2254027 138.721534,16.541015 L138.721534,18.7028702 Z M129.323281,21.0521021 L129.323281,6.57877693 L131.2967,6.57877693 L131.2967,19.3606763 L137.781735,19.3606763 C138.909441,19.4857708 139.441093,19.0171966 139.37934,17.9509782 L139.37934,6.57877693 L141.353289,6.57877693 L141.353289,18.1391499 C141.415041,20.1435769 140.41349,21.1138542 138.345721,21.0521021 L129.323281,21.0521021 Z M128.759561,3.85320147 L128.759561,2.25533153 L134.116361,2.25533153 L134.116361,0.0940063804 L136.748116,0.0940063804 L136.748116,2.25533153 L142.105181,2.25533153 L142.105181,3.85320147 L128.759561,3.85320147 Z M123.401966,12.5936481 L125.751728,12.5936481 L125.751728,8.27046773 L123.401966,8.27046773 L123.401966,12.5936481 Z M123.401966,6.76694871 L125.751728,6.76694871 L125.751728,2.72523092 L123.401966,2.72523092 L123.401966,6.76694871 Z M120.11267,21.7104383 L120.11267,19.9243966 C121.052734,18.8597683 121.4903,16.9168285 121.428548,14.0976972 L121.428548,1.2217119 L127.631326,1.2217119 L127.631326,19.1727696 C127.693078,20.6762886 126.8471,21.3958469 125.093922,21.3346248 L123.965951,21.3346248 L123.965951,19.8305757 L124.718108,19.8305757 C125.47,19.8305757 125.81348,19.5485831 125.751728,18.9845978 L125.751728,14.0038763 L123.401966,14.0038763 C123.589873,17.5751647 122.493176,20.1435769 120.11267,21.7104383 L120.11267,21.7104383 Z" id="Fill-11"></path>
                            </g>
                            <g>
                                <polygon id="Fill-1" fill="#F34A44" points="0 27.4709374 14.5539387 35.873735 14.5539387 33.8782748 1.72777914 26.4733178 1.72777914 11.9048025 0 10.9071828"></polygon>
                                <polygon id="Fill-2" fill="#F34A44" points="14.5275018 18.9211141 3.85118282 12.9720589 3.85118282 20.9011141 11.039919 24.8820957 11.039919 22.9069546 5.57896196 19.8827337 5.57896196 15.9127951 12.7995018 19.9366233 12.7995018 28.6903656 3.84764908 23.6932123 3.84764908 25.672108 14.5275018 31.6337521"></polygon>
                                <polygon id="Fill-3" fill="#179FEB" points="29.540054 11.9048245 29.540054 26.4733399 16.7138945 33.8782969 16.7138945 35.8737571 31.268054 27.4709595 31.268054 10.9072049"></polygon>
                                <polygon id="Fill-4" fill="#179FEB" points="18.4419387 19.936535 27.3902577 14.9581546 27.3902577 12.9721914 16.7139387 18.9210258 16.7139387 31.6336638 18.4417178 30.669173"></polygon>
                                <polygon id="Fill-5" fill="#179FEB" points="27.3901693 20.9010699 27.3901693 19.0253153 20.2014331 22.9071313 20.2014331 24.8820515"></polygon>
                                <polygon id="Fill-6" fill="#F3A119" points="15.2999558 -8.83435583e-05 0.536201227 8.52373988 2.26420123 9.52135951 15.2999558 1.99537178 28.3354896 9.52135951 30.0637104 8.52373988"></polygon>
                                <polygon id="Fill-7" fill="#F3A119" points="13.944081 4.77686871 13.9431975 4.77731043 13.4743141 5.06155583 13.4749767 5.06199755 11.0881546 6.51171534 4.30712393 10.621016 15.5947804 17.0621448 17.1648663 16.0371387 7.71784785 10.5746356 11.1128908 8.51733497 15.1983387 6.0428319 23.1711239 10.5790528 20.2679337 12.3558626 14.3104859 8.89478282 14.2466577 8.9115681 12.5632712 9.8835681 20.1946086 14.3135558 26.5836147 10.5313472 15.166535 4.03610798"></polygon>
                            </g>
                        </g>
                    </g>
                </g>
            </g>
        </g>
    </g>
</svg>