<?xml version="1.0" encoding="UTF-8"?>
<svg width="72px" height="72px" viewBox="0 0 72 72" version="1.1" xmlns="http://www.w3.org/2000/svg" xmlns:xlink="http://www.w3.org/1999/xlink">
    <!-- Generator: Sketch 55.2 (78181) - https://sketchapp.com -->
    <title>one_wallet</title>
    <desc>Created with Sketch.</desc>
    <g id="页面1" stroke="none" stroke-width="1" fill="none" fill-rule="evenodd">
        <g id="宣传首页" transform="translate(-518.000000, -962.000000)">
            <g id="01-model" transform="translate(0.000000, 640.000000)">
                <g id="编组" transform="translate(360.000000, 272.000000)">
                    <g id="one_wallet" transform="translate(158.000000, 50.000000)">
                        <rect id="矩形" fill="#FFFFFF" x="0" y="0" width="72" height="72" rx="8"></rect>
                        <polygon id="路径" fill="#FFBDBA" fill-rule="nonzero" points="56.0695297 42.7205679 60.6038837 42.7205679 60.6038837 54.3376755 56.0695297 54.3376755"></polygon>
                        <polygon id="路径" fill="#FF665F" fill-rule="nonzero" points="13.5118756 18.2140544 58.4172069 18.2140544 58.4172069 27.0853502 13.5118756 27.0853502"></polygon>
                        <path d="M58.4172069,27.0853502 L58.4172069,27.1557791 L13.5118756,27.1557791 L13.5118756,27.0853502 L4.42302498,27.0853502 L4.35344122,42.7205679 L10.8320557,42.7205679 L10.8320557,40.1851272 L15.4099347,40.1851272 L15.4099347,42.7205679 L19.9173849,42.7205679 L19.9173849,40.2463299 L24.4952639,40.2463299 L24.4952639,42.7205679 L28.9539069,42.7205679 L28.9539069,40.2463299 L33.4882609,40.2463299 L33.4882609,42.7205679 L37.933311,42.7205679 L37.933311,40.2463299 L42.467665,40.2463299 L42.467665,42.7205679 L47.08921,42.7205679 L47.08921,40.2463299 L51.623564,40.2463299 L51.623564,42.7205679 L56.0695297,42.7205679 L56.0695297,40.2463299 L60.6038837,40.2463299 L60.6038837,42.7205679 L67.5273271,42.7205679 L67.5273271,27.0853502 L58.4172069,27.0853502 Z M16.1973299,38.2805887 C14.1442568,38.2805887 12.4799513,36.6162831 12.4799513,34.56321 C12.4799513,32.5101369 14.1442568,30.8458313 16.1973299,30.8458313 C18.250403,30.8458313 19.9147086,32.5101369 19.9147086,34.56321 C19.9147086,36.6162831 18.250403,38.2805887 16.1973299,38.2805887 Z M29.2971069,38.2805887 C27.2440338,38.2805887 25.5797283,36.6162831 25.5797283,34.56321 C25.5797283,32.5101369 27.2440338,30.8458313 29.2971069,30.8458313 C31.35018,30.8458313 33.0144856,32.5101369 33.0144856,34.56321 C33.0144856,36.6162831 31.35018,38.2805887 29.2971069,38.2805887 Z M42.3968839,38.2805887 C40.3438108,38.2805887 38.6795053,36.6162831 38.6795053,34.56321 C38.6795053,32.5101369 40.3438108,30.8458313 42.3968839,30.8458313 C44.4499571,30.8458313 46.1142626,32.5101369 46.1142626,34.56321 C46.1142626,36.6162831 44.4499571,38.2805887 42.3968839,38.2805887 Z M55.4966609,38.2805887 C53.4435878,38.2805887 51.7792823,36.6162831 51.7792823,34.56321 C51.7792823,32.5101369 53.4435878,30.8458313 55.4966609,30.8458313 C57.5497341,30.8458313 59.2140396,32.5101369 59.2140396,34.56321 C59.2140396,36.6162831 57.5497341,38.2805887 55.4966609,38.2805887 Z" id="形状" fill="#FFBDBA" fill-rule="nonzero"></path>
                        <path d="M56.0695297,40.2463299 L60.6038837,40.2463299 L60.6038837,42.7205679 L56.0695297,42.7205679 L56.0695297,40.2463299 Z M13.5118756,27.0853502 L58.4172069,27.0853502 L58.4172069,27.2492573 L13.5118756,27.2492573 L13.5118756,27.0853502 Z M47.08921,42.7205679 L51.623564,42.7205679 L51.623564,54.3376755 L47.08921,54.3376755 L47.08921,42.7205679 Z M47.08921,40.2463299 L51.623564,40.2463299 L51.623564,42.7205679 L47.08921,42.7205679 L47.08921,40.2463299 Z M37.933311,42.7205679 L42.467665,42.7205679 L42.467665,54.3376755 L37.933311,54.3376755 L37.933311,42.7205679 Z M37.933311,40.2463299 L42.467665,40.2463299 L42.467665,42.7205679 L37.933311,42.7205679 L37.933311,40.2463299 Z M28.9539069,42.7205679 L33.4882609,42.7205679 L33.4882609,54.3376755 L28.9539069,54.3376755 L28.9539069,42.7205679 Z M28.9539069,40.2463299 L33.4882609,40.2463299 L33.4882609,42.7205679 L28.9539069,42.7205679 L28.9539069,40.2463299 Z M19.9173849,42.7205679 L24.4952639,42.7205679 L24.4952639,54.3376755 L19.9173849,54.3376755 L19.9173849,42.7205679 Z M19.9173849,40.2463299 L24.4952639,40.2463299 L24.4952639,42.7205679 L19.9173849,42.7205679 L19.9173849,40.2463299 Z M10.8320557,42.7205679 L15.4099347,42.7205679 L15.4099347,54.2709089 L10.8320557,54.2709089 L10.8320557,42.7205679 Z M10.8320557,40.1851272 L15.4099347,40.1851272 L15.4099347,42.7205679 L10.8320557,42.7205679 L10.8320557,40.1851272 Z" id="形状" fill="#FFBDBA" fill-rule="nonzero"></path>
                    </g>
                </g>
            </g>
        </g>
    </g>
</svg>