<?xml version="1.0" encoding="UTF-8"?>
<svg width="72px" height="72px" viewBox="0 0 72 72" version="1.1" xmlns="http://www.w3.org/2000/svg" xmlns:xlink="http://www.w3.org/1999/xlink">
    <!-- Generator: Sketch 55.2 (78181) - https://sketchapp.com -->
    <title>one_cloud</title>
    <desc>Created with Sketch.</desc>
    <g id="页面1" stroke="none" stroke-width="1" fill="none" fill-rule="evenodd">
        <g id="宣传首页" transform="translate(-924.000000, -962.000000)">
            <g id="01-model" transform="translate(0.000000, 640.000000)">
                <g id="编组备份-2" transform="translate(766.000000, 272.000000)">
                    <g id="one_cloud" transform="translate(158.000000, 50.000000)">
                        <rect id="矩形" fill="#FFFFFF" x="0" y="0" width="72" height="72" rx="8"></rect>
                        <g id="中台管理-面" transform="translate(10.000000, 10.000000)" fill-rule="nonzero">
                            <path d="M19.5000178,0 L32.5000296,0 C34.2949453,0 35.7500326,1.45508726 35.7500326,3.25000296 L35.7500326,48.7500444 C35.7500326,50.5449601 34.2949453,52.0000474 32.5000296,52.0000474 L19.5000178,52.0000474 C17.7051021,52.0000474 16.2500148,50.5449601 16.2500148,48.7500444 L16.2500148,3.25000296 C16.2500148,1.45508726 17.7051021,0 19.5000178,0 Z M22.7500207,9.75000888 C21.8525629,9.75000888 21.1250192,10.4775525 21.1250192,11.3750104 C21.1250192,12.2724682 21.8525629,13.0000118 22.7500207,13.0000118 L29.2500266,13.0000118 C30.1474845,13.0000118 30.8750281,12.2724682 30.8750281,11.3750104 C30.8750281,10.4775525 30.1474845,9.75000888 29.2500266,9.75000888 L22.7500207,9.75000888 Z M22.7500207,24.3750222 C21.8525629,24.3750222 21.1250192,25.1025658 21.1250192,26.0000237 C21.1250192,26.8974815 21.8525629,27.6250252 22.7500207,27.6250252 L29.2500266,27.6250252 C30.1474845,27.6250252 30.8750281,26.8974815 30.8750281,26.0000237 C30.8750281,25.1025658 30.1474845,24.3750222 29.2500266,24.3750222 L22.7500207,24.3750222 Z M22.7500207,39.0000355 C21.8525629,39.0000355 21.1250192,39.7275791 21.1250192,40.625037 C21.1250192,41.5224948 21.8525629,42.2500385 22.7500207,42.2500385 L29.2500266,42.2500385 C30.1474845,42.2500385 30.8750281,41.5224948 30.8750281,40.625037 C30.8750281,39.7275791 30.1474845,39.0000355 29.2500266,39.0000355 L22.7500207,39.0000355 Z" id="形状" fill="#FF665F"></path>
                            <path d="M3.25000296,6.50000592 L13.0000118,6.50000592 L13.0000118,45.5000414 L3.25000296,45.5000414 C1.45508726,45.5000414 0,44.0449542 0,42.2500385 L0,9.75000888 C0,7.95509318 1.45508726,6.50000592 3.25000296,6.50000592 Z" id="路径" fill="#FFBDBA"></path>
                            <path d="M39.0000355,6.50000592 L48.7500444,6.50000592 C50.5449601,6.50000592 52.0000474,7.95509318 52.0000474,9.75000888 L52.0000474,42.2500385 C52.0000474,44.0449542 50.5449601,45.5000414 48.7500444,45.5000414 L39.0000355,45.5000414 L39.0000355,6.50000592 Z" id="路径" fill="#FFBDBA"></path>
                        </g>
                    </g>
                </g>
            </g>
        </g>
    </g>
</svg>