<?xml version="1.0" encoding="UTF-8"?>
<svg width="72px" height="72px" viewBox="0 0 72 72" version="1.1" xmlns="http://www.w3.org/2000/svg" xmlns:xlink="http://www.w3.org/1999/xlink">
    <!-- Generator: Sketch 55.2 (78181) - https://sketchapp.com -->
    <title>one_brain</title>
    <desc>Created with Sketch.</desc>
    <g id="页面1" stroke="none" stroke-width="1" fill="none" fill-rule="evenodd">
        <g id="宣传首页" transform="translate(-1330.000000, -962.000000)">
            <g id="01-model" transform="translate(0.000000, 640.000000)">
                <g id="编组备份-3" transform="translate(1172.000000, 272.000000)">
                    <g id="one_brain" transform="translate(158.000000, 50.000000)">
                        <rect id="矩形" fill="#FFFFFF" x="0" y="0" width="72" height="72" rx="8"></rect>
                        <g id="开放平台" transform="translate(8.000000, 6.000000)" fill-rule="nonzero">
                            <path d="M12,22.0717968 L5.13285888,18.107051 C4.94984476,17.4240375 5.2333395,16.4330127 5.7333395,15.5669873 C6.2333395,14.7009619 6.69984584,14.3929492 7.13285888,14.6429494 L15.5948835,19.5285016 L26,14.1590855 L26,5.85714209 C26,5.42856927 27,5 28,5 C29,5 30,5.42857283 30,5.85714209 L30,13.8814836 L40.7916801,19.305319 L48.6506351,14.7679492 C49.0836478,14.5179492 50.0166605,15.1339746 50.5166605,16 C51.0166605,16.8660254 51.0836478,17.9820508 50.6506351,18.2320508 L44,22.0717968 L44,35.9282032 L50.6506351,39.7679492 C51.0836478,40.0179492 51.0166605,41.1339746 50.5166605,42 C50.0166605,42.8660254 49.0836478,43.4820508 48.6506351,43.2320508 L41.8962638,39.3324127 L30,46.014813 L30,52.3571425 C29.5,52.7857154 28.5,53 27.5,53 C26.5,53 26,52.7857143 26,52.3571425 L26,45.7765268 L14.1356478,39.3139885 L7.13285888,43.3570506 C6.44984476,43.1740387 5.7333395,42.4330127 5.2333395,41.5669873 C4.7333395,40.7009619 4.69984584,40.1429492 5.13285888,39.892949 L12,35.9282032 L12,22.0717968 Z M28.3179404,23 L22,26.452067 L22,33.3561692 L28.3179404,37 L34.4444444,33.3561692 L34.4444444,26.2602714 L28.3179404,23 Z" id="形状结合" fill="#FFBDBA"></path>
                            <path d="M24,4.14118909 L24,4.14118971 C24,6.42829863 25.8540751,8.28236797 28.1411897,8.28236797 C30.4282986,8.28236797 32.282368,6.42829863 32.282368,4.14118399 L32.282368,4.14118399 C32.282368,1.85407507 30.4282986,0 28.141184,0 C25.8540751,0 24,1.85406934 24,4.14118399 L24,4.14118909 Z" id="路径" fill="#FF665F"></path>
                            <path d="M32.2999506,54.5255739 L32.2999506,54.5250868 C32.2999506,52.2379779 30.4458813,50.3839028 28.1587666,50.3839028 C25.8716577,50.3839028 24.0175827,52.2379721 24.0175827,54.5250868 C24.0175827,54.5254115 24.0175827,54.5257362 24.0175827,54.526061 L24.0175827,54.5265474 C24.0175827,56.8136563 25.8716521,58.6677314 28.158761,58.6677314 C30.4458699,58.6677314 32.2999506,56.8136621 32.2999506,54.5265531 C32.2999506,54.5262284 32.2999506,54.5259037 32.2999506,54.525579 L32.2999506,54.5255739 Z" id="路径" fill="#FF665F"></path>
                            <path d="M49.8654323,12.5555036 L49.8654321,12.5555037 C47.8847365,13.6990582 47.2060988,16.2317653 48.3496532,18.2124608 C49.4932077,20.1931563 52.0259148,20.8717941 54.0066103,19.7282396 L54.0066107,19.7282395 C55.9873062,18.584685 56.665944,16.0519779 55.5223895,14.0712824 C54.378835,12.0905868 51.8461279,11.4119491 49.8654324,12.5555035 L49.8654323,12.5555036 Z" id="路径" fill="#FF665F"></path>
                            <path d="M7.21246104,46.0720962 L7.21246101,46.0720962 C9.19315654,44.9285417 9.87179431,42.3958346 8.72823986,40.4151391 C7.5846854,38.4344436 5.05197829,37.7558058 3.07128275,38.8993603 C3.07128273,38.8993603 3.07128265,38.8993603 3.07128262,38.8993603 L3.07128236,38.8993605 C1.09058682,40.0429149 0.411949055,42.5756221 1.55550351,44.5563176 C2.69905797,46.5370131 5.23176508,47.2156509 7.21246061,46.0720964 C7.21246065,46.0720964 7.21246067,46.0720964 7.21246071,46.0720964 L7.21246104,46.0720962 Z" id="路径" fill="#FF665F"></path>
                            <path d="M52.9577927,38.4201973 L52.9577929,38.4201974 C50.9022343,37.4174259 48.4229632,38.2708843 47.4201974,40.3264424 C46.4174259,42.382001 47.2708843,44.8612721 49.3264424,45.8640379 C49.3266425,45.8641355 49.3268427,45.8642331 49.3270428,45.8643307 L49.3270432,45.8643309 C51.3826019,46.8671024 53.861873,46.0136435 54.8646387,43.9580803 C55.8674102,41.9025216 55.0139513,39.4232505 52.9583881,38.4204848 C52.9581879,38.4203871 52.9579877,38.4202895 52.9577876,38.4201919 L52.9577927,38.4201973 Z" id="路径" fill="#FF665F"></path>
                            <path d="M2.3266597,18.8641519 L2.32665908,18.8641516 C4.38228075,19.866797 6.86149457,19.0131949 7.86414574,16.9575744 C8.86679117,14.9019527 8.01318903,12.4227389 5.95756852,11.4200877 L5.9575688,11.4200879 C3.90194714,10.4174424 1.42273332,11.2710446 0.420087881,13.3266651 C-0.582557557,15.3822868 0.271044582,17.8615006 2.3266651,18.864146 L2.3266597,18.8641519 Z" id="路径" fill="#FF665F"></path>
                        </g>
                    </g>
                </g>
            </g>
        </g>
    </g>
</svg>