<?xml version="1.0" encoding="UTF-8"?>
<svg width="72px" height="72px" viewBox="0 0 72 72" version="1.1" xmlns="http://www.w3.org/2000/svg" xmlns:xlink="http://www.w3.org/1999/xlink">
    <!-- Generator: Sketch 55.2 (78181) - https://sketchapp.com -->
    <title>画板</title>
    <desc>Created with Sketch.</desc>
    <g id="画板" stroke="none" stroke-width="1" fill="none" fill-rule="evenodd">
        <g id="three_digital_r" transform="translate(8.000000, 10.000000)" fill-rule="nonzero">
            <g id="营销">
                <path d="M13.8585478,51.6187996 L35.2726572,44.2450776 C37.0002007,43.6505622 37.6764282,42.2486806 37.0767323,40.5071846 L27.6021437,12.9912934 C27.0024478,11.2502002 25.4724122,9.04971338 23.7307176,8.48050982 L11.9922908,3.5619551 C10.2508003,2.99275154 8.17846199,3.70644816 7.15644664,5.22691398 L0.589859135,16.4489513 C-0.431957601,17.9694205 0.0619104656,20.5262546 0.661607483,22.2681533 L10.1359754,49.7836583 C10.3898851,51.6443322 11.7857901,52.3323218 13.8585202,51.6188216 L13.8585478,51.6187996 Z M12.4245739,12.3479306 C13.8860499,11.8446952 15.1988433,12.4916264 15.7064663,13.9658572 C16.1293832,15.1939483 15.5779173,16.7580678 14.1162405,17.2611007 C12.8979144,17.6806297 11.3417724,17.1172051 10.834348,15.6435713 C10.3267283,14.1695386 10.962897,12.8513607 12.4245739,12.3479306 L12.4245739,12.3479306 Z" id="形状" fill="#FFBDBA"></path>
                <path d="M29.3508393,14.0888141 L37.2662737,37.0770288 L41.5598151,38.3256486 C43.4210902,39.243233 45.493423,38.5297328 46.0498713,36.779669 L47.7481142,33.8573182 L56.1047967,17.7336633 C57.0062329,15.8646202 56.2865592,13.7749475 54.545466,13.2055399 L27.9168709,0.947302984 C26.1749778,0.378099428 23.6233296,-0.301719612 21.5509912,0.412179479 L13.9522316,3.0278081 L23.829615,7.02937425 C25.6906861,7.94695866 27.9115029,9.90907872 29.3508448,14.0887937 L29.3508393,14.0888141 Z" id="路径" fill="#FF665F"></path>
            </g>
        </g>
    </g>
</svg>