<?xml version="1.0" encoding="UTF-8"?>
<svg width="72px" height="72px" viewBox="0 0 72 72" version="1.1" xmlns="http://www.w3.org/2000/svg" xmlns:xlink="http://www.w3.org/1999/xlink">
    <!-- Generator: Sketch 55.2 (78181) - https://sketchapp.com -->
    <title>画板</title>
    <desc>Created with Sketch.</desc>
    <g id="画板" stroke="none" stroke-width="1" fill="none" fill-rule="evenodd">
        <g id="three_ai_w" transform="translate(10.000000, 8.000000)" fill="#FFFFFF" fill-rule="nonzero">
            <g id="监控专题_人工智能">
                <path d="M51.0687804,19.9504685 L51.0687804,19.9505028 C51.0709816,20.3870153 51.0412141,20.8231076 50.9795924,21.2552521 C50.8816247,21.9454817 50.9795924,21.2552521 50.6723298,23.3125759 C50.0043547,27.7077598 48.7708543,32.9134133 44.7319098,38.7024269 C44.6729439,38.7849834 44.6474821,38.886831 44.6606603,38.9874239 L47.0786821,56.5414404 C47.0800717,56.5554198 47.0807334,56.5694621 47.0806645,56.5835102 C47.0795668,56.8073101 46.8972517,56.9878459 46.6734519,56.9867574 L22.1191704,56.9867574 C21.9235511,56.9880421 21.7549339,56.8494011 21.7183931,56.6572208 L20.4091896,49.4788306 C20.3782999,49.2870415 20.2115635,49.1468312 20.0173186,49.1493028 C17.1895809,49.1493028 12.6741848,49.0246169 9.83757429,49.1493028 C9.69952837,49.1760213 9.57038927,49.1760213 9.4323439,49.1760213 C9.05722891,49.2062892 8.68006604,49.1530609 8.32797859,49.0201633 C6.7515872,48.2408711 7.38837647,45.123719 7.64220211,44.1217758 C7.68347539,43.9416612 7.59480188,43.7569242 7.42845409,43.6764678 C6.53783918,43.1955353 5.94557844,42.5721021 5.94557844,42.0377326 C5.94557844,41.2050028 7.01431855,40.6127448 8.56399115,40.3767317 L7.85149589,40.3767317 C6.65806813,40.3767317 5.70510941,39.7800234 5.70510941,39.0675282 C5.69875646,38.8535697 5.75276959,38.6421468 5.86096737,38.4574548 C5.91287628,38.3787156 5.93352066,38.2834337 5.91885749,38.1902702 C5.66187292,36.7277286 5.32140161,35.2810959 4.8991056,33.8574576 C4.8429032,33.7070297 4.70317567,33.6039807 4.54285907,33.5947257 C-0.564820021,33.2741059 0.748836683,31.7466984 1.39453499,31.2034226 C1.61719095,31.0163923 1.83093841,30.8160036 2.03578017,30.6067087 C3.21584854,29.3999216 4.82340627,28.0951711 5.46910458,26.5989361 C6.5378458,24.3456522 5.34887118,21.8519272 5.34887118,19.4739835 C5.42940047,17.3569487 5.87221417,15.2693992 6.6580747,13.3020008 C7.73127908,10.2115897 9.87320686,7.71786464 12.3758382,5.82085345 C16.8652057,2.02247813 22.5665483,-0.0422670565 28.4470186,0.000667969528 C40.9467881,0.000667969528 51.0687804,8.906817 51.0687804,19.9504685 Z M37.7361369,16.5082379 L37.713867,16.5126566 C37.7364426,16.5125503 37.7590168,16.5122757 37.781588,16.5118328 C40.2896577,16.4626201 42.2829584,14.3895266 42.233744,11.8814554 C42.1577847,9.42913892 40.1875307,7.45888208 37.7352086,7.38292003 C35.1713189,7.30350402 33.0284916,9.31756574 32.9490733,11.8814566 C32.9625385,12.0630703 32.9908357,12.2432779 33.0336818,12.4202785 C33.0669873,12.5888579 32.987863,12.759695 32.8377462,12.8433209 L29.7205885,14.6646289 C29.5386809,14.765814 29.3099325,14.7162518 29.186219,14.5488486 C27.9163031,12.8555514 25.9189963,11.8643328 23.8024459,11.8770039 C22.0094988,11.8747773 20.2862376,12.5712135 18.9982811,13.8185352 C16.2634618,16.4670901 16.1935199,20.8311743 18.8420636,23.5659919 C21.4906184,26.3008111 25.8547027,26.3707531 28.5895201,23.7222095 C28.7182033,23.6006819 28.9103814,23.5755373 29.0659994,23.6598662 L35.1756384,27.1688939 C35.3333803,27.2564463 35.412087,27.439485 35.3671207,27.6142019 C35.3407752,27.7100783 35.3258284,27.8087274 35.32259,27.908105 C35.3100177,28.3857755 35.453635,28.8545053 35.7316412,29.2431423 C36.4370615,30.2292779 37.8083362,30.4568457 38.7944707,29.7514253 C39.7806064,29.046005 40.0081741,27.6747303 39.3027538,26.6885958 C38.5973334,25.7024601 37.2260588,25.4748924 36.2399243,26.1803127 C36.112955,26.28176 35.9376592,26.2975363 35.7946163,26.2203903 L29.978884,22.8894879 C29.9782733,22.8891438 29.9776635,22.8887981 29.9770546,22.8884509 C29.784786,22.7787898 29.717819,22.5340279 29.8274795,22.341759 C30.4610698,21.2982849 30.7996534,20.1024524 30.8071459,18.8817103 L30.8071457,18.8817351 C30.810932,17.9734302 30.6211786,17.074744 30.250511,16.2455096 C30.1621965,16.0577851 30.2317422,15.833693 30.4108221,15.7289526 L33.1806356,14.1080299 C33.1824028,14.1069553 33.1841783,14.1058946 33.1859621,14.1048479 C33.3747414,13.9940668 33.6175828,14.0572962 33.7283644,14.2460756 C34.5750381,15.6508878 36.0959045,16.5093351 37.7361369,16.5082379 Z" id="形状结合"></path>
            </g>
        </g>
    </g>
</svg>