<?xml version="1.0" encoding="UTF-8"?>
<svg width="72px" height="72px" viewBox="0 0 72 72" version="1.1" xmlns="http://www.w3.org/2000/svg" xmlns:xlink="http://www.w3.org/1999/xlink">
    <!-- Generator: Sketch 55.2 (78181) - https://sketchapp.com -->
    <title>画板</title>
    <desc>Created with Sketch.</desc>
    <g id="画板" stroke="none" stroke-width="1" fill="none" fill-rule="evenodd">
        <g id="three_credit_r" transform="translate(8.000000, 8.000000)" fill-rule="nonzero">
            <g id="评分">
                <path d="M2.6968521,43.0758447 C1.72421939,43.0758447 0.589481229,44.0484775 0.589481229,45.1832156 C0.589481229,46.1558483 1.56211394,47.2905865 2.6968521,47.2905865 C3.02106301,47.2905865 11.1263356,47.2905865 16.3137101,52.9642773 C16.637921,53.2884882 16.9621319,53.6126991 17.7726591,53.6126991 C18.09687,53.6126991 18.4210809,53.6126991 19.2316082,52.9642773 C20.0421354,52.3158555 19.88003,50.8569064 19.2316082,50.2084846 C12.9094956,43.0758447 3.02106301,43.0758447 2.6968521,43.0758447 Z M46.3032186,10.0063326 C45.9790077,9.03369987 45.3305859,8.54738351 44.5200587,8.54738351 L43.8716369,8.54738351 C40.1432115,8.54738351 36.4147861,9.35791077 33.3347825,10.6547544 C30.9032007,6.11580173 28.3095135,3.1979036 25.5537208,1.09053273 C24.0947717,-0.0442054333 22.7979281,1.09053273 22.7979281,1.09053273 C19.7179245,3.1979036 17.4484482,6.60211809 15.0168664,10.3305435 C11.9368629,8.87159442 8.53264837,8.38527806 4.80422298,8.38527806 L3.99369572,8.38527806 C3.34527391,8.38527806 2.53474665,9.03369987 2.21053575,9.68212167 C-0.707362385,16.6526561 0.427375778,25.7305614 4.80422298,32.8632013 C8.20843746,39.0232084 13.5579174,42.7516338 20.0421354,43.7242665 L21.3389791,43.7242665 L21.3389791,47.9390083 C22.4737172,47.2905865 22.3116118,46.6421647 22.7979281,46.1558483 L47.4379568,21.3537142 C47.7621677,17.1389725 47.7621677,13.2484416 46.3032186,10.0063326 Z" id="形状" fill="#FFBDBA"></path>
                <path d="M55.2190185,29.7831977 L51.0042767,25.5684559 C50.3558549,24.9200341 49.2211168,24.9200341 48.572695,25.5684559 L45.9790077,28.1621432 C45.6547968,28.4863541 45.6547968,28.9726704 45.9790077,29.2968813 L51.6526985,34.9705722 C51.9769094,35.2947831 52.6253313,35.2947831 52.7874367,34.9705722 L55.056913,32.3768849 C55.8674403,31.5663577 55.8674403,30.593725 55.2190185,29.7831977 L55.2190185,29.7831977 Z" id="路径" fill="#FF665F"></path>
                <path d="M26.3642481,48.2632192 C26.0400372,48.5874301 25.8779317,48.911641 25.8779317,49.3979574 L25.8779317,53.6126991 C25.8779317,54.5853318 26.5263535,55.3958591 27.4989862,55.3958591 L31.713728,55.3958591 C32.2000443,55.3958591 32.5242552,55.2337536 32.8484661,54.7474373 L33.8210988,53.7748046 L34.955837,52.6400664 L28.4716189,46.1558483 L26.3642481,48.2632192 L26.3642481,48.2632192 Z" id="路径" fill="#FF665F"></path>
                <path d="M44.6821641,31.5663577 C44.1958478,31.0800413 43.3853205,31.0800413 42.8990041,31.5663577 L29.930568,44.6968993 L36.4147861,51.1811173 L49.3832222,38.0505757 C49.8695386,37.5642594 49.8695386,36.7537321 49.3832222,36.2674158 L44.6821641,31.5663577 L44.6821641,31.5663577 Z" id="路径" fill="#FF665F"></path>
            </g>
        </g>
    </g>
</svg>