<?xml version="1.0" encoding="UTF-8"?>
<svg width="72px" height="72px" viewBox="0 0 72 72" version="1.1" xmlns="http://www.w3.org/2000/svg" xmlns:xlink="http://www.w3.org/1999/xlink">
    <!-- Generator: Sketch 55.2 (78181) - https://sketchapp.com -->
    <title>画板</title>
    <desc>Created with Sketch.</desc>
    <g id="画板" stroke="none" stroke-width="1" fill="none" fill-rule="evenodd">
        <g id="three_certificate_w" transform="translate(12.000000, 8.000000)" fill="#FFFFFF" fill-rule="nonzero">
            <g id="数字证书-icon">
                <path d="M34.6973823,8.52651283e-13 L43.407252,8.52651283e-13 C45.4172257,8.52651283e-13 47.0922001,1.67497441 47.0922001,3.68494814 L47.0922001,52.2592949 C47.0922001,54.2692687 45.4172257,55.9442431 43.407252,55.9442431 L3.87782039,55.9442431 C1.86784665,55.9442431 0.192872245,54.2692687 0.192872245,52.2592949 L0.192872245,3.68494814 C0.192872245,1.67497441 1.86784665,8.52651283e-13 3.87782039,8.52651283e-13 L12.92268,8.52651283e-13 L34.6973823,8.52651283e-13 Z M26.3225103,19.4297498 L31.0124453,24.1196848 L31.0124453,2.22457884e-05 L16.6076298,2.22457884e-05 L16.6076298,24.1196848 L21.2975648,19.4297498 C22.6375454,18.0897692 24.9825129,18.0897692 26.3224936,19.4297498 L26.3225103,19.4297498 Z" id="形状结合"></path>
            </g>
        </g>
    </g>
</svg>