<?xml version="1.0" encoding="UTF-8"?>
<svg width="72px" height="72px" viewBox="0 0 72 72" version="1.1" xmlns="http://www.w3.org/2000/svg" xmlns:xlink="http://www.w3.org/1999/xlink">
    <!-- Generator: Sketch 55.2 (78181) - https://sketchapp.com -->
    <title>画板</title>
    <desc>Created with Sketch.</desc>
    <g id="画板" stroke="none" stroke-width="1" fill="none" fill-rule="evenodd">
        <g id="three_account_r" transform="translate(5.000000, 13.000000)" fill-rule="nonzero">
            <g id="账户">
                <path d="M54.5755096,0.647796345 C56.8128095,0.647796345 58.6008141,1.21628833 59.9395235,2.35327766 C61.2782328,3.490267 61.9475902,5.21408504 61.9475902,7.52473715 L61.9475902,38.0583543 C61.9475902,39.0486338 61.7642053,39.9838977 61.3974349,40.8641461 C61.0306646,41.7443946 60.5263575,42.5146119 59.8845079,43.1747983 C59.2426583,43.8349846 58.4907831,44.3576321 57.6288714,44.7427408 C56.7669597,45.1278494 55.8592035,45.3204038 54.9056028,45.3204038 L6.93206378,45.3204038 C5.97846311,45.3204038 5.0798726,45.1370189 4.23630298,44.7702485 C3.39273337,44.4034782 2.65918944,43.9175079 2.03568193,43.3123371 C1.41217442,42.7071663 0.917034683,42.0011355 0.550262716,41.1942393 C0.183492361,40.3873431 0.0001074522,39.5254368 0.0001074522,38.6085096 L0.0001074522,7.41470609 C0.0001074522,5.43414714 0.605278243,3.81118911 1.81561982,2.54583201 C3.0259614,1.2804749 4.73144272,0.647796345 6.93206378,0.647796345 L54.5755096,0.647796345 L54.5755096,0.647796345 Z" id="形状" fill="#FFBDBA"></path>
                <path d="M15.4594704,10.8256687 C14.7626052,10.8256687 14.1024189,10.9540381 13.4789114,11.2107774 C12.8554039,11.4675167 12.3052486,11.8251192 11.8284456,12.2835802 C11.3516442,12.7420427 10.975705,13.2921964 10.7006273,13.934046 C10.4255497,14.5758956 10.2880109,15.2635896 10.2880109,15.9971282 C10.2880109,16.7306668 10.4255497,17.4091952 10.7006273,18.0327027 C10.975705,18.6562102 11.3516426,19.2063655 11.8284456,19.6831685 C12.305247,20.1599699 12.8554039,20.5359091 13.4789114,20.8109868 C14.1024189,21.0860644 14.7626052,21.2236032 15.4594704,21.2236032 C16.2296877,21.2236032 16.9357185,21.0860644 17.5775681,20.8109868 C18.2194177,20.5359091 18.769573,20.1599715 19.2280339,19.6831685 C19.6864965,19.2063671 20.0532668,18.6562102 20.3283445,18.0327027 C20.6034221,17.4091952 20.7409609,16.7306668 20.7409609,15.9971282 C20.7409609,14.4933723 20.2458212,13.2555229 19.2555417,12.2835802 C18.2652622,11.3116374 16.9999051,10.8256687 15.4594704,10.8256687 L15.4594704,10.8256687 Z" id="路径" fill="#FF665F"></path>
                <path d="M24.096908,29.8610409 C24.096908,29.1641757 23.9593692,28.4948237 23.6842916,27.8529741 C23.4092139,27.2111246 23.042442,26.6609693 22.583981,26.2025084 C22.1255185,25.7440458 21.5753648,25.3772755 20.9335152,25.1021978 C20.2916656,24.8271202 19.6223137,24.6895814 18.9254485,24.6895814 L12.0485077,24.6895814 C10.618104,24.6895814 9.40776247,25.1938906 8.41748299,26.2025084 C7.42720352,27.2111246 6.93206378,28.4306372 6.93206378,29.8610409 L6.93206378,30.081103 L6.93206378,35.0325003 L24.096908,35.0325003 L24.096908,30.081103 L24.096908,29.8610409 Z" id="路径" fill="#FF665F"></path>
                <path d="M49.6241123,35.307578 C50.3576508,35.307578 50.8986404,35.1241931 51.2470703,34.7574227 C51.5955018,34.3906524 51.7697178,33.9505265 51.7697178,33.4370501 C51.7697178,32.923572 51.567994,32.4742784 51.164547,32.0891697 C50.7611,31.704061 50.1926042,31.5115067 49.4590657,31.5115067 L33.0644388,31.5115067 C32.3309003,31.5115067 31.780745,31.704061 31.413973,32.0891697 C31.0472027,32.4742784 30.8638178,32.9235736 30.8638178,33.4370501 C30.8638178,33.9505281 31.0472027,34.3906507 31.413973,34.7574227 C31.7807434,35.1241931 32.3125582,35.307578 33.0094233,35.307578 L49.6241123,35.307578 L49.6241123,35.307578 Z" id="路径" fill="#FF665F"></path>
                <path d="M49.6791278,28.2105751 C50.4126664,28.2105751 50.9444849,28.0271902 51.2745781,27.6604198 C51.6046712,27.2936495 51.7697178,26.8535236 51.7697178,26.3400472 C51.7697178,25.7898919 51.6138406,25.331431 51.3020858,24.964659 C50.990331,24.5978887 50.4676819,24.4145037 49.7341433,24.4145037 L32.8993922,24.4145037 C32.1658537,24.4145037 31.6340351,24.5978887 31.303942,24.964659 C30.9738488,25.3314294 30.8088022,25.7898919 30.8088022,26.3400472 C30.8088022,26.8535252 30.9646794,27.2936478 31.2764342,27.6604198 C31.588189,28.0271902 32.1108382,28.2105751 32.8443767,28.2105751 L49.6791278,28.2105751 L49.6791278,28.2105751 Z" id="路径" fill="#FF665F"></path>
                <path d="M49.7341433,21.2236032 C50.2842986,21.2236032 50.7611016,21.0402183 51.164547,20.673448 C51.567994,20.3066776 51.7697178,19.8665518 51.7697178,19.3530753 C51.7697178,18.8395973 51.567994,18.4269824 51.164547,18.115226 C50.7611,17.8034711 50.2842986,17.647594 49.7341433,17.647594 L38.5659915,17.647594 C38.0158362,17.647594 37.5482042,17.8034711 37.1630955,18.115226 C36.7779869,18.4269808 36.5854325,18.8395989 36.5854325,19.3530753 C36.5854325,19.8665534 36.7779869,20.306676 37.1630955,20.673448 C37.5482042,21.0402183 38.0158362,21.2236032 38.5659915,21.2236032 L49.7341433,21.2236032 Z" id="路径" fill="#FF665F"></path>
            </g>
        </g>
    </g>
</svg>