<?xml version="1.0" encoding="UTF-8"?>
<svg width="72px" height="72px" viewBox="0 0 72 72" version="1.1" xmlns="http://www.w3.org/2000/svg" xmlns:xlink="http://www.w3.org/1999/xlink">
    <!-- Generator: Sketch 55.2 (78181) - https://sketchapp.com -->
    <title>画板</title>
    <desc>Created with Sketch.</desc>
    <g id="画板" stroke="none" stroke-width="1" fill="none" fill-rule="evenodd">
        <g id="three_product_r" transform="translate(8.000000, 8.000000)" fill-rule="nonzero">
            <g id="金融">
                <path d="M43.793801,26.7312811 L54.8352201,26.7312811 C54.6602199,22.8484641 53.714125,19.1789286 52.1336544,15.870331 L42.4867682,15.870331 C43.2578628,19.2281474 43.7117696,22.8922141 43.793801,26.7312811 L43.793801,26.7312811 Z" id="路径" fill="#FFBDBA"></path>
                <path d="M36.7500428,7.8203216 C34.3219149,3.19375372 31.1937863,0.475781804 28.0328451,0.0273437818 L28.0328451,13.6992347 L39.0906705,13.6992347 C38.4398885,11.5390759 37.6578563,9.54844861 36.7500428,7.8203216 Z M39.6867649,15.870331 L28.0383139,15.870331 L28.0383139,26.7312811 L41.0812978,26.7312811 C40.9828602,22.8539328 40.4961409,19.1789286 39.6867649,15.870331 L39.6867649,15.870331 Z" id="形状" fill="#FFBDBA"></path>
                <path d="M41.9398926,13.6992347 L50.9797468,13.6992347 C47.5234928,7.83672787 42.0109864,3.34687889 35.4375412,1.24687645 C36.8375429,2.71250316 38.0844193,4.51719276 39.1562956,6.56250764 C40.2609843,8.67891635 41.1961417,11.0797004 41.9398926,13.6992347 Z M39.1508268,49.4594326 C38.0789506,51.5047474 36.8375429,53.309437 35.4320725,54.7750637 C42.1641116,52.6258425 47.7859931,47.9719308 51.2203721,41.8906737 L42.0437989,41.8906737 C41.2891105,44.6742707 40.3211407,47.2227112 39.1508268,49.4594326 Z M43.7992697,28.9133149 C43.7445822,32.7195693 43.3344254,36.3672298 42.5906746,39.7141087 L52.3305296,39.7141087 C53.8344376,36.4055111 54.7203762,32.7578506 54.8406888,28.9133149 L43.7992697,28.9133149 Z" id="形状" fill="#FFBDBA"></path>
                <path d="M41.0867666,28.9133149 L28.0328451,28.9133149 L28.0328451,39.7141087 L39.7906713,39.7141087 C40.5672347,36.4055111 41.0211415,32.7578506 41.0867666,28.9133149 Z M39.2328582,41.8906737 L28.0328451,41.8906737 L28.0328451,56.0000652 C31.1937863,55.5461584 34.3164462,52.8281865 36.7500428,48.2016186 C37.7180126,46.3531789 38.5492636,44.2258327 39.2328582,41.8906737 L39.2328582,41.8906737 Z" id="形状" fill="#FFBDBA"></path>
                <path d="M24.1500281,55.9781901 L24.1500281,0 L19.2718974,0 L19.2718974,2.75078445 C13.781266,3.03515978 9.65235498,4.51719276 6.87969551,7.18047711 C4.10156727,9.84923021 2.71250316,13.1632966 2.71250316,17.1336137 C2.71250316,20.0375233 3.40703521,22.4984637 4.79063057,24.5164348 C6.16875718,26.5344059 7.79844657,28.0000326 9.68516752,28.9133149 C11.5718885,29.832066 14.7711109,30.909411 19.2718974,32.1617562 L19.2718974,43.9797387 C17.7133019,43.2250503 16.5922068,42.3445805 15.9086123,41.3711419 C15.2250177,40.3867657 14.6890796,38.7953576 14.2898604,36.5914488 L0.776563404,38.1609819 C1.18125137,40.3867657 1.77734582,42.2844242 2.581253,43.8648948 C3.37969143,45.4289591 4.52813027,46.9000546 6.01016324,48.2563062 C7.49219622,49.6125577 9.25313577,50.684434 11.2929819,51.4500599 C13.332828,52.2156858 15.9906436,52.7461551 19.2718974,53.041468 L19.2718974,55.9781901 L24.1500281,55.9781901 Z M16.3078315,18.1453336 C15.7445496,17.4125203 15.4547055,16.5593943 15.4547055,15.5750181 C15.4547055,14.634392 15.7390808,13.8140786 16.2914252,13.1195465 C16.8492384,12.4304832 17.8390833,11.850795 19.2718974,11.3750132 L19.2718974,19.9718982 C17.8554895,19.4797102 16.8711134,18.8726782 16.3078315,18.1453336 Z" id="形状" fill="#FF665F"></path>
            </g>
        </g>
    </g>
</svg>