<?xml version="1.0" encoding="UTF-8"?>
<svg width="72px" height="72px" viewBox="0 0 72 72" version="1.1" xmlns="http://www.w3.org/2000/svg" xmlns:xlink="http://www.w3.org/1999/xlink">
    <!-- Generator: Sketch 55.2 (78181) - https://sketchapp.com -->
    <title>画板</title>
    <desc>Created with Sketch.</desc>
    <g id="画板" stroke="none" stroke-width="1" fill="none" fill-rule="evenodd">
        <g id="three_certificate_r" transform="translate(12.000000, 8.000000)" fill-rule="nonzero">
            <g id="数字证书-icon">
                <path d="M34.6973823,0 L12.92268,0 L3.87782039,0 C1.86784665,0 0.192872245,1.67497441 0.192872245,3.68494814 L0.192872245,52.2592949 C0.192872245,54.2692687 1.86784665,55.9442431 3.87782039,55.9442431 L43.407252,55.9442431 C45.4172257,55.9442431 47.0922001,54.2692687 47.0922001,52.2592949 L47.0922001,3.68494814 C47.0922001,1.67497441 45.4172257,0 43.407252,0 L34.6973823,0 Z" id="路径" fill="#FFBDBA"></path>
                <path d="M26.3225103,19.4297498 L31.0124453,24.1196848 L31.0124453,2.22457888e-05 L16.6076298,2.22457888e-05 L16.6076298,24.1196848 L21.2975648,19.4297498 C22.6375454,18.0897692 24.9825129,18.0897692 26.3224936,19.4297498 L26.3225103,19.4297498 Z" id="路径" fill="#FF665F"></path>
            </g>
        </g>
    </g>
</svg>