<?xml version="1.0" encoding="UTF-8"?>
<svg width="72px" height="72px" viewBox="0 0 72 72" version="1.1" xmlns="http://www.w3.org/2000/svg" xmlns:xlink="http://www.w3.org/1999/xlink">
    <!-- Generator: Sketch 55.2 (78181) - https://sketchapp.com -->
    <title>画板</title>
    <desc>Created with Sketch.</desc>
    <g id="画板" stroke="none" stroke-width="1" fill="none" fill-rule="evenodd">
        <g id="three_payment_r" transform="translate(11.000000, 8.000000)" fill-rule="nonzero">
            <g id="支付">
                <path d="M49.9584477,8.13325364 C45.3283405,8.13325364 42.2415605,5.04647365 42.2415605,0.416366403 L25.264396,1.95981914 L8.28716878,0.416366403 C8.28716878,5.0464109 5.20051428,8.13325364 0.570344288,8.13325364 C-2.5164357,43.6309726 25.264396,55.9779671 25.264396,55.9779671 C25.264396,55.9779671 53.0452277,43.6310353 49.958385,8.13325364 L49.9584477,8.13325364 Z" id="形状" fill="#FFBDBA"></path>
                <path d="M30.3957693,23.5450675 L36.5363257,23.5450675 L36.5363257,29.0407983 L28.4331204,29.0407983 L28.4331204,31.4355689 L36.5363884,31.4355689 L36.5363884,36.9738405 L28.4331204,36.9738405 L28.4331204,43.6309098 L22.0866364,43.6309098 L22.0866364,36.9739032 L13.6855828,36.9739032 L13.6855828,31.4355689 L22.0866364,31.4355689 L22.0866364,29.0407983 L13.6855828,29.0407983 L13.6855828,23.5450675 L20.0480039,23.5450675 L11.3066866,8.52954811 L18.5462135,8.52954811 C18.5462135,8.52954811 24.0979752,18.7789929 25.362152,21.3118642 C25.7655366,20.4970637 32.2258391,8.52954811 32.2258391,8.52954811 L39.2221054,8.52954811 L30.3957066,23.5450048 L30.3957693,23.5450675 Z" id="路径" fill="#FF665F"></path>
            </g>
        </g>
    </g>
</svg>