<?xml version="1.0" encoding="UTF-8"?>
<svg width="72px" height="72px" viewBox="0 0 72 72" version="1.1" xmlns="http://www.w3.org/2000/svg" xmlns:xlink="http://www.w3.org/1999/xlink">
    <!-- Generator: Sketch 55.2 (78181) - https://sketchapp.com -->
    <title>画板</title>
    <desc>Created with Sketch.</desc>
    <g id="画板" stroke="none" stroke-width="1" fill="none" fill-rule="evenodd">
        <g id="three_big_r" transform="translate(9.000000, 9.000000)" fill-rule="nonzero">
            <g id="风控管理">
                <path d="M24.3094527,46.8944609 L24.3094527,46.8944595 C24.2421095,48.6873174 22.7341195,50.0861225 20.9412616,50.0187787 C19.2428718,49.954984 17.8807371,48.5928494 17.8169424,46.8944595 L17.8169424,45.2850659 C17.8169424,45.2850659 17.349921,43.5199974 15.4291797,43.5199974 C13.6114613,43.5199974 12.9864756,45.2827744 12.9864756,45.2827744 L12.9864756,46.8944539 C12.9864756,51.360921 16.6219181,54.9437261 21.0906487,54.9437261 L21.0906488,54.9437261 C25.5209316,54.9576195 29.1236719,51.3774593 29.1376845,46.9471597 C29.1376845,46.9295794 29.1376845,46.9119989 29.1376845,46.8944185 L29.1376845,33.9643393 L24.3071705,33.9643393 L24.3071705,46.8944185 L24.3094527,46.8944609 Z" id="路径" fill="#FF665F"></path>
                <path d="M28.9819586,4.98385017 C29.0872673,4.67250255 29.1376324,4.36115604 29.1376324,4.04980618 L29.1376324,2.44041257 L29.1376324,2.44041011 C29.1453331,1.10989891 28.08023,0.0213090088 26.7498697,-2.46588801e-06 C25.401462,-2.46588801e-06 24.3117431,1.08971645 24.3117431,2.4404157 L24.3117431,4.04980931 C24.3117431,4.36344625 24.3621082,4.67250343 24.517782,4.98385329 C10.8070646,6.12851367 0.0563673467,17.5522019 0.0563673467,31.5239332 C0.0563673467,32.1466273 0.109021724,32.7189575 0.161676102,33.3416516 L0.161676355,33.3416512 C1.95603769,30.6838929 4.95149876,29.0888299 8.15825811,29.0835146 C12.2584338,29.0835146 15.7405153,31.7322576 17.1415505,35.3676889 C18.8035996,31.679591 22.4390365,29.0835146 26.7475315,29.0835146 L26.747531,29.0835146 C30.8973049,29.0972635 34.646526,31.5629116 36.3031536,35.3676889 C37.7065083,31.7322464 41.1862759,29.0835146 45.3413875,29.0835146 C48.6654801,29.0835146 51.5729119,30.7959277 53.3379692,33.3416512 C53.3906236,32.7189571 53.3906236,32.1466269 53.3906236,31.5239328 C53.3906236,17.5544931 42.6399823,6.13080485 28.9818589,4.98614447 L28.9819586,4.98385017 Z" id="路径" fill="#FFBDBA"></path>
            </g>
        </g>
    </g>
</svg>