<?xml version="1.0" encoding="UTF-8"?>
<svg width="51px" height="58px" viewBox="0 0 51 58" version="1.1" xmlns="http://www.w3.org/2000/svg" xmlns:xlink="http://www.w3.org/1999/xlink">
    <!-- Generator: Sketch 55.2 (78181) - https://sketchapp.com -->
    <title>LOGO</title>
    <desc>Created with Sketch.</desc>
    <g id="页面1" stroke="none" stroke-width="1" fill="none" fill-rule="evenodd">
        <g id="宣传首页" transform="translate(-833.000000, -1860.000000)" fill="#FFFFFF" fill-rule="nonzero">
            <g id="01-model备份" transform="translate(0.000000, 1362.000000)">
                <g id="LOGO" transform="translate(811.000000, 472.000000)">
                    <g id="编组-7" transform="translate(22.000000, 26.000000)">
                        <g id="编组-5">
                            <g id="LOGO">
                                <polygon id="路径" points="3.71529412 42.3035294 3.71529412 19.0235294 0.955294118 17.4317647 0.955294118 43.8988235 24.2105882 57.3282353 24.2105882 54.1376471"></polygon>
                                <polygon id="路径" points="24.1682353 30.2364706 7.10705882 20.7282353 7.10705882 33.4023529 18.5952941 39.7623529 18.5952941 36.6070588 9.87058824 31.7752941 9.87058824 25.4294118 21.4082353 31.86 21.4082353 45.8470588 7.10352941 37.8635294 7.10352941 41.0258824 24.1682353 50.5517647"></polygon>
                                <polygon id="路径" points="48.1611765 19.0235294 48.1611765 42.3035294 27.6623529 54.1376471 27.6623529 57.3282353 50.9211765 43.8988235 50.9211765 17.4317647"></polygon>
                                <polygon id="路径" points="30.4258824 31.86 44.7235294 23.9047059 44.7235294 20.7282353 27.6623529 30.2364706 27.6623529 50.5517647 30.4258824 49.0094118"></polygon>
                                <polygon id="路径" points="44.7235294 33.4023529 44.7235294 30.4023529 33.2352941 36.6070588 33.2352941 39.7623529"></polygon>
                                <polygon id="路径" points="25.4035294 0 1.81294118 13.62 4.57294118 15.2152941 25.4035294 3.19058824 46.2341176 15.2152941 48.9976471 13.62"></polygon>
                                <polygon id="路径" points="23.2364706 7.63411765 23.2364706 7.63411765 22.4847059 8.08941176 22.4882353 8.08941176 18.6729412 10.4047059 7.83764706 16.9729412 25.8764706 27.2647059 28.3823529 25.6270588 13.2870588 16.8988235 18.7117647 13.6094118 25.2411765 9.65647059 37.9823529 16.9058824 33.3447059 19.7470588 23.8223529 14.2129412 23.72 14.2411765 21.0305882 15.7941176 33.2247059 22.8741176 43.4352941 16.8282353 25.1917647 6.44823529"></polygon>
                            </g>
                        </g>
                    </g>
                </g>
            </g>
        </g>
    </g>
</svg>