<?xml version="1.0" encoding="UTF-8"?>
<svg width="44px" height="44px" viewBox="0 0 44 44" version="1.1" xmlns="http://www.w3.org/2000/svg" xmlns:xlink="http://www.w3.org/1999/xlink">
    <!-- Generator: Sketch 55.2 (78181) - https://sketchapp.com -->
    <title>two_enterprise</title>
    <desc>Created with Sketch.</desc>
    <g id="页面1" stroke="none" stroke-width="1" fill="none" fill-rule="evenodd">
        <g id="宣传首页" transform="translate(-847.000000, -1651.000000)" fill="#FB8E4E" fill-rule="nonzero">
            <g id="01-model备份" transform="translate(0.000000, 1362.000000)">
                <g id="企业" transform="translate(811.000000, 256.000000)">
                    <g id="编组-10" transform="translate(36.000000, 33.000000)">
                        <g id="企业">
                            <path d="M42.7064091,38.9312207 L40.3102605,38.9312207 L40.3102605,11.6500677 L40.3102605,11.6500758 C40.3011766,10.8546711 39.8347781,10.1356334 39.1121911,9.80304067 L27.1563937,3.56308733 L27.1563937,3.56308735 C26.4896067,3.26356852 25.7265494,3.26356852 25.0597624,3.5630873 C24.3109641,3.86260613 23.8367275,4.58644237 23.8616881,8.53011365 L23.8616881,42.0512686 L21.4655297,42.0512686 L21.4655297,5.21044741 C21.4655297,1.16694347 21.4655297,0.567908729 20.5669727,0.243421061 L20.5669728,0.243421085 C19.8012267,-0.0811403535 18.9365701,-0.0811403535 18.1708241,0.243421036 L4.49277998,7.45685194 L4.49277999,7.45685193 C3.76541879,7.81015469 3.30117997,8.54520257 3.29470565,9.35380338 L3.29470565,38.9562476 L0.898556969,38.9562476 C0.299517372,38.9562476 0,39.2807261 0,39.580243 L0,43.0496679 C0,43.3491867 0.299518828,43.6736632 0.898556969,43.6736632 L42.7064045,43.6736632 C42.9809632,43.6736632 43.5550403,43.3491848 43.6049615,43.0496679 L43.6049615,39.6052036 C43.6798413,39.2308049 43.0308825,38.931287 42.7064045,38.931287 L42.7064091,38.9312207 Z M14.6265463,34.5382782 C14.6265463,34.8877168 14.3519876,35.1623061 14.002551,35.1623061 L10.6329636,35.1623061 L10.6329635,35.1623061 C10.2918033,35.1657374 10.0124286,34.8919799 10.0089364,34.5508192 C10.0089364,34.5466381 10.0089364,34.5424567 10.0089364,34.5382756 L10.0089364,31.6179691 C10.0089364,31.2685305 10.2835269,30.9939737 10.6329635,30.9939737 L14.0774279,30.9939737 C14.4268664,30.9939737 14.7014232,31.2685325 14.7014232,31.6179691 L14.6265434,34.5382756 L14.6265463,34.5382782 Z M14.6265463,25.7274278 C14.6265463,26.0768664 14.3519876,26.3514557 14.002551,26.3514557 L10.6329636,26.3514557 L10.6329635,26.3514557 C10.2918033,26.354887 10.0124286,26.0811295 10.0089364,25.7399688 C10.0089364,25.7357877 10.0089364,25.7316063 10.0089364,25.7274252 L10.0089364,22.7571975 C10.0089364,22.407759 10.2835269,22.1332022 10.6329635,22.1332022 L14.0774279,22.1332022 C14.4268664,22.1332022 14.7014232,22.4077609 14.7014232,22.7571975 L14.6265434,25.7274252 L14.6265463,25.7274278 Z M14.6265463,16.9415234 C14.6265463,17.290962 14.3519876,17.5655513 14.002551,17.5655513 L10.6329636,17.5655513 L10.6329635,17.5655513 C10.2918033,17.5689826 10.0124286,17.2952251 10.0089364,16.9540644 C10.0089364,16.9498833 10.0089364,16.9457019 10.0089364,16.9415208 L10.0089364,13.9463325 C10.0089364,13.596894 10.2835269,13.3223372 10.6329635,13.3223372 L14.0774279,13.3223372 C14.4268664,13.3223372 14.7014232,13.5968959 14.7014232,13.9463325 L14.6265434,16.9415208 L14.6265463,16.9415234 Z M34.3198839,34.5132837 C34.3198839,34.8627222 34.0453252,35.1373115 33.6958886,35.1373115 L30.2514242,35.1373115 L30.2514242,35.1373115 C29.910264,35.1407429 29.6308893,34.8669859 29.6273971,34.5258246 C29.6273971,34.5216435 29.6273971,34.5174621 29.6273971,34.513281 L29.6273971,31.5680139 C29.6273971,31.2185754 29.9019876,30.9440186 30.2514242,30.9440186 L33.6958886,30.9440186 C34.0453271,30.9440186 34.3198839,31.2185773 34.3198839,31.5680139 L34.3198839,34.513281 L34.3198839,34.5132837 Z M34.3198839,25.7024333 C34.3198839,26.0518718 34.0453252,26.3264611 33.6958886,26.3264611 L30.2514242,26.3264611 L30.2514242,26.3264611 C29.910264,26.3298924 29.6308893,26.0561354 29.6273971,25.7149742 C29.6273971,25.7107931 29.6273971,25.7066117 29.6273971,25.7024306 L29.6273971,22.7571635 C29.6273971,22.4077249 29.9019876,22.1331682 30.2514242,22.1331682 L33.6958886,22.1331682 C34.0453271,22.1331682 34.3198839,22.4077269 34.3198839,22.7571635 L34.3198839,25.7024306 L34.3198839,25.7024333 Z M34.3198839,16.9165289 C34.3198839,17.2659674 34.0453252,17.5405567 33.6958886,17.5405567 L30.2514242,17.5405567 L30.2514242,17.5405567 C29.910264,17.5439881 29.6308893,17.2702311 29.6273971,16.9290698 C29.6273971,16.9248887 29.6273971,16.9207073 29.6273971,16.9165262 L29.6273971,13.9462985 C29.6273971,13.59686 29.9019876,13.3223032 30.2514242,13.3223032 L33.6958886,13.3223032 C34.0453271,13.3223032 34.3198839,13.5968619 34.3198839,13.9462985 L34.3198839,16.9165262 L34.3198839,16.9165289 Z" id="two_enterprise"></path>
                        </g>
                    </g>
                </g>
            </g>
        </g>
    </g>
</svg>