<?xml version="1.0" encoding="UTF-8"?>
<svg width="42px" height="44px" viewBox="0 0 42 44" version="1.1" xmlns="http://www.w3.org/2000/svg" xmlns:xlink="http://www.w3.org/1999/xlink">
    <!-- Generator: Sketch 55.2 (78181) - https://sketchapp.com -->
    <title>two_user</title>
    <desc>Created with Sketch.</desc>
    <g id="页面1" stroke="none" stroke-width="1" fill="none" fill-rule="evenodd">
        <g id="宣传首页" transform="translate(-1286.000000, -2060.000000)" fill="#4574D8" fill-rule="nonzero">
            <g id="01-model备份" transform="translate(0.000000, 1362.000000)">
                <g id="用户" transform="translate(1229.000000, 665.000000)">
                    <g id="编组-6" transform="translate(57.000000, 33.000000)">
                        <g id="企业">
                            <g id="用户">
                                <path d="M41.2496312,35.2258652 C41.3952722,35.6600392 41.5051899,36.2261144 41.5738884,36.9076039 C41.6425869,37.5945891 41.6755624,37.0450009 41.6755624,37.7292404 C41.6755624,38.4134799 41.6260993,39.0619908 41.5299214,39.6775317 L41.5299215,39.6775311 C41.4690274,40.1662238 41.3161109,40.6389623 41.0792604,41.0707385 C40.9336194,41.2740862 40.5131851,41.4884258 39.8316957,41.7274952 C39.1474562,41.9665663 32.0137803,44.000042 21.9838312,44.000042 C12.8139455,44.000042 4.91911599,42.5134031 3.66330984,42.2303676 C2.4074994,41.9500774 1.65731142,41.708258 1.39076306,41.5159039 C1.06650588,41.274085 0.827433497,40.5651161 0.676299337,39.3780042 C0.519666459,38.1826508 0.580121412,37.8831239 0.868655186,36.0200182 C1.05001919,34.9428248 1.48694184,34.1239383 2.17667702,33.5743501 C2.87740362,33.022012 3.70728154,32.5850923 4.64707794,32.2690783 C5.59512006,31.9448211 9.98633806,30.4334512 10.9948158,30.1669028 C12.0033107,29.9031002 12.88265,29.5266333 13.6328423,29.0320023 C14.251129,28.6555341 14.7210272,28.2900557 15.0535283,27.9383217 L15.0535283,27.9383217 C15.35621,27.638775 15.5946387,27.2806627 15.7542549,26.8858611 C15.8834084,26.5368724 15.9493586,26.1768931 15.9493586,25.7921805 C15.9493586,25.4157124 15.932871,25.0062683 15.9081395,24.5638486 C15.847685,23.863122 15.6251014,23.3245253 15.2321457,22.9480585 L15.2321456,22.9480583 C14.8040603,22.5363218 14.359445,22.1421269 13.8993952,21.7664421 L13.8993955,21.7664423 C13.6381825,21.5275143 13.4286937,21.2375995 13.2838545,20.9145816 L13.2838548,20.9145822 C13.1085975,20.5515676 12.949069,20.1811692 12.8057109,19.8044145 L12.8057123,19.8044189 C12.6572332,19.3549695 12.5125031,18.9042912 12.3715384,18.4524313 L12.3715384,18.4524313 C12.1494305,18.389259 11.9407976,18.285874 11.7559974,18.1474096 L11.7559975,18.1474096 C11.5429148,17.9643952 11.3511764,17.7579078 11.1844265,17.5318687 L11.1844267,17.531869 C10.942777,17.1864105 10.7632976,16.8014122 10.6540757,16.3942227 C10.5084347,15.9078374 10.4562237,15.4544263 10.5084347,15.0614723 C10.5496538,14.6685166 10.6265963,14.3277715 10.7475058,14.0364903 C10.8574234,13.7122331 11.0387878,13.4127079 11.2778568,13.113181 L11.2778563,13.1131621 C11.2227651,10.9854545 11.4961958,8.8619751 12.0885057,6.81763132 C12.3962753,5.76517072 12.8414436,4.8171286 13.421256,3.97900497 C13.9763399,3.19309273 14.5918808,2.54457752 15.276116,2.03346364 C15.9603555,1.51959976 16.6500864,1.11840008 17.3508129,0.827118879 C18.0515395,0.535836821 18.7522618,0.340733547 19.4694756,0.211577928 C20.181185,0.101669324 20.8709202,0.0329708063 21.5496596,0.0329708063 C22.3877833,0.0329708063 23.2066698,0.13464444 23.9760906,0.340740422 C24.7455157,0.546835975 25.4627294,0.802392913 26.1387232,1.12665266 C26.8037255,1.45090984 27.4110207,1.80264642 27.9248846,2.19560039 C28.4524899,2.58855608 28.8729267,2.98975405 29.1971822,3.39919945 C29.9226373,4.33075014 30.4694798,5.35573649 30.8377052,6.47689561 C31.2031815,7.59530902 31.4614876,8.64776962 31.5961389,9.63702741 C31.7775029,10.7994065 31.8434536,11.9700313 31.8187224,13.1296604 C32.024818,13.239578 32.1869466,13.4209424 32.2968664,13.6600114 C32.406784,13.8661069 32.5112059,14.1216639 32.5799044,14.4459236 C32.6486029,14.7701808 32.6568469,15.1548916 32.5963921,15.6275399 L32.5963922,15.627539 C32.5372142,16.1323751 32.3990468,16.6247718 32.1869493,17.086695 L32.1869493,17.0866951 C32.0277881,17.405472 31.8138611,17.6938099 31.5549212,17.9385559 L31.5549212,17.9385559 C31.3187517,18.1602629 31.0348311,18.3247861 30.7250432,18.4194455 C30.6151256,18.881098 30.4777286,19.3427548 30.3320875,19.768683 L30.3320876,19.7686829 C30.1847128,20.1462914 30.0196537,20.5167568 29.8374565,20.8788506 L29.8374565,20.8788507 C29.6785691,21.1986056 29.4646283,21.4878904 29.2054284,21.7334614 L29.2054286,21.7334613 C28.972252,21.9475245 28.7243285,22.1449455 28.4634864,22.3242694 L28.4634866,22.3242692 C28.2419059,22.4687978 28.0348436,22.6344472 27.8451999,22.818896 L27.8451997,22.8188962 C27.6626592,23.0009292 27.5154468,23.2152253 27.4110258,23.4509243 C27.3011081,23.6982389 27.2049302,24.0005124 27.1472231,24.3495007 C27.0592888,24.7836746 27.0373055,25.2288443 27.0592888,25.6822511 C27.0867682,26.1274164 27.2049298,26.5890732 27.4110253,27.0314886 C27.6171209,27.4766539 27.9496221,27.9108322 28.4195203,28.3230233 C28.8811728,28.7324665 29.5132008,29.0924484 30.2991131,29.4167038 C31.0245682,29.7052376 31.8269676,29.9635463 32.6815784,30.1751375 C33.5444305,30.3977211 37.0068607,31.8843591 37.8010101,32.1921274 C38.5951637,32.499897 39.3123775,32.8846083 39.9361598,33.3462651 C40.5407051,33.8573832 40.9858747,34.4646785 41.2524231,35.2258579 L41.2496312,35.2258652 Z M21.838175,41.1614034 C21.983816,41.1614034 22.2036513,41.0707212 22.5114188,40.8811132 C22.8191884,40.686009 23.118714,40.4689221 23.4099952,40.2078694 L23.4099951,40.2078695 C23.6812821,39.9625185 23.9355938,39.6990286 24.1711745,39.4192115 C24.3910098,39.1554089 24.4954317,38.9603047 24.4954317,38.8064206 C24.4954317,38.6250566 24.4514648,38.3255309 24.3662782,37.8831113 C24.2810922,37.4461873 24.1711741,36.959802 24.0585086,36.4459381 C23.948591,35.9183328 23.8194375,35.4044689 23.7095199,34.8933508 C23.5996023,34.3794869 23.4869364,33.9700415 23.4017503,33.645786 C23.6902841,33.4067149 23.940347,33.1566507 24.1436969,32.8846066 L24.1436969,32.8846066 C24.3359797,32.6405004 24.443965,32.3406474 24.4514665,32.0299958 L24.4514665,32.0299957 C24.4454331,31.772372 24.362143,31.5224998 24.2123954,31.312782 L24.2123954,31.312782 C24.0627252,31.0759616 23.8783963,30.8629202 23.665553,30.6807539 L23.6655528,30.6807538 C23.4234872,30.469328 23.1760909,30.2640824 22.9236063,30.0652129 L20.7444866,30.0652129 C20.4532045,30.2685606 20.2058898,30.477404 20.00254,30.6807538 L20.0025401,30.6807537 C19.8176153,30.8654431 19.6561067,31.0721741 19.5216505,31.2962904 L19.5216504,31.2962904 C19.3837872,31.5044747 19.307579,31.7473898 19.3018152,31.997017 C19.3018152,32.1756332 19.4034888,32.4064603 19.6233245,32.6977436 C19.845908,32.9862774 20.1124598,33.2693146 20.4284696,33.5248758 C20.3432835,33.7886785 20.222374,34.1651453 20.076733,34.6625221 L20.0767316,34.6625268 C19.9249056,35.1768118 19.7883645,35.6954839 19.6672883,36.2178642 C19.5381349,36.7537109 19.4199737,37.2675791 19.3155518,37.7457187 L19.3155519,37.7457181 C19.2325486,38.0964062 19.1846814,38.4544884 19.1726587,38.8146658 C19.1726587,38.9603068 19.2743324,39.1636545 19.4969159,39.4302067 L19.4969164,39.4302073 C19.9892572,39.9919083 20.5559856,40.4837507 21.1814051,40.8921133 C21.4781829,41.0597376 21.7007647,41.1641595 21.8381617,41.1641595 L21.838175,41.1614034 Z" id="two_user"></path>
                            </g>
                        </g>
                    </g>
                </g>
            </g>
        </g>
    </g>
</svg>