<?xml version="1.0" encoding="UTF-8"?>
<svg width="46px" height="45px" viewBox="0 0 46 45" version="1.1" xmlns="http://www.w3.org/2000/svg" xmlns:xlink="http://www.w3.org/1999/xlink">
    <!-- Generator: Sketch 55.2 (78181) - https://sketchapp.com -->
    <title>two_financial</title>
    <desc>Created with Sketch.</desc>
    <g id="页面1" stroke="none" stroke-width="1" fill="none" fill-rule="evenodd">
        <g id="宣传首页" transform="translate(-365.000000, -2060.000000)" fill="#F7BC00" fill-rule="nonzero">
            <g id="01-model备份" transform="translate(0.000000, 1362.000000)">
                <g id="金融" transform="translate(346.000000, 662.000000)">
                    <g id="编组-8" transform="translate(19.000000, 36.000000)">
                        <g id="企业">
                            <g id="金融机构">
                                <path d="M45.0385509,19.2890717 L25.0150594,0.793184489 C23.8755111,-0.26439483 22.1313045,-0.26439483 20.9917562,0.793184489 L0.968264705,19.2890717 C-0.241051856,20.4171563 -0.334076207,22.2972973 0.782216003,23.5428907 C1.3636182,24.1774383 2.17758127,24.506463 2.96828825,24.506463 C3.68922697,24.506463 4.41016569,24.2479436 4.96831179,23.7309048 L22.9685237,7.06815511 L40.9687356,23.7309048 C42.1780521,24.8589894 44.0617952,24.7649824 45.1780875,23.5428907 C46.3408918,22.3207991 46.2478675,20.4171563 45.0385509,19.2890717 Z M23.0150359,9.81786134 L7.15438404,24.4829612 L7.15438404,43.3078731 C7.17764012,44.012926 7.61950579,44.4829612 7.99160319,44.6709753 C8.38695669,44.9059929 8.80556626,45 9.24743193,45 L17.6893918,45 C17.9684648,45 18.270794,44.8824912 18.4800988,44.6709753 C18.6894035,44.4594595 18.805684,44.1774383 18.805684,43.8954172 L18.805684,34.8237368 L27.2243877,34.8237368 L27.2243877,43.8719154 C27.2243877,44.1539365 27.3406682,44.4594595 27.549973,44.6474736 C27.7592778,44.8589894 28.0383508,44.9764982 28.3406799,44.9764982 L36.7826398,44.9764982 C37.2245055,44.9764982 37.643115,44.8824912 38.0384685,44.6474736 C38.4105659,44.4359577 38.8524316,43.9894242 38.8756877,43.2843713 L38.8756877,24.4594595 L23.0150359,9.81786134 Z M28.4569604,19.4065805 C28.3871921,19.5005875 28.2011434,19.7591069 27.8988143,20.1586369 C27.5964851,20.5581669 27.2708999,20.9811986 26.9220586,21.4512338 C26.5732173,21.8977673 26.2476321,22.3443008 25.968559,22.7438308 C25.6894859,23.1433608 25.5266933,23.3783784 25.5034372,23.4488837 C25.4104129,23.613396 25.4569251,23.7074031 25.6197177,23.7544066 C25.8057664,23.7779083 25.968559,23.8014101 26.1546077,23.8014101 L27.8523021,23.8014101 C28.0150947,23.8014101 28.1546312,23.8719154 28.2709117,24.012926 C28.3871921,24.1539365 28.4337043,24.2714454 28.4337043,24.4124559 L28.4337043,25.6110458 C28.4337043,25.8460635 28.2709117,25.9635723 27.9453265,25.9635723 L25.0150594,25.9635723 C24.8755229,25.9635723 24.7592424,25.987074 24.642962,26.0575793 C24.5266816,26.1280846 24.4569133,26.2220917 24.4569133,26.3631022 C24.4569133,26.5041128 24.4569133,26.6451234 24.4801694,26.786134 C24.5034255,26.9271445 24.5034255,27.0681551 24.5034255,27.1621622 C24.5034255,27.373678 24.6662181,27.4206816 24.9918033,27.373678 L27.8755582,27.373678 C28.2011434,27.373678 28.363936,27.5146886 28.363936,27.8202115 L28.363936,28.9247944 C28.363936,29.253819 28.1313752,29.4183314 27.6662534,29.4183314 L27.0150829,29.4183314 C26.759266,29.4183314 26.4801929,29.4183314 26.2011199,29.4418331 C25.9220468,29.4653349 25.6662299,29.4653349 25.433669,29.4653349 L24.9918033,29.4653349 C24.6894742,29.4653349 24.5499376,29.6298472 24.5499376,29.9588719 L24.5499376,31.9800235 C24.5499376,32.1445358 24.4104011,32.2385429 24.1545842,32.2385429 L22.5499141,32.2385429 C22.1080484,32.2385429 21.8987436,32.0505288 21.8987436,31.6745006 C21.8987436,31.53349 21.8987436,31.2514689 21.9219997,30.8284371 C21.9452558,30.3819036 21.9219997,30.0998825 21.8987436,29.9118684 C21.8987436,29.7473561 21.8754876,29.6298472 21.8522315,29.5828437 C21.8289754,29.5358402 21.7126949,29.5123384 21.5499023,29.5123384 L18.549867,29.5123384 C18.1080014,29.5123384 17.8986966,29.3008226 17.8986966,28.8542891 C17.8986966,28.760282 17.8754405,28.6192714 17.8521844,28.4782609 C17.8289283,28.3372503 17.8289283,28.172738 17.8521844,28.0082256 C17.8754405,27.8437133 17.9452087,27.6792009 17.9917209,27.5616921 C18.0614892,27.4206816 18.2010257,27.373678 18.3870744,27.4206816 L21.735951,27.4206816 C21.8057193,27.4206816 21.8289754,27.3266745 21.8289754,27.1621622 L21.8289754,26.1985899 C21.8289754,26.0340776 21.6196706,25.9400705 21.2243171,25.9400705 L18.3405622,25.9400705 C18.2010257,25.9400705 18.0847453,25.9400705 17.9917209,25.9165687 C17.8986966,25.893067 17.8521844,25.7990599 17.8521844,25.6345476 L17.8521844,25.0235018 C17.8521844,24.7649824 17.8289283,24.5534665 17.8056722,24.4124559 C17.7359039,24.2009401 17.7824161,24.0364277 17.9452087,23.9189189 C18.1080014,23.7779083 18.3173061,23.7074031 18.5963792,23.7074031 C18.8521962,23.7309048 19.1545253,23.7544066 19.4801105,23.7309048 C19.8056958,23.7074031 20.0382566,23.7074031 20.2010492,23.7074031 L20.8057075,23.7074031 C21.0150123,23.7074031 21.0615245,23.6368978 21.0150123,23.4958872 C20.9452441,23.4253819 20.7591953,23.1668625 20.410354,22.7438308 C20.0847688,22.2972973 19.7359275,21.8507638 19.3638301,21.3807286 C18.9219644,20.8166863 18.4335866,20.1821387 17.8754405,19.5240893 C17.6428796,19.1480611 17.6893918,18.8425382 18.014977,18.6075206 C18.1777696,18.5135135 18.3638183,18.3725029 18.549867,18.2314924 C18.7359157,18.0904818 18.9452205,17.9259694 19.1777814,17.8084606 C19.5033666,17.5969448 19.8289518,17.7849589 20.131281,18.3725029 C20.2243053,18.5135135 20.410354,18.7485311 20.7126832,19.1010576 C20.9917562,19.453584 21.2940854,19.8296122 21.5964145,20.2291422 C21.8987436,20.6286722 22.1778167,21.0047004 22.4336337,21.3102233 C22.6894506,21.6392479 22.8522432,21.827262 22.8754993,21.8977673 C22.9452676,22.0387779 23.061548,22.1092832 23.2475967,22.1562867 C23.4336454,22.1797885 23.5499259,22.132785 23.6196941,22.0152761 C23.6429502,21.9447709 23.8057428,21.733255 24.0383037,21.3807286 C24.2941207,21.0282021 24.5731937,20.6286722 24.8522668,20.2056404 C25.1545959,19.7591069 25.433669,19.359577 25.6894859,18.960047 C25.9453029,18.5840188 26.1313516,18.3254994 26.1778638,18.2314924 C26.3406564,17.9964747 26.4801929,17.8554642 26.5964734,17.7849589 C26.7127538,17.7144536 26.8988025,17.7379553 27.1778756,17.8319624 C27.3406682,17.9024677 27.5267169,17.9964747 27.7360217,18.1374853 C27.9453265,18.2784959 28.0616069,18.3725029 28.1313752,18.4430082 C28.5267286,18.8190364 28.619753,19.1245593 28.4569604,19.4065805 L28.4569604,19.4065805 Z" id="two_financial"></path>
                            </g>
                        </g>
                    </g>
                </g>
            </g>
        </g>
    </g>
</svg>