<?xml version="1.0" encoding="UTF-8"?>
<svg width="19px" height="23px" viewBox="0 0 19 23" version="1.1" xmlns="http://www.w3.org/2000/svg" xmlns:xlink="http://www.w3.org/1999/xlink">
    <!-- Generator: Sketch 57.1 (83088) - https://sketch.com -->
    <title>形状</title>
    <desc>Created with Sketch.</desc>
    <g id="页面1" stroke="none" stroke-width="1" fill="none" fill-rule="evenodd">
        <g id="1-实名认证-无数据" transform="translate(-30.000000, -257.000000)" fill="#22CA92" fill-rule="nonzero">
            <g id="编组-2" transform="translate(30.000000, 256.000000)">
                <path d="M18.297,4.23994863 C14.5951667,3.83930982 11.8100833,2.8812605 10.0193333,1.39155059 L9.54829167,1 L9.04004167,1.34686687 C6.23358333,3.26372288 3.458,4.23540452 0.791666667,4.23540452 L0,4.23540452 L0,14.838322 C0,18.0888735 2.99566667,21.0372419 9.15879167,23.8523165 L9.48258333,24 L9.81270833,23.8644341 C15.9093333,21.3591162 19,18.3228951 19,14.838322 L19,4.31644111 L18.297,4.23994863 Z M17.4166667,14.838322 C17.4166667,17.602654 14.7598333,20.1246337 9.516625,22.3360993 C4.25204167,19.8800092 1.58333333,17.3580296 1.58333333,14.838322 L1.58333333,5.72587178 C4.172875,5.56531331 6.81783333,4.62089631 9.46279167,2.91079719 C11.3612083,4.29523527 14.0315,5.21844644 17.4166667,5.66149692 L17.4166667,14.838322 Z M5.73404167,11.5408146 C5.54666331,11.3380183 5.2604259,11.2462588 4.98315229,11.3001011 C4.70587869,11.3539434 4.47969336,11.5452076 4.38979812,11.8018463 C4.29990288,12.058485 4.35995497,12.3415087 4.54733333,12.544305 L7.56041667,15.8062169 C7.87233333,16.1432382 8.30695833,16.3166716 8.74554167,16.3166716 C9.22173642,16.316263 9.67276314,16.1120548 9.975,15.7600184 L14.8635417,10.0155092 C15.1396495,9.6911381 15.08861,9.21405578 14.7495417,8.94991605 C14.4104733,8.68577631 13.9117745,8.73460349 13.6356667,9.05897461 L8.747125,14.8027265 L5.73404167,11.5408146 L5.73404167,11.5408146 Z" id="形状"></path>
            </g>
        </g>
    </g>
</svg>