<?xml version="1.0" encoding="UTF-8"?>
<svg width="295px" height="212px" viewBox="0 0 295 212" version="1.1" xmlns="http://www.w3.org/2000/svg" xmlns:xlink="http://www.w3.org/1999/xlink">
    <!-- Generator: Sketch 57.1 (83088) - https://sketch.com -->
    <title>idcard_nation</title>
    <desc>Created with Sketch.</desc>
    <g id="页面1" stroke="none" stroke-width="1" fill="none" fill-rule="evenodd">
        <g id="1-实名认证-无数据" transform="translate(-408.000000, -387.000000)">
            <g id="编组-4" transform="translate(390.000000, 370.000000)">
                <g id="id_nationalEmblem" transform="translate(18.000000, 17.000000)">
                    <g id="idcard_nation">
                        <g id="编组-3" fill="#FE7068" opacity="0.200000003">
                            <path d="M2,0 L16,4.4408921e-16 L16,2.00539084 L2,2.005 L2,16.0431267 L0,16.0431267 L0,0 L2,0 Z" id="形状结合"></path>
                            <path d="M281,-3.8191672e-13 L295,-3.81472631e-13 L295,2.00539084 L281,2.005 L281,16.0431267 L279,16.0431267 L279,-3.8191672e-13 L281,-3.8191672e-13 Z" id="形状结合备份-2" transform="translate(287.000000, 8.021563) scale(-1, 1) translate(-287.000000, -8.021563) "></path>
                            <path d="M2,195.956873 L16,195.956873 L16,197.962264 L2,197.961873 L2,212 L0,212 L0,195.956873 L2,195.956873 Z" id="形状结合备份" transform="translate(8.000000, 203.978437) scale(1, -1) translate(-8.000000, -203.978437) "></path>
                            <path d="M281,195.956873 L295,195.956873 L295,197.962264 L281,197.961873 L281,212 L279,212 L279,195.956873 L281,195.956873 Z" id="形状结合备份-3" transform="translate(287.000000, 203.978437) scale(-1, -1) translate(-287.000000, -203.978437) "></path>
                        </g>
                        <path d="M34.9553073,21 L259.044693,21 C260.663687,21 262,22.323693 262,23.9847979 L262,158.015202 C262,159.650352 260.689385,161 259.044693,161 L34.9553073,161 C33.3363128,161 32,159.676307 32,158.015202 L32,23.9847979 C32,22.3496478 33.3106145,21 34.9553073,21 Z" id="路径" fill="#FBFBFB" fill-rule="nonzero"></path>
                        <path d="M115.789179,136.004113 L115.789179,128.965823 L244.979173,128.965823 L244.979173,136.004113 L115.789179,136.004113 Z M115.789179,114.863463 L244.979173,114.863463 L244.979173,121.901753 L115.789179,121.901753 L115.789179,114.863463 Z M116.021134,75.9704131 L245.211128,75.9704131 L245.211128,82.4704131 L116.021134,82.4704131 L116.021134,75.9704131 Z M198.021134,57.4704131 L244.994626,57.4704131 L244.994626,64.5087026 L198.021134,64.5087026 L198.021134,57.4704131 Z M93.952435,93.1556254 C93.952435,95.321253 92.199308,97.8478184 90.0336805,97.8478184 L60.4883336,97.8478184 C58.3227061,97.8478184 56.569579,95.321253 56.569579,93.1556254 L57.6266115,88.1024946 C52.9344186,83.539208 50.0211339,77.1712318 50.0211339,70.1071611 C50.0211339,56.2368325 61.3133346,44.9704131 75.261007,44.9704131 C89.2086795,44.9704131 100.50088,56.2368325 100.50088,70.1071611 C100.50088,77.1970131 97.5618142,83.5907706 92.8180587,88.1798384 L93.952435,93.1556254 L93.952435,93.1556254 Z M75.261007,88.7728078 C80.1852315,88.7728078 84.6711742,86.8649931 88.0227406,83.7712395 L62.4992734,83.7712395 C65.8508398,86.8649931 70.3367826,88.7728078 75.261007,88.7728078 Z M94.0039976,70.1329424 C94.0039976,59.8462117 85.6250816,51.493077 75.261007,51.493077 C64.8969325,51.493077 56.5437978,59.8204304 56.5437978,70.1329424 C56.5437978,74.4899787 58.039112,78.5118584 60.5656774,81.6829558 L61.0297405,79.5431096 L68.0680299,79.5431096 L68.0680299,77.8931077 L67.4234979,77.8931077 L68.3774053,76.0110742 L69.2539688,76.0110742 L69.6922506,74.3610723 L80.8555448,74.3610723 L81.2938266,76.0110742 L82.1703901,76.0110742 L83.1242974,77.8931077 L82.4797654,77.8931077 L82.4797654,79.5431096 L89.4922736,79.5431096 L89.9563366,81.6829558 C92.4829021,78.5118584 94.0039976,74.4899787 94.0039976,70.1329424 L94.0039976,70.1329424 Z M86.4243013,63.8938726 L84.8774245,62.6048086 L83.1500787,63.6618411 L83.9235171,61.805589 L82.3766403,60.516525 L84.3875802,60.6712126 L85.1610186,58.8149605 L85.6508629,60.7743378 L87.6618027,60.9290254 L85.934457,61.9860579 L86.4243013,63.8938726 L86.4243013,63.8938726 Z M79.6953872,68.0446587 L78.6383547,69.7720045 L78.483667,67.7610646 L76.5242898,67.2970016 L78.3805419,66.5235632 L78.2258542,64.5126234 L79.5406995,66.0337189 L81.3969517,65.2602805 L80.3399192,66.9876262 L81.6547645,68.5087218 L79.6953872,68.0446587 L79.6953872,68.0446587 Z M78.7414798,62.1665269 L75.3383509,59.7173053 L71.9352219,62.1665269 L73.2242859,58.1962098 L69.821157,55.7469882 L74.0235056,55.7469882 L75.3125696,51.776671 L76.6016336,55.7469882 L80.8039822,55.7469882 L77.4008533,58.1962098 L78.7414798,62.1665269 L78.7414798,62.1665269 Z M71.2133461,66.0852814 L72.5281914,64.5384046 L72.3735037,66.5493445 L74.2297558,67.2970016 L72.2703786,67.7868459 L72.1156909,69.7977858 L71.0586584,68.0962213 L69.0992811,68.5860656 L70.4141264,67.0391888 L69.3570939,65.3376243 L71.2133461,66.0852814 L71.2133461,66.0852814 Z M67.5008418,63.558716 L65.773496,62.5274648 L64.2524005,63.8423101 L64.7164635,61.8829328 L62.9891178,60.8516816 L65.0000576,60.6969939 L65.4641206,58.7376166 L66.237559,60.5938688 L68.2484989,60.4391811 L66.7274034,61.7540264 L67.5008418,63.558716 L67.5008418,63.558716 Z M98.180565,121.927534 L51.1812915,121.927534 L51.1812915,114.889244 L98.1547837,114.889244 L98.1547837,121.927534 L98.180565,121.927534 Z M98.180565,136.004113 L51.1812915,136.004113 L51.1812915,128.965823 L98.1547837,128.965823 L98.1547837,136.004113 L98.180565,136.004113 Z" id="形状" fill="#EDEDED" fill-rule="nonzero"></path>
                    </g>
                </g>
            </g>
        </g>
    </g>
</svg>